M48
METRIC,TZ
T1C0.400
T2C0.950
T3C1.000
T4C1.200
T5C3.200
%
G90
G05
T1
X108800Y-78350
X109000Y-77300
X109000Y-108200
X110000Y-85100
X110000Y-95400
X110200Y-90200
X110300Y-100200
X111253Y-85200
X111500Y-95300
X112650Y-104500
X112700Y-90200
X112800Y-99900
X113653Y-85073
X114200Y-95000
X116400Y-94800
X116550Y-89967
X116900Y-84800
X117250Y-103650
X117300Y-98400
X117401Y-108401
X121050Y-83550
X121200Y-84700
X121200Y-100550
X122300Y-97650
X123600Y-106500
X126200Y-103100
X127200Y-101900
X133990Y-71296
X136400Y-100650
X137900Y-82600
X138650Y-81750
X139247Y-98650
X139500Y-80750
X140045Y-90449
X140100Y-79300
X140600Y-77550
X141000Y-103150
X141450Y-101000
X141501Y-99199
X142650Y-87500
X143250Y-94900
X145550Y-94000
X145737Y-102105
X145850Y-81050
X147650Y-86850
X149000Y-93350
X150500Y-82650
X151850Y-79300
X151850Y-101400
X152450Y-76450
X153150Y-91650
X153300Y-87350
X153350Y-90650
X153450Y-82400
X154500Y-103000
X155050Y-103650
X155650Y-99000
X155950Y-103350
X158850Y-109850
X160300Y-80200
X172300Y-91950
X180300Y-81450
X180600Y-93950
X181150Y-105800
T2
X105500Y-80100
X105500Y-82600
X105500Y-85100
X105500Y-87600
X105500Y-90100
X105500Y-92600
X105500Y-95100
X105500Y-97600
X105500Y-100100
X105500Y-102600
X105500Y-105100
X105500Y-107600
X109400Y-115700
X109400Y-118200
X109400Y-120700
X119100Y-115600
X119100Y-118100
X119100Y-120600
X125000Y-80900
X125000Y-87800
X125000Y-94700
X127500Y-80900
X127500Y-87800
X127500Y-94700
X127600Y-115700
X127600Y-118200
X127600Y-120700
X130000Y-80900
X130000Y-87800
X130000Y-94700
X132500Y-80900
X132500Y-87800
X132500Y-94700
X136100Y-115700
X136100Y-118200
X136100Y-120700
X144600Y-115700
X144600Y-118200
X144600Y-120700
X153100Y-115700
X153100Y-118200
X153100Y-120700
X161600Y-115700
X161600Y-118200
X161600Y-120700
X170100Y-115700
X170100Y-118200
X170100Y-120700
T3
X110000Y-72460
X110000Y-75000
X112540Y-72460
X112540Y-75000
X115080Y-72460
X115080Y-75000
X117620Y-72460
X117620Y-75000
X120160Y-72460
X120160Y-75000
X122700Y-72460
X122700Y-75000
X125240Y-72460
X125240Y-75000
X127780Y-72460
X127780Y-75000
X130320Y-72460
X130320Y-75000
X132860Y-72460
X132860Y-75000
X135400Y-72460
X135400Y-75000
X137940Y-72460
X137940Y-75000
X140480Y-72460
X140480Y-75000
X143020Y-72460
X143020Y-75000
X145560Y-72460
X145560Y-75000
X148100Y-72460
X148100Y-75000
X150640Y-72460
X150640Y-75000
X153180Y-72460
X153180Y-75000
X155720Y-72460
X155720Y-75000
X158260Y-72460
X158260Y-75000
X178600Y-113700
X178600Y-116200
T4
X164300Y-74000
X167800Y-74000
X171300Y-74000
X174800Y-74000
X179750Y-85500
X179750Y-89000
X179750Y-98250
X179750Y-101750
T5
X102920Y-73000
X102920Y-123100
X182000Y-73000
X182000Y-123000
T0
M30
