%TF.GenerationSoftware,KiCad,Pcbnew,5.1.9*%
%TF.CreationDate,2021-07-26T21:20:54+02:00*%
%TF.ProjectId,CNCHat,434e4348-6174-42e6-9b69-6361645f7063,rev?*%
%TF.SameCoordinates,Original*%
%TF.FileFunction,Copper,L1,Top*%
%TF.FilePolarity,Positive*%
%FSLAX46Y46*%
G04 Gerber Fmt 4.6, Leading zero omitted, Abs format (unit mm)*
G04 Created by KiCad (PCBNEW 5.1.9) date 2021-07-26 21:20:54*
%MOMM*%
%LPD*%
G01*
G04 APERTURE LIST*
%TA.AperFunction,ComponentPad*%
%ADD10O,1.950000X1.700000*%
%TD*%
%TA.AperFunction,SMDPad,CuDef*%
%ADD11R,2.000000X1.500000*%
%TD*%
%TA.AperFunction,SMDPad,CuDef*%
%ADD12R,2.000000X3.800000*%
%TD*%
%TA.AperFunction,ComponentPad*%
%ADD13O,1.700000X1.700000*%
%TD*%
%TA.AperFunction,ComponentPad*%
%ADD14R,1.700000X1.700000*%
%TD*%
%TA.AperFunction,ComponentPad*%
%ADD15O,1.700000X1.950000*%
%TD*%
%TA.AperFunction,ComponentPad*%
%ADD16O,2.000000X1.700000*%
%TD*%
%TA.AperFunction,SMDPad,CuDef*%
%ADD17R,1.800000X2.500000*%
%TD*%
%TA.AperFunction,ComponentPad*%
%ADD18O,1.800000X3.600000*%
%TD*%
%TA.AperFunction,ComponentPad*%
%ADD19O,3.600000X1.800000*%
%TD*%
%TA.AperFunction,SMDPad,CuDef*%
%ADD20R,4.600000X1.100000*%
%TD*%
%TA.AperFunction,SMDPad,CuDef*%
%ADD21R,9.400000X10.800000*%
%TD*%
%TA.AperFunction,ViaPad*%
%ADD22C,0.800000*%
%TD*%
%TA.AperFunction,Conductor*%
%ADD23C,0.500000*%
%TD*%
%TA.AperFunction,Conductor*%
%ADD24C,2.000000*%
%TD*%
%TA.AperFunction,Conductor*%
%ADD25C,1.000000*%
%TD*%
%TA.AperFunction,Conductor*%
%ADD26C,0.400000*%
%TD*%
%TA.AperFunction,Conductor*%
%ADD27C,0.800000*%
%TD*%
%TA.AperFunction,Conductor*%
%ADD28C,1.500000*%
%TD*%
G04 APERTURE END LIST*
%TO.P,U2,16*%
%TO.N,N/C*%
%TA.AperFunction,SMDPad,CuDef*%
G36*
G01*
X151495000Y-103650000D02*
X151795000Y-103650000D01*
G75*
G02*
X151945000Y-103800000I0J-150000D01*
G01*
X151945000Y-105450000D01*
G75*
G02*
X151795000Y-105600000I-150000J0D01*
G01*
X151495000Y-105600000D01*
G75*
G02*
X151345000Y-105450000I0J150000D01*
G01*
X151345000Y-103800000D01*
G75*
G02*
X151495000Y-103650000I150000J0D01*
G01*
G37*
%TD.AperFunction*%
%TO.P,U2,15*%
%TO.N,Net-(R15-Pad1)*%
%TA.AperFunction,SMDPad,CuDef*%
G36*
G01*
X150225000Y-103650000D02*
X150525000Y-103650000D01*
G75*
G02*
X150675000Y-103800000I0J-150000D01*
G01*
X150675000Y-105450000D01*
G75*
G02*
X150525000Y-105600000I-150000J0D01*
G01*
X150225000Y-105600000D01*
G75*
G02*
X150075000Y-105450000I0J150000D01*
G01*
X150075000Y-103800000D01*
G75*
G02*
X150225000Y-103650000I150000J0D01*
G01*
G37*
%TD.AperFunction*%
%TO.P,U2,14*%
%TO.N,Net-(J7-Pad3)*%
%TA.AperFunction,SMDPad,CuDef*%
G36*
G01*
X148955000Y-103650000D02*
X149255000Y-103650000D01*
G75*
G02*
X149405000Y-103800000I0J-150000D01*
G01*
X149405000Y-105450000D01*
G75*
G02*
X149255000Y-105600000I-150000J0D01*
G01*
X148955000Y-105600000D01*
G75*
G02*
X148805000Y-105450000I0J150000D01*
G01*
X148805000Y-103800000D01*
G75*
G02*
X148955000Y-103650000I150000J0D01*
G01*
G37*
%TD.AperFunction*%
%TO.P,U2,13*%
%TO.N,N/C*%
%TA.AperFunction,SMDPad,CuDef*%
G36*
G01*
X147685000Y-103650000D02*
X147985000Y-103650000D01*
G75*
G02*
X148135000Y-103800000I0J-150000D01*
G01*
X148135000Y-105450000D01*
G75*
G02*
X147985000Y-105600000I-150000J0D01*
G01*
X147685000Y-105600000D01*
G75*
G02*
X147535000Y-105450000I0J150000D01*
G01*
X147535000Y-103800000D01*
G75*
G02*
X147685000Y-103650000I150000J0D01*
G01*
G37*
%TD.AperFunction*%
%TO.P,U2,12*%
%TA.AperFunction,SMDPad,CuDef*%
G36*
G01*
X146415000Y-103650000D02*
X146715000Y-103650000D01*
G75*
G02*
X146865000Y-103800000I0J-150000D01*
G01*
X146865000Y-105450000D01*
G75*
G02*
X146715000Y-105600000I-150000J0D01*
G01*
X146415000Y-105600000D01*
G75*
G02*
X146265000Y-105450000I0J150000D01*
G01*
X146265000Y-103800000D01*
G75*
G02*
X146415000Y-103650000I150000J0D01*
G01*
G37*
%TD.AperFunction*%
%TO.P,U2,11*%
%TO.N,GND*%
%TA.AperFunction,SMDPad,CuDef*%
G36*
G01*
X145145000Y-103650000D02*
X145445000Y-103650000D01*
G75*
G02*
X145595000Y-103800000I0J-150000D01*
G01*
X145595000Y-105450000D01*
G75*
G02*
X145445000Y-105600000I-150000J0D01*
G01*
X145145000Y-105600000D01*
G75*
G02*
X144995000Y-105450000I0J150000D01*
G01*
X144995000Y-103800000D01*
G75*
G02*
X145145000Y-103650000I150000J0D01*
G01*
G37*
%TD.AperFunction*%
%TO.P,U2,10*%
%TO.N,N/C*%
%TA.AperFunction,SMDPad,CuDef*%
G36*
G01*
X143875000Y-103650000D02*
X144175000Y-103650000D01*
G75*
G02*
X144325000Y-103800000I0J-150000D01*
G01*
X144325000Y-105450000D01*
G75*
G02*
X144175000Y-105600000I-150000J0D01*
G01*
X143875000Y-105600000D01*
G75*
G02*
X143725000Y-105450000I0J150000D01*
G01*
X143725000Y-103800000D01*
G75*
G02*
X143875000Y-103650000I150000J0D01*
G01*
G37*
%TD.AperFunction*%
%TO.P,U2,9*%
%TO.N,GND*%
%TA.AperFunction,SMDPad,CuDef*%
G36*
G01*
X142605000Y-103650000D02*
X142905000Y-103650000D01*
G75*
G02*
X143055000Y-103800000I0J-150000D01*
G01*
X143055000Y-105450000D01*
G75*
G02*
X142905000Y-105600000I-150000J0D01*
G01*
X142605000Y-105600000D01*
G75*
G02*
X142455000Y-105450000I0J150000D01*
G01*
X142455000Y-103800000D01*
G75*
G02*
X142605000Y-103650000I150000J0D01*
G01*
G37*
%TD.AperFunction*%
%TO.P,U2,8*%
%TA.AperFunction,SMDPad,CuDef*%
G36*
G01*
X142605000Y-98700000D02*
X142905000Y-98700000D01*
G75*
G02*
X143055000Y-98850000I0J-150000D01*
G01*
X143055000Y-100500000D01*
G75*
G02*
X142905000Y-100650000I-150000J0D01*
G01*
X142605000Y-100650000D01*
G75*
G02*
X142455000Y-100500000I0J150000D01*
G01*
X142455000Y-98850000D01*
G75*
G02*
X142605000Y-98700000I150000J0D01*
G01*
G37*
%TD.AperFunction*%
%TO.P,U2,7*%
%TA.AperFunction,SMDPad,CuDef*%
G36*
G01*
X143875000Y-98700000D02*
X144175000Y-98700000D01*
G75*
G02*
X144325000Y-98850000I0J-150000D01*
G01*
X144325000Y-100500000D01*
G75*
G02*
X144175000Y-100650000I-150000J0D01*
G01*
X143875000Y-100650000D01*
G75*
G02*
X143725000Y-100500000I0J150000D01*
G01*
X143725000Y-98850000D01*
G75*
G02*
X143875000Y-98700000I150000J0D01*
G01*
G37*
%TD.AperFunction*%
%TO.P,U2,6*%
%TO.N,N/C*%
%TA.AperFunction,SMDPad,CuDef*%
G36*
G01*
X145145000Y-98700000D02*
X145445000Y-98700000D01*
G75*
G02*
X145595000Y-98850000I0J-150000D01*
G01*
X145595000Y-100500000D01*
G75*
G02*
X145445000Y-100650000I-150000J0D01*
G01*
X145145000Y-100650000D01*
G75*
G02*
X144995000Y-100500000I0J150000D01*
G01*
X144995000Y-98850000D01*
G75*
G02*
X145145000Y-98700000I150000J0D01*
G01*
G37*
%TD.AperFunction*%
%TO.P,U2,5*%
%TO.N,GND*%
%TA.AperFunction,SMDPad,CuDef*%
G36*
G01*
X146415000Y-98700000D02*
X146715000Y-98700000D01*
G75*
G02*
X146865000Y-98850000I0J-150000D01*
G01*
X146865000Y-100500000D01*
G75*
G02*
X146715000Y-100650000I-150000J0D01*
G01*
X146415000Y-100650000D01*
G75*
G02*
X146265000Y-100500000I0J150000D01*
G01*
X146265000Y-98850000D01*
G75*
G02*
X146415000Y-98700000I150000J0D01*
G01*
G37*
%TD.AperFunction*%
%TO.P,U2,4*%
%TO.N,N/C*%
%TA.AperFunction,SMDPad,CuDef*%
G36*
G01*
X147685000Y-98700000D02*
X147985000Y-98700000D01*
G75*
G02*
X148135000Y-98850000I0J-150000D01*
G01*
X148135000Y-100500000D01*
G75*
G02*
X147985000Y-100650000I-150000J0D01*
G01*
X147685000Y-100650000D01*
G75*
G02*
X147535000Y-100500000I0J150000D01*
G01*
X147535000Y-98850000D01*
G75*
G02*
X147685000Y-98700000I150000J0D01*
G01*
G37*
%TD.AperFunction*%
%TO.P,U2,3*%
%TO.N,Net-(J8-Pad2)*%
%TA.AperFunction,SMDPad,CuDef*%
G36*
G01*
X148955000Y-98700000D02*
X149255000Y-98700000D01*
G75*
G02*
X149405000Y-98850000I0J-150000D01*
G01*
X149405000Y-100500000D01*
G75*
G02*
X149255000Y-100650000I-150000J0D01*
G01*
X148955000Y-100650000D01*
G75*
G02*
X148805000Y-100500000I0J150000D01*
G01*
X148805000Y-98850000D01*
G75*
G02*
X148955000Y-98700000I150000J0D01*
G01*
G37*
%TD.AperFunction*%
%TO.P,U2,2*%
%TO.N,Net-(R16-Pad1)*%
%TA.AperFunction,SMDPad,CuDef*%
G36*
G01*
X150225000Y-98700000D02*
X150525000Y-98700000D01*
G75*
G02*
X150675000Y-98850000I0J-150000D01*
G01*
X150675000Y-100500000D01*
G75*
G02*
X150525000Y-100650000I-150000J0D01*
G01*
X150225000Y-100650000D01*
G75*
G02*
X150075000Y-100500000I0J150000D01*
G01*
X150075000Y-98850000D01*
G75*
G02*
X150225000Y-98700000I150000J0D01*
G01*
G37*
%TD.AperFunction*%
%TO.P,U2,1*%
%TO.N,+3V3*%
%TA.AperFunction,SMDPad,CuDef*%
G36*
G01*
X151495000Y-98700000D02*
X151795000Y-98700000D01*
G75*
G02*
X151945000Y-98850000I0J-150000D01*
G01*
X151945000Y-100500000D01*
G75*
G02*
X151795000Y-100650000I-150000J0D01*
G01*
X151495000Y-100650000D01*
G75*
G02*
X151345000Y-100500000I0J150000D01*
G01*
X151345000Y-98850000D01*
G75*
G02*
X151495000Y-98700000I150000J0D01*
G01*
G37*
%TD.AperFunction*%
%TD*%
%TO.P,C1,1*%
%TO.N,GND*%
%TA.AperFunction,SMDPad,CuDef*%
G36*
G01*
X118550000Y-106650000D02*
X118050000Y-106650000D01*
G75*
G02*
X117825000Y-106425000I0J225000D01*
G01*
X117825000Y-105975000D01*
G75*
G02*
X118050000Y-105750000I225000J0D01*
G01*
X118550000Y-105750000D01*
G75*
G02*
X118775000Y-105975000I0J-225000D01*
G01*
X118775000Y-106425000D01*
G75*
G02*
X118550000Y-106650000I-225000J0D01*
G01*
G37*
%TD.AperFunction*%
%TO.P,C1,2*%
%TO.N,+24V*%
%TA.AperFunction,SMDPad,CuDef*%
G36*
G01*
X118550000Y-105100000D02*
X118050000Y-105100000D01*
G75*
G02*
X117825000Y-104875000I0J225000D01*
G01*
X117825000Y-104425000D01*
G75*
G02*
X118050000Y-104200000I225000J0D01*
G01*
X118550000Y-104200000D01*
G75*
G02*
X118775000Y-104425000I0J-225000D01*
G01*
X118775000Y-104875000D01*
G75*
G02*
X118550000Y-105100000I-225000J0D01*
G01*
G37*
%TD.AperFunction*%
%TD*%
%TO.P,R1,2*%
%TO.N,Net-(J1-Pad3)*%
%TA.AperFunction,SMDPad,CuDef*%
G36*
G01*
X122300000Y-111525000D02*
X122300000Y-112075000D01*
G75*
G02*
X122100000Y-112275000I-200000J0D01*
G01*
X121700000Y-112275000D01*
G75*
G02*
X121500000Y-112075000I0J200000D01*
G01*
X121500000Y-111525000D01*
G75*
G02*
X121700000Y-111325000I200000J0D01*
G01*
X122100000Y-111325000D01*
G75*
G02*
X122300000Y-111525000I0J-200000D01*
G01*
G37*
%TD.AperFunction*%
%TO.P,R1,1*%
%TO.N,Net-(J1-Pad1)*%
%TA.AperFunction,SMDPad,CuDef*%
G36*
G01*
X123950000Y-111525000D02*
X123950000Y-112075000D01*
G75*
G02*
X123750000Y-112275000I-200000J0D01*
G01*
X123350000Y-112275000D01*
G75*
G02*
X123150000Y-112075000I0J200000D01*
G01*
X123150000Y-111525000D01*
G75*
G02*
X123350000Y-111325000I200000J0D01*
G01*
X123750000Y-111325000D01*
G75*
G02*
X123950000Y-111525000I0J-200000D01*
G01*
G37*
%TD.AperFunction*%
%TD*%
%TO.P,R9,2*%
%TO.N,Net-(D1-Pad2)*%
%TA.AperFunction,SMDPad,CuDef*%
G36*
G01*
X122350000Y-109925000D02*
X122350000Y-110475000D01*
G75*
G02*
X122150000Y-110675000I-200000J0D01*
G01*
X121750000Y-110675000D01*
G75*
G02*
X121550000Y-110475000I0J200000D01*
G01*
X121550000Y-109925000D01*
G75*
G02*
X121750000Y-109725000I200000J0D01*
G01*
X122150000Y-109725000D01*
G75*
G02*
X122350000Y-109925000I0J-200000D01*
G01*
G37*
%TD.AperFunction*%
%TO.P,R9,1*%
%TO.N,Net-(R17-Pad1)*%
%TA.AperFunction,SMDPad,CuDef*%
G36*
G01*
X124000000Y-109925000D02*
X124000000Y-110475000D01*
G75*
G02*
X123800000Y-110675000I-200000J0D01*
G01*
X123400000Y-110675000D01*
G75*
G02*
X123200000Y-110475000I0J200000D01*
G01*
X123200000Y-109925000D01*
G75*
G02*
X123400000Y-109725000I200000J0D01*
G01*
X123800000Y-109725000D01*
G75*
G02*
X124000000Y-109925000I0J-200000D01*
G01*
G37*
%TD.AperFunction*%
%TD*%
%TO.P,U6,5*%
%TO.N,+24V*%
%TA.AperFunction,SMDPad,CuDef*%
G36*
G01*
X115562500Y-104800000D02*
X115562500Y-104500000D01*
G75*
G02*
X115712500Y-104350000I150000J0D01*
G01*
X116737500Y-104350000D01*
G75*
G02*
X116887500Y-104500000I0J-150000D01*
G01*
X116887500Y-104800000D01*
G75*
G02*
X116737500Y-104950000I-150000J0D01*
G01*
X115712500Y-104950000D01*
G75*
G02*
X115562500Y-104800000I0J150000D01*
G01*
G37*
%TD.AperFunction*%
%TO.P,U6,4*%
%TO.N,Net-(R36-Pad1)*%
%TA.AperFunction,SMDPad,CuDef*%
G36*
G01*
X115562500Y-106700000D02*
X115562500Y-106400000D01*
G75*
G02*
X115712500Y-106250000I150000J0D01*
G01*
X116737500Y-106250000D01*
G75*
G02*
X116887500Y-106400000I0J-150000D01*
G01*
X116887500Y-106700000D01*
G75*
G02*
X116737500Y-106850000I-150000J0D01*
G01*
X115712500Y-106850000D01*
G75*
G02*
X115562500Y-106700000I0J150000D01*
G01*
G37*
%TD.AperFunction*%
%TO.P,U6,3*%
%TO.N,Net-(C6-Pad1)*%
%TA.AperFunction,SMDPad,CuDef*%
G36*
G01*
X113287500Y-106700000D02*
X113287500Y-106400000D01*
G75*
G02*
X113437500Y-106250000I150000J0D01*
G01*
X114462500Y-106250000D01*
G75*
G02*
X114612500Y-106400000I0J-150000D01*
G01*
X114612500Y-106700000D01*
G75*
G02*
X114462500Y-106850000I-150000J0D01*
G01*
X113437500Y-106850000D01*
G75*
G02*
X113287500Y-106700000I0J150000D01*
G01*
G37*
%TD.AperFunction*%
%TO.P,U6,2*%
%TO.N,GND*%
%TA.AperFunction,SMDPad,CuDef*%
G36*
G01*
X113287500Y-105750000D02*
X113287500Y-105450000D01*
G75*
G02*
X113437500Y-105300000I150000J0D01*
G01*
X114462500Y-105300000D01*
G75*
G02*
X114612500Y-105450000I0J-150000D01*
G01*
X114612500Y-105750000D01*
G75*
G02*
X114462500Y-105900000I-150000J0D01*
G01*
X113437500Y-105900000D01*
G75*
G02*
X113287500Y-105750000I0J150000D01*
G01*
G37*
%TD.AperFunction*%
%TO.P,U6,1*%
%TO.N,Net-(J15-Pad2)*%
%TA.AperFunction,SMDPad,CuDef*%
G36*
G01*
X113287500Y-104800000D02*
X113287500Y-104500000D01*
G75*
G02*
X113437500Y-104350000I150000J0D01*
G01*
X114462500Y-104350000D01*
G75*
G02*
X114612500Y-104500000I0J-150000D01*
G01*
X114612500Y-104800000D01*
G75*
G02*
X114462500Y-104950000I-150000J0D01*
G01*
X113437500Y-104950000D01*
G75*
G02*
X113287500Y-104800000I0J150000D01*
G01*
G37*
%TD.AperFunction*%
%TD*%
%TO.P,R34,2*%
%TO.N,/SPINDLE_PWM*%
%TA.AperFunction,SMDPad,CuDef*%
G36*
G01*
X110600000Y-106325000D02*
X110600000Y-106875000D01*
G75*
G02*
X110400000Y-107075000I-200000J0D01*
G01*
X110000000Y-107075000D01*
G75*
G02*
X109800000Y-106875000I0J200000D01*
G01*
X109800000Y-106325000D01*
G75*
G02*
X110000000Y-106125000I200000J0D01*
G01*
X110400000Y-106125000D01*
G75*
G02*
X110600000Y-106325000I0J-200000D01*
G01*
G37*
%TD.AperFunction*%
%TO.P,R34,1*%
%TO.N,Net-(C6-Pad1)*%
%TA.AperFunction,SMDPad,CuDef*%
G36*
G01*
X112250000Y-106325000D02*
X112250000Y-106875000D01*
G75*
G02*
X112050000Y-107075000I-200000J0D01*
G01*
X111650000Y-107075000D01*
G75*
G02*
X111450000Y-106875000I0J200000D01*
G01*
X111450000Y-106325000D01*
G75*
G02*
X111650000Y-106125000I200000J0D01*
G01*
X112050000Y-106125000D01*
G75*
G02*
X112250000Y-106325000I0J-200000D01*
G01*
G37*
%TD.AperFunction*%
%TD*%
%TO.P,C6,2*%
%TO.N,GND*%
%TA.AperFunction,SMDPad,CuDef*%
G36*
G01*
X111350000Y-104950000D02*
X111350000Y-104450000D01*
G75*
G02*
X111575000Y-104225000I225000J0D01*
G01*
X112025000Y-104225000D01*
G75*
G02*
X112250000Y-104450000I0J-225000D01*
G01*
X112250000Y-104950000D01*
G75*
G02*
X112025000Y-105175000I-225000J0D01*
G01*
X111575000Y-105175000D01*
G75*
G02*
X111350000Y-104950000I0J225000D01*
G01*
G37*
%TD.AperFunction*%
%TO.P,C6,1*%
%TO.N,Net-(C6-Pad1)*%
%TA.AperFunction,SMDPad,CuDef*%
G36*
G01*
X109800000Y-104950000D02*
X109800000Y-104450000D01*
G75*
G02*
X110025000Y-104225000I225000J0D01*
G01*
X110475000Y-104225000D01*
G75*
G02*
X110700000Y-104450000I0J-225000D01*
G01*
X110700000Y-104950000D01*
G75*
G02*
X110475000Y-105175000I-225000J0D01*
G01*
X110025000Y-105175000D01*
G75*
G02*
X109800000Y-104950000I0J225000D01*
G01*
G37*
%TD.AperFunction*%
%TD*%
D10*
%TO.P,J5,3*%
%TO.N,Net-(J5-Pad3)*%
X153100000Y-115700000D03*
%TO.P,J5,2*%
%TO.N,GND*%
X153100000Y-118200000D03*
%TO.P,J5,1*%
%TO.N,Net-(J1-Pad1)*%
%TA.AperFunction,ComponentPad*%
G36*
G01*
X153825000Y-121550000D02*
X152375000Y-121550000D01*
G75*
G02*
X152125000Y-121300000I0J250000D01*
G01*
X152125000Y-120100000D01*
G75*
G02*
X152375000Y-119850000I250000J0D01*
G01*
X153825000Y-119850000D01*
G75*
G02*
X154075000Y-120100000I0J-250000D01*
G01*
X154075000Y-121300000D01*
G75*
G02*
X153825000Y-121550000I-250000J0D01*
G01*
G37*
%TD.AperFunction*%
%TD*%
D11*
%TO.P,U4,1*%
%TO.N,GND*%
X145200000Y-87600000D03*
%TO.P,U4,3*%
%TO.N,+5V*%
X145200000Y-83000000D03*
%TO.P,U4,2*%
%TO.N,+3V3*%
X145200000Y-85300000D03*
D12*
X138900000Y-85300000D03*
%TD*%
%TO.P,U3,16*%
%TO.N,N/C*%
%TA.AperFunction,SMDPad,CuDef*%
G36*
G01*
X147095000Y-96200000D02*
X147395000Y-96200000D01*
G75*
G02*
X147545000Y-96350000I0J-150000D01*
G01*
X147545000Y-98000000D01*
G75*
G02*
X147395000Y-98150000I-150000J0D01*
G01*
X147095000Y-98150000D01*
G75*
G02*
X146945000Y-98000000I0J150000D01*
G01*
X146945000Y-96350000D01*
G75*
G02*
X147095000Y-96200000I150000J0D01*
G01*
G37*
%TD.AperFunction*%
%TO.P,U3,15*%
%TO.N,Net-(R28-Pad2)*%
%TA.AperFunction,SMDPad,CuDef*%
G36*
G01*
X145825000Y-96200000D02*
X146125000Y-96200000D01*
G75*
G02*
X146275000Y-96350000I0J-150000D01*
G01*
X146275000Y-98000000D01*
G75*
G02*
X146125000Y-98150000I-150000J0D01*
G01*
X145825000Y-98150000D01*
G75*
G02*
X145675000Y-98000000I0J150000D01*
G01*
X145675000Y-96350000D01*
G75*
G02*
X145825000Y-96200000I150000J0D01*
G01*
G37*
%TD.AperFunction*%
%TO.P,U3,14*%
%TO.N,Net-(J12-Pad2)*%
%TA.AperFunction,SMDPad,CuDef*%
G36*
G01*
X144555000Y-96200000D02*
X144855000Y-96200000D01*
G75*
G02*
X145005000Y-96350000I0J-150000D01*
G01*
X145005000Y-98000000D01*
G75*
G02*
X144855000Y-98150000I-150000J0D01*
G01*
X144555000Y-98150000D01*
G75*
G02*
X144405000Y-98000000I0J150000D01*
G01*
X144405000Y-96350000D01*
G75*
G02*
X144555000Y-96200000I150000J0D01*
G01*
G37*
%TD.AperFunction*%
%TO.P,U3,13*%
%TO.N,N/C*%
%TA.AperFunction,SMDPad,CuDef*%
G36*
G01*
X143285000Y-96200000D02*
X143585000Y-96200000D01*
G75*
G02*
X143735000Y-96350000I0J-150000D01*
G01*
X143735000Y-98000000D01*
G75*
G02*
X143585000Y-98150000I-150000J0D01*
G01*
X143285000Y-98150000D01*
G75*
G02*
X143135000Y-98000000I0J150000D01*
G01*
X143135000Y-96350000D01*
G75*
G02*
X143285000Y-96200000I150000J0D01*
G01*
G37*
%TD.AperFunction*%
%TO.P,U3,12*%
%TO.N,Net-(R26-Pad1)*%
%TA.AperFunction,SMDPad,CuDef*%
G36*
G01*
X142015000Y-96200000D02*
X142315000Y-96200000D01*
G75*
G02*
X142465000Y-96350000I0J-150000D01*
G01*
X142465000Y-98000000D01*
G75*
G02*
X142315000Y-98150000I-150000J0D01*
G01*
X142015000Y-98150000D01*
G75*
G02*
X141865000Y-98000000I0J150000D01*
G01*
X141865000Y-96350000D01*
G75*
G02*
X142015000Y-96200000I150000J0D01*
G01*
G37*
%TD.AperFunction*%
%TO.P,U3,11*%
%TO.N,Net-(J11-Pad2)*%
%TA.AperFunction,SMDPad,CuDef*%
G36*
G01*
X140745000Y-96200000D02*
X141045000Y-96200000D01*
G75*
G02*
X141195000Y-96350000I0J-150000D01*
G01*
X141195000Y-98000000D01*
G75*
G02*
X141045000Y-98150000I-150000J0D01*
G01*
X140745000Y-98150000D01*
G75*
G02*
X140595000Y-98000000I0J150000D01*
G01*
X140595000Y-96350000D01*
G75*
G02*
X140745000Y-96200000I150000J0D01*
G01*
G37*
%TD.AperFunction*%
%TO.P,U3,10*%
%TO.N,Net-(R25-Pad1)*%
%TA.AperFunction,SMDPad,CuDef*%
G36*
G01*
X139475000Y-96200000D02*
X139775000Y-96200000D01*
G75*
G02*
X139925000Y-96350000I0J-150000D01*
G01*
X139925000Y-98000000D01*
G75*
G02*
X139775000Y-98150000I-150000J0D01*
G01*
X139475000Y-98150000D01*
G75*
G02*
X139325000Y-98000000I0J150000D01*
G01*
X139325000Y-96350000D01*
G75*
G02*
X139475000Y-96200000I150000J0D01*
G01*
G37*
%TD.AperFunction*%
%TO.P,U3,9*%
%TO.N,Net-(J11-Pad3)*%
%TA.AperFunction,SMDPad,CuDef*%
G36*
G01*
X138205000Y-96200000D02*
X138505000Y-96200000D01*
G75*
G02*
X138655000Y-96350000I0J-150000D01*
G01*
X138655000Y-98000000D01*
G75*
G02*
X138505000Y-98150000I-150000J0D01*
G01*
X138205000Y-98150000D01*
G75*
G02*
X138055000Y-98000000I0J150000D01*
G01*
X138055000Y-96350000D01*
G75*
G02*
X138205000Y-96200000I150000J0D01*
G01*
G37*
%TD.AperFunction*%
%TO.P,U3,8*%
%TO.N,GND*%
%TA.AperFunction,SMDPad,CuDef*%
G36*
G01*
X138205000Y-91250000D02*
X138505000Y-91250000D01*
G75*
G02*
X138655000Y-91400000I0J-150000D01*
G01*
X138655000Y-93050000D01*
G75*
G02*
X138505000Y-93200000I-150000J0D01*
G01*
X138205000Y-93200000D01*
G75*
G02*
X138055000Y-93050000I0J150000D01*
G01*
X138055000Y-91400000D01*
G75*
G02*
X138205000Y-91250000I150000J0D01*
G01*
G37*
%TD.AperFunction*%
%TO.P,U3,7*%
%TO.N,Net-(J13-Pad3)*%
%TA.AperFunction,SMDPad,CuDef*%
G36*
G01*
X139475000Y-91250000D02*
X139775000Y-91250000D01*
G75*
G02*
X139925000Y-91400000I0J-150000D01*
G01*
X139925000Y-93050000D01*
G75*
G02*
X139775000Y-93200000I-150000J0D01*
G01*
X139475000Y-93200000D01*
G75*
G02*
X139325000Y-93050000I0J150000D01*
G01*
X139325000Y-91400000D01*
G75*
G02*
X139475000Y-91250000I150000J0D01*
G01*
G37*
%TD.AperFunction*%
%TO.P,U3,6*%
%TO.N,Net-(R29-Pad2)*%
%TA.AperFunction,SMDPad,CuDef*%
G36*
G01*
X140745000Y-91250000D02*
X141045000Y-91250000D01*
G75*
G02*
X141195000Y-91400000I0J-150000D01*
G01*
X141195000Y-93050000D01*
G75*
G02*
X141045000Y-93200000I-150000J0D01*
G01*
X140745000Y-93200000D01*
G75*
G02*
X140595000Y-93050000I0J150000D01*
G01*
X140595000Y-91400000D01*
G75*
G02*
X140745000Y-91250000I150000J0D01*
G01*
G37*
%TD.AperFunction*%
%TO.P,U3,5*%
%TO.N,Net-(J13-Pad2)*%
%TA.AperFunction,SMDPad,CuDef*%
G36*
G01*
X142015000Y-91250000D02*
X142315000Y-91250000D01*
G75*
G02*
X142465000Y-91400000I0J-150000D01*
G01*
X142465000Y-93050000D01*
G75*
G02*
X142315000Y-93200000I-150000J0D01*
G01*
X142015000Y-93200000D01*
G75*
G02*
X141865000Y-93050000I0J150000D01*
G01*
X141865000Y-91400000D01*
G75*
G02*
X142015000Y-91250000I150000J0D01*
G01*
G37*
%TD.AperFunction*%
%TO.P,U3,4*%
%TO.N,Net-(R30-Pad2)*%
%TA.AperFunction,SMDPad,CuDef*%
G36*
G01*
X143285000Y-91250000D02*
X143585000Y-91250000D01*
G75*
G02*
X143735000Y-91400000I0J-150000D01*
G01*
X143735000Y-93050000D01*
G75*
G02*
X143585000Y-93200000I-150000J0D01*
G01*
X143285000Y-93200000D01*
G75*
G02*
X143135000Y-93050000I0J150000D01*
G01*
X143135000Y-91400000D01*
G75*
G02*
X143285000Y-91250000I150000J0D01*
G01*
G37*
%TD.AperFunction*%
%TO.P,U3,3*%
%TO.N,Net-(J12-Pad3)*%
%TA.AperFunction,SMDPad,CuDef*%
G36*
G01*
X144555000Y-91250000D02*
X144855000Y-91250000D01*
G75*
G02*
X145005000Y-91400000I0J-150000D01*
G01*
X145005000Y-93050000D01*
G75*
G02*
X144855000Y-93200000I-150000J0D01*
G01*
X144555000Y-93200000D01*
G75*
G02*
X144405000Y-93050000I0J150000D01*
G01*
X144405000Y-91400000D01*
G75*
G02*
X144555000Y-91250000I150000J0D01*
G01*
G37*
%TD.AperFunction*%
%TO.P,U3,2*%
%TO.N,Net-(R27-Pad2)*%
%TA.AperFunction,SMDPad,CuDef*%
G36*
G01*
X145825000Y-91250000D02*
X146125000Y-91250000D01*
G75*
G02*
X146275000Y-91400000I0J-150000D01*
G01*
X146275000Y-93050000D01*
G75*
G02*
X146125000Y-93200000I-150000J0D01*
G01*
X145825000Y-93200000D01*
G75*
G02*
X145675000Y-93050000I0J150000D01*
G01*
X145675000Y-91400000D01*
G75*
G02*
X145825000Y-91250000I150000J0D01*
G01*
G37*
%TD.AperFunction*%
%TO.P,U3,1*%
%TO.N,+3V3*%
%TA.AperFunction,SMDPad,CuDef*%
G36*
G01*
X147095000Y-91250000D02*
X147395000Y-91250000D01*
G75*
G02*
X147545000Y-91400000I0J-150000D01*
G01*
X147545000Y-93050000D01*
G75*
G02*
X147395000Y-93200000I-150000J0D01*
G01*
X147095000Y-93200000D01*
G75*
G02*
X146945000Y-93050000I0J150000D01*
G01*
X146945000Y-91400000D01*
G75*
G02*
X147095000Y-91250000I150000J0D01*
G01*
G37*
%TD.AperFunction*%
%TD*%
%TO.P,U1,16*%
%TO.N,N/C*%
%TA.AperFunction,SMDPad,CuDef*%
G36*
G01*
X131130000Y-103825000D02*
X131430000Y-103825000D01*
G75*
G02*
X131580000Y-103975000I0J-150000D01*
G01*
X131580000Y-105625000D01*
G75*
G02*
X131430000Y-105775000I-150000J0D01*
G01*
X131130000Y-105775000D01*
G75*
G02*
X130980000Y-105625000I0J150000D01*
G01*
X130980000Y-103975000D01*
G75*
G02*
X131130000Y-103825000I150000J0D01*
G01*
G37*
%TD.AperFunction*%
%TO.P,U1,15*%
%TO.N,Net-(R13-Pad1)*%
%TA.AperFunction,SMDPad,CuDef*%
G36*
G01*
X129860000Y-103825000D02*
X130160000Y-103825000D01*
G75*
G02*
X130310000Y-103975000I0J-150000D01*
G01*
X130310000Y-105625000D01*
G75*
G02*
X130160000Y-105775000I-150000J0D01*
G01*
X129860000Y-105775000D01*
G75*
G02*
X129710000Y-105625000I0J150000D01*
G01*
X129710000Y-103975000D01*
G75*
G02*
X129860000Y-103825000I150000J0D01*
G01*
G37*
%TD.AperFunction*%
%TO.P,U1,14*%
%TO.N,Net-(J5-Pad3)*%
%TA.AperFunction,SMDPad,CuDef*%
G36*
G01*
X128590000Y-103825000D02*
X128890000Y-103825000D01*
G75*
G02*
X129040000Y-103975000I0J-150000D01*
G01*
X129040000Y-105625000D01*
G75*
G02*
X128890000Y-105775000I-150000J0D01*
G01*
X128590000Y-105775000D01*
G75*
G02*
X128440000Y-105625000I0J150000D01*
G01*
X128440000Y-103975000D01*
G75*
G02*
X128590000Y-103825000I150000J0D01*
G01*
G37*
%TD.AperFunction*%
%TO.P,U1,13*%
%TO.N,N/C*%
%TA.AperFunction,SMDPad,CuDef*%
G36*
G01*
X127320000Y-103825000D02*
X127620000Y-103825000D01*
G75*
G02*
X127770000Y-103975000I0J-150000D01*
G01*
X127770000Y-105625000D01*
G75*
G02*
X127620000Y-105775000I-150000J0D01*
G01*
X127320000Y-105775000D01*
G75*
G02*
X127170000Y-105625000I0J150000D01*
G01*
X127170000Y-103975000D01*
G75*
G02*
X127320000Y-103825000I150000J0D01*
G01*
G37*
%TD.AperFunction*%
%TO.P,U1,12*%
%TO.N,Net-(R12-Pad1)*%
%TA.AperFunction,SMDPad,CuDef*%
G36*
G01*
X126050000Y-103825000D02*
X126350000Y-103825000D01*
G75*
G02*
X126500000Y-103975000I0J-150000D01*
G01*
X126500000Y-105625000D01*
G75*
G02*
X126350000Y-105775000I-150000J0D01*
G01*
X126050000Y-105775000D01*
G75*
G02*
X125900000Y-105625000I0J150000D01*
G01*
X125900000Y-103975000D01*
G75*
G02*
X126050000Y-103825000I150000J0D01*
G01*
G37*
%TD.AperFunction*%
%TO.P,U1,11*%
%TO.N,Net-(J4-Pad3)*%
%TA.AperFunction,SMDPad,CuDef*%
G36*
G01*
X124780000Y-103825000D02*
X125080000Y-103825000D01*
G75*
G02*
X125230000Y-103975000I0J-150000D01*
G01*
X125230000Y-105625000D01*
G75*
G02*
X125080000Y-105775000I-150000J0D01*
G01*
X124780000Y-105775000D01*
G75*
G02*
X124630000Y-105625000I0J150000D01*
G01*
X124630000Y-103975000D01*
G75*
G02*
X124780000Y-103825000I150000J0D01*
G01*
G37*
%TD.AperFunction*%
%TO.P,U1,10*%
%TO.N,Net-(R11-Pad1)*%
%TA.AperFunction,SMDPad,CuDef*%
G36*
G01*
X123510000Y-103825000D02*
X123810000Y-103825000D01*
G75*
G02*
X123960000Y-103975000I0J-150000D01*
G01*
X123960000Y-105625000D01*
G75*
G02*
X123810000Y-105775000I-150000J0D01*
G01*
X123510000Y-105775000D01*
G75*
G02*
X123360000Y-105625000I0J150000D01*
G01*
X123360000Y-103975000D01*
G75*
G02*
X123510000Y-103825000I150000J0D01*
G01*
G37*
%TD.AperFunction*%
%TO.P,U1,9*%
%TO.N,Net-(J3-Pad3)*%
%TA.AperFunction,SMDPad,CuDef*%
G36*
G01*
X122240000Y-103825000D02*
X122540000Y-103825000D01*
G75*
G02*
X122690000Y-103975000I0J-150000D01*
G01*
X122690000Y-105625000D01*
G75*
G02*
X122540000Y-105775000I-150000J0D01*
G01*
X122240000Y-105775000D01*
G75*
G02*
X122090000Y-105625000I0J150000D01*
G01*
X122090000Y-103975000D01*
G75*
G02*
X122240000Y-103825000I150000J0D01*
G01*
G37*
%TD.AperFunction*%
%TO.P,U1,8*%
%TO.N,GND*%
%TA.AperFunction,SMDPad,CuDef*%
G36*
G01*
X122240000Y-98875000D02*
X122540000Y-98875000D01*
G75*
G02*
X122690000Y-99025000I0J-150000D01*
G01*
X122690000Y-100675000D01*
G75*
G02*
X122540000Y-100825000I-150000J0D01*
G01*
X122240000Y-100825000D01*
G75*
G02*
X122090000Y-100675000I0J150000D01*
G01*
X122090000Y-99025000D01*
G75*
G02*
X122240000Y-98875000I150000J0D01*
G01*
G37*
%TD.AperFunction*%
%TO.P,U1,7*%
%TO.N,Net-(J1-Pad3)*%
%TA.AperFunction,SMDPad,CuDef*%
G36*
G01*
X123510000Y-98875000D02*
X123810000Y-98875000D01*
G75*
G02*
X123960000Y-99025000I0J-150000D01*
G01*
X123960000Y-100675000D01*
G75*
G02*
X123810000Y-100825000I-150000J0D01*
G01*
X123510000Y-100825000D01*
G75*
G02*
X123360000Y-100675000I0J150000D01*
G01*
X123360000Y-99025000D01*
G75*
G02*
X123510000Y-98875000I150000J0D01*
G01*
G37*
%TD.AperFunction*%
%TO.P,U1,6*%
%TO.N,Net-(R17-Pad1)*%
%TA.AperFunction,SMDPad,CuDef*%
G36*
G01*
X124780000Y-98875000D02*
X125080000Y-98875000D01*
G75*
G02*
X125230000Y-99025000I0J-150000D01*
G01*
X125230000Y-100675000D01*
G75*
G02*
X125080000Y-100825000I-150000J0D01*
G01*
X124780000Y-100825000D01*
G75*
G02*
X124630000Y-100675000I0J150000D01*
G01*
X124630000Y-99025000D01*
G75*
G02*
X124780000Y-98875000I150000J0D01*
G01*
G37*
%TD.AperFunction*%
%TO.P,U1,5*%
%TO.N,Net-(J2-Pad3)*%
%TA.AperFunction,SMDPad,CuDef*%
G36*
G01*
X126050000Y-98875000D02*
X126350000Y-98875000D01*
G75*
G02*
X126500000Y-99025000I0J-150000D01*
G01*
X126500000Y-100675000D01*
G75*
G02*
X126350000Y-100825000I-150000J0D01*
G01*
X126050000Y-100825000D01*
G75*
G02*
X125900000Y-100675000I0J150000D01*
G01*
X125900000Y-99025000D01*
G75*
G02*
X126050000Y-98875000I150000J0D01*
G01*
G37*
%TD.AperFunction*%
%TO.P,U1,4*%
%TO.N,Net-(R10-Pad1)*%
%TA.AperFunction,SMDPad,CuDef*%
G36*
G01*
X127320000Y-98875000D02*
X127620000Y-98875000D01*
G75*
G02*
X127770000Y-99025000I0J-150000D01*
G01*
X127770000Y-100675000D01*
G75*
G02*
X127620000Y-100825000I-150000J0D01*
G01*
X127320000Y-100825000D01*
G75*
G02*
X127170000Y-100675000I0J150000D01*
G01*
X127170000Y-99025000D01*
G75*
G02*
X127320000Y-98875000I150000J0D01*
G01*
G37*
%TD.AperFunction*%
%TO.P,U1,3*%
%TO.N,Net-(J6-Pad3)*%
%TA.AperFunction,SMDPad,CuDef*%
G36*
G01*
X128590000Y-98875000D02*
X128890000Y-98875000D01*
G75*
G02*
X129040000Y-99025000I0J-150000D01*
G01*
X129040000Y-100675000D01*
G75*
G02*
X128890000Y-100825000I-150000J0D01*
G01*
X128590000Y-100825000D01*
G75*
G02*
X128440000Y-100675000I0J150000D01*
G01*
X128440000Y-99025000D01*
G75*
G02*
X128590000Y-98875000I150000J0D01*
G01*
G37*
%TD.AperFunction*%
%TO.P,U1,2*%
%TO.N,Net-(R14-Pad1)*%
%TA.AperFunction,SMDPad,CuDef*%
G36*
G01*
X129860000Y-98875000D02*
X130160000Y-98875000D01*
G75*
G02*
X130310000Y-99025000I0J-150000D01*
G01*
X130310000Y-100675000D01*
G75*
G02*
X130160000Y-100825000I-150000J0D01*
G01*
X129860000Y-100825000D01*
G75*
G02*
X129710000Y-100675000I0J150000D01*
G01*
X129710000Y-99025000D01*
G75*
G02*
X129860000Y-98875000I150000J0D01*
G01*
G37*
%TD.AperFunction*%
%TO.P,U1,1*%
%TO.N,+3V3*%
%TA.AperFunction,SMDPad,CuDef*%
G36*
G01*
X131130000Y-98875000D02*
X131430000Y-98875000D01*
G75*
G02*
X131580000Y-99025000I0J-150000D01*
G01*
X131580000Y-100675000D01*
G75*
G02*
X131430000Y-100825000I-150000J0D01*
G01*
X131130000Y-100825000D01*
G75*
G02*
X130980000Y-100675000I0J150000D01*
G01*
X130980000Y-99025000D01*
G75*
G02*
X131130000Y-98875000I150000J0D01*
G01*
G37*
%TD.AperFunction*%
%TD*%
%TO.P,R43,2*%
%TO.N,/COOLING*%
%TA.AperFunction,SMDPad,CuDef*%
G36*
G01*
X152200000Y-96925000D02*
X152200000Y-97475000D01*
G75*
G02*
X152000000Y-97675000I-200000J0D01*
G01*
X151600000Y-97675000D01*
G75*
G02*
X151400000Y-97475000I0J200000D01*
G01*
X151400000Y-96925000D01*
G75*
G02*
X151600000Y-96725000I200000J0D01*
G01*
X152000000Y-96725000D01*
G75*
G02*
X152200000Y-96925000I0J-200000D01*
G01*
G37*
%TD.AperFunction*%
%TO.P,R43,1*%
%TO.N,Net-(Q2-Pad1)*%
%TA.AperFunction,SMDPad,CuDef*%
G36*
G01*
X153850000Y-96925000D02*
X153850000Y-97475000D01*
G75*
G02*
X153650000Y-97675000I-200000J0D01*
G01*
X153250000Y-97675000D01*
G75*
G02*
X153050000Y-97475000I0J200000D01*
G01*
X153050000Y-96925000D01*
G75*
G02*
X153250000Y-96725000I200000J0D01*
G01*
X153650000Y-96725000D01*
G75*
G02*
X153850000Y-96925000I0J-200000D01*
G01*
G37*
%TD.AperFunction*%
%TD*%
%TO.P,R42,2*%
%TO.N,/ESTOP_OUT*%
%TA.AperFunction,SMDPad,CuDef*%
G36*
G01*
X157850000Y-82125000D02*
X157850000Y-82675000D01*
G75*
G02*
X157650000Y-82875000I-200000J0D01*
G01*
X157250000Y-82875000D01*
G75*
G02*
X157050000Y-82675000I0J200000D01*
G01*
X157050000Y-82125000D01*
G75*
G02*
X157250000Y-81925000I200000J0D01*
G01*
X157650000Y-81925000D01*
G75*
G02*
X157850000Y-82125000I0J-200000D01*
G01*
G37*
%TD.AperFunction*%
%TO.P,R42,1*%
%TO.N,Net-(Q1-Pad1)*%
%TA.AperFunction,SMDPad,CuDef*%
G36*
G01*
X159500000Y-82125000D02*
X159500000Y-82675000D01*
G75*
G02*
X159300000Y-82875000I-200000J0D01*
G01*
X158900000Y-82875000D01*
G75*
G02*
X158700000Y-82675000I0J200000D01*
G01*
X158700000Y-82125000D01*
G75*
G02*
X158900000Y-81925000I200000J0D01*
G01*
X159300000Y-81925000D01*
G75*
G02*
X159500000Y-82125000I0J-200000D01*
G01*
G37*
%TD.AperFunction*%
%TD*%
%TO.P,R41,2*%
%TO.N,GND*%
%TA.AperFunction,SMDPad,CuDef*%
G36*
G01*
X153025000Y-95625000D02*
X153025000Y-95075000D01*
G75*
G02*
X153225000Y-94875000I200000J0D01*
G01*
X153625000Y-94875000D01*
G75*
G02*
X153825000Y-95075000I0J-200000D01*
G01*
X153825000Y-95625000D01*
G75*
G02*
X153625000Y-95825000I-200000J0D01*
G01*
X153225000Y-95825000D01*
G75*
G02*
X153025000Y-95625000I0J200000D01*
G01*
G37*
%TD.AperFunction*%
%TO.P,R41,1*%
%TO.N,/COOLING*%
%TA.AperFunction,SMDPad,CuDef*%
G36*
G01*
X151375000Y-95625000D02*
X151375000Y-95075000D01*
G75*
G02*
X151575000Y-94875000I200000J0D01*
G01*
X151975000Y-94875000D01*
G75*
G02*
X152175000Y-95075000I0J-200000D01*
G01*
X152175000Y-95625000D01*
G75*
G02*
X151975000Y-95825000I-200000J0D01*
G01*
X151575000Y-95825000D01*
G75*
G02*
X151375000Y-95625000I0J200000D01*
G01*
G37*
%TD.AperFunction*%
%TD*%
%TO.P,R37,2*%
%TO.N,Net-(R36-Pad1)*%
%TA.AperFunction,SMDPad,CuDef*%
G36*
G01*
X114200000Y-108225000D02*
X114200000Y-108775000D01*
G75*
G02*
X114000000Y-108975000I-200000J0D01*
G01*
X113600000Y-108975000D01*
G75*
G02*
X113400000Y-108775000I0J200000D01*
G01*
X113400000Y-108225000D01*
G75*
G02*
X113600000Y-108025000I200000J0D01*
G01*
X114000000Y-108025000D01*
G75*
G02*
X114200000Y-108225000I0J-200000D01*
G01*
G37*
%TD.AperFunction*%
%TO.P,R37,1*%
%TO.N,Net-(J15-Pad2)*%
%TA.AperFunction,SMDPad,CuDef*%
G36*
G01*
X115850000Y-108225000D02*
X115850000Y-108775000D01*
G75*
G02*
X115650000Y-108975000I-200000J0D01*
G01*
X115250000Y-108975000D01*
G75*
G02*
X115050000Y-108775000I0J200000D01*
G01*
X115050000Y-108225000D01*
G75*
G02*
X115250000Y-108025000I200000J0D01*
G01*
X115650000Y-108025000D01*
G75*
G02*
X115850000Y-108225000I0J-200000D01*
G01*
G37*
%TD.AperFunction*%
%TD*%
%TO.P,R36,2*%
%TO.N,GND*%
%TA.AperFunction,SMDPad,CuDef*%
G36*
G01*
X110600000Y-108225000D02*
X110600000Y-108775000D01*
G75*
G02*
X110400000Y-108975000I-200000J0D01*
G01*
X110000000Y-108975000D01*
G75*
G02*
X109800000Y-108775000I0J200000D01*
G01*
X109800000Y-108225000D01*
G75*
G02*
X110000000Y-108025000I200000J0D01*
G01*
X110400000Y-108025000D01*
G75*
G02*
X110600000Y-108225000I0J-200000D01*
G01*
G37*
%TD.AperFunction*%
%TO.P,R36,1*%
%TO.N,Net-(R36-Pad1)*%
%TA.AperFunction,SMDPad,CuDef*%
G36*
G01*
X112250000Y-108225000D02*
X112250000Y-108775000D01*
G75*
G02*
X112050000Y-108975000I-200000J0D01*
G01*
X111650000Y-108975000D01*
G75*
G02*
X111450000Y-108775000I0J200000D01*
G01*
X111450000Y-108225000D01*
G75*
G02*
X111650000Y-108025000I200000J0D01*
G01*
X112050000Y-108025000D01*
G75*
G02*
X112250000Y-108225000I0J-200000D01*
G01*
G37*
%TD.AperFunction*%
%TD*%
%TO.P,R35,2*%
%TO.N,Net-(D13-Pad2)*%
%TA.AperFunction,SMDPad,CuDef*%
G36*
G01*
X149950000Y-91475000D02*
X149950000Y-90925000D01*
G75*
G02*
X150150000Y-90725000I200000J0D01*
G01*
X150550000Y-90725000D01*
G75*
G02*
X150750000Y-90925000I0J-200000D01*
G01*
X150750000Y-91475000D01*
G75*
G02*
X150550000Y-91675000I-200000J0D01*
G01*
X150150000Y-91675000D01*
G75*
G02*
X149950000Y-91475000I0J200000D01*
G01*
G37*
%TD.AperFunction*%
%TO.P,R35,1*%
%TO.N,+3V3*%
%TA.AperFunction,SMDPad,CuDef*%
G36*
G01*
X148300000Y-91475000D02*
X148300000Y-90925000D01*
G75*
G02*
X148500000Y-90725000I200000J0D01*
G01*
X148900000Y-90725000D01*
G75*
G02*
X149100000Y-90925000I0J-200000D01*
G01*
X149100000Y-91475000D01*
G75*
G02*
X148900000Y-91675000I-200000J0D01*
G01*
X148500000Y-91675000D01*
G75*
G02*
X148300000Y-91475000I0J200000D01*
G01*
G37*
%TD.AperFunction*%
%TD*%
%TO.P,R33,1*%
%TO.N,+5V*%
%TA.AperFunction,SMDPad,CuDef*%
G36*
G01*
X149800000Y-88075000D02*
X149800000Y-88625000D01*
G75*
G02*
X149600000Y-88825000I-200000J0D01*
G01*
X149200000Y-88825000D01*
G75*
G02*
X149000000Y-88625000I0J200000D01*
G01*
X149000000Y-88075000D01*
G75*
G02*
X149200000Y-87875000I200000J0D01*
G01*
X149600000Y-87875000D01*
G75*
G02*
X149800000Y-88075000I0J-200000D01*
G01*
G37*
%TD.AperFunction*%
%TO.P,R33,2*%
%TO.N,Net-(D12-Pad2)*%
%TA.AperFunction,SMDPad,CuDef*%
G36*
G01*
X148150000Y-88075000D02*
X148150000Y-88625000D01*
G75*
G02*
X147950000Y-88825000I-200000J0D01*
G01*
X147550000Y-88825000D01*
G75*
G02*
X147350000Y-88625000I0J200000D01*
G01*
X147350000Y-88075000D01*
G75*
G02*
X147550000Y-87875000I200000J0D01*
G01*
X147950000Y-87875000D01*
G75*
G02*
X148150000Y-88075000I0J-200000D01*
G01*
G37*
%TD.AperFunction*%
%TD*%
%TO.P,R32,2*%
%TO.N,Net-(D11-Pad2)*%
%TA.AperFunction,SMDPad,CuDef*%
G36*
G01*
X112250000Y-111625000D02*
X112250000Y-112175000D01*
G75*
G02*
X112050000Y-112375000I-200000J0D01*
G01*
X111650000Y-112375000D01*
G75*
G02*
X111450000Y-112175000I0J200000D01*
G01*
X111450000Y-111625000D01*
G75*
G02*
X111650000Y-111425000I200000J0D01*
G01*
X112050000Y-111425000D01*
G75*
G02*
X112250000Y-111625000I0J-200000D01*
G01*
G37*
%TD.AperFunction*%
%TO.P,R32,1*%
%TO.N,/SPINDLE_PWM*%
%TA.AperFunction,SMDPad,CuDef*%
G36*
G01*
X113900000Y-111625000D02*
X113900000Y-112175000D01*
G75*
G02*
X113700000Y-112375000I-200000J0D01*
G01*
X113300000Y-112375000D01*
G75*
G02*
X113100000Y-112175000I0J200000D01*
G01*
X113100000Y-111625000D01*
G75*
G02*
X113300000Y-111425000I200000J0D01*
G01*
X113700000Y-111425000D01*
G75*
G02*
X113900000Y-111625000I0J-200000D01*
G01*
G37*
%TD.AperFunction*%
%TD*%
%TO.P,R30,2*%
%TO.N,Net-(R30-Pad2)*%
%TA.AperFunction,SMDPad,CuDef*%
G36*
G01*
X137150000Y-78775000D02*
X137150000Y-79325000D01*
G75*
G02*
X136950000Y-79525000I-200000J0D01*
G01*
X136550000Y-79525000D01*
G75*
G02*
X136350000Y-79325000I0J200000D01*
G01*
X136350000Y-78775000D01*
G75*
G02*
X136550000Y-78575000I200000J0D01*
G01*
X136950000Y-78575000D01*
G75*
G02*
X137150000Y-78775000I0J-200000D01*
G01*
G37*
%TD.AperFunction*%
%TO.P,R30,1*%
%TO.N,/ENC_Z_B*%
%TA.AperFunction,SMDPad,CuDef*%
G36*
G01*
X138800000Y-78775000D02*
X138800000Y-79325000D01*
G75*
G02*
X138600000Y-79525000I-200000J0D01*
G01*
X138200000Y-79525000D01*
G75*
G02*
X138000000Y-79325000I0J200000D01*
G01*
X138000000Y-78775000D01*
G75*
G02*
X138200000Y-78575000I200000J0D01*
G01*
X138600000Y-78575000D01*
G75*
G02*
X138800000Y-78775000I0J-200000D01*
G01*
G37*
%TD.AperFunction*%
%TD*%
%TO.P,R29,2*%
%TO.N,Net-(R29-Pad2)*%
%TA.AperFunction,SMDPad,CuDef*%
G36*
G01*
X137150000Y-77225000D02*
X137150000Y-77775000D01*
G75*
G02*
X136950000Y-77975000I-200000J0D01*
G01*
X136550000Y-77975000D01*
G75*
G02*
X136350000Y-77775000I0J200000D01*
G01*
X136350000Y-77225000D01*
G75*
G02*
X136550000Y-77025000I200000J0D01*
G01*
X136950000Y-77025000D01*
G75*
G02*
X137150000Y-77225000I0J-200000D01*
G01*
G37*
%TD.AperFunction*%
%TO.P,R29,1*%
%TO.N,/ENC_Z_A*%
%TA.AperFunction,SMDPad,CuDef*%
G36*
G01*
X138800000Y-77225000D02*
X138800000Y-77775000D01*
G75*
G02*
X138600000Y-77975000I-200000J0D01*
G01*
X138200000Y-77975000D01*
G75*
G02*
X138000000Y-77775000I0J200000D01*
G01*
X138000000Y-77225000D01*
G75*
G02*
X138200000Y-77025000I200000J0D01*
G01*
X138600000Y-77025000D01*
G75*
G02*
X138800000Y-77225000I0J-200000D01*
G01*
G37*
%TD.AperFunction*%
%TD*%
%TO.P,R28,2*%
%TO.N,Net-(R28-Pad2)*%
%TA.AperFunction,SMDPad,CuDef*%
G36*
G01*
X149350000Y-78775000D02*
X149350000Y-79325000D01*
G75*
G02*
X149150000Y-79525000I-200000J0D01*
G01*
X148750000Y-79525000D01*
G75*
G02*
X148550000Y-79325000I0J200000D01*
G01*
X148550000Y-78775000D01*
G75*
G02*
X148750000Y-78575000I200000J0D01*
G01*
X149150000Y-78575000D01*
G75*
G02*
X149350000Y-78775000I0J-200000D01*
G01*
G37*
%TD.AperFunction*%
%TO.P,R28,1*%
%TO.N,/ENC_Y_B*%
%TA.AperFunction,SMDPad,CuDef*%
G36*
G01*
X151000000Y-78775000D02*
X151000000Y-79325000D01*
G75*
G02*
X150800000Y-79525000I-200000J0D01*
G01*
X150400000Y-79525000D01*
G75*
G02*
X150200000Y-79325000I0J200000D01*
G01*
X150200000Y-78775000D01*
G75*
G02*
X150400000Y-78575000I200000J0D01*
G01*
X150800000Y-78575000D01*
G75*
G02*
X151000000Y-78775000I0J-200000D01*
G01*
G37*
%TD.AperFunction*%
%TD*%
%TO.P,R27,2*%
%TO.N,Net-(R27-Pad2)*%
%TA.AperFunction,SMDPad,CuDef*%
G36*
G01*
X137150000Y-80325000D02*
X137150000Y-80875000D01*
G75*
G02*
X136950000Y-81075000I-200000J0D01*
G01*
X136550000Y-81075000D01*
G75*
G02*
X136350000Y-80875000I0J200000D01*
G01*
X136350000Y-80325000D01*
G75*
G02*
X136550000Y-80125000I200000J0D01*
G01*
X136950000Y-80125000D01*
G75*
G02*
X137150000Y-80325000I0J-200000D01*
G01*
G37*
%TD.AperFunction*%
%TO.P,R27,1*%
%TO.N,/ENC_Y_A*%
%TA.AperFunction,SMDPad,CuDef*%
G36*
G01*
X138800000Y-80325000D02*
X138800000Y-80875000D01*
G75*
G02*
X138600000Y-81075000I-200000J0D01*
G01*
X138200000Y-81075000D01*
G75*
G02*
X138000000Y-80875000I0J200000D01*
G01*
X138000000Y-80325000D01*
G75*
G02*
X138200000Y-80125000I200000J0D01*
G01*
X138600000Y-80125000D01*
G75*
G02*
X138800000Y-80325000I0J-200000D01*
G01*
G37*
%TD.AperFunction*%
%TD*%
%TO.P,R26,2*%
%TO.N,/ENC_X_B*%
%TA.AperFunction,SMDPad,CuDef*%
G36*
G01*
X150200000Y-77775000D02*
X150200000Y-77225000D01*
G75*
G02*
X150400000Y-77025000I200000J0D01*
G01*
X150800000Y-77025000D01*
G75*
G02*
X151000000Y-77225000I0J-200000D01*
G01*
X151000000Y-77775000D01*
G75*
G02*
X150800000Y-77975000I-200000J0D01*
G01*
X150400000Y-77975000D01*
G75*
G02*
X150200000Y-77775000I0J200000D01*
G01*
G37*
%TD.AperFunction*%
%TO.P,R26,1*%
%TO.N,Net-(R26-Pad1)*%
%TA.AperFunction,SMDPad,CuDef*%
G36*
G01*
X148550000Y-77775000D02*
X148550000Y-77225000D01*
G75*
G02*
X148750000Y-77025000I200000J0D01*
G01*
X149150000Y-77025000D01*
G75*
G02*
X149350000Y-77225000I0J-200000D01*
G01*
X149350000Y-77775000D01*
G75*
G02*
X149150000Y-77975000I-200000J0D01*
G01*
X148750000Y-77975000D01*
G75*
G02*
X148550000Y-77775000I0J200000D01*
G01*
G37*
%TD.AperFunction*%
%TD*%
%TO.P,R25,2*%
%TO.N,/ENC_X_A*%
%TA.AperFunction,SMDPad,CuDef*%
G36*
G01*
X146350000Y-79325000D02*
X146350000Y-78775000D01*
G75*
G02*
X146550000Y-78575000I200000J0D01*
G01*
X146950000Y-78575000D01*
G75*
G02*
X147150000Y-78775000I0J-200000D01*
G01*
X147150000Y-79325000D01*
G75*
G02*
X146950000Y-79525000I-200000J0D01*
G01*
X146550000Y-79525000D01*
G75*
G02*
X146350000Y-79325000I0J200000D01*
G01*
G37*
%TD.AperFunction*%
%TO.P,R25,1*%
%TO.N,Net-(R25-Pad1)*%
%TA.AperFunction,SMDPad,CuDef*%
G36*
G01*
X144700000Y-79325000D02*
X144700000Y-78775000D01*
G75*
G02*
X144900000Y-78575000I200000J0D01*
G01*
X145300000Y-78575000D01*
G75*
G02*
X145500000Y-78775000I0J-200000D01*
G01*
X145500000Y-79325000D01*
G75*
G02*
X145300000Y-79525000I-200000J0D01*
G01*
X144900000Y-79525000D01*
G75*
G02*
X144700000Y-79325000I0J200000D01*
G01*
G37*
%TD.AperFunction*%
%TD*%
%TO.P,R24,2*%
%TO.N,/ESTOP_IN*%
%TA.AperFunction,SMDPad,CuDef*%
G36*
G01*
X154300000Y-79375000D02*
X154300000Y-78825000D01*
G75*
G02*
X154500000Y-78625000I200000J0D01*
G01*
X154900000Y-78625000D01*
G75*
G02*
X155100000Y-78825000I0J-200000D01*
G01*
X155100000Y-79375000D01*
G75*
G02*
X154900000Y-79575000I-200000J0D01*
G01*
X154500000Y-79575000D01*
G75*
G02*
X154300000Y-79375000I0J200000D01*
G01*
G37*
%TD.AperFunction*%
%TO.P,R24,1*%
%TO.N,Net-(R16-Pad1)*%
%TA.AperFunction,SMDPad,CuDef*%
G36*
G01*
X152650000Y-79375000D02*
X152650000Y-78825000D01*
G75*
G02*
X152850000Y-78625000I200000J0D01*
G01*
X153250000Y-78625000D01*
G75*
G02*
X153450000Y-78825000I0J-200000D01*
G01*
X153450000Y-79375000D01*
G75*
G02*
X153250000Y-79575000I-200000J0D01*
G01*
X152850000Y-79575000D01*
G75*
G02*
X152650000Y-79375000I0J200000D01*
G01*
G37*
%TD.AperFunction*%
%TD*%
%TO.P,R23,2*%
%TO.N,/PROBE*%
%TA.AperFunction,SMDPad,CuDef*%
G36*
G01*
X154275000Y-77825000D02*
X154275000Y-77275000D01*
G75*
G02*
X154475000Y-77075000I200000J0D01*
G01*
X154875000Y-77075000D01*
G75*
G02*
X155075000Y-77275000I0J-200000D01*
G01*
X155075000Y-77825000D01*
G75*
G02*
X154875000Y-78025000I-200000J0D01*
G01*
X154475000Y-78025000D01*
G75*
G02*
X154275000Y-77825000I0J200000D01*
G01*
G37*
%TD.AperFunction*%
%TO.P,R23,1*%
%TO.N,Net-(R15-Pad1)*%
%TA.AperFunction,SMDPad,CuDef*%
G36*
G01*
X152625000Y-77825000D02*
X152625000Y-77275000D01*
G75*
G02*
X152825000Y-77075000I200000J0D01*
G01*
X153225000Y-77075000D01*
G75*
G02*
X153425000Y-77275000I0J-200000D01*
G01*
X153425000Y-77825000D01*
G75*
G02*
X153225000Y-78025000I-200000J0D01*
G01*
X152825000Y-78025000D01*
G75*
G02*
X152625000Y-77825000I0J200000D01*
G01*
G37*
%TD.AperFunction*%
%TD*%
%TO.P,R22,2*%
%TO.N,/LIMITS*%
%TA.AperFunction,SMDPad,CuDef*%
G36*
G01*
X134350000Y-77475000D02*
X134350000Y-76925000D01*
G75*
G02*
X134550000Y-76725000I200000J0D01*
G01*
X134950000Y-76725000D01*
G75*
G02*
X135150000Y-76925000I0J-200000D01*
G01*
X135150000Y-77475000D01*
G75*
G02*
X134950000Y-77675000I-200000J0D01*
G01*
X134550000Y-77675000D01*
G75*
G02*
X134350000Y-77475000I0J200000D01*
G01*
G37*
%TD.AperFunction*%
%TO.P,R22,1*%
%TO.N,Net-(R14-Pad1)*%
%TA.AperFunction,SMDPad,CuDef*%
G36*
G01*
X132700000Y-77475000D02*
X132700000Y-76925000D01*
G75*
G02*
X132900000Y-76725000I200000J0D01*
G01*
X133300000Y-76725000D01*
G75*
G02*
X133500000Y-76925000I0J-200000D01*
G01*
X133500000Y-77475000D01*
G75*
G02*
X133300000Y-77675000I-200000J0D01*
G01*
X132900000Y-77675000D01*
G75*
G02*
X132700000Y-77475000I0J200000D01*
G01*
G37*
%TD.AperFunction*%
%TD*%
%TO.P,R21,2*%
%TO.N,/Y2_MIN*%
%TA.AperFunction,SMDPad,CuDef*%
G36*
G01*
X146350000Y-77775000D02*
X146350000Y-77225000D01*
G75*
G02*
X146550000Y-77025000I200000J0D01*
G01*
X146950000Y-77025000D01*
G75*
G02*
X147150000Y-77225000I0J-200000D01*
G01*
X147150000Y-77775000D01*
G75*
G02*
X146950000Y-77975000I-200000J0D01*
G01*
X146550000Y-77975000D01*
G75*
G02*
X146350000Y-77775000I0J200000D01*
G01*
G37*
%TD.AperFunction*%
%TO.P,R21,1*%
%TO.N,Net-(R13-Pad1)*%
%TA.AperFunction,SMDPad,CuDef*%
G36*
G01*
X144700000Y-77775000D02*
X144700000Y-77225000D01*
G75*
G02*
X144900000Y-77025000I200000J0D01*
G01*
X145300000Y-77025000D01*
G75*
G02*
X145500000Y-77225000I0J-200000D01*
G01*
X145500000Y-77775000D01*
G75*
G02*
X145300000Y-77975000I-200000J0D01*
G01*
X144900000Y-77975000D01*
G75*
G02*
X144700000Y-77775000I0J200000D01*
G01*
G37*
%TD.AperFunction*%
%TD*%
%TO.P,R20,2*%
%TO.N,/X2_MIN*%
%TA.AperFunction,SMDPad,CuDef*%
G36*
G01*
X142550000Y-79325000D02*
X142550000Y-78775000D01*
G75*
G02*
X142750000Y-78575000I200000J0D01*
G01*
X143150000Y-78575000D01*
G75*
G02*
X143350000Y-78775000I0J-200000D01*
G01*
X143350000Y-79325000D01*
G75*
G02*
X143150000Y-79525000I-200000J0D01*
G01*
X142750000Y-79525000D01*
G75*
G02*
X142550000Y-79325000I0J200000D01*
G01*
G37*
%TD.AperFunction*%
%TO.P,R20,1*%
%TO.N,Net-(R12-Pad1)*%
%TA.AperFunction,SMDPad,CuDef*%
G36*
G01*
X140900000Y-79325000D02*
X140900000Y-78775000D01*
G75*
G02*
X141100000Y-78575000I200000J0D01*
G01*
X141500000Y-78575000D01*
G75*
G02*
X141700000Y-78775000I0J-200000D01*
G01*
X141700000Y-79325000D01*
G75*
G02*
X141500000Y-79525000I-200000J0D01*
G01*
X141100000Y-79525000D01*
G75*
G02*
X140900000Y-79325000I0J200000D01*
G01*
G37*
%TD.AperFunction*%
%TD*%
%TO.P,R19,2*%
%TO.N,/Z_MIN*%
%TA.AperFunction,SMDPad,CuDef*%
G36*
G01*
X142575000Y-77775000D02*
X142575000Y-77225000D01*
G75*
G02*
X142775000Y-77025000I200000J0D01*
G01*
X143175000Y-77025000D01*
G75*
G02*
X143375000Y-77225000I0J-200000D01*
G01*
X143375000Y-77775000D01*
G75*
G02*
X143175000Y-77975000I-200000J0D01*
G01*
X142775000Y-77975000D01*
G75*
G02*
X142575000Y-77775000I0J200000D01*
G01*
G37*
%TD.AperFunction*%
%TO.P,R19,1*%
%TO.N,Net-(R11-Pad1)*%
%TA.AperFunction,SMDPad,CuDef*%
G36*
G01*
X140925000Y-77775000D02*
X140925000Y-77225000D01*
G75*
G02*
X141125000Y-77025000I200000J0D01*
G01*
X141525000Y-77025000D01*
G75*
G02*
X141725000Y-77225000I0J-200000D01*
G01*
X141725000Y-77775000D01*
G75*
G02*
X141525000Y-77975000I-200000J0D01*
G01*
X141125000Y-77975000D01*
G75*
G02*
X140925000Y-77775000I0J200000D01*
G01*
G37*
%TD.AperFunction*%
%TD*%
%TO.P,R18,2*%
%TO.N,/Y_MIN*%
%TA.AperFunction,SMDPad,CuDef*%
G36*
G01*
X129100000Y-77475000D02*
X129100000Y-76925000D01*
G75*
G02*
X129300000Y-76725000I200000J0D01*
G01*
X129700000Y-76725000D01*
G75*
G02*
X129900000Y-76925000I0J-200000D01*
G01*
X129900000Y-77475000D01*
G75*
G02*
X129700000Y-77675000I-200000J0D01*
G01*
X129300000Y-77675000D01*
G75*
G02*
X129100000Y-77475000I0J200000D01*
G01*
G37*
%TD.AperFunction*%
%TO.P,R18,1*%
%TO.N,Net-(R10-Pad1)*%
%TA.AperFunction,SMDPad,CuDef*%
G36*
G01*
X127450000Y-77475000D02*
X127450000Y-76925000D01*
G75*
G02*
X127650000Y-76725000I200000J0D01*
G01*
X128050000Y-76725000D01*
G75*
G02*
X128250000Y-76925000I0J-200000D01*
G01*
X128250000Y-77475000D01*
G75*
G02*
X128050000Y-77675000I-200000J0D01*
G01*
X127650000Y-77675000D01*
G75*
G02*
X127450000Y-77475000I0J200000D01*
G01*
G37*
%TD.AperFunction*%
%TD*%
%TO.P,R17,2*%
%TO.N,/X_MIN*%
%TA.AperFunction,SMDPad,CuDef*%
G36*
G01*
X124500000Y-77475000D02*
X124500000Y-76925000D01*
G75*
G02*
X124700000Y-76725000I200000J0D01*
G01*
X125100000Y-76725000D01*
G75*
G02*
X125300000Y-76925000I0J-200000D01*
G01*
X125300000Y-77475000D01*
G75*
G02*
X125100000Y-77675000I-200000J0D01*
G01*
X124700000Y-77675000D01*
G75*
G02*
X124500000Y-77475000I0J200000D01*
G01*
G37*
%TD.AperFunction*%
%TO.P,R17,1*%
%TO.N,Net-(R17-Pad1)*%
%TA.AperFunction,SMDPad,CuDef*%
G36*
G01*
X122850000Y-77475000D02*
X122850000Y-76925000D01*
G75*
G02*
X123050000Y-76725000I200000J0D01*
G01*
X123450000Y-76725000D01*
G75*
G02*
X123650000Y-76925000I0J-200000D01*
G01*
X123650000Y-77475000D01*
G75*
G02*
X123450000Y-77675000I-200000J0D01*
G01*
X123050000Y-77675000D01*
G75*
G02*
X122850000Y-77475000I0J200000D01*
G01*
G37*
%TD.AperFunction*%
%TD*%
%TO.P,R16,2*%
%TO.N,Net-(D8-Pad2)*%
%TA.AperFunction,SMDPad,CuDef*%
G36*
G01*
X182050000Y-108025000D02*
X182050000Y-108575000D01*
G75*
G02*
X181850000Y-108775000I-200000J0D01*
G01*
X181450000Y-108775000D01*
G75*
G02*
X181250000Y-108575000I0J200000D01*
G01*
X181250000Y-108025000D01*
G75*
G02*
X181450000Y-107825000I200000J0D01*
G01*
X181850000Y-107825000D01*
G75*
G02*
X182050000Y-108025000I0J-200000D01*
G01*
G37*
%TD.AperFunction*%
%TO.P,R16,1*%
%TO.N,Net-(R16-Pad1)*%
%TA.AperFunction,SMDPad,CuDef*%
G36*
G01*
X183700000Y-108025000D02*
X183700000Y-108575000D01*
G75*
G02*
X183500000Y-108775000I-200000J0D01*
G01*
X183100000Y-108775000D01*
G75*
G02*
X182900000Y-108575000I0J200000D01*
G01*
X182900000Y-108025000D01*
G75*
G02*
X183100000Y-107825000I200000J0D01*
G01*
X183500000Y-107825000D01*
G75*
G02*
X183700000Y-108025000I0J-200000D01*
G01*
G37*
%TD.AperFunction*%
%TD*%
%TO.P,R15,2*%
%TO.N,Net-(D7-Pad2)*%
%TA.AperFunction,SMDPad,CuDef*%
G36*
G01*
X173500000Y-110025000D02*
X173500000Y-110575000D01*
G75*
G02*
X173300000Y-110775000I-200000J0D01*
G01*
X172900000Y-110775000D01*
G75*
G02*
X172700000Y-110575000I0J200000D01*
G01*
X172700000Y-110025000D01*
G75*
G02*
X172900000Y-109825000I200000J0D01*
G01*
X173300000Y-109825000D01*
G75*
G02*
X173500000Y-110025000I0J-200000D01*
G01*
G37*
%TD.AperFunction*%
%TO.P,R15,1*%
%TO.N,Net-(R15-Pad1)*%
%TA.AperFunction,SMDPad,CuDef*%
G36*
G01*
X175150000Y-110025000D02*
X175150000Y-110575000D01*
G75*
G02*
X174950000Y-110775000I-200000J0D01*
G01*
X174550000Y-110775000D01*
G75*
G02*
X174350000Y-110575000I0J200000D01*
G01*
X174350000Y-110025000D01*
G75*
G02*
X174550000Y-109825000I200000J0D01*
G01*
X174950000Y-109825000D01*
G75*
G02*
X175150000Y-110025000I0J-200000D01*
G01*
G37*
%TD.AperFunction*%
%TD*%
%TO.P,R14,2*%
%TO.N,Net-(D6-Pad2)*%
%TA.AperFunction,SMDPad,CuDef*%
G36*
G01*
X164900000Y-110025000D02*
X164900000Y-110575000D01*
G75*
G02*
X164700000Y-110775000I-200000J0D01*
G01*
X164300000Y-110775000D01*
G75*
G02*
X164100000Y-110575000I0J200000D01*
G01*
X164100000Y-110025000D01*
G75*
G02*
X164300000Y-109825000I200000J0D01*
G01*
X164700000Y-109825000D01*
G75*
G02*
X164900000Y-110025000I0J-200000D01*
G01*
G37*
%TD.AperFunction*%
%TO.P,R14,1*%
%TO.N,Net-(R14-Pad1)*%
%TA.AperFunction,SMDPad,CuDef*%
G36*
G01*
X166550000Y-110025000D02*
X166550000Y-110575000D01*
G75*
G02*
X166350000Y-110775000I-200000J0D01*
G01*
X165950000Y-110775000D01*
G75*
G02*
X165750000Y-110575000I0J200000D01*
G01*
X165750000Y-110025000D01*
G75*
G02*
X165950000Y-109825000I200000J0D01*
G01*
X166350000Y-109825000D01*
G75*
G02*
X166550000Y-110025000I0J-200000D01*
G01*
G37*
%TD.AperFunction*%
%TD*%
%TO.P,R13,2*%
%TO.N,Net-(D5-Pad2)*%
%TA.AperFunction,SMDPad,CuDef*%
G36*
G01*
X156350000Y-110025000D02*
X156350000Y-110575000D01*
G75*
G02*
X156150000Y-110775000I-200000J0D01*
G01*
X155750000Y-110775000D01*
G75*
G02*
X155550000Y-110575000I0J200000D01*
G01*
X155550000Y-110025000D01*
G75*
G02*
X155750000Y-109825000I200000J0D01*
G01*
X156150000Y-109825000D01*
G75*
G02*
X156350000Y-110025000I0J-200000D01*
G01*
G37*
%TD.AperFunction*%
%TO.P,R13,1*%
%TO.N,Net-(R13-Pad1)*%
%TA.AperFunction,SMDPad,CuDef*%
G36*
G01*
X158000000Y-110025000D02*
X158000000Y-110575000D01*
G75*
G02*
X157800000Y-110775000I-200000J0D01*
G01*
X157400000Y-110775000D01*
G75*
G02*
X157200000Y-110575000I0J200000D01*
G01*
X157200000Y-110025000D01*
G75*
G02*
X157400000Y-109825000I200000J0D01*
G01*
X157800000Y-109825000D01*
G75*
G02*
X158000000Y-110025000I0J-200000D01*
G01*
G37*
%TD.AperFunction*%
%TD*%
%TO.P,R12,2*%
%TO.N,Net-(D4-Pad2)*%
%TA.AperFunction,SMDPad,CuDef*%
G36*
G01*
X148000000Y-110025000D02*
X148000000Y-110575000D01*
G75*
G02*
X147800000Y-110775000I-200000J0D01*
G01*
X147400000Y-110775000D01*
G75*
G02*
X147200000Y-110575000I0J200000D01*
G01*
X147200000Y-110025000D01*
G75*
G02*
X147400000Y-109825000I200000J0D01*
G01*
X147800000Y-109825000D01*
G75*
G02*
X148000000Y-110025000I0J-200000D01*
G01*
G37*
%TD.AperFunction*%
%TO.P,R12,1*%
%TO.N,Net-(R12-Pad1)*%
%TA.AperFunction,SMDPad,CuDef*%
G36*
G01*
X149650000Y-110025000D02*
X149650000Y-110575000D01*
G75*
G02*
X149450000Y-110775000I-200000J0D01*
G01*
X149050000Y-110775000D01*
G75*
G02*
X148850000Y-110575000I0J200000D01*
G01*
X148850000Y-110025000D01*
G75*
G02*
X149050000Y-109825000I200000J0D01*
G01*
X149450000Y-109825000D01*
G75*
G02*
X149650000Y-110025000I0J-200000D01*
G01*
G37*
%TD.AperFunction*%
%TD*%
%TO.P,R11,2*%
%TO.N,Net-(D3-Pad2)*%
%TA.AperFunction,SMDPad,CuDef*%
G36*
G01*
X139400000Y-110025000D02*
X139400000Y-110575000D01*
G75*
G02*
X139200000Y-110775000I-200000J0D01*
G01*
X138800000Y-110775000D01*
G75*
G02*
X138600000Y-110575000I0J200000D01*
G01*
X138600000Y-110025000D01*
G75*
G02*
X138800000Y-109825000I200000J0D01*
G01*
X139200000Y-109825000D01*
G75*
G02*
X139400000Y-110025000I0J-200000D01*
G01*
G37*
%TD.AperFunction*%
%TO.P,R11,1*%
%TO.N,Net-(R11-Pad1)*%
%TA.AperFunction,SMDPad,CuDef*%
G36*
G01*
X141050000Y-110025000D02*
X141050000Y-110575000D01*
G75*
G02*
X140850000Y-110775000I-200000J0D01*
G01*
X140450000Y-110775000D01*
G75*
G02*
X140250000Y-110575000I0J200000D01*
G01*
X140250000Y-110025000D01*
G75*
G02*
X140450000Y-109825000I200000J0D01*
G01*
X140850000Y-109825000D01*
G75*
G02*
X141050000Y-110025000I0J-200000D01*
G01*
G37*
%TD.AperFunction*%
%TD*%
%TO.P,R10,2*%
%TO.N,Net-(D2-Pad2)*%
%TA.AperFunction,SMDPad,CuDef*%
G36*
G01*
X130950000Y-110025000D02*
X130950000Y-110575000D01*
G75*
G02*
X130750000Y-110775000I-200000J0D01*
G01*
X130350000Y-110775000D01*
G75*
G02*
X130150000Y-110575000I0J200000D01*
G01*
X130150000Y-110025000D01*
G75*
G02*
X130350000Y-109825000I200000J0D01*
G01*
X130750000Y-109825000D01*
G75*
G02*
X130950000Y-110025000I0J-200000D01*
G01*
G37*
%TD.AperFunction*%
%TO.P,R10,1*%
%TO.N,Net-(R10-Pad1)*%
%TA.AperFunction,SMDPad,CuDef*%
G36*
G01*
X132600000Y-110025000D02*
X132600000Y-110575000D01*
G75*
G02*
X132400000Y-110775000I-200000J0D01*
G01*
X132000000Y-110775000D01*
G75*
G02*
X131800000Y-110575000I0J200000D01*
G01*
X131800000Y-110025000D01*
G75*
G02*
X132000000Y-109825000I200000J0D01*
G01*
X132400000Y-109825000D01*
G75*
G02*
X132600000Y-110025000I0J-200000D01*
G01*
G37*
%TD.AperFunction*%
%TD*%
%TO.P,R8,2*%
%TO.N,Net-(J1-Pad1)*%
%TA.AperFunction,SMDPad,CuDef*%
G36*
G01*
X182900000Y-110175000D02*
X182900000Y-109625000D01*
G75*
G02*
X183100000Y-109425000I200000J0D01*
G01*
X183500000Y-109425000D01*
G75*
G02*
X183700000Y-109625000I0J-200000D01*
G01*
X183700000Y-110175000D01*
G75*
G02*
X183500000Y-110375000I-200000J0D01*
G01*
X183100000Y-110375000D01*
G75*
G02*
X182900000Y-110175000I0J200000D01*
G01*
G37*
%TD.AperFunction*%
%TO.P,R8,1*%
%TO.N,Net-(J8-Pad2)*%
%TA.AperFunction,SMDPad,CuDef*%
G36*
G01*
X181250000Y-110175000D02*
X181250000Y-109625000D01*
G75*
G02*
X181450000Y-109425000I200000J0D01*
G01*
X181850000Y-109425000D01*
G75*
G02*
X182050000Y-109625000I0J-200000D01*
G01*
X182050000Y-110175000D01*
G75*
G02*
X181850000Y-110375000I-200000J0D01*
G01*
X181450000Y-110375000D01*
G75*
G02*
X181250000Y-110175000I0J200000D01*
G01*
G37*
%TD.AperFunction*%
%TD*%
%TO.P,R7,2*%
%TO.N,Net-(J7-Pad3)*%
%TA.AperFunction,SMDPad,CuDef*%
G36*
G01*
X173475000Y-111625000D02*
X173475000Y-112175000D01*
G75*
G02*
X173275000Y-112375000I-200000J0D01*
G01*
X172875000Y-112375000D01*
G75*
G02*
X172675000Y-112175000I0J200000D01*
G01*
X172675000Y-111625000D01*
G75*
G02*
X172875000Y-111425000I200000J0D01*
G01*
X173275000Y-111425000D01*
G75*
G02*
X173475000Y-111625000I0J-200000D01*
G01*
G37*
%TD.AperFunction*%
%TO.P,R7,1*%
%TO.N,Net-(J1-Pad1)*%
%TA.AperFunction,SMDPad,CuDef*%
G36*
G01*
X175125000Y-111625000D02*
X175125000Y-112175000D01*
G75*
G02*
X174925000Y-112375000I-200000J0D01*
G01*
X174525000Y-112375000D01*
G75*
G02*
X174325000Y-112175000I0J200000D01*
G01*
X174325000Y-111625000D01*
G75*
G02*
X174525000Y-111425000I200000J0D01*
G01*
X174925000Y-111425000D01*
G75*
G02*
X175125000Y-111625000I0J-200000D01*
G01*
G37*
%TD.AperFunction*%
%TD*%
%TO.P,R6,2*%
%TO.N,Net-(J6-Pad3)*%
%TA.AperFunction,SMDPad,CuDef*%
G36*
G01*
X164875000Y-111625000D02*
X164875000Y-112175000D01*
G75*
G02*
X164675000Y-112375000I-200000J0D01*
G01*
X164275000Y-112375000D01*
G75*
G02*
X164075000Y-112175000I0J200000D01*
G01*
X164075000Y-111625000D01*
G75*
G02*
X164275000Y-111425000I200000J0D01*
G01*
X164675000Y-111425000D01*
G75*
G02*
X164875000Y-111625000I0J-200000D01*
G01*
G37*
%TD.AperFunction*%
%TO.P,R6,1*%
%TO.N,Net-(J1-Pad1)*%
%TA.AperFunction,SMDPad,CuDef*%
G36*
G01*
X166525000Y-111625000D02*
X166525000Y-112175000D01*
G75*
G02*
X166325000Y-112375000I-200000J0D01*
G01*
X165925000Y-112375000D01*
G75*
G02*
X165725000Y-112175000I0J200000D01*
G01*
X165725000Y-111625000D01*
G75*
G02*
X165925000Y-111425000I200000J0D01*
G01*
X166325000Y-111425000D01*
G75*
G02*
X166525000Y-111625000I0J-200000D01*
G01*
G37*
%TD.AperFunction*%
%TD*%
%TO.P,R5,2*%
%TO.N,Net-(J5-Pad3)*%
%TA.AperFunction,SMDPad,CuDef*%
G36*
G01*
X156375000Y-111625000D02*
X156375000Y-112175000D01*
G75*
G02*
X156175000Y-112375000I-200000J0D01*
G01*
X155775000Y-112375000D01*
G75*
G02*
X155575000Y-112175000I0J200000D01*
G01*
X155575000Y-111625000D01*
G75*
G02*
X155775000Y-111425000I200000J0D01*
G01*
X156175000Y-111425000D01*
G75*
G02*
X156375000Y-111625000I0J-200000D01*
G01*
G37*
%TD.AperFunction*%
%TO.P,R5,1*%
%TO.N,Net-(J1-Pad1)*%
%TA.AperFunction,SMDPad,CuDef*%
G36*
G01*
X158025000Y-111625000D02*
X158025000Y-112175000D01*
G75*
G02*
X157825000Y-112375000I-200000J0D01*
G01*
X157425000Y-112375000D01*
G75*
G02*
X157225000Y-112175000I0J200000D01*
G01*
X157225000Y-111625000D01*
G75*
G02*
X157425000Y-111425000I200000J0D01*
G01*
X157825000Y-111425000D01*
G75*
G02*
X158025000Y-111625000I0J-200000D01*
G01*
G37*
%TD.AperFunction*%
%TD*%
%TO.P,R4,2*%
%TO.N,Net-(J4-Pad3)*%
%TA.AperFunction,SMDPad,CuDef*%
G36*
G01*
X147975000Y-111625000D02*
X147975000Y-112175000D01*
G75*
G02*
X147775000Y-112375000I-200000J0D01*
G01*
X147375000Y-112375000D01*
G75*
G02*
X147175000Y-112175000I0J200000D01*
G01*
X147175000Y-111625000D01*
G75*
G02*
X147375000Y-111425000I200000J0D01*
G01*
X147775000Y-111425000D01*
G75*
G02*
X147975000Y-111625000I0J-200000D01*
G01*
G37*
%TD.AperFunction*%
%TO.P,R4,1*%
%TO.N,Net-(J1-Pad1)*%
%TA.AperFunction,SMDPad,CuDef*%
G36*
G01*
X149625000Y-111625000D02*
X149625000Y-112175000D01*
G75*
G02*
X149425000Y-112375000I-200000J0D01*
G01*
X149025000Y-112375000D01*
G75*
G02*
X148825000Y-112175000I0J200000D01*
G01*
X148825000Y-111625000D01*
G75*
G02*
X149025000Y-111425000I200000J0D01*
G01*
X149425000Y-111425000D01*
G75*
G02*
X149625000Y-111625000I0J-200000D01*
G01*
G37*
%TD.AperFunction*%
%TD*%
%TO.P,R3,2*%
%TO.N,Net-(J3-Pad3)*%
%TA.AperFunction,SMDPad,CuDef*%
G36*
G01*
X139300000Y-111625000D02*
X139300000Y-112175000D01*
G75*
G02*
X139100000Y-112375000I-200000J0D01*
G01*
X138700000Y-112375000D01*
G75*
G02*
X138500000Y-112175000I0J200000D01*
G01*
X138500000Y-111625000D01*
G75*
G02*
X138700000Y-111425000I200000J0D01*
G01*
X139100000Y-111425000D01*
G75*
G02*
X139300000Y-111625000I0J-200000D01*
G01*
G37*
%TD.AperFunction*%
%TO.P,R3,1*%
%TO.N,Net-(J1-Pad1)*%
%TA.AperFunction,SMDPad,CuDef*%
G36*
G01*
X140950000Y-111625000D02*
X140950000Y-112175000D01*
G75*
G02*
X140750000Y-112375000I-200000J0D01*
G01*
X140350000Y-112375000D01*
G75*
G02*
X140150000Y-112175000I0J200000D01*
G01*
X140150000Y-111625000D01*
G75*
G02*
X140350000Y-111425000I200000J0D01*
G01*
X140750000Y-111425000D01*
G75*
G02*
X140950000Y-111625000I0J-200000D01*
G01*
G37*
%TD.AperFunction*%
%TD*%
%TO.P,R2,2*%
%TO.N,Net-(J2-Pad3)*%
%TA.AperFunction,SMDPad,CuDef*%
G36*
G01*
X130900000Y-111625000D02*
X130900000Y-112175000D01*
G75*
G02*
X130700000Y-112375000I-200000J0D01*
G01*
X130300000Y-112375000D01*
G75*
G02*
X130100000Y-112175000I0J200000D01*
G01*
X130100000Y-111625000D01*
G75*
G02*
X130300000Y-111425000I200000J0D01*
G01*
X130700000Y-111425000D01*
G75*
G02*
X130900000Y-111625000I0J-200000D01*
G01*
G37*
%TD.AperFunction*%
%TO.P,R2,1*%
%TO.N,Net-(J1-Pad1)*%
%TA.AperFunction,SMDPad,CuDef*%
G36*
G01*
X132550000Y-111625000D02*
X132550000Y-112175000D01*
G75*
G02*
X132350000Y-112375000I-200000J0D01*
G01*
X131950000Y-112375000D01*
G75*
G02*
X131750000Y-112175000I0J200000D01*
G01*
X131750000Y-111625000D01*
G75*
G02*
X131950000Y-111425000I200000J0D01*
G01*
X132350000Y-111425000D01*
G75*
G02*
X132550000Y-111625000I0J-200000D01*
G01*
G37*
%TD.AperFunction*%
%TD*%
D10*
%TO.P,J21,12*%
%TO.N,Net-(J21-Pad12)*%
X105500000Y-80100000D03*
%TO.P,J21,11*%
%TO.N,Net-(J21-Pad11)*%
X105500000Y-82600000D03*
%TO.P,J21,10*%
%TO.N,Net-(J21-Pad10)*%
X105500000Y-85100000D03*
%TO.P,J21,9*%
%TO.N,Net-(J21-Pad9)*%
X105500000Y-87600000D03*
%TO.P,J21,8*%
%TO.N,Net-(J21-Pad8)*%
X105500000Y-90100000D03*
%TO.P,J21,7*%
%TO.N,Net-(J21-Pad7)*%
X105500000Y-92600000D03*
%TO.P,J21,6*%
%TO.N,Net-(J21-Pad6)*%
X105500000Y-95100000D03*
%TO.P,J21,5*%
%TO.N,Net-(J21-Pad5)*%
X105500000Y-97600000D03*
%TO.P,J21,4*%
%TO.N,Net-(J21-Pad4)*%
X105500000Y-100100000D03*
%TO.P,J21,3*%
%TO.N,Net-(J21-Pad3)*%
X105500000Y-102600000D03*
%TO.P,J21,2*%
%TO.N,Net-(J21-Pad2)*%
X105500000Y-105100000D03*
%TO.P,J21,1*%
%TO.N,GND*%
%TA.AperFunction,ComponentPad*%
G36*
G01*
X106225000Y-108450000D02*
X104775000Y-108450000D01*
G75*
G02*
X104525000Y-108200000I0J250000D01*
G01*
X104525000Y-107000000D01*
G75*
G02*
X104775000Y-106750000I250000J0D01*
G01*
X106225000Y-106750000D01*
G75*
G02*
X106475000Y-107000000I0J-250000D01*
G01*
X106475000Y-108200000D01*
G75*
G02*
X106225000Y-108450000I-250000J0D01*
G01*
G37*
%TD.AperFunction*%
%TD*%
%TO.P,J15,3*%
%TO.N,Net-(J15-Pad3)*%
X109400000Y-115700000D03*
%TO.P,J15,2*%
%TO.N,Net-(J15-Pad2)*%
X109400000Y-118200000D03*
%TO.P,J15,1*%
%TO.N,GND*%
%TA.AperFunction,ComponentPad*%
G36*
G01*
X110125000Y-121550000D02*
X108675000Y-121550000D01*
G75*
G02*
X108425000Y-121300000I0J250000D01*
G01*
X108425000Y-120100000D01*
G75*
G02*
X108675000Y-119850000I250000J0D01*
G01*
X110125000Y-119850000D01*
G75*
G02*
X110375000Y-120100000I0J-250000D01*
G01*
X110375000Y-121300000D01*
G75*
G02*
X110125000Y-121550000I-250000J0D01*
G01*
G37*
%TD.AperFunction*%
%TD*%
D13*
%TO.P,J14,40*%
%TO.N,/COOLING*%
X158260000Y-72460000D03*
%TO.P,J14,39*%
%TO.N,GND*%
X158260000Y-75000000D03*
%TO.P,J14,38*%
%TO.N,/ESTOP_OUT*%
X155720000Y-72460000D03*
%TO.P,J14,37*%
%TO.N,/ESTOP_IN*%
X155720000Y-75000000D03*
%TO.P,J14,36*%
%TO.N,/ENC_Y_B*%
X153180000Y-72460000D03*
%TO.P,J14,35*%
%TO.N,/PROBE*%
X153180000Y-75000000D03*
%TO.P,J14,34*%
%TO.N,GND*%
X150640000Y-72460000D03*
%TO.P,J14,33*%
%TO.N,/ENC_X_B*%
X150640000Y-75000000D03*
%TO.P,J14,32*%
%TO.N,/Y2_MIN*%
X148100000Y-72460000D03*
%TO.P,J14,31*%
%TO.N,/ENC_X_A*%
X148100000Y-75000000D03*
%TO.P,J14,30*%
%TO.N,GND*%
X145560000Y-72460000D03*
%TO.P,J14,29*%
%TO.N,/X2_MIN*%
X145560000Y-75000000D03*
%TO.P,J14,28*%
%TO.N,/ENC_Y_A*%
X143020000Y-72460000D03*
%TO.P,J14,27*%
%TO.N,/Z_MIN*%
X143020000Y-75000000D03*
%TO.P,J14,26*%
%TO.N,/ENC_Z_B*%
X140480000Y-72460000D03*
%TO.P,J14,25*%
%TO.N,GND*%
X140480000Y-75000000D03*
%TO.P,J14,24*%
%TO.N,/LIMITS*%
X137940000Y-72460000D03*
%TO.P,J14,23*%
%TO.N,/ENC_Z_A*%
X137940000Y-75000000D03*
%TO.P,J14,22*%
%TO.N,/X_MIN*%
X135400000Y-72460000D03*
%TO.P,J14,21*%
%TO.N,/Y_MIN*%
X135400000Y-75000000D03*
%TO.P,J14,20*%
%TO.N,GND*%
X132860000Y-72460000D03*
%TO.P,J14,19*%
%TO.N,/SPINDLE_PWM*%
X132860000Y-75000000D03*
%TO.P,J14,18*%
%TO.N,/Y2_DIR*%
X130320000Y-72460000D03*
%TO.P,J14,17*%
%TO.N,N/C*%
X130320000Y-75000000D03*
%TO.P,J14,16*%
%TO.N,/X2_STEP*%
X127780000Y-72460000D03*
%TO.P,J14,15*%
%TO.N,/~ENABLE*%
X127780000Y-75000000D03*
%TO.P,J14,14*%
%TO.N,GND*%
X125240000Y-72460000D03*
%TO.P,J14,13*%
%TO.N,/X_STEP*%
X125240000Y-75000000D03*
%TO.P,J14,12*%
%TO.N,/X2_DIR*%
X122700000Y-72460000D03*
%TO.P,J14,11*%
%TO.N,/Y_DIR*%
X122700000Y-75000000D03*
%TO.P,J14,10*%
%TO.N,/Y2_STEP*%
X120160000Y-72460000D03*
%TO.P,J14,9*%
%TO.N,GND*%
X120160000Y-75000000D03*
%TO.P,J14,8*%
%TO.N,/Z_STEP*%
X117620000Y-72460000D03*
%TO.P,J14,7*%
%TO.N,/X_DIR*%
X117620000Y-75000000D03*
%TO.P,J14,6*%
%TO.N,GND*%
X115080000Y-72460000D03*
%TO.P,J14,5*%
%TO.N,/Z_DIR*%
X115080000Y-75000000D03*
%TO.P,J14,4*%
%TO.N,Net-(J14-Pad2)*%
X112540000Y-72460000D03*
%TO.P,J14,3*%
%TO.N,/Y_STEP*%
X112540000Y-75000000D03*
%TO.P,J14,2*%
%TO.N,Net-(J14-Pad2)*%
X110000000Y-72460000D03*
D14*
%TO.P,J14,1*%
%TO.N,N/C*%
X110000000Y-75000000D03*
%TD*%
D15*
%TO.P,J13,4*%
%TO.N,+5V*%
X132500000Y-80900000D03*
%TO.P,J13,3*%
%TO.N,Net-(J13-Pad3)*%
X130000000Y-80900000D03*
%TO.P,J13,2*%
%TO.N,Net-(J13-Pad2)*%
X127500000Y-80900000D03*
%TO.P,J13,1*%
%TO.N,GND*%
%TA.AperFunction,ComponentPad*%
G36*
G01*
X124150000Y-81625000D02*
X124150000Y-80175000D01*
G75*
G02*
X124400000Y-79925000I250000J0D01*
G01*
X125600000Y-79925000D01*
G75*
G02*
X125850000Y-80175000I0J-250000D01*
G01*
X125850000Y-81625000D01*
G75*
G02*
X125600000Y-81875000I-250000J0D01*
G01*
X124400000Y-81875000D01*
G75*
G02*
X124150000Y-81625000I0J250000D01*
G01*
G37*
%TD.AperFunction*%
%TD*%
%TO.P,J12,4*%
%TO.N,+5V*%
X132500000Y-87800000D03*
%TO.P,J12,3*%
%TO.N,Net-(J12-Pad3)*%
X130000000Y-87800000D03*
%TO.P,J12,2*%
%TO.N,Net-(J12-Pad2)*%
X127500000Y-87800000D03*
%TO.P,J12,1*%
%TO.N,GND*%
%TA.AperFunction,ComponentPad*%
G36*
G01*
X124150000Y-88525000D02*
X124150000Y-87075000D01*
G75*
G02*
X124400000Y-86825000I250000J0D01*
G01*
X125600000Y-86825000D01*
G75*
G02*
X125850000Y-87075000I0J-250000D01*
G01*
X125850000Y-88525000D01*
G75*
G02*
X125600000Y-88775000I-250000J0D01*
G01*
X124400000Y-88775000D01*
G75*
G02*
X124150000Y-88525000I0J250000D01*
G01*
G37*
%TD.AperFunction*%
%TD*%
%TO.P,J11,4*%
%TO.N,+5V*%
X132500000Y-94700000D03*
%TO.P,J11,3*%
%TO.N,Net-(J11-Pad3)*%
X130000000Y-94700000D03*
%TO.P,J11,2*%
%TO.N,Net-(J11-Pad2)*%
X127500000Y-94700000D03*
%TO.P,J11,1*%
%TO.N,GND*%
%TA.AperFunction,ComponentPad*%
G36*
G01*
X124150000Y-95425000D02*
X124150000Y-93975000D01*
G75*
G02*
X124400000Y-93725000I250000J0D01*
G01*
X125600000Y-93725000D01*
G75*
G02*
X125850000Y-93975000I0J-250000D01*
G01*
X125850000Y-95425000D01*
G75*
G02*
X125600000Y-95675000I-250000J0D01*
G01*
X124400000Y-95675000D01*
G75*
G02*
X124150000Y-95425000I0J250000D01*
G01*
G37*
%TD.AperFunction*%
%TD*%
D16*
%TO.P,J8,2*%
%TO.N,Net-(J8-Pad2)*%
X178600000Y-113700000D03*
%TO.P,J8,1*%
%TO.N,GND*%
%TA.AperFunction,ComponentPad*%
G36*
G01*
X179350000Y-117050000D02*
X177850000Y-117050000D01*
G75*
G02*
X177600000Y-116800000I0J250000D01*
G01*
X177600000Y-115600000D01*
G75*
G02*
X177850000Y-115350000I250000J0D01*
G01*
X179350000Y-115350000D01*
G75*
G02*
X179600000Y-115600000I0J-250000D01*
G01*
X179600000Y-116800000D01*
G75*
G02*
X179350000Y-117050000I-250000J0D01*
G01*
G37*
%TD.AperFunction*%
%TD*%
D10*
%TO.P,J7,3*%
%TO.N,Net-(J7-Pad3)*%
X170100000Y-115700000D03*
%TO.P,J7,2*%
%TO.N,GND*%
X170100000Y-118200000D03*
%TO.P,J7,1*%
%TO.N,Net-(J1-Pad1)*%
%TA.AperFunction,ComponentPad*%
G36*
G01*
X170825000Y-121550000D02*
X169375000Y-121550000D01*
G75*
G02*
X169125000Y-121300000I0J250000D01*
G01*
X169125000Y-120100000D01*
G75*
G02*
X169375000Y-119850000I250000J0D01*
G01*
X170825000Y-119850000D01*
G75*
G02*
X171075000Y-120100000I0J-250000D01*
G01*
X171075000Y-121300000D01*
G75*
G02*
X170825000Y-121550000I-250000J0D01*
G01*
G37*
%TD.AperFunction*%
%TD*%
%TO.P,J6,3*%
%TO.N,Net-(J6-Pad3)*%
X161600000Y-115700000D03*
%TO.P,J6,2*%
%TO.N,GND*%
X161600000Y-118200000D03*
%TO.P,J6,1*%
%TO.N,Net-(J1-Pad1)*%
%TA.AperFunction,ComponentPad*%
G36*
G01*
X162325000Y-121550000D02*
X160875000Y-121550000D01*
G75*
G02*
X160625000Y-121300000I0J250000D01*
G01*
X160625000Y-120100000D01*
G75*
G02*
X160875000Y-119850000I250000J0D01*
G01*
X162325000Y-119850000D01*
G75*
G02*
X162575000Y-120100000I0J-250000D01*
G01*
X162575000Y-121300000D01*
G75*
G02*
X162325000Y-121550000I-250000J0D01*
G01*
G37*
%TD.AperFunction*%
%TD*%
%TO.P,J4,3*%
%TO.N,Net-(J4-Pad3)*%
X144600000Y-115700000D03*
%TO.P,J4,2*%
%TO.N,GND*%
X144600000Y-118200000D03*
%TO.P,J4,1*%
%TO.N,Net-(J1-Pad1)*%
%TA.AperFunction,ComponentPad*%
G36*
G01*
X145325000Y-121550000D02*
X143875000Y-121550000D01*
G75*
G02*
X143625000Y-121300000I0J250000D01*
G01*
X143625000Y-120100000D01*
G75*
G02*
X143875000Y-119850000I250000J0D01*
G01*
X145325000Y-119850000D01*
G75*
G02*
X145575000Y-120100000I0J-250000D01*
G01*
X145575000Y-121300000D01*
G75*
G02*
X145325000Y-121550000I-250000J0D01*
G01*
G37*
%TD.AperFunction*%
%TD*%
%TO.P,J3,3*%
%TO.N,Net-(J3-Pad3)*%
X136100000Y-115700000D03*
%TO.P,J3,2*%
%TO.N,GND*%
X136100000Y-118200000D03*
%TO.P,J3,1*%
%TO.N,Net-(J1-Pad1)*%
%TA.AperFunction,ComponentPad*%
G36*
G01*
X136825000Y-121550000D02*
X135375000Y-121550000D01*
G75*
G02*
X135125000Y-121300000I0J250000D01*
G01*
X135125000Y-120100000D01*
G75*
G02*
X135375000Y-119850000I250000J0D01*
G01*
X136825000Y-119850000D01*
G75*
G02*
X137075000Y-120100000I0J-250000D01*
G01*
X137075000Y-121300000D01*
G75*
G02*
X136825000Y-121550000I-250000J0D01*
G01*
G37*
%TD.AperFunction*%
%TD*%
%TO.P,J2,3*%
%TO.N,Net-(J2-Pad3)*%
X127600000Y-115700000D03*
%TO.P,J2,2*%
%TO.N,GND*%
X127600000Y-118200000D03*
%TO.P,J2,1*%
%TO.N,Net-(J1-Pad1)*%
%TA.AperFunction,ComponentPad*%
G36*
G01*
X128325000Y-121550000D02*
X126875000Y-121550000D01*
G75*
G02*
X126625000Y-121300000I0J250000D01*
G01*
X126625000Y-120100000D01*
G75*
G02*
X126875000Y-119850000I250000J0D01*
G01*
X128325000Y-119850000D01*
G75*
G02*
X128575000Y-120100000I0J-250000D01*
G01*
X128575000Y-121300000D01*
G75*
G02*
X128325000Y-121550000I-250000J0D01*
G01*
G37*
%TD.AperFunction*%
%TD*%
%TO.P,J1,3*%
%TO.N,Net-(J1-Pad3)*%
X119100000Y-115600000D03*
%TO.P,J1,2*%
%TO.N,GND*%
X119100000Y-118100000D03*
%TO.P,J1,1*%
%TO.N,Net-(J1-Pad1)*%
%TA.AperFunction,ComponentPad*%
G36*
G01*
X119825000Y-121450000D02*
X118375000Y-121450000D01*
G75*
G02*
X118125000Y-121200000I0J250000D01*
G01*
X118125000Y-120000000D01*
G75*
G02*
X118375000Y-119750000I250000J0D01*
G01*
X119825000Y-119750000D01*
G75*
G02*
X120075000Y-120000000I0J-250000D01*
G01*
X120075000Y-121200000D01*
G75*
G02*
X119825000Y-121450000I-250000J0D01*
G01*
G37*
%TD.AperFunction*%
%TD*%
D17*
%TO.P,D15,2*%
%TO.N,Net-(D15-Pad2)*%
X173150000Y-85500000D03*
%TO.P,D15,1*%
%TO.N,+24V*%
X173150000Y-89500000D03*
%TD*%
%TO.P,D14,2*%
%TO.N,Net-(D14-Pad2)*%
%TA.AperFunction,SMDPad,CuDef*%
G36*
G01*
X176525000Y-80725000D02*
X176525000Y-81975000D01*
G75*
G02*
X176275000Y-82225000I-250000J0D01*
G01*
X175525000Y-82225000D01*
G75*
G02*
X175275000Y-81975000I0J250000D01*
G01*
X175275000Y-80725000D01*
G75*
G02*
X175525000Y-80475000I250000J0D01*
G01*
X176275000Y-80475000D01*
G75*
G02*
X176525000Y-80725000I0J-250000D01*
G01*
G37*
%TD.AperFunction*%
%TO.P,D14,1*%
%TO.N,GND*%
%TA.AperFunction,SMDPad,CuDef*%
G36*
G01*
X179325000Y-80725000D02*
X179325000Y-81975000D01*
G75*
G02*
X179075000Y-82225000I-250000J0D01*
G01*
X178325000Y-82225000D01*
G75*
G02*
X178075000Y-81975000I0J250000D01*
G01*
X178075000Y-80725000D01*
G75*
G02*
X178325000Y-80475000I250000J0D01*
G01*
X179075000Y-80475000D01*
G75*
G02*
X179325000Y-80725000I0J-250000D01*
G01*
G37*
%TD.AperFunction*%
%TD*%
%TO.P,D13,1*%
%TO.N,GND*%
%TA.AperFunction,SMDPad,CuDef*%
G36*
G01*
X154325000Y-92875000D02*
X154325000Y-94125000D01*
G75*
G02*
X154075000Y-94375000I-250000J0D01*
G01*
X153325000Y-94375000D01*
G75*
G02*
X153075000Y-94125000I0J250000D01*
G01*
X153075000Y-92875000D01*
G75*
G02*
X153325000Y-92625000I250000J0D01*
G01*
X154075000Y-92625000D01*
G75*
G02*
X154325000Y-92875000I0J-250000D01*
G01*
G37*
%TD.AperFunction*%
%TO.P,D13,2*%
%TO.N,Net-(D13-Pad2)*%
%TA.AperFunction,SMDPad,CuDef*%
G36*
G01*
X151525000Y-92875000D02*
X151525000Y-94125000D01*
G75*
G02*
X151275000Y-94375000I-250000J0D01*
G01*
X150525000Y-94375000D01*
G75*
G02*
X150275000Y-94125000I0J250000D01*
G01*
X150275000Y-92875000D01*
G75*
G02*
X150525000Y-92625000I250000J0D01*
G01*
X151275000Y-92625000D01*
G75*
G02*
X151525000Y-92875000I0J-250000D01*
G01*
G37*
%TD.AperFunction*%
%TD*%
%TO.P,D12,2*%
%TO.N,Net-(D12-Pad2)*%
%TA.AperFunction,SMDPad,CuDef*%
G36*
G01*
X151575000Y-88625000D02*
X151575000Y-89875000D01*
G75*
G02*
X151325000Y-90125000I-250000J0D01*
G01*
X150575000Y-90125000D01*
G75*
G02*
X150325000Y-89875000I0J250000D01*
G01*
X150325000Y-88625000D01*
G75*
G02*
X150575000Y-88375000I250000J0D01*
G01*
X151325000Y-88375000D01*
G75*
G02*
X151575000Y-88625000I0J-250000D01*
G01*
G37*
%TD.AperFunction*%
%TO.P,D12,1*%
%TO.N,GND*%
%TA.AperFunction,SMDPad,CuDef*%
G36*
G01*
X154375000Y-88625000D02*
X154375000Y-89875000D01*
G75*
G02*
X154125000Y-90125000I-250000J0D01*
G01*
X153375000Y-90125000D01*
G75*
G02*
X153125000Y-89875000I0J250000D01*
G01*
X153125000Y-88625000D01*
G75*
G02*
X153375000Y-88375000I250000J0D01*
G01*
X154125000Y-88375000D01*
G75*
G02*
X154375000Y-88625000I0J-250000D01*
G01*
G37*
%TD.AperFunction*%
%TD*%
%TO.P,D11,2*%
%TO.N,Net-(D11-Pad2)*%
%TA.AperFunction,SMDPad,CuDef*%
G36*
G01*
X109575000Y-112325000D02*
X109575000Y-111075000D01*
G75*
G02*
X109825000Y-110825000I250000J0D01*
G01*
X110575000Y-110825000D01*
G75*
G02*
X110825000Y-111075000I0J-250000D01*
G01*
X110825000Y-112325000D01*
G75*
G02*
X110575000Y-112575000I-250000J0D01*
G01*
X109825000Y-112575000D01*
G75*
G02*
X109575000Y-112325000I0J250000D01*
G01*
G37*
%TD.AperFunction*%
%TO.P,D11,1*%
%TO.N,GND*%
%TA.AperFunction,SMDPad,CuDef*%
G36*
G01*
X106775000Y-112325000D02*
X106775000Y-111075000D01*
G75*
G02*
X107025000Y-110825000I250000J0D01*
G01*
X107775000Y-110825000D01*
G75*
G02*
X108025000Y-111075000I0J-250000D01*
G01*
X108025000Y-112325000D01*
G75*
G02*
X107775000Y-112575000I-250000J0D01*
G01*
X107025000Y-112575000D01*
G75*
G02*
X106775000Y-112325000I0J250000D01*
G01*
G37*
%TD.AperFunction*%
%TD*%
%TO.P,D8,2*%
%TO.N,Net-(D8-Pad2)*%
%TA.AperFunction,SMDPad,CuDef*%
G36*
G01*
X178775000Y-110125000D02*
X178775000Y-108875000D01*
G75*
G02*
X179025000Y-108625000I250000J0D01*
G01*
X179775000Y-108625000D01*
G75*
G02*
X180025000Y-108875000I0J-250000D01*
G01*
X180025000Y-110125000D01*
G75*
G02*
X179775000Y-110375000I-250000J0D01*
G01*
X179025000Y-110375000D01*
G75*
G02*
X178775000Y-110125000I0J250000D01*
G01*
G37*
%TD.AperFunction*%
%TO.P,D8,1*%
%TO.N,GND*%
%TA.AperFunction,SMDPad,CuDef*%
G36*
G01*
X175975000Y-110125000D02*
X175975000Y-108875000D01*
G75*
G02*
X176225000Y-108625000I250000J0D01*
G01*
X176975000Y-108625000D01*
G75*
G02*
X177225000Y-108875000I0J-250000D01*
G01*
X177225000Y-110125000D01*
G75*
G02*
X176975000Y-110375000I-250000J0D01*
G01*
X176225000Y-110375000D01*
G75*
G02*
X175975000Y-110125000I0J250000D01*
G01*
G37*
%TD.AperFunction*%
%TD*%
%TO.P,D7,2*%
%TO.N,Net-(D7-Pad2)*%
%TA.AperFunction,SMDPad,CuDef*%
G36*
G01*
X170275000Y-112125000D02*
X170275000Y-110875000D01*
G75*
G02*
X170525000Y-110625000I250000J0D01*
G01*
X171275000Y-110625000D01*
G75*
G02*
X171525000Y-110875000I0J-250000D01*
G01*
X171525000Y-112125000D01*
G75*
G02*
X171275000Y-112375000I-250000J0D01*
G01*
X170525000Y-112375000D01*
G75*
G02*
X170275000Y-112125000I0J250000D01*
G01*
G37*
%TD.AperFunction*%
%TO.P,D7,1*%
%TO.N,GND*%
%TA.AperFunction,SMDPad,CuDef*%
G36*
G01*
X167475000Y-112125000D02*
X167475000Y-110875000D01*
G75*
G02*
X167725000Y-110625000I250000J0D01*
G01*
X168475000Y-110625000D01*
G75*
G02*
X168725000Y-110875000I0J-250000D01*
G01*
X168725000Y-112125000D01*
G75*
G02*
X168475000Y-112375000I-250000J0D01*
G01*
X167725000Y-112375000D01*
G75*
G02*
X167475000Y-112125000I0J250000D01*
G01*
G37*
%TD.AperFunction*%
%TD*%
%TO.P,D6,2*%
%TO.N,Net-(D6-Pad2)*%
%TA.AperFunction,SMDPad,CuDef*%
G36*
G01*
X161775000Y-112125000D02*
X161775000Y-110875000D01*
G75*
G02*
X162025000Y-110625000I250000J0D01*
G01*
X162775000Y-110625000D01*
G75*
G02*
X163025000Y-110875000I0J-250000D01*
G01*
X163025000Y-112125000D01*
G75*
G02*
X162775000Y-112375000I-250000J0D01*
G01*
X162025000Y-112375000D01*
G75*
G02*
X161775000Y-112125000I0J250000D01*
G01*
G37*
%TD.AperFunction*%
%TO.P,D6,1*%
%TO.N,GND*%
%TA.AperFunction,SMDPad,CuDef*%
G36*
G01*
X158975000Y-112125000D02*
X158975000Y-110875000D01*
G75*
G02*
X159225000Y-110625000I250000J0D01*
G01*
X159975000Y-110625000D01*
G75*
G02*
X160225000Y-110875000I0J-250000D01*
G01*
X160225000Y-112125000D01*
G75*
G02*
X159975000Y-112375000I-250000J0D01*
G01*
X159225000Y-112375000D01*
G75*
G02*
X158975000Y-112125000I0J250000D01*
G01*
G37*
%TD.AperFunction*%
%TD*%
%TO.P,D5,2*%
%TO.N,Net-(D5-Pad2)*%
%TA.AperFunction,SMDPad,CuDef*%
G36*
G01*
X153275000Y-112125000D02*
X153275000Y-110875000D01*
G75*
G02*
X153525000Y-110625000I250000J0D01*
G01*
X154275000Y-110625000D01*
G75*
G02*
X154525000Y-110875000I0J-250000D01*
G01*
X154525000Y-112125000D01*
G75*
G02*
X154275000Y-112375000I-250000J0D01*
G01*
X153525000Y-112375000D01*
G75*
G02*
X153275000Y-112125000I0J250000D01*
G01*
G37*
%TD.AperFunction*%
%TO.P,D5,1*%
%TO.N,GND*%
%TA.AperFunction,SMDPad,CuDef*%
G36*
G01*
X150475000Y-112125000D02*
X150475000Y-110875000D01*
G75*
G02*
X150725000Y-110625000I250000J0D01*
G01*
X151475000Y-110625000D01*
G75*
G02*
X151725000Y-110875000I0J-250000D01*
G01*
X151725000Y-112125000D01*
G75*
G02*
X151475000Y-112375000I-250000J0D01*
G01*
X150725000Y-112375000D01*
G75*
G02*
X150475000Y-112125000I0J250000D01*
G01*
G37*
%TD.AperFunction*%
%TD*%
%TO.P,D4,2*%
%TO.N,Net-(D4-Pad2)*%
%TA.AperFunction,SMDPad,CuDef*%
G36*
G01*
X144775000Y-112125000D02*
X144775000Y-110875000D01*
G75*
G02*
X145025000Y-110625000I250000J0D01*
G01*
X145775000Y-110625000D01*
G75*
G02*
X146025000Y-110875000I0J-250000D01*
G01*
X146025000Y-112125000D01*
G75*
G02*
X145775000Y-112375000I-250000J0D01*
G01*
X145025000Y-112375000D01*
G75*
G02*
X144775000Y-112125000I0J250000D01*
G01*
G37*
%TD.AperFunction*%
%TO.P,D4,1*%
%TO.N,GND*%
%TA.AperFunction,SMDPad,CuDef*%
G36*
G01*
X141975000Y-112125000D02*
X141975000Y-110875000D01*
G75*
G02*
X142225000Y-110625000I250000J0D01*
G01*
X142975000Y-110625000D01*
G75*
G02*
X143225000Y-110875000I0J-250000D01*
G01*
X143225000Y-112125000D01*
G75*
G02*
X142975000Y-112375000I-250000J0D01*
G01*
X142225000Y-112375000D01*
G75*
G02*
X141975000Y-112125000I0J250000D01*
G01*
G37*
%TD.AperFunction*%
%TD*%
%TO.P,D3,2*%
%TO.N,Net-(D3-Pad2)*%
%TA.AperFunction,SMDPad,CuDef*%
G36*
G01*
X136275000Y-112125000D02*
X136275000Y-110875000D01*
G75*
G02*
X136525000Y-110625000I250000J0D01*
G01*
X137275000Y-110625000D01*
G75*
G02*
X137525000Y-110875000I0J-250000D01*
G01*
X137525000Y-112125000D01*
G75*
G02*
X137275000Y-112375000I-250000J0D01*
G01*
X136525000Y-112375000D01*
G75*
G02*
X136275000Y-112125000I0J250000D01*
G01*
G37*
%TD.AperFunction*%
%TO.P,D3,1*%
%TO.N,GND*%
%TA.AperFunction,SMDPad,CuDef*%
G36*
G01*
X133475000Y-112125000D02*
X133475000Y-110875000D01*
G75*
G02*
X133725000Y-110625000I250000J0D01*
G01*
X134475000Y-110625000D01*
G75*
G02*
X134725000Y-110875000I0J-250000D01*
G01*
X134725000Y-112125000D01*
G75*
G02*
X134475000Y-112375000I-250000J0D01*
G01*
X133725000Y-112375000D01*
G75*
G02*
X133475000Y-112125000I0J250000D01*
G01*
G37*
%TD.AperFunction*%
%TD*%
%TO.P,D2,2*%
%TO.N,Net-(D2-Pad2)*%
%TA.AperFunction,SMDPad,CuDef*%
G36*
G01*
X127875000Y-112125000D02*
X127875000Y-110875000D01*
G75*
G02*
X128125000Y-110625000I250000J0D01*
G01*
X128875000Y-110625000D01*
G75*
G02*
X129125000Y-110875000I0J-250000D01*
G01*
X129125000Y-112125000D01*
G75*
G02*
X128875000Y-112375000I-250000J0D01*
G01*
X128125000Y-112375000D01*
G75*
G02*
X127875000Y-112125000I0J250000D01*
G01*
G37*
%TD.AperFunction*%
%TO.P,D2,1*%
%TO.N,GND*%
%TA.AperFunction,SMDPad,CuDef*%
G36*
G01*
X125075000Y-112125000D02*
X125075000Y-110875000D01*
G75*
G02*
X125325000Y-110625000I250000J0D01*
G01*
X126075000Y-110625000D01*
G75*
G02*
X126325000Y-110875000I0J-250000D01*
G01*
X126325000Y-112125000D01*
G75*
G02*
X126075000Y-112375000I-250000J0D01*
G01*
X125325000Y-112375000D01*
G75*
G02*
X125075000Y-112125000I0J250000D01*
G01*
G37*
%TD.AperFunction*%
%TD*%
%TO.P,D1,2*%
%TO.N,Net-(D1-Pad2)*%
%TA.AperFunction,SMDPad,CuDef*%
G36*
G01*
X119375000Y-112025000D02*
X119375000Y-110775000D01*
G75*
G02*
X119625000Y-110525000I250000J0D01*
G01*
X120375000Y-110525000D01*
G75*
G02*
X120625000Y-110775000I0J-250000D01*
G01*
X120625000Y-112025000D01*
G75*
G02*
X120375000Y-112275000I-250000J0D01*
G01*
X119625000Y-112275000D01*
G75*
G02*
X119375000Y-112025000I0J250000D01*
G01*
G37*
%TD.AperFunction*%
%TO.P,D1,1*%
%TO.N,GND*%
%TA.AperFunction,SMDPad,CuDef*%
G36*
G01*
X116575000Y-112025000D02*
X116575000Y-110775000D01*
G75*
G02*
X116825000Y-110525000I250000J0D01*
G01*
X117575000Y-110525000D01*
G75*
G02*
X117825000Y-110775000I0J-250000D01*
G01*
X117825000Y-112025000D01*
G75*
G02*
X117575000Y-112275000I-250000J0D01*
G01*
X116825000Y-112275000D01*
G75*
G02*
X116575000Y-112025000I0J250000D01*
G01*
G37*
%TD.AperFunction*%
%TD*%
%TO.P,C15,2*%
%TO.N,GND*%
%TA.AperFunction,SMDPad,CuDef*%
G36*
G01*
X117200000Y-81800000D02*
X117200000Y-79800000D01*
G75*
G02*
X117450000Y-79550000I250000J0D01*
G01*
X121350000Y-79550000D01*
G75*
G02*
X121600000Y-79800000I0J-250000D01*
G01*
X121600000Y-81800000D01*
G75*
G02*
X121350000Y-82050000I-250000J0D01*
G01*
X117450000Y-82050000D01*
G75*
G02*
X117200000Y-81800000I0J250000D01*
G01*
G37*
%TD.AperFunction*%
%TO.P,C15,1*%
%TO.N,+5V*%
%TA.AperFunction,SMDPad,CuDef*%
G36*
G01*
X109800000Y-81800000D02*
X109800000Y-79800000D01*
G75*
G02*
X110050000Y-79550000I250000J0D01*
G01*
X113950000Y-79550000D01*
G75*
G02*
X114200000Y-79800000I0J-250000D01*
G01*
X114200000Y-81800000D01*
G75*
G02*
X113950000Y-82050000I-250000J0D01*
G01*
X110050000Y-82050000D01*
G75*
G02*
X109800000Y-81800000I0J250000D01*
G01*
G37*
%TD.AperFunction*%
%TD*%
%TO.P,C14,2*%
%TO.N,GND*%
%TA.AperFunction,SMDPad,CuDef*%
G36*
G01*
X153650000Y-100300000D02*
X154150000Y-100300000D01*
G75*
G02*
X154375000Y-100525000I0J-225000D01*
G01*
X154375000Y-100975000D01*
G75*
G02*
X154150000Y-101200000I-225000J0D01*
G01*
X153650000Y-101200000D01*
G75*
G02*
X153425000Y-100975000I0J225000D01*
G01*
X153425000Y-100525000D01*
G75*
G02*
X153650000Y-100300000I225000J0D01*
G01*
G37*
%TD.AperFunction*%
%TO.P,C14,1*%
%TO.N,+3V3*%
%TA.AperFunction,SMDPad,CuDef*%
G36*
G01*
X153650000Y-98750000D02*
X154150000Y-98750000D01*
G75*
G02*
X154375000Y-98975000I0J-225000D01*
G01*
X154375000Y-99425000D01*
G75*
G02*
X154150000Y-99650000I-225000J0D01*
G01*
X153650000Y-99650000D01*
G75*
G02*
X153425000Y-99425000I0J225000D01*
G01*
X153425000Y-98975000D01*
G75*
G02*
X153650000Y-98750000I225000J0D01*
G01*
G37*
%TD.AperFunction*%
%TD*%
%TO.P,C13,2*%
%TO.N,GND*%
%TA.AperFunction,SMDPad,CuDef*%
G36*
G01*
X120550000Y-97300000D02*
X121050000Y-97300000D01*
G75*
G02*
X121275000Y-97525000I0J-225000D01*
G01*
X121275000Y-97975000D01*
G75*
G02*
X121050000Y-98200000I-225000J0D01*
G01*
X120550000Y-98200000D01*
G75*
G02*
X120325000Y-97975000I0J225000D01*
G01*
X120325000Y-97525000D01*
G75*
G02*
X120550000Y-97300000I225000J0D01*
G01*
G37*
%TD.AperFunction*%
%TO.P,C13,1*%
%TO.N,+3V3*%
%TA.AperFunction,SMDPad,CuDef*%
G36*
G01*
X120550000Y-95750000D02*
X121050000Y-95750000D01*
G75*
G02*
X121275000Y-95975000I0J-225000D01*
G01*
X121275000Y-96425000D01*
G75*
G02*
X121050000Y-96650000I-225000J0D01*
G01*
X120550000Y-96650000D01*
G75*
G02*
X120325000Y-96425000I0J225000D01*
G01*
X120325000Y-95975000D01*
G75*
G02*
X120550000Y-95750000I225000J0D01*
G01*
G37*
%TD.AperFunction*%
%TD*%
%TO.P,C12,2*%
%TO.N,GND*%
%TA.AperFunction,SMDPad,CuDef*%
G36*
G01*
X121100000Y-86600000D02*
X120600000Y-86600000D01*
G75*
G02*
X120375000Y-86375000I0J225000D01*
G01*
X120375000Y-85925000D01*
G75*
G02*
X120600000Y-85700000I225000J0D01*
G01*
X121100000Y-85700000D01*
G75*
G02*
X121325000Y-85925000I0J-225000D01*
G01*
X121325000Y-86375000D01*
G75*
G02*
X121100000Y-86600000I-225000J0D01*
G01*
G37*
%TD.AperFunction*%
%TO.P,C12,1*%
%TO.N,+3V3*%
%TA.AperFunction,SMDPad,CuDef*%
G36*
G01*
X121100000Y-88150000D02*
X120600000Y-88150000D01*
G75*
G02*
X120375000Y-87925000I0J225000D01*
G01*
X120375000Y-87475000D01*
G75*
G02*
X120600000Y-87250000I225000J0D01*
G01*
X121100000Y-87250000D01*
G75*
G02*
X121325000Y-87475000I0J-225000D01*
G01*
X121325000Y-87925000D01*
G75*
G02*
X121100000Y-88150000I-225000J0D01*
G01*
G37*
%TD.AperFunction*%
%TD*%
%TO.P,C4,2*%
%TO.N,GND*%
%TA.AperFunction,SMDPad,CuDef*%
G36*
G01*
X148900000Y-85600000D02*
X148900000Y-85100000D01*
G75*
G02*
X149125000Y-84875000I225000J0D01*
G01*
X149575000Y-84875000D01*
G75*
G02*
X149800000Y-85100000I0J-225000D01*
G01*
X149800000Y-85600000D01*
G75*
G02*
X149575000Y-85825000I-225000J0D01*
G01*
X149125000Y-85825000D01*
G75*
G02*
X148900000Y-85600000I0J225000D01*
G01*
G37*
%TD.AperFunction*%
%TO.P,C4,1*%
%TO.N,+3V3*%
%TA.AperFunction,SMDPad,CuDef*%
G36*
G01*
X147350000Y-85600000D02*
X147350000Y-85100000D01*
G75*
G02*
X147575000Y-84875000I225000J0D01*
G01*
X148025000Y-84875000D01*
G75*
G02*
X148250000Y-85100000I0J-225000D01*
G01*
X148250000Y-85600000D01*
G75*
G02*
X148025000Y-85825000I-225000J0D01*
G01*
X147575000Y-85825000D01*
G75*
G02*
X147350000Y-85600000I0J225000D01*
G01*
G37*
%TD.AperFunction*%
%TD*%
%TO.P,C3,2*%
%TO.N,GND*%
%TA.AperFunction,SMDPad,CuDef*%
G36*
G01*
X148900000Y-84100000D02*
X148900000Y-83600000D01*
G75*
G02*
X149125000Y-83375000I225000J0D01*
G01*
X149575000Y-83375000D01*
G75*
G02*
X149800000Y-83600000I0J-225000D01*
G01*
X149800000Y-84100000D01*
G75*
G02*
X149575000Y-84325000I-225000J0D01*
G01*
X149125000Y-84325000D01*
G75*
G02*
X148900000Y-84100000I0J225000D01*
G01*
G37*
%TD.AperFunction*%
%TO.P,C3,1*%
%TO.N,+3V3*%
%TA.AperFunction,SMDPad,CuDef*%
G36*
G01*
X147350000Y-84100000D02*
X147350000Y-83600000D01*
G75*
G02*
X147575000Y-83375000I225000J0D01*
G01*
X148025000Y-83375000D01*
G75*
G02*
X148250000Y-83600000I0J-225000D01*
G01*
X148250000Y-84100000D01*
G75*
G02*
X148025000Y-84325000I-225000J0D01*
G01*
X147575000Y-84325000D01*
G75*
G02*
X147350000Y-84100000I0J225000D01*
G01*
G37*
%TD.AperFunction*%
%TD*%
%TO.P,C2,2*%
%TO.N,GND*%
%TA.AperFunction,SMDPad,CuDef*%
G36*
G01*
X148900000Y-82600000D02*
X148900000Y-82100000D01*
G75*
G02*
X149125000Y-81875000I225000J0D01*
G01*
X149575000Y-81875000D01*
G75*
G02*
X149800000Y-82100000I0J-225000D01*
G01*
X149800000Y-82600000D01*
G75*
G02*
X149575000Y-82825000I-225000J0D01*
G01*
X149125000Y-82825000D01*
G75*
G02*
X148900000Y-82600000I0J225000D01*
G01*
G37*
%TD.AperFunction*%
%TO.P,C2,1*%
%TO.N,+5V*%
%TA.AperFunction,SMDPad,CuDef*%
G36*
G01*
X147350000Y-82600000D02*
X147350000Y-82100000D01*
G75*
G02*
X147575000Y-81875000I225000J0D01*
G01*
X148025000Y-81875000D01*
G75*
G02*
X148250000Y-82100000I0J-225000D01*
G01*
X148250000Y-82600000D01*
G75*
G02*
X148025000Y-82825000I-225000J0D01*
G01*
X147575000Y-82825000D01*
G75*
G02*
X147350000Y-82600000I0J225000D01*
G01*
G37*
%TD.AperFunction*%
%TD*%
%TO.P,C16,1*%
%TO.N,+3V3*%
%TA.AperFunction,SMDPad,CuDef*%
G36*
G01*
X132500000Y-99750000D02*
X132500000Y-99250000D01*
G75*
G02*
X132725000Y-99025000I225000J0D01*
G01*
X133175000Y-99025000D01*
G75*
G02*
X133400000Y-99250000I0J-225000D01*
G01*
X133400000Y-99750000D01*
G75*
G02*
X133175000Y-99975000I-225000J0D01*
G01*
X132725000Y-99975000D01*
G75*
G02*
X132500000Y-99750000I0J225000D01*
G01*
G37*
%TD.AperFunction*%
%TO.P,C16,2*%
%TO.N,GND*%
%TA.AperFunction,SMDPad,CuDef*%
G36*
G01*
X134050000Y-99750000D02*
X134050000Y-99250000D01*
G75*
G02*
X134275000Y-99025000I225000J0D01*
G01*
X134725000Y-99025000D01*
G75*
G02*
X134950000Y-99250000I0J-225000D01*
G01*
X134950000Y-99750000D01*
G75*
G02*
X134725000Y-99975000I-225000J0D01*
G01*
X134275000Y-99975000D01*
G75*
G02*
X134050000Y-99750000I0J225000D01*
G01*
G37*
%TD.AperFunction*%
%TD*%
%TO.P,C17,2*%
%TO.N,GND*%
%TA.AperFunction,SMDPad,CuDef*%
G36*
G01*
X145225000Y-89450000D02*
X145225000Y-89950000D01*
G75*
G02*
X145000000Y-90175000I-225000J0D01*
G01*
X144550000Y-90175000D01*
G75*
G02*
X144325000Y-89950000I0J225000D01*
G01*
X144325000Y-89450000D01*
G75*
G02*
X144550000Y-89225000I225000J0D01*
G01*
X145000000Y-89225000D01*
G75*
G02*
X145225000Y-89450000I0J-225000D01*
G01*
G37*
%TD.AperFunction*%
%TO.P,C17,1*%
%TO.N,+3V3*%
%TA.AperFunction,SMDPad,CuDef*%
G36*
G01*
X146775000Y-89450000D02*
X146775000Y-89950000D01*
G75*
G02*
X146550000Y-90175000I-225000J0D01*
G01*
X146100000Y-90175000D01*
G75*
G02*
X145875000Y-89950000I0J225000D01*
G01*
X145875000Y-89450000D01*
G75*
G02*
X146100000Y-89225000I225000J0D01*
G01*
X146550000Y-89225000D01*
G75*
G02*
X146775000Y-89450000I0J-225000D01*
G01*
G37*
%TD.AperFunction*%
%TD*%
%TO.P,U7,1*%
%TO.N,+3V3*%
%TA.AperFunction,SMDPad,CuDef*%
G36*
G01*
X119020000Y-85675000D02*
X119320000Y-85675000D01*
G75*
G02*
X119470000Y-85825000I0J-150000D01*
G01*
X119470000Y-87475000D01*
G75*
G02*
X119320000Y-87625000I-150000J0D01*
G01*
X119020000Y-87625000D01*
G75*
G02*
X118870000Y-87475000I0J150000D01*
G01*
X118870000Y-85825000D01*
G75*
G02*
X119020000Y-85675000I150000J0D01*
G01*
G37*
%TD.AperFunction*%
%TO.P,U7,2*%
%TO.N,Net-(J21-Pad12)*%
%TA.AperFunction,SMDPad,CuDef*%
G36*
G01*
X117750000Y-85675000D02*
X118050000Y-85675000D01*
G75*
G02*
X118200000Y-85825000I0J-150000D01*
G01*
X118200000Y-87475000D01*
G75*
G02*
X118050000Y-87625000I-150000J0D01*
G01*
X117750000Y-87625000D01*
G75*
G02*
X117600000Y-87475000I0J150000D01*
G01*
X117600000Y-85825000D01*
G75*
G02*
X117750000Y-85675000I150000J0D01*
G01*
G37*
%TD.AperFunction*%
%TO.P,U7,3*%
%TO.N,/X_STEP*%
%TA.AperFunction,SMDPad,CuDef*%
G36*
G01*
X116480000Y-85675000D02*
X116780000Y-85675000D01*
G75*
G02*
X116930000Y-85825000I0J-150000D01*
G01*
X116930000Y-87475000D01*
G75*
G02*
X116780000Y-87625000I-150000J0D01*
G01*
X116480000Y-87625000D01*
G75*
G02*
X116330000Y-87475000I0J150000D01*
G01*
X116330000Y-85825000D01*
G75*
G02*
X116480000Y-85675000I150000J0D01*
G01*
G37*
%TD.AperFunction*%
%TO.P,U7,4*%
%TO.N,Net-(J21-Pad11)*%
%TA.AperFunction,SMDPad,CuDef*%
G36*
G01*
X115210000Y-85675000D02*
X115510000Y-85675000D01*
G75*
G02*
X115660000Y-85825000I0J-150000D01*
G01*
X115660000Y-87475000D01*
G75*
G02*
X115510000Y-87625000I-150000J0D01*
G01*
X115210000Y-87625000D01*
G75*
G02*
X115060000Y-87475000I0J150000D01*
G01*
X115060000Y-85825000D01*
G75*
G02*
X115210000Y-85675000I150000J0D01*
G01*
G37*
%TD.AperFunction*%
%TO.P,U7,5*%
%TO.N,/X_DIR*%
%TA.AperFunction,SMDPad,CuDef*%
G36*
G01*
X113940000Y-85675000D02*
X114240000Y-85675000D01*
G75*
G02*
X114390000Y-85825000I0J-150000D01*
G01*
X114390000Y-87475000D01*
G75*
G02*
X114240000Y-87625000I-150000J0D01*
G01*
X113940000Y-87625000D01*
G75*
G02*
X113790000Y-87475000I0J150000D01*
G01*
X113790000Y-85825000D01*
G75*
G02*
X113940000Y-85675000I150000J0D01*
G01*
G37*
%TD.AperFunction*%
%TO.P,U7,6*%
%TO.N,Net-(J21-Pad10)*%
%TA.AperFunction,SMDPad,CuDef*%
G36*
G01*
X112670000Y-85675000D02*
X112970000Y-85675000D01*
G75*
G02*
X113120000Y-85825000I0J-150000D01*
G01*
X113120000Y-87475000D01*
G75*
G02*
X112970000Y-87625000I-150000J0D01*
G01*
X112670000Y-87625000D01*
G75*
G02*
X112520000Y-87475000I0J150000D01*
G01*
X112520000Y-85825000D01*
G75*
G02*
X112670000Y-85675000I150000J0D01*
G01*
G37*
%TD.AperFunction*%
%TO.P,U7,7*%
%TO.N,/Y_STEP*%
%TA.AperFunction,SMDPad,CuDef*%
G36*
G01*
X111400000Y-85675000D02*
X111700000Y-85675000D01*
G75*
G02*
X111850000Y-85825000I0J-150000D01*
G01*
X111850000Y-87475000D01*
G75*
G02*
X111700000Y-87625000I-150000J0D01*
G01*
X111400000Y-87625000D01*
G75*
G02*
X111250000Y-87475000I0J150000D01*
G01*
X111250000Y-85825000D01*
G75*
G02*
X111400000Y-85675000I150000J0D01*
G01*
G37*
%TD.AperFunction*%
%TO.P,U7,8*%
%TO.N,GND*%
%TA.AperFunction,SMDPad,CuDef*%
G36*
G01*
X110130000Y-85675000D02*
X110430000Y-85675000D01*
G75*
G02*
X110580000Y-85825000I0J-150000D01*
G01*
X110580000Y-87475000D01*
G75*
G02*
X110430000Y-87625000I-150000J0D01*
G01*
X110130000Y-87625000D01*
G75*
G02*
X109980000Y-87475000I0J150000D01*
G01*
X109980000Y-85825000D01*
G75*
G02*
X110130000Y-85675000I150000J0D01*
G01*
G37*
%TD.AperFunction*%
%TO.P,U7,9*%
%TO.N,/Z_DIR*%
%TA.AperFunction,SMDPad,CuDef*%
G36*
G01*
X110130000Y-90625000D02*
X110430000Y-90625000D01*
G75*
G02*
X110580000Y-90775000I0J-150000D01*
G01*
X110580000Y-92425000D01*
G75*
G02*
X110430000Y-92575000I-150000J0D01*
G01*
X110130000Y-92575000D01*
G75*
G02*
X109980000Y-92425000I0J150000D01*
G01*
X109980000Y-90775000D01*
G75*
G02*
X110130000Y-90625000I150000J0D01*
G01*
G37*
%TD.AperFunction*%
%TO.P,U7,10*%
%TO.N,Net-(J21-Pad7)*%
%TA.AperFunction,SMDPad,CuDef*%
G36*
G01*
X111400000Y-90625000D02*
X111700000Y-90625000D01*
G75*
G02*
X111850000Y-90775000I0J-150000D01*
G01*
X111850000Y-92425000D01*
G75*
G02*
X111700000Y-92575000I-150000J0D01*
G01*
X111400000Y-92575000D01*
G75*
G02*
X111250000Y-92425000I0J150000D01*
G01*
X111250000Y-90775000D01*
G75*
G02*
X111400000Y-90625000I150000J0D01*
G01*
G37*
%TD.AperFunction*%
%TO.P,U7,11*%
%TO.N,/Z_STEP*%
%TA.AperFunction,SMDPad,CuDef*%
G36*
G01*
X112670000Y-90625000D02*
X112970000Y-90625000D01*
G75*
G02*
X113120000Y-90775000I0J-150000D01*
G01*
X113120000Y-92425000D01*
G75*
G02*
X112970000Y-92575000I-150000J0D01*
G01*
X112670000Y-92575000D01*
G75*
G02*
X112520000Y-92425000I0J150000D01*
G01*
X112520000Y-90775000D01*
G75*
G02*
X112670000Y-90625000I150000J0D01*
G01*
G37*
%TD.AperFunction*%
%TO.P,U7,12*%
%TO.N,Net-(J21-Pad8)*%
%TA.AperFunction,SMDPad,CuDef*%
G36*
G01*
X113940000Y-90625000D02*
X114240000Y-90625000D01*
G75*
G02*
X114390000Y-90775000I0J-150000D01*
G01*
X114390000Y-92425000D01*
G75*
G02*
X114240000Y-92575000I-150000J0D01*
G01*
X113940000Y-92575000D01*
G75*
G02*
X113790000Y-92425000I0J150000D01*
G01*
X113790000Y-90775000D01*
G75*
G02*
X113940000Y-90625000I150000J0D01*
G01*
G37*
%TD.AperFunction*%
%TO.P,U7,13*%
%TO.N,N/C*%
%TA.AperFunction,SMDPad,CuDef*%
G36*
G01*
X115210000Y-90625000D02*
X115510000Y-90625000D01*
G75*
G02*
X115660000Y-90775000I0J-150000D01*
G01*
X115660000Y-92425000D01*
G75*
G02*
X115510000Y-92575000I-150000J0D01*
G01*
X115210000Y-92575000D01*
G75*
G02*
X115060000Y-92425000I0J150000D01*
G01*
X115060000Y-90775000D01*
G75*
G02*
X115210000Y-90625000I150000J0D01*
G01*
G37*
%TD.AperFunction*%
%TO.P,U7,14*%
%TO.N,/Y_DIR*%
%TA.AperFunction,SMDPad,CuDef*%
G36*
G01*
X116480000Y-90625000D02*
X116780000Y-90625000D01*
G75*
G02*
X116930000Y-90775000I0J-150000D01*
G01*
X116930000Y-92425000D01*
G75*
G02*
X116780000Y-92575000I-150000J0D01*
G01*
X116480000Y-92575000D01*
G75*
G02*
X116330000Y-92425000I0J150000D01*
G01*
X116330000Y-90775000D01*
G75*
G02*
X116480000Y-90625000I150000J0D01*
G01*
G37*
%TD.AperFunction*%
%TO.P,U7,15*%
%TO.N,Net-(J21-Pad9)*%
%TA.AperFunction,SMDPad,CuDef*%
G36*
G01*
X117750000Y-90625000D02*
X118050000Y-90625000D01*
G75*
G02*
X118200000Y-90775000I0J-150000D01*
G01*
X118200000Y-92425000D01*
G75*
G02*
X118050000Y-92575000I-150000J0D01*
G01*
X117750000Y-92575000D01*
G75*
G02*
X117600000Y-92425000I0J150000D01*
G01*
X117600000Y-90775000D01*
G75*
G02*
X117750000Y-90625000I150000J0D01*
G01*
G37*
%TD.AperFunction*%
%TO.P,U7,16*%
%TO.N,N/C*%
%TA.AperFunction,SMDPad,CuDef*%
G36*
G01*
X119020000Y-90625000D02*
X119320000Y-90625000D01*
G75*
G02*
X119470000Y-90775000I0J-150000D01*
G01*
X119470000Y-92425000D01*
G75*
G02*
X119320000Y-92575000I-150000J0D01*
G01*
X119020000Y-92575000D01*
G75*
G02*
X118870000Y-92425000I0J150000D01*
G01*
X118870000Y-90775000D01*
G75*
G02*
X119020000Y-90625000I150000J0D01*
G01*
G37*
%TD.AperFunction*%
%TD*%
%TO.P,U8,16*%
%TO.N,N/C*%
%TA.AperFunction,SMDPad,CuDef*%
G36*
G01*
X119040000Y-100675000D02*
X119340000Y-100675000D01*
G75*
G02*
X119490000Y-100825000I0J-150000D01*
G01*
X119490000Y-102475000D01*
G75*
G02*
X119340000Y-102625000I-150000J0D01*
G01*
X119040000Y-102625000D01*
G75*
G02*
X118890000Y-102475000I0J150000D01*
G01*
X118890000Y-100825000D01*
G75*
G02*
X119040000Y-100675000I150000J0D01*
G01*
G37*
%TD.AperFunction*%
%TO.P,U8,15*%
%TO.N,Net-(J15-Pad3)*%
%TA.AperFunction,SMDPad,CuDef*%
G36*
G01*
X117770000Y-100675000D02*
X118070000Y-100675000D01*
G75*
G02*
X118220000Y-100825000I0J-150000D01*
G01*
X118220000Y-102475000D01*
G75*
G02*
X118070000Y-102625000I-150000J0D01*
G01*
X117770000Y-102625000D01*
G75*
G02*
X117620000Y-102475000I0J150000D01*
G01*
X117620000Y-100825000D01*
G75*
G02*
X117770000Y-100675000I150000J0D01*
G01*
G37*
%TD.AperFunction*%
%TO.P,U8,14*%
%TO.N,/SPINDLE_PWM*%
%TA.AperFunction,SMDPad,CuDef*%
G36*
G01*
X116500000Y-100675000D02*
X116800000Y-100675000D01*
G75*
G02*
X116950000Y-100825000I0J-150000D01*
G01*
X116950000Y-102475000D01*
G75*
G02*
X116800000Y-102625000I-150000J0D01*
G01*
X116500000Y-102625000D01*
G75*
G02*
X116350000Y-102475000I0J150000D01*
G01*
X116350000Y-100825000D01*
G75*
G02*
X116500000Y-100675000I150000J0D01*
G01*
G37*
%TD.AperFunction*%
%TO.P,U8,13*%
%TO.N,N/C*%
%TA.AperFunction,SMDPad,CuDef*%
G36*
G01*
X115230000Y-100675000D02*
X115530000Y-100675000D01*
G75*
G02*
X115680000Y-100825000I0J-150000D01*
G01*
X115680000Y-102475000D01*
G75*
G02*
X115530000Y-102625000I-150000J0D01*
G01*
X115230000Y-102625000D01*
G75*
G02*
X115080000Y-102475000I0J150000D01*
G01*
X115080000Y-100825000D01*
G75*
G02*
X115230000Y-100675000I150000J0D01*
G01*
G37*
%TD.AperFunction*%
%TO.P,U8,12*%
%TO.N,Net-(J21-Pad3)*%
%TA.AperFunction,SMDPad,CuDef*%
G36*
G01*
X113960000Y-100675000D02*
X114260000Y-100675000D01*
G75*
G02*
X114410000Y-100825000I0J-150000D01*
G01*
X114410000Y-102475000D01*
G75*
G02*
X114260000Y-102625000I-150000J0D01*
G01*
X113960000Y-102625000D01*
G75*
G02*
X113810000Y-102475000I0J150000D01*
G01*
X113810000Y-100825000D01*
G75*
G02*
X113960000Y-100675000I150000J0D01*
G01*
G37*
%TD.AperFunction*%
%TO.P,U8,11*%
%TO.N,/Y2_DIR*%
%TA.AperFunction,SMDPad,CuDef*%
G36*
G01*
X112690000Y-100675000D02*
X112990000Y-100675000D01*
G75*
G02*
X113140000Y-100825000I0J-150000D01*
G01*
X113140000Y-102475000D01*
G75*
G02*
X112990000Y-102625000I-150000J0D01*
G01*
X112690000Y-102625000D01*
G75*
G02*
X112540000Y-102475000I0J150000D01*
G01*
X112540000Y-100825000D01*
G75*
G02*
X112690000Y-100675000I150000J0D01*
G01*
G37*
%TD.AperFunction*%
%TO.P,U8,10*%
%TO.N,Net-(J21-Pad2)*%
%TA.AperFunction,SMDPad,CuDef*%
G36*
G01*
X111420000Y-100675000D02*
X111720000Y-100675000D01*
G75*
G02*
X111870000Y-100825000I0J-150000D01*
G01*
X111870000Y-102475000D01*
G75*
G02*
X111720000Y-102625000I-150000J0D01*
G01*
X111420000Y-102625000D01*
G75*
G02*
X111270000Y-102475000I0J150000D01*
G01*
X111270000Y-100825000D01*
G75*
G02*
X111420000Y-100675000I150000J0D01*
G01*
G37*
%TD.AperFunction*%
%TO.P,U8,9*%
%TO.N,/~ENABLE*%
%TA.AperFunction,SMDPad,CuDef*%
G36*
G01*
X110150000Y-100675000D02*
X110450000Y-100675000D01*
G75*
G02*
X110600000Y-100825000I0J-150000D01*
G01*
X110600000Y-102475000D01*
G75*
G02*
X110450000Y-102625000I-150000J0D01*
G01*
X110150000Y-102625000D01*
G75*
G02*
X110000000Y-102475000I0J150000D01*
G01*
X110000000Y-100825000D01*
G75*
G02*
X110150000Y-100675000I150000J0D01*
G01*
G37*
%TD.AperFunction*%
%TO.P,U8,8*%
%TO.N,GND*%
%TA.AperFunction,SMDPad,CuDef*%
G36*
G01*
X110150000Y-95725000D02*
X110450000Y-95725000D01*
G75*
G02*
X110600000Y-95875000I0J-150000D01*
G01*
X110600000Y-97525000D01*
G75*
G02*
X110450000Y-97675000I-150000J0D01*
G01*
X110150000Y-97675000D01*
G75*
G02*
X110000000Y-97525000I0J150000D01*
G01*
X110000000Y-95875000D01*
G75*
G02*
X110150000Y-95725000I150000J0D01*
G01*
G37*
%TD.AperFunction*%
%TO.P,U8,7*%
%TO.N,/Y2_STEP*%
%TA.AperFunction,SMDPad,CuDef*%
G36*
G01*
X111420000Y-95725000D02*
X111720000Y-95725000D01*
G75*
G02*
X111870000Y-95875000I0J-150000D01*
G01*
X111870000Y-97525000D01*
G75*
G02*
X111720000Y-97675000I-150000J0D01*
G01*
X111420000Y-97675000D01*
G75*
G02*
X111270000Y-97525000I0J150000D01*
G01*
X111270000Y-95875000D01*
G75*
G02*
X111420000Y-95725000I150000J0D01*
G01*
G37*
%TD.AperFunction*%
%TO.P,U8,6*%
%TO.N,Net-(J21-Pad4)*%
%TA.AperFunction,SMDPad,CuDef*%
G36*
G01*
X112690000Y-95725000D02*
X112990000Y-95725000D01*
G75*
G02*
X113140000Y-95875000I0J-150000D01*
G01*
X113140000Y-97525000D01*
G75*
G02*
X112990000Y-97675000I-150000J0D01*
G01*
X112690000Y-97675000D01*
G75*
G02*
X112540000Y-97525000I0J150000D01*
G01*
X112540000Y-95875000D01*
G75*
G02*
X112690000Y-95725000I150000J0D01*
G01*
G37*
%TD.AperFunction*%
%TO.P,U8,5*%
%TO.N,/X2_DIR*%
%TA.AperFunction,SMDPad,CuDef*%
G36*
G01*
X113960000Y-95725000D02*
X114260000Y-95725000D01*
G75*
G02*
X114410000Y-95875000I0J-150000D01*
G01*
X114410000Y-97525000D01*
G75*
G02*
X114260000Y-97675000I-150000J0D01*
G01*
X113960000Y-97675000D01*
G75*
G02*
X113810000Y-97525000I0J150000D01*
G01*
X113810000Y-95875000D01*
G75*
G02*
X113960000Y-95725000I150000J0D01*
G01*
G37*
%TD.AperFunction*%
%TO.P,U8,4*%
%TO.N,Net-(J21-Pad5)*%
%TA.AperFunction,SMDPad,CuDef*%
G36*
G01*
X115230000Y-95725000D02*
X115530000Y-95725000D01*
G75*
G02*
X115680000Y-95875000I0J-150000D01*
G01*
X115680000Y-97525000D01*
G75*
G02*
X115530000Y-97675000I-150000J0D01*
G01*
X115230000Y-97675000D01*
G75*
G02*
X115080000Y-97525000I0J150000D01*
G01*
X115080000Y-95875000D01*
G75*
G02*
X115230000Y-95725000I150000J0D01*
G01*
G37*
%TD.AperFunction*%
%TO.P,U8,3*%
%TO.N,/X2_STEP*%
%TA.AperFunction,SMDPad,CuDef*%
G36*
G01*
X116500000Y-95725000D02*
X116800000Y-95725000D01*
G75*
G02*
X116950000Y-95875000I0J-150000D01*
G01*
X116950000Y-97525000D01*
G75*
G02*
X116800000Y-97675000I-150000J0D01*
G01*
X116500000Y-97675000D01*
G75*
G02*
X116350000Y-97525000I0J150000D01*
G01*
X116350000Y-95875000D01*
G75*
G02*
X116500000Y-95725000I150000J0D01*
G01*
G37*
%TD.AperFunction*%
%TO.P,U8,2*%
%TO.N,Net-(J21-Pad6)*%
%TA.AperFunction,SMDPad,CuDef*%
G36*
G01*
X117770000Y-95725000D02*
X118070000Y-95725000D01*
G75*
G02*
X118220000Y-95875000I0J-150000D01*
G01*
X118220000Y-97525000D01*
G75*
G02*
X118070000Y-97675000I-150000J0D01*
G01*
X117770000Y-97675000D01*
G75*
G02*
X117620000Y-97525000I0J150000D01*
G01*
X117620000Y-95875000D01*
G75*
G02*
X117770000Y-95725000I150000J0D01*
G01*
G37*
%TD.AperFunction*%
%TO.P,U8,1*%
%TO.N,+3V3*%
%TA.AperFunction,SMDPad,CuDef*%
G36*
G01*
X119040000Y-95725000D02*
X119340000Y-95725000D01*
G75*
G02*
X119490000Y-95875000I0J-150000D01*
G01*
X119490000Y-97525000D01*
G75*
G02*
X119340000Y-97675000I-150000J0D01*
G01*
X119040000Y-97675000D01*
G75*
G02*
X118890000Y-97525000I0J150000D01*
G01*
X118890000Y-95875000D01*
G75*
G02*
X119040000Y-95725000I150000J0D01*
G01*
G37*
%TD.AperFunction*%
%TD*%
%TO.P,D9,1*%
%TO.N,GND*%
%TA.AperFunction,SMDPad,CuDef*%
G36*
G01*
X154375000Y-84325000D02*
X154375000Y-85575000D01*
G75*
G02*
X154125000Y-85825000I-250000J0D01*
G01*
X153375000Y-85825000D01*
G75*
G02*
X153125000Y-85575000I0J250000D01*
G01*
X153125000Y-84325000D01*
G75*
G02*
X153375000Y-84075000I250000J0D01*
G01*
X154125000Y-84075000D01*
G75*
G02*
X154375000Y-84325000I0J-250000D01*
G01*
G37*
%TD.AperFunction*%
%TO.P,D9,2*%
%TO.N,Net-(D9-Pad2)*%
%TA.AperFunction,SMDPad,CuDef*%
G36*
G01*
X151575000Y-84325000D02*
X151575000Y-85575000D01*
G75*
G02*
X151325000Y-85825000I-250000J0D01*
G01*
X150575000Y-85825000D01*
G75*
G02*
X150325000Y-85575000I0J250000D01*
G01*
X150325000Y-84325000D01*
G75*
G02*
X150575000Y-84075000I250000J0D01*
G01*
X151325000Y-84075000D01*
G75*
G02*
X151575000Y-84325000I0J-250000D01*
G01*
G37*
%TD.AperFunction*%
%TD*%
%TO.P,F1,2*%
%TO.N,Net-(F1-Pad2)*%
%TA.AperFunction,SMDPad,CuDef*%
G36*
G01*
X171025000Y-79275000D02*
X171025000Y-80525000D01*
G75*
G02*
X170775000Y-80775000I-250000J0D01*
G01*
X170025000Y-80775000D01*
G75*
G02*
X169775000Y-80525000I0J250000D01*
G01*
X169775000Y-79275000D01*
G75*
G02*
X170025000Y-79025000I250000J0D01*
G01*
X170775000Y-79025000D01*
G75*
G02*
X171025000Y-79275000I0J-250000D01*
G01*
G37*
%TD.AperFunction*%
%TO.P,F1,1*%
%TO.N,+24V*%
%TA.AperFunction,SMDPad,CuDef*%
G36*
G01*
X173825000Y-79275000D02*
X173825000Y-80525000D01*
G75*
G02*
X173575000Y-80775000I-250000J0D01*
G01*
X172825000Y-80775000D01*
G75*
G02*
X172575000Y-80525000I0J250000D01*
G01*
X172575000Y-79275000D01*
G75*
G02*
X172825000Y-79025000I250000J0D01*
G01*
X173575000Y-79025000D01*
G75*
G02*
X173825000Y-79275000I0J-250000D01*
G01*
G37*
%TD.AperFunction*%
%TD*%
%TO.P,F2,1*%
%TO.N,Net-(F2-Pad1)*%
%TA.AperFunction,SMDPad,CuDef*%
G36*
G01*
X165925000Y-79325000D02*
X165925000Y-80575000D01*
G75*
G02*
X165675000Y-80825000I-250000J0D01*
G01*
X164925000Y-80825000D01*
G75*
G02*
X164675000Y-80575000I0J250000D01*
G01*
X164675000Y-79325000D01*
G75*
G02*
X164925000Y-79075000I250000J0D01*
G01*
X165675000Y-79075000D01*
G75*
G02*
X165925000Y-79325000I0J-250000D01*
G01*
G37*
%TD.AperFunction*%
%TO.P,F2,2*%
%TO.N,+5V*%
%TA.AperFunction,SMDPad,CuDef*%
G36*
G01*
X163125000Y-79325000D02*
X163125000Y-80575000D01*
G75*
G02*
X162875000Y-80825000I-250000J0D01*
G01*
X162125000Y-80825000D01*
G75*
G02*
X161875000Y-80575000I0J250000D01*
G01*
X161875000Y-79325000D01*
G75*
G02*
X162125000Y-79075000I250000J0D01*
G01*
X162875000Y-79075000D01*
G75*
G02*
X163125000Y-79325000I0J-250000D01*
G01*
G37*
%TD.AperFunction*%
%TD*%
%TO.P,J9,1*%
%TO.N,Net-(F1-Pad2)*%
%TA.AperFunction,ComponentPad*%
G36*
G01*
X175700000Y-72450000D02*
X175700000Y-75550000D01*
G75*
G02*
X175450000Y-75800000I-250000J0D01*
G01*
X174150000Y-75800000D01*
G75*
G02*
X173900000Y-75550000I0J250000D01*
G01*
X173900000Y-72450000D01*
G75*
G02*
X174150000Y-72200000I250000J0D01*
G01*
X175450000Y-72200000D01*
G75*
G02*
X175700000Y-72450000I0J-250000D01*
G01*
G37*
%TD.AperFunction*%
D18*
%TO.P,J9,2*%
%TO.N,GND*%
X171300000Y-74000000D03*
%TO.P,J9,3*%
X167800000Y-74000000D03*
%TO.P,J9,4*%
%TO.N,Net-(F2-Pad1)*%
X164300000Y-74000000D03*
%TD*%
%TO.P,R31,2*%
%TO.N,Net-(D9-Pad2)*%
%TA.AperFunction,SMDPad,CuDef*%
G36*
G01*
X149750000Y-87125000D02*
X149750000Y-86575000D01*
G75*
G02*
X149950000Y-86375000I200000J0D01*
G01*
X150350000Y-86375000D01*
G75*
G02*
X150550000Y-86575000I0J-200000D01*
G01*
X150550000Y-87125000D01*
G75*
G02*
X150350000Y-87325000I-200000J0D01*
G01*
X149950000Y-87325000D01*
G75*
G02*
X149750000Y-87125000I0J200000D01*
G01*
G37*
%TD.AperFunction*%
%TO.P,R31,1*%
%TO.N,+24V*%
%TA.AperFunction,SMDPad,CuDef*%
G36*
G01*
X148100000Y-87125000D02*
X148100000Y-86575000D01*
G75*
G02*
X148300000Y-86375000I200000J0D01*
G01*
X148700000Y-86375000D01*
G75*
G02*
X148900000Y-86575000I0J-200000D01*
G01*
X148900000Y-87125000D01*
G75*
G02*
X148700000Y-87325000I-200000J0D01*
G01*
X148300000Y-87325000D01*
G75*
G02*
X148100000Y-87125000I0J200000D01*
G01*
G37*
%TD.AperFunction*%
%TD*%
%TO.P,D10,1*%
%TO.N,GND*%
%TA.AperFunction,SMDPad,CuDef*%
G36*
G01*
X179325000Y-93475000D02*
X179325000Y-94725000D01*
G75*
G02*
X179075000Y-94975000I-250000J0D01*
G01*
X178325000Y-94975000D01*
G75*
G02*
X178075000Y-94725000I0J250000D01*
G01*
X178075000Y-93475000D01*
G75*
G02*
X178325000Y-93225000I250000J0D01*
G01*
X179075000Y-93225000D01*
G75*
G02*
X179325000Y-93475000I0J-250000D01*
G01*
G37*
%TD.AperFunction*%
%TO.P,D10,2*%
%TO.N,Net-(D10-Pad2)*%
%TA.AperFunction,SMDPad,CuDef*%
G36*
G01*
X176525000Y-93475000D02*
X176525000Y-94725000D01*
G75*
G02*
X176275000Y-94975000I-250000J0D01*
G01*
X175525000Y-94975000D01*
G75*
G02*
X175275000Y-94725000I0J250000D01*
G01*
X175275000Y-93475000D01*
G75*
G02*
X175525000Y-93225000I250000J0D01*
G01*
X176275000Y-93225000D01*
G75*
G02*
X176525000Y-93475000I0J-250000D01*
G01*
G37*
%TD.AperFunction*%
%TD*%
D17*
%TO.P,D16,1*%
%TO.N,+24V*%
X173100000Y-102300000D03*
%TO.P,D16,2*%
%TO.N,Net-(D16-Pad2)*%
X173100000Y-98300000D03*
%TD*%
D19*
%TO.P,J10,2*%
%TO.N,Net-(D15-Pad2)*%
X179750000Y-85500000D03*
%TO.P,J10,1*%
%TO.N,+24V*%
%TA.AperFunction,ComponentPad*%
G36*
G01*
X181300000Y-89900000D02*
X178200000Y-89900000D01*
G75*
G02*
X177950000Y-89650000I0J250000D01*
G01*
X177950000Y-88350000D01*
G75*
G02*
X178200000Y-88100000I250000J0D01*
G01*
X181300000Y-88100000D01*
G75*
G02*
X181550000Y-88350000I0J-250000D01*
G01*
X181550000Y-89650000D01*
G75*
G02*
X181300000Y-89900000I-250000J0D01*
G01*
G37*
%TD.AperFunction*%
%TD*%
%TO.P,J16,1*%
%TO.N,+24V*%
%TA.AperFunction,ComponentPad*%
G36*
G01*
X181300000Y-102650000D02*
X178200000Y-102650000D01*
G75*
G02*
X177950000Y-102400000I0J250000D01*
G01*
X177950000Y-101100000D01*
G75*
G02*
X178200000Y-100850000I250000J0D01*
G01*
X181300000Y-100850000D01*
G75*
G02*
X181550000Y-101100000I0J-250000D01*
G01*
X181550000Y-102400000D01*
G75*
G02*
X181300000Y-102650000I-250000J0D01*
G01*
G37*
%TD.AperFunction*%
%TO.P,J16,2*%
%TO.N,Net-(D16-Pad2)*%
X179750000Y-98250000D03*
%TD*%
D20*
%TO.P,Q1,1*%
%TO.N,Net-(Q1-Pad1)*%
X157225000Y-84860000D03*
%TO.P,Q1,3*%
%TO.N,GND*%
X157225000Y-89940000D03*
D21*
%TO.P,Q1,2*%
%TO.N,Net-(D15-Pad2)*%
X166375000Y-87400000D03*
%TD*%
%TO.P,Q2,2*%
%TO.N,Net-(D16-Pad2)*%
X166375000Y-99625000D03*
D20*
%TO.P,Q2,3*%
%TO.N,GND*%
X157225000Y-102165000D03*
%TO.P,Q2,1*%
%TO.N,Net-(Q2-Pad1)*%
X157225000Y-97085000D03*
%TD*%
%TO.P,R38,1*%
%TO.N,/COOLING*%
%TA.AperFunction,SMDPad,CuDef*%
G36*
G01*
X172100000Y-94375000D02*
X172100000Y-93825000D01*
G75*
G02*
X172300000Y-93625000I200000J0D01*
G01*
X172700000Y-93625000D01*
G75*
G02*
X172900000Y-93825000I0J-200000D01*
G01*
X172900000Y-94375000D01*
G75*
G02*
X172700000Y-94575000I-200000J0D01*
G01*
X172300000Y-94575000D01*
G75*
G02*
X172100000Y-94375000I0J200000D01*
G01*
G37*
%TD.AperFunction*%
%TO.P,R38,2*%
%TO.N,Net-(D10-Pad2)*%
%TA.AperFunction,SMDPad,CuDef*%
G36*
G01*
X173750000Y-94375000D02*
X173750000Y-93825000D01*
G75*
G02*
X173950000Y-93625000I200000J0D01*
G01*
X174350000Y-93625000D01*
G75*
G02*
X174550000Y-93825000I0J-200000D01*
G01*
X174550000Y-94375000D01*
G75*
G02*
X174350000Y-94575000I-200000J0D01*
G01*
X173950000Y-94575000D01*
G75*
G02*
X173750000Y-94375000I0J200000D01*
G01*
G37*
%TD.AperFunction*%
%TD*%
%TO.P,R39,1*%
%TO.N,/ESTOP_OUT*%
%TA.AperFunction,SMDPad,CuDef*%
G36*
G01*
X172250000Y-82375000D02*
X172250000Y-81825000D01*
G75*
G02*
X172450000Y-81625000I200000J0D01*
G01*
X172850000Y-81625000D01*
G75*
G02*
X173050000Y-81825000I0J-200000D01*
G01*
X173050000Y-82375000D01*
G75*
G02*
X172850000Y-82575000I-200000J0D01*
G01*
X172450000Y-82575000D01*
G75*
G02*
X172250000Y-82375000I0J200000D01*
G01*
G37*
%TD.AperFunction*%
%TO.P,R39,2*%
%TO.N,Net-(D14-Pad2)*%
%TA.AperFunction,SMDPad,CuDef*%
G36*
G01*
X173900000Y-82375000D02*
X173900000Y-81825000D01*
G75*
G02*
X174100000Y-81625000I200000J0D01*
G01*
X174500000Y-81625000D01*
G75*
G02*
X174700000Y-81825000I0J-200000D01*
G01*
X174700000Y-82375000D01*
G75*
G02*
X174500000Y-82575000I-200000J0D01*
G01*
X174100000Y-82575000D01*
G75*
G02*
X173900000Y-82375000I0J200000D01*
G01*
G37*
%TD.AperFunction*%
%TD*%
%TO.P,R40,2*%
%TO.N,GND*%
%TA.AperFunction,SMDPad,CuDef*%
G36*
G01*
X158700000Y-80475000D02*
X158700000Y-79925000D01*
G75*
G02*
X158900000Y-79725000I200000J0D01*
G01*
X159300000Y-79725000D01*
G75*
G02*
X159500000Y-79925000I0J-200000D01*
G01*
X159500000Y-80475000D01*
G75*
G02*
X159300000Y-80675000I-200000J0D01*
G01*
X158900000Y-80675000D01*
G75*
G02*
X158700000Y-80475000I0J200000D01*
G01*
G37*
%TD.AperFunction*%
%TO.P,R40,1*%
%TO.N,/ESTOP_OUT*%
%TA.AperFunction,SMDPad,CuDef*%
G36*
G01*
X157050000Y-80475000D02*
X157050000Y-79925000D01*
G75*
G02*
X157250000Y-79725000I200000J0D01*
G01*
X157650000Y-79725000D01*
G75*
G02*
X157850000Y-79925000I0J-200000D01*
G01*
X157850000Y-80475000D01*
G75*
G02*
X157650000Y-80675000I-200000J0D01*
G01*
X157250000Y-80675000D01*
G75*
G02*
X157050000Y-80475000I0J200000D01*
G01*
G37*
%TD.AperFunction*%
%TD*%
D22*
%TO.N,/Y_DIR*%
X116550010Y-89966786D03*
%TO.N,+24V*%
X147650000Y-86850000D03*
X172300000Y-91950000D03*
X181150000Y-105800000D03*
X117250000Y-103650000D03*
%TO.N,/Y_STEP*%
X111253149Y-85200000D03*
%TO.N,GND*%
X109000000Y-108200000D03*
X110000000Y-85100000D03*
X110000000Y-95400000D03*
X141000000Y-103150000D03*
X140044990Y-90448952D03*
X142650000Y-87500000D03*
X121050000Y-83550000D03*
X121200000Y-84700000D03*
X122300000Y-97650000D03*
X136400000Y-100650000D03*
X154500000Y-103000000D03*
X155050000Y-103650000D03*
X155950000Y-103350000D03*
X153350000Y-90650000D03*
X153150000Y-91650000D03*
X112650000Y-104500000D03*
X150500000Y-82650000D03*
X160300000Y-80200000D03*
X180600000Y-93950000D03*
X180300000Y-81450000D03*
X117401048Y-108401048D03*
%TO.N,+3V3*%
X151850000Y-101400000D03*
X155650000Y-99000000D03*
X141450000Y-101000000D03*
X121200000Y-100550000D03*
%TO.N,/~ENABLE*%
X110300000Y-100200000D03*
%TO.N,/X_DIR*%
X113653171Y-85073471D03*
%TO.N,/X_STEP*%
X116900000Y-84800000D03*
%TO.N,/Z_DIR*%
X110200000Y-90200000D03*
%TO.N,/Z_STEP*%
X112700000Y-90200000D03*
%TO.N,/Y2_DIR*%
X112800000Y-99900000D03*
%TO.N,/Y2_STEP*%
X111500000Y-95300000D03*
%TO.N,/X2_DIR*%
X114200000Y-95000000D03*
%TO.N,/X2_STEP*%
X116400000Y-94800000D03*
%TO.N,+5V*%
X109000000Y-77300000D03*
X108800000Y-78350000D03*
X153300000Y-87350000D03*
X133990001Y-71295999D03*
%TO.N,Net-(J1-Pad1)*%
X158850000Y-109850000D03*
%TO.N,/COOLING*%
X149000000Y-93350000D03*
%TO.N,/ESTOP_OUT*%
X153450000Y-82400000D03*
%TO.N,/SPINDLE_PWM*%
X117300000Y-98400000D03*
%TO.N,Net-(R11-Pad1)*%
X123600000Y-106500000D03*
X140600051Y-77550000D03*
%TO.N,Net-(R12-Pad1)*%
X126200000Y-103100000D03*
X140100000Y-79300000D03*
%TO.N,Net-(R13-Pad1)*%
X127200000Y-101900000D03*
X139500000Y-80750000D03*
%TO.N,Net-(R15-Pad1)*%
X152450000Y-76450000D03*
X145736713Y-102105445D03*
%TO.N,Net-(R16-Pad1)*%
X145550000Y-94000000D03*
X151850000Y-79300000D03*
%TO.N,Net-(R25-Pad1)*%
X138650000Y-81750000D03*
X139247172Y-98649990D03*
%TO.N,Net-(R26-Pad1)*%
X137900000Y-82600000D03*
X141501048Y-99198952D03*
%TO.N,Net-(R28-Pad2)*%
X143250000Y-94900000D03*
X145850000Y-81050000D03*
%TD*%
D23*
%TO.N,/Y_DIR*%
X116630000Y-91600000D02*
X116630000Y-90046776D01*
X116630000Y-90046776D02*
X116550010Y-89966786D01*
%TO.N,+24V*%
X148500000Y-86850000D02*
X147650000Y-86850000D01*
D24*
X179750000Y-101750000D02*
X182050000Y-101750000D01*
X182050000Y-101750000D02*
X182900000Y-100900000D01*
X182900000Y-80100000D02*
X181400000Y-78600000D01*
X182700000Y-89000000D02*
X182900000Y-89200000D01*
X179750000Y-89000000D02*
X182700000Y-89000000D01*
X182900000Y-89200000D02*
X182900000Y-80100000D01*
X182900000Y-100900000D02*
X182900000Y-89200000D01*
X179200000Y-102300000D02*
X179750000Y-101750000D01*
X173100000Y-102300000D02*
X179200000Y-102300000D01*
X179750000Y-89000000D02*
X178200000Y-89000000D01*
X178200000Y-89000000D02*
X177700000Y-89500000D01*
X174650000Y-79150000D02*
X173950000Y-79850000D01*
X175200000Y-78600000D02*
X174650000Y-79150000D01*
D23*
X172300000Y-91950000D02*
X174000000Y-91950000D01*
X174750000Y-91200000D02*
X174750000Y-89500000D01*
X174000000Y-91950000D02*
X174750000Y-91200000D01*
D24*
X174750000Y-89500000D02*
X173150000Y-89500000D01*
X177700000Y-89500000D02*
X174750000Y-89500000D01*
X181400000Y-78600000D02*
X175200000Y-78600000D01*
D23*
X116225000Y-104650000D02*
X117450000Y-104650000D01*
X117450000Y-104650000D02*
X118300000Y-104650000D01*
X182050000Y-104900000D02*
X181150000Y-105800000D01*
X182050000Y-101750000D02*
X182050000Y-104900000D01*
X117250000Y-104450000D02*
X117450000Y-104650000D01*
X117250000Y-103650000D02*
X117250000Y-104450000D01*
%TO.N,/Y_STEP*%
X111550000Y-86650000D02*
X111550000Y-85496851D01*
X111550000Y-85496851D02*
X111253149Y-85200000D01*
%TO.N,GND*%
X109300000Y-108500000D02*
X109000000Y-108200000D01*
X110200000Y-108500000D02*
X109300000Y-108500000D01*
X107400000Y-111700000D02*
X106400000Y-111700000D01*
X106400000Y-111700000D02*
X106100000Y-112000000D01*
X106100000Y-112000000D02*
X106100000Y-119100000D01*
X107700000Y-120700000D02*
X109400000Y-120700000D01*
X106100000Y-119100000D02*
X107700000Y-120700000D01*
X117200000Y-111400000D02*
X116800000Y-111400000D01*
X116800000Y-111400000D02*
X116300000Y-111900000D01*
X116300000Y-111900000D02*
X116300000Y-117000000D01*
X117400000Y-118100000D02*
X119100000Y-118100000D01*
X116300000Y-117000000D02*
X117400000Y-118100000D01*
X125700000Y-111500000D02*
X125700000Y-117400000D01*
X126500000Y-118200000D02*
X127600000Y-118200000D01*
X125700000Y-117400000D02*
X126500000Y-118200000D01*
X134100000Y-111500000D02*
X134100000Y-117400000D01*
X134900000Y-118200000D02*
X136100000Y-118200000D01*
X134100000Y-117400000D02*
X134900000Y-118200000D01*
X142600000Y-111500000D02*
X142600000Y-117800000D01*
X143000000Y-118200000D02*
X144600000Y-118200000D01*
X142600000Y-117800000D02*
X143000000Y-118200000D01*
X151100000Y-111500000D02*
X151100000Y-117400000D01*
X151900000Y-118200000D02*
X153100000Y-118200000D01*
X151100000Y-117400000D02*
X151900000Y-118200000D01*
X168100000Y-111500000D02*
X168100000Y-117500000D01*
X168800000Y-118200000D02*
X170100000Y-118200000D01*
X168100000Y-117500000D02*
X168800000Y-118200000D01*
X159600000Y-111500000D02*
X159600000Y-117500000D01*
X160300000Y-118200000D02*
X161600000Y-118200000D01*
X159600000Y-117500000D02*
X160300000Y-118200000D01*
X176600000Y-109500000D02*
X176600000Y-115200000D01*
X177600000Y-116200000D02*
X178600000Y-116200000D01*
X176600000Y-115200000D02*
X177600000Y-116200000D01*
X110280000Y-85380000D02*
X110000000Y-85100000D01*
X110280000Y-86650000D02*
X110280000Y-85380000D01*
X110300000Y-95700000D02*
X110000000Y-95400000D01*
X110300000Y-96700000D02*
X110300000Y-95700000D01*
X142770000Y-103080000D02*
X142770000Y-104600000D01*
X142950000Y-102900000D02*
X142770000Y-103080000D01*
X146580000Y-99650000D02*
X146580000Y-100770000D01*
X146580000Y-100770000D02*
X146150000Y-101200000D01*
X146150000Y-101200000D02*
X144500000Y-101200000D01*
X144040000Y-100740000D02*
X144040000Y-99650000D01*
X144500000Y-101200000D02*
X144040000Y-100740000D01*
X144500000Y-101200000D02*
X143250000Y-101200000D01*
X142770000Y-100720000D02*
X142770000Y-99650000D01*
X143250000Y-101200000D02*
X142770000Y-100720000D01*
X143250000Y-101200000D02*
X142950000Y-101200000D01*
X141250000Y-102900000D02*
X141000000Y-103150000D01*
X142950000Y-102900000D02*
X141250000Y-102900000D01*
X138355000Y-92225000D02*
X138355000Y-90695000D01*
X138601048Y-90448952D02*
X140044990Y-90448952D01*
X138355000Y-90695000D02*
X138601048Y-90448952D01*
X154800000Y-93500000D02*
X153700000Y-93500000D01*
X153750000Y-86300000D02*
X153750000Y-84950000D01*
X154800000Y-87350000D02*
X153750000Y-86300000D01*
X154550000Y-89250000D02*
X154800000Y-89000000D01*
X153750000Y-89250000D02*
X154550000Y-89250000D01*
X154800000Y-89000000D02*
X154800000Y-87350000D01*
X154800000Y-90600000D02*
X154800000Y-89000000D01*
X154800000Y-93500000D02*
X154800000Y-90600000D01*
X149350000Y-85350000D02*
X149350000Y-83850000D01*
X149350000Y-83850000D02*
X149350000Y-82350000D01*
X142900000Y-87750000D02*
X142650000Y-87500000D01*
X143400000Y-87750000D02*
X142900000Y-87750000D01*
X143550000Y-87600000D02*
X143400000Y-87750000D01*
X145200000Y-87600000D02*
X143550000Y-87600000D01*
X144775000Y-89700000D02*
X144450000Y-89700000D01*
X143400000Y-88650000D02*
X143400000Y-87750000D01*
X144450000Y-89700000D02*
X143400000Y-88650000D01*
D25*
X120800000Y-80800000D02*
X121349959Y-81349959D01*
X119400000Y-80800000D02*
X120800000Y-80800000D01*
X121349959Y-83250041D02*
X121050000Y-83550000D01*
X121349959Y-81349959D02*
X121349959Y-83250041D01*
X121050000Y-84550000D02*
X121200000Y-84700000D01*
X121050000Y-83550000D02*
X121050000Y-84550000D01*
D23*
X120850000Y-83750000D02*
X121050000Y-83550000D01*
X120850000Y-86150000D02*
X120850000Y-83750000D01*
X122390000Y-99850000D02*
X122390000Y-98590000D01*
X122390000Y-98590000D02*
X122100000Y-98300000D01*
X121350000Y-98300000D02*
X120800000Y-97750000D01*
X122100000Y-98300000D02*
X121350000Y-98300000D01*
X122100000Y-97850000D02*
X122300000Y-97650000D01*
X122100000Y-98300000D02*
X122100000Y-97850000D01*
X134500000Y-99500000D02*
X134550000Y-99500000D01*
X134550000Y-99500000D02*
X135700000Y-100650000D01*
X135700000Y-100650000D02*
X136400000Y-100650000D01*
D25*
X157225000Y-102165000D02*
X155135000Y-102165000D01*
X154500000Y-102800000D02*
X154500000Y-103000000D01*
X155135000Y-102165000D02*
X154500000Y-102800000D01*
X154500000Y-103100000D02*
X155050000Y-103650000D01*
X154500000Y-103000000D02*
X154500000Y-103100000D01*
X155300000Y-103000000D02*
X154500000Y-103000000D01*
X155950000Y-103350000D02*
X155300000Y-103000000D01*
X153900000Y-91200000D02*
X153350000Y-90650000D01*
X154100000Y-91200000D02*
X153900000Y-91200000D01*
X153600000Y-91200000D02*
X153150000Y-91650000D01*
X154100000Y-91200000D02*
X153600000Y-91200000D01*
D23*
X112450000Y-104700000D02*
X112650000Y-104500000D01*
X111800000Y-104700000D02*
X112450000Y-104700000D01*
X114112500Y-105600000D02*
X112950000Y-105600000D01*
X112450000Y-105100000D02*
X112450000Y-104700000D01*
X112950000Y-105600000D02*
X112450000Y-105100000D01*
X145310000Y-103210000D02*
X145000000Y-102900000D01*
X145310000Y-104600000D02*
X145310000Y-103210000D01*
X145000000Y-102900000D02*
X142950000Y-102900000D01*
X142950000Y-101200000D02*
X141000000Y-103150000D01*
X153900000Y-102200000D02*
X154500000Y-102800000D01*
X153900000Y-100750000D02*
X153900000Y-102200000D01*
X150200000Y-82350000D02*
X150500000Y-82650000D01*
X149350000Y-82350000D02*
X150200000Y-82350000D01*
X159100000Y-80200000D02*
X160300000Y-80200000D01*
X153425000Y-95450000D02*
X154110035Y-95450000D01*
X154110035Y-95450000D02*
X154800000Y-94760035D01*
X154800000Y-94760035D02*
X154800000Y-93500000D01*
X180450000Y-94100000D02*
X180600000Y-93950000D01*
X178700000Y-94100000D02*
X180450000Y-94100000D01*
D25*
X155360000Y-89940000D02*
X154100000Y-91200000D01*
X157225000Y-89940000D02*
X155360000Y-89940000D01*
D23*
X180200000Y-81350000D02*
X180300000Y-81450000D01*
X178700000Y-81350000D02*
X180200000Y-81350000D01*
D26*
X123950001Y-73749999D02*
X125240000Y-72460000D01*
X121410001Y-73749999D02*
X123950001Y-73749999D01*
X120160000Y-75000000D02*
X121410001Y-73749999D01*
D23*
X120160000Y-80040000D02*
X119400000Y-80800000D01*
X120160000Y-75000000D02*
X120160000Y-80040000D01*
X118300000Y-107502096D02*
X117401048Y-108401048D01*
X118300000Y-106200000D02*
X118300000Y-107502096D01*
%TO.N,+3V3*%
X151660000Y-98290000D02*
X151660000Y-99650000D01*
X151800000Y-98150000D02*
X151660000Y-98290000D01*
X147245000Y-92225000D02*
X147245000Y-90905000D01*
X147245000Y-90905000D02*
X147500000Y-90650000D01*
X148050000Y-91200000D02*
X147500000Y-90650000D01*
X148700000Y-91200000D02*
X148050000Y-91200000D01*
X150433509Y-98150000D02*
X149150000Y-96866491D01*
X151800000Y-98150000D02*
X150433509Y-98150000D01*
X149150000Y-96866491D02*
X149150000Y-95750000D01*
X147245000Y-93845000D02*
X147245000Y-92225000D01*
X149150000Y-95750000D02*
X147245000Y-93845000D01*
X147800000Y-83850000D02*
X147500000Y-83850000D01*
X147500000Y-83850000D02*
X146800000Y-84550000D01*
X147800000Y-85350000D02*
X146650000Y-85350000D01*
X146650000Y-85350000D02*
X146800000Y-85200000D01*
X146800000Y-84550000D02*
X146800000Y-84850000D01*
X146800000Y-84850000D02*
X146800000Y-85200000D01*
X138900000Y-85300000D02*
X145200000Y-85300000D01*
X145250000Y-85350000D02*
X145200000Y-85300000D01*
X147800000Y-85350000D02*
X145250000Y-85350000D01*
X147500000Y-90650000D02*
X147500000Y-89600000D01*
X147500000Y-89600000D02*
X146750000Y-88850000D01*
X146750000Y-84900000D02*
X146800000Y-84850000D01*
X146750000Y-88850000D02*
X146750000Y-84900000D01*
X147400000Y-89700000D02*
X147500000Y-89600000D01*
X146325000Y-89700000D02*
X147400000Y-89700000D01*
X131280000Y-99850000D02*
X131280000Y-98770000D01*
X131280000Y-98770000D02*
X131700000Y-98350000D01*
X131700000Y-98350000D02*
X132350000Y-98350000D01*
X132950000Y-98950000D02*
X132950000Y-99500000D01*
X132350000Y-98350000D02*
X132950000Y-98950000D01*
X153900000Y-98550000D02*
X153900000Y-99200000D01*
X153500000Y-98150000D02*
X153900000Y-98550000D01*
X152450000Y-98150000D02*
X152450000Y-101150000D01*
X151800000Y-98150000D02*
X152450000Y-98150000D01*
X152450000Y-98150000D02*
X153500000Y-98150000D01*
X152450000Y-101150000D02*
X152250000Y-101350000D01*
X151900000Y-101350000D02*
X151850000Y-101400000D01*
X152250000Y-101350000D02*
X151900000Y-101350000D01*
X154800000Y-98150000D02*
X155650000Y-99000000D01*
X153500000Y-98150000D02*
X154800000Y-98150000D01*
X133950000Y-102050000D02*
X132950000Y-101050000D01*
X132950000Y-101050000D02*
X132950000Y-99500000D01*
X136950000Y-102050000D02*
X133950000Y-102050000D01*
X138000000Y-101000000D02*
X136950000Y-102050000D01*
X141450000Y-101000000D02*
X138000000Y-101000000D01*
X120850000Y-96150000D02*
X120800000Y-96200000D01*
X119190000Y-96700000D02*
X119190000Y-95410000D01*
X120000000Y-94600000D02*
X120850000Y-94600000D01*
X119190000Y-95410000D02*
X120000000Y-94600000D01*
X120850000Y-94600000D02*
X120850000Y-96150000D01*
X120850000Y-88800000D02*
X119800000Y-88800000D01*
X120850000Y-87700000D02*
X120850000Y-88800000D01*
X120850000Y-88800000D02*
X120850000Y-94600000D01*
X119170000Y-88170000D02*
X119170000Y-86650000D01*
X119800000Y-88800000D02*
X119170000Y-88170000D01*
X119190000Y-96700000D02*
X119190000Y-98990000D01*
X120750000Y-100550000D02*
X121200000Y-100550000D01*
X119190000Y-98990000D02*
X120750000Y-100550000D01*
%TO.N,/~ENABLE*%
X110300000Y-101650000D02*
X110300000Y-100200000D01*
%TO.N,/X_DIR*%
X114090000Y-85510300D02*
X113653171Y-85073471D01*
X114090000Y-86650000D02*
X114090000Y-85510300D01*
%TO.N,/X_STEP*%
X116630000Y-86650000D02*
X116630000Y-85070000D01*
X116630000Y-85070000D02*
X116900000Y-84800000D01*
%TO.N,/Z_DIR*%
X110280000Y-90280000D02*
X110200000Y-90200000D01*
X110280000Y-91600000D02*
X110280000Y-90280000D01*
%TO.N,/Z_STEP*%
X112820000Y-90320000D02*
X112700000Y-90200000D01*
X112820000Y-91600000D02*
X112820000Y-90320000D01*
%TO.N,/Y2_DIR*%
X112840000Y-99940000D02*
X112800000Y-99900000D01*
X112840000Y-101650000D02*
X112840000Y-99940000D01*
%TO.N,/Y2_STEP*%
X111570000Y-95370000D02*
X111500000Y-95300000D01*
X111570000Y-96700000D02*
X111570000Y-95370000D01*
%TO.N,/X2_DIR*%
X114110000Y-95090000D02*
X114200000Y-95000000D01*
X114110000Y-96700000D02*
X114110000Y-95090000D01*
%TO.N,/X2_STEP*%
X116650000Y-95050000D02*
X116400000Y-94800000D01*
X116650000Y-96700000D02*
X116650000Y-95050000D01*
%TO.N,+5V*%
X146750000Y-82600000D02*
X146750000Y-81850000D01*
X146750000Y-81850000D02*
X147250000Y-81350000D01*
X147250000Y-81350000D02*
X149950000Y-81350000D01*
X147000000Y-82350000D02*
X146750000Y-82600000D01*
X147800000Y-82350000D02*
X147000000Y-82350000D01*
D25*
X107750000Y-79000000D02*
X109550000Y-80800000D01*
X107750000Y-71650000D02*
X107750000Y-79000000D01*
X109550000Y-80800000D02*
X112000000Y-80800000D01*
X108490001Y-70909999D02*
X107750000Y-71650000D01*
X161200000Y-71900000D02*
X160209999Y-70909999D01*
X133990001Y-70909999D02*
X133990001Y-71295999D01*
X160209999Y-70909999D02*
X133990001Y-70909999D01*
X133990001Y-70909999D02*
X108490001Y-70909999D01*
X107750000Y-79000000D02*
X107750000Y-78000000D01*
X108450000Y-77300000D02*
X109000000Y-77300000D01*
X107750000Y-78000000D02*
X108450000Y-77300000D01*
X109000000Y-78150000D02*
X108800000Y-78350000D01*
X109000000Y-77300000D02*
X109000000Y-78150000D01*
D23*
X146350000Y-83000000D02*
X146750000Y-82600000D01*
X145200000Y-83000000D02*
X146350000Y-83000000D01*
X154400000Y-81350000D02*
X156850000Y-78900000D01*
X156850000Y-78900000D02*
X161450000Y-78900000D01*
D25*
X161200000Y-78750000D02*
X162500000Y-80050000D01*
X161200000Y-71900000D02*
X161200000Y-78750000D01*
D23*
X152400000Y-87250000D02*
X152400000Y-81700000D01*
X150324990Y-87775010D02*
X151874990Y-87775010D01*
X151874990Y-87775010D02*
X152400000Y-87250000D01*
X149750000Y-88350000D02*
X150324990Y-87775010D01*
X152750000Y-81350000D02*
X154400000Y-81350000D01*
X152400000Y-81700000D02*
X152750000Y-81350000D01*
X149400000Y-88350000D02*
X149750000Y-88350000D01*
X149950000Y-81350000D02*
X152750000Y-81350000D01*
X152874990Y-87775010D02*
X153300000Y-87350000D01*
X151874990Y-87775010D02*
X152874990Y-87775010D01*
%TO.N,Net-(C6-Pad1)*%
X111900000Y-106550000D02*
X111850000Y-106600000D01*
X114112500Y-106550000D02*
X111900000Y-106550000D01*
X111850000Y-106600000D02*
X111750000Y-106600000D01*
X110250000Y-105100000D02*
X110250000Y-104700000D01*
X111750000Y-106600000D02*
X110250000Y-105100000D01*
%TO.N,Net-(D1-Pad2)*%
X120000000Y-111400000D02*
X120500000Y-111400000D01*
X121700000Y-110200000D02*
X121950000Y-110200000D01*
X120500000Y-111400000D02*
X121700000Y-110200000D01*
%TO.N,Net-(D2-Pad2)*%
X130550000Y-110300000D02*
X130400000Y-110300000D01*
X129200000Y-111500000D02*
X128500000Y-111500000D01*
X130400000Y-110300000D02*
X129200000Y-111500000D01*
%TO.N,Net-(D3-Pad2)*%
X139000000Y-110300000D02*
X138500000Y-110300000D01*
X138500000Y-110300000D02*
X138000000Y-110800000D01*
X138000000Y-110800000D02*
X138000000Y-111200000D01*
X137700000Y-111500000D02*
X136900000Y-111500000D01*
X138000000Y-111200000D02*
X137700000Y-111500000D01*
%TO.N,Net-(D4-Pad2)*%
X147600000Y-110300000D02*
X147200000Y-110300000D01*
X146000000Y-111500000D02*
X145400000Y-111500000D01*
X147200000Y-110300000D02*
X146000000Y-111500000D01*
%TO.N,Net-(D5-Pad2)*%
X155950000Y-110300000D02*
X155600000Y-110300000D01*
X154400000Y-111500000D02*
X153900000Y-111500000D01*
X155600000Y-110300000D02*
X154400000Y-111500000D01*
%TO.N,Net-(D6-Pad2)*%
X164500000Y-110300000D02*
X164300000Y-110300000D01*
X163100000Y-111500000D02*
X162400000Y-111500000D01*
X164300000Y-110300000D02*
X163100000Y-111500000D01*
D26*
%TO.N,Net-(D7-Pad2)*%
X173100000Y-110300000D02*
X172900000Y-110300000D01*
X171700000Y-111500000D02*
X170900000Y-111500000D01*
X172900000Y-110300000D02*
X171700000Y-111500000D01*
D23*
%TO.N,Net-(D8-Pad2)*%
X179400000Y-109500000D02*
X179800000Y-109500000D01*
X181000000Y-108300000D02*
X181650000Y-108300000D01*
X179800000Y-109500000D02*
X181000000Y-108300000D01*
%TO.N,Net-(D11-Pad2)*%
X110400000Y-111900000D02*
X110200000Y-111700000D01*
X111850000Y-111900000D02*
X110400000Y-111900000D01*
%TO.N,Net-(D12-Pad2)*%
X150950000Y-89250000D02*
X150450000Y-89250000D01*
X150450000Y-89250000D02*
X150200000Y-89500000D01*
X148900000Y-89500000D02*
X147750000Y-88350000D01*
X150200000Y-89500000D02*
X148900000Y-89500000D01*
%TO.N,Net-(D13-Pad2)*%
X150900000Y-93500000D02*
X151600000Y-93500000D01*
X151600000Y-93500000D02*
X151900000Y-93200000D01*
X151900000Y-93200000D02*
X151900000Y-91500000D01*
X151600000Y-91200000D02*
X150350000Y-91200000D01*
X151900000Y-91500000D02*
X151600000Y-91200000D01*
%TO.N,Net-(D14-Pad2)*%
X175150000Y-82100000D02*
X175900000Y-81350000D01*
X174300000Y-82100000D02*
X175150000Y-82100000D01*
D24*
%TO.N,Net-(D15-Pad2)*%
X179750000Y-85500000D02*
X173150000Y-85500000D01*
X168275000Y-85500000D02*
X166375000Y-87400000D01*
X173150000Y-85500000D02*
X168275000Y-85500000D01*
%TO.N,Net-(D16-Pad2)*%
X173150000Y-98250000D02*
X173100000Y-98300000D01*
X179750000Y-98250000D02*
X173150000Y-98250000D01*
X167700000Y-98300000D02*
X166375000Y-99625000D01*
X173100000Y-98300000D02*
X167700000Y-98300000D01*
D26*
%TO.N,Net-(J1-Pad3)*%
X120800000Y-112900000D02*
X121900000Y-111800000D01*
X119100000Y-112900000D02*
X120800000Y-112900000D01*
X119100000Y-115600000D02*
X119100000Y-112900000D01*
X118600000Y-112400000D02*
X119100000Y-112900000D01*
X118600000Y-109234643D02*
X118600000Y-112400000D01*
X119800009Y-108034634D02*
X118600000Y-109234643D01*
X119800009Y-102951448D02*
X119800009Y-108034634D01*
X121251479Y-101499978D02*
X119800009Y-102951448D01*
X122985022Y-101499978D02*
X121251479Y-101499978D01*
X123660000Y-100825000D02*
X122985022Y-101499978D01*
X123660000Y-99850000D02*
X123660000Y-100825000D01*
D27*
%TO.N,Net-(J1-Pad1)*%
X119100000Y-120600000D02*
X119100000Y-121300000D01*
X119100000Y-121300000D02*
X120500000Y-122700000D01*
X170100000Y-121900000D02*
X170100000Y-120700000D01*
X169300000Y-122700000D02*
X170100000Y-121900000D01*
X161600000Y-120700000D02*
X161600000Y-122700000D01*
X153100000Y-120700000D02*
X153100000Y-122700000D01*
X144600000Y-122600000D02*
X144700000Y-122700000D01*
X144600000Y-120700000D02*
X144600000Y-122600000D01*
X136100000Y-122600000D02*
X136000000Y-122700000D01*
X136100000Y-120700000D02*
X136100000Y-122600000D01*
X127600000Y-122600000D02*
X127500000Y-122700000D01*
X127600000Y-120700000D02*
X127600000Y-122600000D01*
X127500000Y-122700000D02*
X131600000Y-122700000D01*
X120500000Y-122700000D02*
X123600000Y-122700000D01*
D23*
X123550000Y-111800000D02*
X123800000Y-111800000D01*
X123800000Y-111800000D02*
X124300000Y-112300000D01*
X124300000Y-112300000D02*
X124300000Y-122700000D01*
D27*
X124300000Y-122700000D02*
X127500000Y-122700000D01*
X123600000Y-122700000D02*
X124300000Y-122700000D01*
X131600000Y-122700000D02*
X131900000Y-122700000D01*
X136000000Y-122700000D02*
X140500000Y-122700000D01*
D23*
X132150000Y-111900000D02*
X132500000Y-111900000D01*
X132500000Y-111900000D02*
X133000000Y-112400000D01*
X133000000Y-122600000D02*
X132900000Y-122700000D01*
X133000000Y-112400000D02*
X133000000Y-122600000D01*
D27*
X132900000Y-122700000D02*
X136000000Y-122700000D01*
X131900000Y-122700000D02*
X132900000Y-122700000D01*
D23*
X140550000Y-111900000D02*
X141200000Y-111900000D01*
X141200000Y-111900000D02*
X141400000Y-112100000D01*
X141400000Y-122500000D02*
X141200000Y-122700000D01*
X141400000Y-112100000D02*
X141400000Y-122500000D01*
D27*
X141200000Y-122700000D02*
X144700000Y-122700000D01*
X140500000Y-122700000D02*
X141200000Y-122700000D01*
D23*
X149225000Y-111900000D02*
X149600000Y-111900000D01*
X149600000Y-111900000D02*
X150000000Y-112300000D01*
X150000000Y-122600000D02*
X150100000Y-122700000D01*
X150000000Y-112300000D02*
X150000000Y-122600000D01*
D27*
X150100000Y-122700000D02*
X153100000Y-122700000D01*
X144700000Y-122700000D02*
X150100000Y-122700000D01*
D23*
X157625000Y-111900000D02*
X158200000Y-111900000D01*
X158200000Y-111900000D02*
X158524990Y-112224990D01*
X158524990Y-122624990D02*
X158600000Y-122700000D01*
D27*
X158600000Y-122700000D02*
X161600000Y-122700000D01*
X153100000Y-122700000D02*
X158600000Y-122700000D01*
D23*
X166125000Y-111900000D02*
X166600000Y-111900000D01*
X166600000Y-111900000D02*
X167000000Y-112300000D01*
X167000000Y-122600000D02*
X166900000Y-122700000D01*
X167000000Y-112300000D02*
X167000000Y-122600000D01*
D27*
X166900000Y-122700000D02*
X169300000Y-122700000D01*
X161600000Y-122700000D02*
X166900000Y-122700000D01*
D23*
X173300000Y-122700000D02*
X169300000Y-122700000D01*
X174725000Y-121275000D02*
X173300000Y-122700000D01*
X183300000Y-109900000D02*
X183300000Y-110600000D01*
X183300000Y-110600000D02*
X182000000Y-111900000D01*
X182000000Y-111900000D02*
X181400000Y-111900000D01*
X181400000Y-111900000D02*
X180600000Y-112700000D01*
X180600000Y-112700000D02*
X180600000Y-117800000D01*
X180600000Y-117800000D02*
X179925000Y-118475000D01*
X174725000Y-118475000D02*
X174725000Y-121275000D01*
X179925000Y-118475000D02*
X174725000Y-118475000D01*
X174725000Y-111900000D02*
X174725000Y-118475000D01*
X158524990Y-114325010D02*
X158524990Y-122624990D01*
X158524990Y-112224990D02*
X158524990Y-114325010D01*
X158524990Y-110175010D02*
X158850000Y-109850000D01*
X158524990Y-112224990D02*
X158524990Y-110175010D01*
D26*
%TO.N,Net-(J2-Pad3)*%
X130500000Y-111900000D02*
X129500000Y-112900000D01*
X129500000Y-112900000D02*
X127600000Y-112900000D01*
X127600000Y-115700000D02*
X127600000Y-112900000D01*
X127200000Y-112500000D02*
X127200000Y-110997086D01*
X121000031Y-107948575D02*
X121000031Y-103499969D01*
X121800011Y-102699989D02*
X124302925Y-102699989D01*
X124302925Y-102699989D02*
X126200000Y-100802914D01*
X126200000Y-100802914D02*
X126200000Y-99850000D01*
X121751489Y-108700033D02*
X121000031Y-107948575D01*
X121000031Y-103499969D02*
X121800011Y-102699989D01*
X127600000Y-112900000D02*
X127200000Y-112500000D01*
X124102948Y-108700033D02*
X121751489Y-108700033D01*
X126202972Y-110000058D02*
X125402973Y-110000058D01*
X127200000Y-110997086D02*
X126202972Y-110000058D01*
X125402973Y-110000058D02*
X124102948Y-108700033D01*
%TO.N,Net-(J3-Pad3)*%
X136000000Y-112900000D02*
X137900000Y-112900000D01*
X137900000Y-112900000D02*
X138900000Y-111900000D01*
X136100000Y-113000000D02*
X136000000Y-112900000D01*
X136100000Y-115700000D02*
X136100000Y-113000000D01*
X123415996Y-107500000D02*
X124651457Y-107500000D01*
X124651457Y-107500000D02*
X125951493Y-108800036D01*
X122390000Y-104800000D02*
X122390000Y-106474004D01*
X125951493Y-108800036D02*
X131908778Y-108800036D01*
X131908778Y-108800036D02*
X131908808Y-108800066D01*
X122390000Y-106474004D02*
X123415996Y-107500000D01*
X134200066Y-108800066D02*
X135400000Y-110000000D01*
X131908808Y-108800066D02*
X134200066Y-108800066D01*
X135400000Y-110000000D02*
X135400000Y-112300000D01*
X135400000Y-112300000D02*
X136000000Y-112900000D01*
%TO.N,Net-(J4-Pad3)*%
X144300000Y-113000000D02*
X146950000Y-113000000D01*
X146950000Y-113000000D02*
X147575000Y-112375000D01*
X147575000Y-112375000D02*
X147575000Y-111900000D01*
X144600000Y-113300000D02*
X144300000Y-113000000D01*
X144600000Y-115700000D02*
X144600000Y-113300000D01*
X138302934Y-108824979D02*
X139697066Y-108824979D01*
X139697066Y-108824979D02*
X139722131Y-108850044D01*
X139722131Y-108850044D02*
X140523589Y-108850044D01*
X140523589Y-108850044D02*
X141623588Y-109950044D01*
X124930000Y-105878543D02*
X126651471Y-107600014D01*
X134935161Y-107600044D02*
X136185161Y-108850044D01*
X124930000Y-104800000D02*
X124930000Y-105878543D01*
X143285162Y-109950044D02*
X144300000Y-110964883D01*
X138277869Y-108850044D02*
X138302934Y-108824979D01*
X136185161Y-108850044D02*
X138277869Y-108850044D01*
X144300000Y-110964883D02*
X144300000Y-113000000D01*
X132305872Y-107600044D02*
X134935161Y-107600044D01*
X132305842Y-107600014D02*
X132305872Y-107600044D01*
X126651471Y-107600014D02*
X132305842Y-107600014D01*
X141623588Y-109950044D02*
X143285162Y-109950044D01*
%TO.N,Net-(J5-Pad3)*%
X152800000Y-113000000D02*
X154400000Y-113000000D01*
X155500000Y-111900000D02*
X155975000Y-111900000D01*
X154400000Y-113000000D02*
X155500000Y-111900000D01*
X153100000Y-113300000D02*
X152800000Y-113000000D01*
X153100000Y-115700000D02*
X153100000Y-113300000D01*
X128740000Y-104800000D02*
X128740000Y-106040000D01*
X152126459Y-110075001D02*
X152800000Y-110748542D01*
X129099992Y-106399992D02*
X139770617Y-106399992D01*
X148997973Y-109424990D02*
X149698532Y-109424990D01*
X142120649Y-108750024D02*
X148323008Y-108750024D01*
X152800000Y-110748542D02*
X152800000Y-113000000D01*
X139770617Y-106399992D02*
X142120649Y-108750024D01*
X150348543Y-110075001D02*
X152126459Y-110075001D01*
X149698532Y-109424990D02*
X150348543Y-110075001D01*
X148323008Y-108750024D02*
X148997973Y-109424990D01*
X128740000Y-106040000D02*
X129099992Y-106399992D01*
%TO.N,Net-(J6-Pad3)*%
X164475000Y-111900000D02*
X164000000Y-111900000D01*
X164000000Y-111900000D02*
X162900000Y-113000000D01*
X162900000Y-113000000D02*
X161700000Y-113000000D01*
X161600000Y-113100000D02*
X161700000Y-113000000D01*
X161600000Y-115700000D02*
X161600000Y-113100000D01*
X159782265Y-108824980D02*
X150924980Y-108824980D01*
X134200000Y-105100000D02*
X131800000Y-102700000D01*
X160857340Y-112157340D02*
X160857340Y-109900055D01*
X128740000Y-100825000D02*
X128740000Y-99850000D01*
X131800000Y-102700000D02*
X130615000Y-102700000D01*
X161700000Y-113000000D02*
X160857340Y-112157340D01*
X130615000Y-102700000D02*
X128740000Y-100825000D01*
X160857340Y-109900055D02*
X159782265Y-108824980D01*
D23*
X149515748Y-108174968D02*
X148840783Y-107500002D01*
X140238422Y-105100000D02*
X134200000Y-105100000D01*
X142638424Y-107500002D02*
X140238422Y-105100000D01*
X150274968Y-108174968D02*
X149515748Y-108174968D01*
X148840783Y-107500002D02*
X142638424Y-107500002D01*
X150924980Y-108824980D02*
X150274968Y-108174968D01*
D26*
%TO.N,Net-(J7-Pad3)*%
X173075000Y-111900000D02*
X172700000Y-111900000D01*
X172700000Y-111900000D02*
X171600000Y-113000000D01*
X171600000Y-113000000D02*
X169900000Y-113000000D01*
X170100000Y-113200000D02*
X169900000Y-113000000D01*
X170100000Y-115700000D02*
X170100000Y-113200000D01*
X149120000Y-105575000D02*
X149120000Y-104600000D01*
X150369946Y-106824946D02*
X149120000Y-105575000D01*
X169500000Y-112600000D02*
X169500000Y-110000000D01*
X152374946Y-106824946D02*
X150369946Y-106824946D01*
X169500000Y-110000000D02*
X168200033Y-108700033D01*
X168200033Y-108700033D02*
X161354404Y-108700033D01*
X161354404Y-108700033D02*
X160279328Y-107624957D01*
X160279328Y-107624957D02*
X153174957Y-107624957D01*
X153174957Y-107624957D02*
X152374946Y-106824946D01*
X169900000Y-113000000D02*
X169500000Y-112600000D01*
D23*
%TO.N,Net-(J11-Pad3)*%
X130000000Y-94700000D02*
X130000000Y-95700000D01*
X130000000Y-95700000D02*
X130900000Y-96600000D01*
X138355000Y-97175000D02*
X138355000Y-98445000D01*
X130900000Y-96600000D02*
X134100000Y-96600000D01*
X134100000Y-96600000D02*
X136300000Y-98800000D01*
X138000000Y-98800000D02*
X138355000Y-98445000D01*
X136300000Y-98800000D02*
X138000000Y-98800000D01*
%TO.N,Net-(J11-Pad2)*%
X127500000Y-94700000D02*
X127500000Y-95200000D01*
X127500000Y-95200000D02*
X129700000Y-97400000D01*
X133829610Y-97400000D02*
X136129610Y-99700000D01*
X129700000Y-97400000D02*
X133829610Y-97400000D01*
X136129610Y-99700000D02*
X139700000Y-99700000D01*
X140895000Y-98505000D02*
X140895000Y-97175000D01*
X139700000Y-99700000D02*
X140895000Y-98505000D01*
%TO.N,Net-(J12-Pad3)*%
X133310035Y-92100000D02*
X136210046Y-95000011D01*
X130600000Y-92100000D02*
X133310035Y-92100000D01*
X130000000Y-91500000D02*
X130600000Y-92100000D01*
X130000000Y-87800000D02*
X130000000Y-91500000D01*
D26*
X136210046Y-95000011D02*
X141965985Y-95000011D01*
X141965985Y-95000011D02*
X142965998Y-93999998D01*
X142965998Y-93999998D02*
X143905002Y-93999998D01*
X143905002Y-93999998D02*
X144705000Y-93200000D01*
X144705000Y-93200000D02*
X144705000Y-92225000D01*
D23*
%TO.N,Net-(J12-Pad2)*%
X127500000Y-87800000D02*
X127500000Y-91800000D01*
X127500000Y-91800000D02*
X128600000Y-92900000D01*
X128600000Y-92900000D02*
X133120070Y-92900000D01*
X133120070Y-92900000D02*
X135920092Y-95700022D01*
D26*
X144705000Y-96200000D02*
X144705000Y-97175000D01*
X144205022Y-95700022D02*
X144705000Y-96200000D01*
X135920092Y-95700022D02*
X144205022Y-95700022D01*
%TO.N,Net-(J13-Pad3)*%
X137000000Y-93600000D02*
X139300000Y-93600000D01*
X139625000Y-93275000D02*
X139625000Y-92225000D01*
X139300000Y-93600000D02*
X139625000Y-93275000D01*
D23*
X130000000Y-81025000D02*
X134899979Y-85924979D01*
X134899979Y-91499979D02*
X137000000Y-93600000D01*
X130000000Y-80900000D02*
X130000000Y-81025000D01*
X134899979Y-85924979D02*
X134899979Y-91499979D01*
D26*
%TO.N,Net-(J13-Pad2)*%
X136500000Y-94300000D02*
X141700000Y-94300000D01*
X142165000Y-93835000D02*
X142165000Y-92225000D01*
X141700000Y-94300000D02*
X142165000Y-93835000D01*
D23*
X127500000Y-80900000D02*
X127500000Y-85100000D01*
X132669830Y-86000000D02*
X134199968Y-87530138D01*
X134199968Y-91999968D02*
X136500000Y-94300000D01*
X134199968Y-87530138D02*
X134199968Y-91999968D01*
X128400000Y-86000000D02*
X132669830Y-86000000D01*
X127500000Y-85100000D02*
X128400000Y-86000000D01*
%TO.N,/ESTOP_IN*%
X154700000Y-79100000D02*
X154950000Y-79100000D01*
X154950000Y-79100000D02*
X155600000Y-78450000D01*
X155600000Y-75120000D02*
X155720000Y-75000000D01*
X155600000Y-78450000D02*
X155600000Y-75120000D01*
D26*
%TO.N,/LIMITS*%
X135430746Y-77200000D02*
X136689999Y-75940747D01*
X134750000Y-77200000D02*
X135430746Y-77200000D01*
X136689999Y-75940747D02*
X136689999Y-73710001D01*
X136689999Y-73710001D02*
X137940000Y-72460000D01*
%TO.N,/Y2_MIN*%
X146750000Y-77500000D02*
X146750000Y-76050000D01*
X146849999Y-75950001D02*
X146849999Y-74000001D01*
X146750000Y-76050000D02*
X146849999Y-75950001D01*
X148100000Y-72750000D02*
X148100000Y-72460000D01*
X146849999Y-74000001D02*
X148100000Y-72750000D01*
D23*
%TO.N,/COOLING*%
X150600000Y-95350000D02*
X149850000Y-95350000D01*
X149850000Y-95350000D02*
X149350000Y-94850000D01*
X151675000Y-95350000D02*
X151775000Y-95450000D01*
X150600000Y-95350000D02*
X151675000Y-95350000D01*
X149000000Y-94500000D02*
X149000000Y-93350000D01*
X149350000Y-94850000D02*
X149000000Y-94500000D01*
X172500000Y-94100000D02*
X171900000Y-94100000D01*
X171900000Y-94100000D02*
X171300000Y-93500000D01*
X171300000Y-93500000D02*
X158250000Y-93500000D01*
X158250000Y-93500000D02*
X155900000Y-95850000D01*
X151800000Y-97200000D02*
X150700000Y-97200000D01*
X149850000Y-96350000D02*
X149850000Y-95350000D01*
X150700000Y-97200000D02*
X149850000Y-96350000D01*
X155900000Y-95850000D02*
X154700000Y-95850000D01*
X154700000Y-95850000D02*
X154700000Y-95900000D01*
X154700000Y-95900000D02*
X154300000Y-96300000D01*
D26*
X152126456Y-97200000D02*
X151800000Y-97200000D01*
X153026456Y-96300000D02*
X152126456Y-97200000D01*
X154300000Y-96300000D02*
X153026456Y-96300000D01*
%TO.N,/X2_MIN*%
X142950000Y-79027914D02*
X143850000Y-78127914D01*
X142950000Y-79050000D02*
X142950000Y-79027914D01*
X143850000Y-78127914D02*
X143850000Y-76710000D01*
X143850000Y-76710000D02*
X145560000Y-75000000D01*
D23*
%TO.N,/Z_MIN*%
X143020000Y-77455000D02*
X142975000Y-77500000D01*
X143020000Y-75000000D02*
X143020000Y-77455000D01*
D26*
%TO.N,/Y_MIN*%
X129500000Y-77200000D02*
X130500000Y-77200000D01*
X134149999Y-76250001D02*
X135400000Y-75000000D01*
X131449999Y-76250001D02*
X134149999Y-76250001D01*
X130500000Y-77200000D02*
X131449999Y-76250001D01*
%TO.N,/X_MIN*%
X126529999Y-74170001D02*
X126950001Y-73749999D01*
X134110001Y-73749999D02*
X135400000Y-72460000D01*
X126529999Y-76470001D02*
X126529999Y-74170001D01*
X125800000Y-77200000D02*
X126529999Y-76470001D01*
X126950001Y-73749999D02*
X134110001Y-73749999D01*
X124900000Y-77200000D02*
X125800000Y-77200000D01*
D23*
%TO.N,/ESTOP_OUT*%
X157450000Y-80200000D02*
X156900000Y-80200000D01*
X156900000Y-80200000D02*
X156150000Y-80950000D01*
X156150000Y-81700000D02*
X155400000Y-81700000D01*
X154700000Y-82400000D02*
X153450000Y-82400000D01*
X155400000Y-81700000D02*
X154700000Y-82400000D01*
X160500000Y-81450000D02*
X160300000Y-81250000D01*
X156250000Y-81250000D02*
X156150000Y-81350000D01*
X156150000Y-81350000D02*
X156150000Y-81700000D01*
X160300000Y-81250000D02*
X156250000Y-81250000D01*
X156150000Y-80950000D02*
X156150000Y-81350000D01*
X156850000Y-82400000D02*
X156150000Y-81700000D01*
X157450000Y-82400000D02*
X156850000Y-82400000D01*
X172000000Y-81450000D02*
X171150000Y-81450000D01*
X172650000Y-82100000D02*
X172000000Y-81450000D01*
X171150000Y-81450000D02*
X160500000Y-81450000D01*
X171750000Y-81450000D02*
X171150000Y-81450000D01*
%TO.N,/PROBE*%
X153180000Y-75000000D02*
X154600000Y-76420000D01*
X154600000Y-77475000D02*
X154675000Y-77550000D01*
X154600000Y-76420000D02*
X154600000Y-77475000D01*
%TO.N,/SPINDLE_PWM*%
X113500000Y-111900000D02*
X113500000Y-110800000D01*
X113500000Y-110800000D02*
X112800000Y-110100000D01*
X112800000Y-110100000D02*
X108600000Y-110100000D01*
X108600000Y-110100000D02*
X108000000Y-109500000D01*
X108600000Y-106600000D02*
X108000000Y-106000000D01*
X110200000Y-106600000D02*
X108600000Y-106600000D01*
X108000000Y-109500000D02*
X108000000Y-106000000D01*
X116650000Y-99050000D02*
X117300000Y-98400000D01*
X116650000Y-101650000D02*
X116650000Y-99050000D01*
X115850002Y-103649998D02*
X109750002Y-103649998D01*
X116650000Y-101650000D02*
X116650000Y-102850000D01*
X116650000Y-102850000D02*
X115850002Y-103649998D01*
X109750002Y-103649998D02*
X108000000Y-105400000D01*
X108000000Y-105400000D02*
X108000000Y-106000000D01*
%TO.N,Net-(J15-Pad2)*%
X109400000Y-118200000D02*
X108900000Y-118200000D01*
X108900000Y-118200000D02*
X107700000Y-117000000D01*
X107700000Y-117000000D02*
X107700000Y-114000000D01*
X107700000Y-114000000D02*
X108500000Y-113200000D01*
X108500000Y-113200000D02*
X114000000Y-113200000D01*
X114000000Y-113200000D02*
X114600000Y-112600000D01*
X114600000Y-112600000D02*
X114600000Y-110700000D01*
X114600000Y-110700000D02*
X116400000Y-108900000D01*
X116400000Y-108900000D02*
X116400000Y-108400000D01*
X116300000Y-108500000D02*
X116400000Y-108400000D01*
X115450000Y-108500000D02*
X116300000Y-108500000D01*
D26*
X115662500Y-105700000D02*
X116815334Y-105700000D01*
X113950000Y-104650000D02*
X114612500Y-104650000D01*
X114612500Y-104650000D02*
X115662500Y-105700000D01*
X116815334Y-105700000D02*
X117315334Y-106200000D01*
X117315334Y-106200000D02*
X117315334Y-107000662D01*
X117315334Y-107000662D02*
X116300000Y-108015996D01*
X116300000Y-108015996D02*
X116300000Y-108500000D01*
%TO.N,Net-(J21-Pad2)*%
X111300000Y-99400000D02*
X111570000Y-99670000D01*
X107500000Y-103700000D02*
X107500000Y-101800000D01*
X109900000Y-99400000D02*
X111300000Y-99400000D01*
X106100000Y-105100000D02*
X107500000Y-103700000D01*
X111570000Y-99670000D02*
X111570000Y-101650000D01*
X107500000Y-101800000D02*
X109900000Y-99400000D01*
X105500000Y-105100000D02*
X106100000Y-105100000D01*
D23*
%TO.N,Net-(Q2-Pad1)*%
X157110000Y-97200000D02*
X157225000Y-97085000D01*
X153450000Y-97200000D02*
X157110000Y-97200000D01*
%TO.N,Net-(R17-Pad1)*%
X124930000Y-99850000D02*
X124930000Y-99030000D01*
X124930000Y-99030000D02*
X122299969Y-96399968D01*
X122299969Y-96399968D02*
X122299969Y-77600031D01*
X122700000Y-77200000D02*
X123250000Y-77200000D01*
X122299969Y-77600031D02*
X122700000Y-77200000D01*
D26*
X124930000Y-100825000D02*
X124930000Y-99850000D01*
X120400020Y-103251437D02*
X121551479Y-102099978D01*
X121300044Y-109300044D02*
X120400020Y-108400020D01*
X121551479Y-102099978D02*
X123655022Y-102099978D01*
X120400020Y-108400020D02*
X120400020Y-103251437D01*
X122700044Y-109300044D02*
X121300044Y-109300044D01*
X123600000Y-110200000D02*
X122700044Y-109300044D01*
X123655022Y-102099978D02*
X124930000Y-100825000D01*
%TO.N,Net-(R10-Pad1)*%
X132200000Y-110300000D02*
X132200000Y-110000000D01*
D23*
X127225000Y-78300000D02*
X127850000Y-77675000D01*
X127850000Y-77675000D02*
X127850000Y-77200000D01*
X127470000Y-99850000D02*
X127470000Y-98170000D01*
X122999979Y-96110015D02*
X122999979Y-79300021D01*
X127470000Y-98170000D02*
X126700000Y-97400000D01*
X126700000Y-97400000D02*
X124289964Y-97400000D01*
X124289964Y-97400000D02*
X122999979Y-96110015D01*
X122999979Y-79300021D02*
X124000000Y-78300000D01*
X124000000Y-78300000D02*
X127225000Y-78300000D01*
D26*
X124351480Y-108100022D02*
X125651505Y-109400047D01*
X127470000Y-99850000D02*
X127470000Y-100381457D01*
X124551446Y-103300011D02*
X122137155Y-103300011D01*
X127470000Y-100381457D02*
X124551446Y-103300011D01*
X122137155Y-103300011D02*
X121600042Y-103837124D01*
X121600042Y-103837124D02*
X121600042Y-107700043D01*
X121600042Y-107700043D02*
X122000021Y-108100022D01*
X122000021Y-108100022D02*
X124351480Y-108100022D01*
X125651505Y-109400047D02*
X131300047Y-109400047D01*
X131300047Y-109400047D02*
X132200000Y-110300000D01*
D23*
%TO.N,Net-(R11-Pad1)*%
X140600000Y-110250000D02*
X140650000Y-110300000D01*
D26*
X140323544Y-110300000D02*
X140650000Y-110300000D01*
X139448534Y-109424990D02*
X140323544Y-110300000D01*
X132057310Y-108200025D02*
X132057340Y-108200055D01*
X138551466Y-109424990D02*
X139448534Y-109424990D01*
X123660000Y-105660000D02*
X126200025Y-108200025D01*
X135936629Y-109450055D02*
X138526401Y-109450055D01*
X123660000Y-104800000D02*
X123660000Y-105660000D01*
X134686629Y-108200055D02*
X135936629Y-109450055D01*
X132057340Y-108200055D02*
X134686629Y-108200055D01*
X138526401Y-109450055D02*
X138551466Y-109424990D01*
X126200025Y-108200025D02*
X132057310Y-108200025D01*
X123660000Y-106440000D02*
X123600000Y-106500000D01*
X123660000Y-104800000D02*
X123660000Y-106440000D01*
D23*
X141275000Y-77550000D02*
X141325000Y-77500000D01*
X140600051Y-77550000D02*
X141275000Y-77550000D01*
%TO.N,Net-(R12-Pad1)*%
X126200000Y-104800000D02*
X126200000Y-103100000D01*
D26*
X126200000Y-104800000D02*
X126200000Y-106300000D01*
X139522085Y-107000003D02*
X141872117Y-109350035D01*
X141872117Y-109350035D02*
X148074480Y-109350035D01*
X126900003Y-107000003D02*
X139522085Y-107000003D01*
X148074480Y-109350035D02*
X149024445Y-110300000D01*
X149024445Y-110300000D02*
X149250000Y-110300000D01*
X126200000Y-106300000D02*
X126900003Y-107000003D01*
D23*
X140350000Y-79050000D02*
X140100000Y-79300000D01*
X141300000Y-79050000D02*
X140350000Y-79050000D01*
D26*
%TO.N,Net-(R13-Pad1)*%
X130010000Y-104800000D02*
X130010000Y-103210000D01*
X130010000Y-103210000D02*
X128700000Y-101900000D01*
X128700000Y-101900000D02*
X127200000Y-101900000D01*
X149246505Y-108824979D02*
X148571540Y-108150013D01*
X150597074Y-109474989D02*
X149947064Y-108824979D01*
X133549989Y-105298532D02*
X131551457Y-103300000D01*
X131551457Y-103300000D02*
X130535000Y-103300000D01*
X151244224Y-109424990D02*
X151194224Y-109474990D01*
X151194224Y-109474990D02*
X150597074Y-109474989D01*
X139969179Y-105750011D02*
X133930757Y-105750011D01*
X133930757Y-105750011D02*
X133549989Y-105369243D01*
X133549989Y-105369243D02*
X133549989Y-105298532D01*
X130535000Y-103300000D02*
X130010000Y-103825000D01*
X142369180Y-108150012D02*
X139969179Y-105750011D01*
X148571540Y-108150013D02*
X142369180Y-108150012D01*
X149947064Y-108824979D02*
X149246505Y-108824979D01*
X157199990Y-109424990D02*
X151244224Y-109424990D01*
X157600000Y-109825000D02*
X157199990Y-109424990D01*
X157600000Y-110300000D02*
X157600000Y-109825000D01*
X130010000Y-103825000D02*
X130010000Y-104800000D01*
X145100000Y-77500000D02*
X145100000Y-77726456D01*
X145100000Y-77726456D02*
X144050000Y-78776456D01*
X144050000Y-78776456D02*
X143750000Y-79076456D01*
X143750000Y-79850000D02*
X143600000Y-80000000D01*
X143750000Y-79076456D02*
X143750000Y-79850000D01*
X143750000Y-79850000D02*
X143500000Y-80100000D01*
X143500000Y-80100000D02*
X140100000Y-80100000D01*
X139500000Y-80700000D02*
X139500000Y-80750000D01*
X140100000Y-80100000D02*
X139500000Y-80700000D01*
%TO.N,Net-(R14-Pad1)*%
X166150000Y-110300000D02*
X166150000Y-110150000D01*
X132000000Y-101900000D02*
X131085000Y-101900000D01*
X134500000Y-104400000D02*
X132000000Y-101900000D01*
X130010000Y-100825000D02*
X130010000Y-99850000D01*
X131085000Y-101900000D02*
X130010000Y-100825000D01*
D23*
X123699990Y-79600010D02*
X124200000Y-79100000D01*
X124200000Y-79100000D02*
X131675000Y-79100000D01*
X123699990Y-95714956D02*
X123699990Y-79600010D01*
X130010000Y-98810000D02*
X127800000Y-96600000D01*
X127800000Y-96600000D02*
X124585034Y-96600000D01*
X124585034Y-96600000D02*
X123699990Y-95714956D01*
X130010000Y-99850000D02*
X130010000Y-98810000D01*
X131675000Y-79100000D02*
X133100000Y-77675000D01*
X133100000Y-77675000D02*
X133100000Y-77200000D01*
X149805702Y-107474957D02*
X149130737Y-106799991D01*
X149130737Y-106799991D02*
X142928378Y-106799991D01*
X140528377Y-104399990D02*
X134500000Y-104399990D01*
X142928378Y-106799991D02*
X140528377Y-104399990D01*
X150574957Y-107474957D02*
X149805702Y-107474957D01*
X151200022Y-108100022D02*
X150574957Y-107474957D01*
D26*
X161105872Y-109300044D02*
X160030796Y-108224968D01*
X166150000Y-110300000D02*
X165150044Y-109300044D01*
X165150044Y-109300044D02*
X161105872Y-109300044D01*
X160030796Y-108224968D02*
X151324968Y-108224968D01*
X151324968Y-108224968D02*
X151200022Y-108100022D01*
%TO.N,Net-(R15-Pad1)*%
X150390000Y-104600000D02*
X150390000Y-105590000D01*
X153000000Y-106200000D02*
X151015000Y-106200000D01*
X174750000Y-110300000D02*
X174750000Y-109750000D01*
X150390000Y-105575000D02*
X150390000Y-104600000D01*
X169700000Y-109300000D02*
X168500022Y-108100022D01*
X161602936Y-108100022D02*
X160527860Y-107024946D01*
X168500022Y-108100022D02*
X161602936Y-108100022D01*
X160527860Y-107024946D02*
X153824946Y-107024946D01*
X174300000Y-109300000D02*
X169700000Y-109300000D01*
X174750000Y-109750000D02*
X174300000Y-109300000D01*
X151015000Y-106200000D02*
X150390000Y-105575000D01*
X153824946Y-107024946D02*
X153000000Y-106200000D01*
X153025000Y-77550000D02*
X152350000Y-77550000D01*
X152350000Y-77550000D02*
X152250000Y-77450000D01*
X152250000Y-76650000D02*
X152450000Y-76450000D01*
X152250000Y-77450000D02*
X152250000Y-76650000D01*
X149035445Y-102105445D02*
X145736713Y-102105445D01*
X150390000Y-103460000D02*
X149035445Y-102105445D01*
X150390000Y-104600000D02*
X150390000Y-103460000D01*
%TO.N,Net-(R16-Pad1)*%
X182775000Y-107300000D02*
X183300000Y-107825000D01*
X169300000Y-106900000D02*
X169700000Y-107300000D01*
X162100000Y-106900000D02*
X169300000Y-106900000D01*
X169700000Y-107300000D02*
X182775000Y-107300000D01*
X183300000Y-107825000D02*
X183300000Y-108300000D01*
X150390000Y-99650000D02*
X150390000Y-100491457D01*
X161024924Y-105824924D02*
X162100000Y-106900000D01*
X152350000Y-102300000D02*
X155874925Y-105824924D01*
X155874925Y-105824924D02*
X161024924Y-105824924D01*
X152050000Y-79100000D02*
X151850000Y-79300000D01*
X153050000Y-79100000D02*
X152050000Y-79100000D01*
D23*
X148200000Y-96906456D02*
X148200000Y-96084315D01*
X150390000Y-99650000D02*
X150390000Y-99096456D01*
X150390000Y-99096456D02*
X148200000Y-96906456D01*
X148200000Y-96084315D02*
X146115685Y-94000000D01*
X146115685Y-94000000D02*
X145550000Y-94000000D01*
D26*
X150390000Y-101490000D02*
X151200000Y-102300000D01*
X150390000Y-99650000D02*
X150390000Y-101490000D01*
X151200000Y-102300000D02*
X152350000Y-102300000D01*
%TO.N,Net-(R25-Pad1)*%
X145100000Y-79050000D02*
X144750000Y-79050000D01*
X144750000Y-79050000D02*
X144500000Y-79300000D01*
X144500000Y-79300000D02*
X144350010Y-79449990D01*
X144350010Y-79449990D02*
X144350010Y-80199990D01*
X144350010Y-80199990D02*
X143750000Y-80800000D01*
X143750000Y-80800000D02*
X140750000Y-80800000D01*
X139800000Y-81750000D02*
X138650000Y-81750000D01*
X140750000Y-80800000D02*
X139800000Y-81750000D01*
D23*
X139625000Y-98272162D02*
X139247172Y-98649990D01*
X139625000Y-97175000D02*
X139625000Y-98272162D01*
D26*
%TO.N,Net-(R26-Pad1)*%
X148750000Y-77500000D02*
X148150010Y-78099990D01*
X148950000Y-77500000D02*
X148750000Y-77500000D01*
X148150010Y-78526446D02*
X148149990Y-78526466D01*
X148149990Y-78526466D02*
X148149990Y-78800010D01*
X148150010Y-78099990D02*
X148150010Y-78526446D01*
X148149990Y-78800010D02*
X148149990Y-79100010D01*
X148149990Y-79100010D02*
X147200000Y-80050000D01*
X147200000Y-80050000D02*
X145550000Y-80050000D01*
X145550000Y-80050000D02*
X144100000Y-81500000D01*
X144100000Y-81500000D02*
X140950000Y-81500000D01*
X140950000Y-81500000D02*
X139850000Y-82600000D01*
X139850000Y-82600000D02*
X137900000Y-82600000D01*
D23*
X142165000Y-97175000D02*
X141865000Y-97475000D01*
X141865000Y-97475000D02*
X141865000Y-98835000D01*
X141865000Y-98835000D02*
X141501048Y-99198952D01*
%TO.N,Net-(R27-Pad2)*%
X135850000Y-80600000D02*
X136750000Y-80600000D01*
X135650000Y-80800000D02*
X135850000Y-80600000D01*
X137200000Y-87300000D02*
X137200000Y-83250000D01*
X137200000Y-83250000D02*
X135650000Y-81700000D01*
X141600000Y-88150000D02*
X138050000Y-88150000D01*
X138050000Y-88150000D02*
X137200000Y-87300000D01*
X144250000Y-90800000D02*
X141600000Y-88150000D01*
X145500000Y-90800000D02*
X144250000Y-90800000D01*
X145975000Y-91275000D02*
X145500000Y-90800000D01*
X135650000Y-81700000D02*
X135650000Y-80800000D01*
X145975000Y-92225000D02*
X145975000Y-91275000D01*
%TO.N,Net-(R28-Pad2)*%
X145975000Y-97175000D02*
X145975000Y-95725000D01*
X145150000Y-94900000D02*
X143250000Y-94900000D01*
X145975000Y-95725000D02*
X145150000Y-94900000D01*
D26*
X148950000Y-79050000D02*
X148800000Y-79050000D01*
X146200000Y-80700000D02*
X145850000Y-81050000D01*
X147775000Y-80700000D02*
X146200000Y-80700000D01*
X148950000Y-79525000D02*
X147775000Y-80700000D01*
X148950000Y-79050000D02*
X148950000Y-79525000D01*
D23*
%TO.N,Net-(R29-Pad2)*%
X140550000Y-89550000D02*
X136800000Y-89550000D01*
X140895000Y-89895000D02*
X140550000Y-89550000D01*
X134249989Y-79360046D02*
X136110035Y-77500000D01*
X140895000Y-92225000D02*
X140895000Y-89895000D01*
X136800000Y-89550000D02*
X135800000Y-88550000D01*
X135800000Y-88550000D02*
X135800000Y-83939965D01*
X135800000Y-83939965D02*
X134249989Y-82389954D01*
X134249989Y-82389954D02*
X134249989Y-79360046D01*
X136110035Y-77500000D02*
X136750000Y-77500000D01*
%TO.N,Net-(R30-Pad2)*%
X143435000Y-92225000D02*
X143435000Y-91135000D01*
X135800000Y-79050000D02*
X136750000Y-79050000D01*
X137100000Y-88850000D02*
X136500000Y-88250000D01*
X134950000Y-82100000D02*
X134950000Y-79900000D01*
X134950000Y-79900000D02*
X135800000Y-79050000D01*
X141150000Y-88850000D02*
X137100000Y-88850000D01*
X136500000Y-83650000D02*
X134950000Y-82100000D01*
X143435000Y-91135000D02*
X141150000Y-88850000D01*
X136500000Y-88250000D02*
X136500000Y-83650000D01*
%TO.N,Net-(R36-Pad1)*%
X112900000Y-108500000D02*
X113800000Y-108500000D01*
X112900000Y-108500000D02*
X111850000Y-108500000D01*
X116387500Y-106550000D02*
X115500000Y-106550000D01*
X115500000Y-106550000D02*
X115225010Y-106824990D01*
X115225010Y-106948534D02*
X114573544Y-107600000D01*
X115225010Y-106824990D02*
X115225010Y-106948534D01*
X114573544Y-107600000D02*
X113300000Y-107600000D01*
X112900000Y-108000000D02*
X112900000Y-108500000D01*
X113300000Y-107600000D02*
X112900000Y-108000000D01*
%TO.N,Net-(J21-Pad12)*%
X105625000Y-80100000D02*
X108780316Y-83255316D01*
X105500000Y-80100000D02*
X105625000Y-80100000D01*
X108780316Y-83255316D02*
X116574389Y-83255316D01*
X117900000Y-86650000D02*
X117900000Y-84200000D01*
X116955316Y-83255316D02*
X116574389Y-83255316D01*
X117900000Y-84200000D02*
X116955316Y-83255316D01*
%TO.N,Net-(J21-Pad11)*%
X105500000Y-82600000D02*
X106500000Y-82600000D01*
X106500000Y-82600000D02*
X108100000Y-84200000D01*
X108100000Y-84200000D02*
X114500000Y-84200000D01*
X115360000Y-85060000D02*
X115360000Y-86650000D01*
X114500000Y-84200000D02*
X115360000Y-85060000D01*
D26*
%TO.N,Net-(J21-Pad10)*%
X105500000Y-85100000D02*
X108100000Y-85100000D01*
X108100000Y-85100000D02*
X109200000Y-86200000D01*
X109200000Y-86200000D02*
X109200000Y-87700000D01*
X109200000Y-87700000D02*
X109700000Y-88200000D01*
X109700000Y-88200000D02*
X112400000Y-88200000D01*
X112820000Y-87780000D02*
X112820000Y-86650000D01*
X112400000Y-88200000D02*
X112820000Y-87780000D01*
%TO.N,Net-(J21-Pad9)*%
X105500000Y-87600000D02*
X108100000Y-87600000D01*
X108100000Y-87600000D02*
X109300000Y-88800000D01*
X109300000Y-88800000D02*
X113000000Y-88800000D01*
X113000000Y-88800000D02*
X113700000Y-88100000D01*
X113700000Y-88100000D02*
X116900000Y-88100000D01*
X116900000Y-88100000D02*
X117900000Y-89100000D01*
X117900000Y-89100000D02*
X117900000Y-91600000D01*
%TO.N,Net-(J21-Pad8)*%
X105500000Y-90100000D02*
X108000000Y-90100000D01*
X108000000Y-90100000D02*
X108700000Y-89400000D01*
X108700000Y-89400000D02*
X113300000Y-89400000D01*
X114090000Y-90190000D02*
X114090000Y-91600000D01*
X113300000Y-89400000D02*
X114090000Y-90190000D01*
D23*
%TO.N,Net-(J21-Pad7)*%
X105500000Y-92600000D02*
X105925010Y-93025010D01*
X105925010Y-93025010D02*
X111099990Y-93025010D01*
X111099990Y-93025010D02*
X111550000Y-92575000D01*
X111550000Y-92575000D02*
X111550000Y-91600000D01*
%TO.N,Net-(J21-Pad6)*%
X113302044Y-93349987D02*
X116207991Y-93349987D01*
X105500000Y-95100000D02*
X106874979Y-93725021D01*
X106874979Y-93725021D02*
X112927010Y-93725021D01*
X112927010Y-93725021D02*
X113302044Y-93349987D01*
X116207991Y-93349987D02*
X117920000Y-95061996D01*
X117920000Y-95061996D02*
X117920000Y-96700000D01*
%TO.N,Net-(J21-Pad5)*%
X115380000Y-94921996D02*
X115380000Y-96700000D01*
X114608002Y-94149998D02*
X115380000Y-94921996D01*
X105500000Y-97600000D02*
X108674968Y-94425032D01*
X108674968Y-94425032D02*
X113216964Y-94425032D01*
X113491998Y-94149998D02*
X114608002Y-94149998D01*
X113216964Y-94425032D02*
X113491998Y-94149998D01*
D26*
%TO.N,Net-(J21-Pad4)*%
X112840000Y-98060000D02*
X112840000Y-96700000D01*
X112700000Y-98200000D02*
X112840000Y-98060000D01*
X109200000Y-98200000D02*
X112700000Y-98200000D01*
X107300000Y-100100000D02*
X109200000Y-98200000D01*
X105500000Y-100100000D02*
X107300000Y-100100000D01*
%TO.N,Net-(J21-Pad3)*%
X105500000Y-102600000D02*
X105700000Y-102600000D01*
X105700000Y-102600000D02*
X109500000Y-98800000D01*
X114110000Y-99510000D02*
X114110000Y-101650000D01*
X113400000Y-98800000D02*
X114110000Y-99510000D01*
X109500000Y-98800000D02*
X113400000Y-98800000D01*
D23*
%TO.N,Net-(D9-Pad2)*%
X150150000Y-86850000D02*
X150700000Y-86850000D01*
X150950000Y-86600000D02*
X150950000Y-84950000D01*
X150700000Y-86850000D02*
X150950000Y-86600000D01*
D28*
%TO.N,Net-(F1-Pad2)*%
X170400000Y-80050000D02*
X170400000Y-78450000D01*
X170400000Y-78450000D02*
X171500000Y-77350000D01*
X171500000Y-77350000D02*
X173450000Y-77350000D01*
X174800000Y-76000000D02*
X174800000Y-74000000D01*
X173450000Y-77350000D02*
X174800000Y-76000000D01*
D25*
%TO.N,Net-(F2-Pad1)*%
X164300000Y-74000000D02*
X164300000Y-78000000D01*
X165300000Y-79000000D02*
X165300000Y-80050000D01*
X164300000Y-78000000D02*
X165300000Y-79000000D01*
D26*
%TO.N,/ENC_Z_B*%
X138400000Y-78823544D02*
X139200010Y-78023534D01*
X139200010Y-78023534D02*
X139200010Y-73739990D01*
X138400000Y-79050000D02*
X138400000Y-78823544D01*
X139200010Y-73739990D02*
X140480000Y-72460000D01*
D23*
%TO.N,/ENC_Z_A*%
X137940000Y-75000000D02*
X137940000Y-75790000D01*
X138400000Y-76250000D02*
X138400000Y-77500000D01*
X137940000Y-75790000D02*
X138400000Y-76250000D01*
D26*
%TO.N,/ENC_Y_B*%
X150600000Y-79050000D02*
X150900000Y-79050000D01*
X150900000Y-79050000D02*
X151600000Y-78350000D01*
X151600000Y-78350000D02*
X151600000Y-75950000D01*
X151929999Y-75620001D02*
X151929999Y-73370001D01*
X151600000Y-75950000D02*
X151929999Y-75620001D01*
X152840000Y-72460000D02*
X153180000Y-72460000D01*
X151929999Y-73370001D02*
X152840000Y-72460000D01*
%TO.N,/ENC_X_B*%
X150600000Y-75040000D02*
X150640000Y-75000000D01*
X150600000Y-77500000D02*
X150600000Y-75040000D01*
%TO.N,/ENC_X_A*%
X146750000Y-79050000D02*
X146950000Y-79050000D01*
X146950000Y-79050000D02*
X147550000Y-78450000D01*
X147550000Y-75550000D02*
X148100000Y-75000000D01*
X147550000Y-78450000D02*
X147550000Y-75550000D01*
%TO.N,/ENC_Y_A*%
X141730001Y-73749999D02*
X143020000Y-72460000D01*
X140350000Y-76500000D02*
X141050000Y-76500000D01*
X141050000Y-76500000D02*
X141730001Y-75819999D01*
X139800021Y-77049979D02*
X140350000Y-76500000D01*
X141730001Y-75819999D02*
X141730001Y-73749999D01*
X139800021Y-78272066D02*
X139800021Y-77049979D01*
X139249999Y-78822088D02*
X139800021Y-78272066D01*
X139249999Y-79750001D02*
X139249999Y-78822088D01*
X138400000Y-80600000D02*
X139249999Y-79750001D01*
D23*
%TO.N,Net-(D10-Pad2)*%
X174150000Y-94100000D02*
X175900000Y-94100000D01*
%TO.N,Net-(Q1-Pad1)*%
X159100000Y-82985000D02*
X157225000Y-84860000D01*
X159100000Y-82400000D02*
X159100000Y-82985000D01*
%TO.N,Net-(J15-Pad3)*%
X109400000Y-114700000D02*
X110100000Y-114000000D01*
X114400000Y-114000000D02*
X115500000Y-112900000D01*
X109400000Y-115700000D02*
X109400000Y-114700000D01*
X110100000Y-114000000D02*
X114400000Y-114000000D01*
X115500000Y-111550000D02*
X115500000Y-111110034D01*
X115500000Y-112900000D02*
X115500000Y-111550000D01*
D26*
X117920000Y-101650000D02*
X117920000Y-102820000D01*
X115500000Y-111180744D02*
X115500000Y-111550000D01*
X119175010Y-107811090D02*
X117136100Y-109850000D01*
X117136100Y-109850000D02*
X116830744Y-109850000D01*
X117920000Y-102820000D02*
X119175010Y-104075010D01*
X116830744Y-109850000D02*
X115500000Y-111180744D01*
X119175010Y-104075010D02*
X119175010Y-107811090D01*
D23*
%TO.N,Net-(J8-Pad2)*%
X181650000Y-109900000D02*
X181000000Y-109900000D01*
X181000000Y-109900000D02*
X180600000Y-110300000D01*
X180600000Y-110300000D02*
X180600000Y-110500000D01*
X180600000Y-110500000D02*
X180000000Y-111100000D01*
X180000000Y-111100000D02*
X178300000Y-111100000D01*
X178300000Y-111100000D02*
X178000000Y-110800000D01*
X178000000Y-110800000D02*
X178000000Y-108700000D01*
X178600000Y-111400000D02*
X178300000Y-111100000D01*
X178600000Y-113700000D02*
X178600000Y-111400000D01*
D26*
X161851468Y-107500011D02*
X160776393Y-106424935D01*
X169400000Y-108000000D02*
X168900011Y-107500011D01*
X160776393Y-106424935D02*
X155474935Y-106424935D01*
X155474935Y-106424935D02*
X152100000Y-103050000D01*
X168900011Y-107500011D02*
X161851468Y-107500011D01*
X178000000Y-108400000D02*
X177600000Y-108000000D01*
X178000000Y-108700000D02*
X178000000Y-108400000D01*
X177600000Y-108000000D02*
X169400000Y-108000000D01*
X150850000Y-103050000D02*
X149120000Y-101320000D01*
X149120000Y-101320000D02*
X149120000Y-99650000D01*
X152100000Y-103050000D02*
X150850000Y-103050000D01*
%TD*%
M02*
