%TF.GenerationSoftware,KiCad,Pcbnew,5.1.9*%
%TF.CreationDate,2021-07-26T21:20:54+02:00*%
%TF.ProjectId,CNCHat,434e4348-6174-42e6-9b69-6361645f7063,rev?*%
%TF.SameCoordinates,Original*%
%TF.FileFunction,Legend,Top*%
%TF.FilePolarity,Positive*%
%FSLAX46Y46*%
G04 Gerber Fmt 4.6, Leading zero omitted, Abs format (unit mm)*
G04 Created by KiCad (PCBNEW 5.1.9) date 2021-07-26 21:20:54*
%MOMM*%
%LPD*%
G01*
G04 APERTURE LIST*
%ADD10C,0.300000*%
%ADD11C,0.120000*%
%ADD12C,0.150000*%
G04 APERTURE END LIST*
D10*
X160064285Y-77128571D02*
X159350000Y-77128571D01*
X159278571Y-77842857D01*
X159350000Y-77771428D01*
X159492857Y-77700000D01*
X159850000Y-77700000D01*
X159992857Y-77771428D01*
X160064285Y-77842857D01*
X160135714Y-77985714D01*
X160135714Y-78342857D01*
X160064285Y-78485714D01*
X159992857Y-78557142D01*
X159850000Y-78628571D01*
X159492857Y-78628571D01*
X159350000Y-78557142D01*
X159278571Y-78485714D01*
X160564285Y-77128571D02*
X161064285Y-78628571D01*
X161564285Y-77128571D01*
X178364285Y-77221428D02*
X178435714Y-77150000D01*
X178578571Y-77078571D01*
X178935714Y-77078571D01*
X179078571Y-77150000D01*
X179150000Y-77221428D01*
X179221428Y-77364285D01*
X179221428Y-77507142D01*
X179150000Y-77721428D01*
X178292857Y-78578571D01*
X179221428Y-78578571D01*
X180507142Y-77578571D02*
X180507142Y-78578571D01*
X180150000Y-77007142D02*
X179792857Y-78078571D01*
X180721428Y-78078571D01*
X181078571Y-77078571D02*
X181578571Y-78578571D01*
X182078571Y-77078571D01*
X150814285Y-82171428D02*
X150885714Y-82100000D01*
X151028571Y-82028571D01*
X151385714Y-82028571D01*
X151528571Y-82100000D01*
X151600000Y-82171428D01*
X151671428Y-82314285D01*
X151671428Y-82457142D01*
X151600000Y-82671428D01*
X150742857Y-83528571D01*
X151671428Y-83528571D01*
X152957142Y-82528571D02*
X152957142Y-83528571D01*
X152600000Y-81957142D02*
X152242857Y-83028571D01*
X153171428Y-83028571D01*
X153528571Y-82028571D02*
X154028571Y-83528571D01*
X154528571Y-82028571D01*
X152564285Y-86328571D02*
X151850000Y-86328571D01*
X151778571Y-87042857D01*
X151850000Y-86971428D01*
X151992857Y-86900000D01*
X152350000Y-86900000D01*
X152492857Y-86971428D01*
X152564285Y-87042857D01*
X152635714Y-87185714D01*
X152635714Y-87542857D01*
X152564285Y-87685714D01*
X152492857Y-87757142D01*
X152350000Y-87828571D01*
X151992857Y-87828571D01*
X151850000Y-87757142D01*
X151778571Y-87685714D01*
X153064285Y-86328571D02*
X153564285Y-87828571D01*
X154064285Y-86328571D01*
X150942857Y-90628571D02*
X151871428Y-90628571D01*
X151371428Y-91200000D01*
X151585714Y-91200000D01*
X151728571Y-91271428D01*
X151800000Y-91342857D01*
X151871428Y-91485714D01*
X151871428Y-91842857D01*
X151800000Y-91985714D01*
X151728571Y-92057142D01*
X151585714Y-92128571D01*
X151157142Y-92128571D01*
X151014285Y-92057142D01*
X150942857Y-91985714D01*
X152300000Y-90628571D02*
X152800000Y-92128571D01*
X153300000Y-90628571D01*
X153657142Y-90628571D02*
X154585714Y-90628571D01*
X154085714Y-91200000D01*
X154300000Y-91200000D01*
X154442857Y-91271428D01*
X154514285Y-91342857D01*
X154585714Y-91485714D01*
X154585714Y-91842857D01*
X154514285Y-91985714D01*
X154442857Y-92057142D01*
X154300000Y-92128571D01*
X153871428Y-92128571D01*
X153728571Y-92057142D01*
X153657142Y-91985714D01*
X183692857Y-90850000D02*
X183692857Y-90350000D01*
X184478571Y-90135714D02*
X184478571Y-90850000D01*
X182978571Y-90850000D01*
X182978571Y-90135714D01*
X183907142Y-89492857D02*
X183907142Y-88350000D01*
X184407142Y-87707142D02*
X184478571Y-87492857D01*
X184478571Y-87135714D01*
X184407142Y-86992857D01*
X184335714Y-86921428D01*
X184192857Y-86850000D01*
X184050000Y-86850000D01*
X183907142Y-86921428D01*
X183835714Y-86992857D01*
X183764285Y-87135714D01*
X183692857Y-87421428D01*
X183621428Y-87564285D01*
X183550000Y-87635714D01*
X183407142Y-87707142D01*
X183264285Y-87707142D01*
X183121428Y-87635714D01*
X183050000Y-87564285D01*
X182978571Y-87421428D01*
X182978571Y-87064285D01*
X183050000Y-86850000D01*
X183478571Y-86421428D02*
X183478571Y-85850000D01*
X182978571Y-86207142D02*
X184264285Y-86207142D01*
X184407142Y-86135714D01*
X184478571Y-85992857D01*
X184478571Y-85850000D01*
X184478571Y-85135714D02*
X184407142Y-85278571D01*
X184335714Y-85350000D01*
X184192857Y-85421428D01*
X183764285Y-85421428D01*
X183621428Y-85350000D01*
X183550000Y-85278571D01*
X183478571Y-85135714D01*
X183478571Y-84921428D01*
X183550000Y-84778571D01*
X183621428Y-84707142D01*
X183764285Y-84635714D01*
X184192857Y-84635714D01*
X184335714Y-84707142D01*
X184407142Y-84778571D01*
X184478571Y-84921428D01*
X184478571Y-85135714D01*
X183478571Y-83992857D02*
X184978571Y-83992857D01*
X183550000Y-83992857D02*
X183478571Y-83850000D01*
X183478571Y-83564285D01*
X183550000Y-83421428D01*
X183621428Y-83350000D01*
X183764285Y-83278571D01*
X184192857Y-83278571D01*
X184335714Y-83350000D01*
X184407142Y-83421428D01*
X184478571Y-83564285D01*
X184478571Y-83850000D01*
X184407142Y-83992857D01*
X184335714Y-103000000D02*
X184407142Y-103071428D01*
X184478571Y-103285714D01*
X184478571Y-103428571D01*
X184407142Y-103642857D01*
X184264285Y-103785714D01*
X184121428Y-103857142D01*
X183835714Y-103928571D01*
X183621428Y-103928571D01*
X183335714Y-103857142D01*
X183192857Y-103785714D01*
X183050000Y-103642857D01*
X182978571Y-103428571D01*
X182978571Y-103285714D01*
X183050000Y-103071428D01*
X183121428Y-103000000D01*
X184478571Y-102142857D02*
X184407142Y-102285714D01*
X184335714Y-102357142D01*
X184192857Y-102428571D01*
X183764285Y-102428571D01*
X183621428Y-102357142D01*
X183550000Y-102285714D01*
X183478571Y-102142857D01*
X183478571Y-101928571D01*
X183550000Y-101785714D01*
X183621428Y-101714285D01*
X183764285Y-101642857D01*
X184192857Y-101642857D01*
X184335714Y-101714285D01*
X184407142Y-101785714D01*
X184478571Y-101928571D01*
X184478571Y-102142857D01*
X184478571Y-100785714D02*
X184407142Y-100928571D01*
X184335714Y-101000000D01*
X184192857Y-101071428D01*
X183764285Y-101071428D01*
X183621428Y-101000000D01*
X183550000Y-100928571D01*
X183478571Y-100785714D01*
X183478571Y-100571428D01*
X183550000Y-100428571D01*
X183621428Y-100357142D01*
X183764285Y-100285714D01*
X184192857Y-100285714D01*
X184335714Y-100357142D01*
X184407142Y-100428571D01*
X184478571Y-100571428D01*
X184478571Y-100785714D01*
X184478571Y-99428571D02*
X184407142Y-99571428D01*
X184264285Y-99642857D01*
X182978571Y-99642857D01*
X184478571Y-98857142D02*
X183478571Y-98857142D01*
X182978571Y-98857142D02*
X183050000Y-98928571D01*
X183121428Y-98857142D01*
X183050000Y-98785714D01*
X182978571Y-98857142D01*
X183121428Y-98857142D01*
X183478571Y-98142857D02*
X184478571Y-98142857D01*
X183621428Y-98142857D02*
X183550000Y-98071428D01*
X183478571Y-97928571D01*
X183478571Y-97714285D01*
X183550000Y-97571428D01*
X183692857Y-97500000D01*
X184478571Y-97500000D01*
X183478571Y-96142857D02*
X184692857Y-96142857D01*
X184835714Y-96214285D01*
X184907142Y-96285714D01*
X184978571Y-96428571D01*
X184978571Y-96642857D01*
X184907142Y-96785714D01*
X184407142Y-96142857D02*
X184478571Y-96285714D01*
X184478571Y-96571428D01*
X184407142Y-96714285D01*
X184335714Y-96785714D01*
X184192857Y-96857142D01*
X183764285Y-96857142D01*
X183621428Y-96785714D01*
X183550000Y-96714285D01*
X183478571Y-96571428D01*
X183478571Y-96285714D01*
X183550000Y-96142857D01*
X183592857Y-118850000D02*
X183592857Y-118350000D01*
X184378571Y-118135714D02*
X184378571Y-118850000D01*
X182878571Y-118850000D01*
X182878571Y-118135714D01*
X183807142Y-117492857D02*
X183807142Y-116350000D01*
X184307142Y-115707142D02*
X184378571Y-115492857D01*
X184378571Y-115135714D01*
X184307142Y-114992857D01*
X184235714Y-114921428D01*
X184092857Y-114850000D01*
X183950000Y-114850000D01*
X183807142Y-114921428D01*
X183735714Y-114992857D01*
X183664285Y-115135714D01*
X183592857Y-115421428D01*
X183521428Y-115564285D01*
X183450000Y-115635714D01*
X183307142Y-115707142D01*
X183164285Y-115707142D01*
X183021428Y-115635714D01*
X182950000Y-115564285D01*
X182878571Y-115421428D01*
X182878571Y-115064285D01*
X182950000Y-114850000D01*
X183378571Y-114421428D02*
X183378571Y-113850000D01*
X182878571Y-114207142D02*
X184164285Y-114207142D01*
X184307142Y-114135714D01*
X184378571Y-113992857D01*
X184378571Y-113850000D01*
X184378571Y-113135714D02*
X184307142Y-113278571D01*
X184235714Y-113350000D01*
X184092857Y-113421428D01*
X183664285Y-113421428D01*
X183521428Y-113350000D01*
X183450000Y-113278571D01*
X183378571Y-113135714D01*
X183378571Y-112921428D01*
X183450000Y-112778571D01*
X183521428Y-112707142D01*
X183664285Y-112635714D01*
X184092857Y-112635714D01*
X184235714Y-112707142D01*
X184307142Y-112778571D01*
X184378571Y-112921428D01*
X184378571Y-113135714D01*
X183378571Y-111992857D02*
X184878571Y-111992857D01*
X183450000Y-111992857D02*
X183378571Y-111850000D01*
X183378571Y-111564285D01*
X183450000Y-111421428D01*
X183521428Y-111350000D01*
X183664285Y-111278571D01*
X184092857Y-111278571D01*
X184235714Y-111350000D01*
X184307142Y-111421428D01*
X184378571Y-111564285D01*
X184378571Y-111850000D01*
X184307142Y-111992857D01*
X106242857Y-125307142D02*
X106457142Y-125378571D01*
X106814285Y-125378571D01*
X106957142Y-125307142D01*
X107028571Y-125235714D01*
X107100000Y-125092857D01*
X107100000Y-124950000D01*
X107028571Y-124807142D01*
X106957142Y-124735714D01*
X106814285Y-124664285D01*
X106528571Y-124592857D01*
X106385714Y-124521428D01*
X106314285Y-124450000D01*
X106242857Y-124307142D01*
X106242857Y-124164285D01*
X106314285Y-124021428D01*
X106385714Y-123950000D01*
X106528571Y-123878571D01*
X106885714Y-123878571D01*
X107100000Y-123950000D01*
X107742857Y-124378571D02*
X107742857Y-125878571D01*
X107742857Y-124450000D02*
X107885714Y-124378571D01*
X108171428Y-124378571D01*
X108314285Y-124450000D01*
X108385714Y-124521428D01*
X108457142Y-124664285D01*
X108457142Y-125092857D01*
X108385714Y-125235714D01*
X108314285Y-125307142D01*
X108171428Y-125378571D01*
X107885714Y-125378571D01*
X107742857Y-125307142D01*
X109100000Y-125378571D02*
X109100000Y-124378571D01*
X109100000Y-123878571D02*
X109028571Y-123950000D01*
X109100000Y-124021428D01*
X109171428Y-123950000D01*
X109100000Y-123878571D01*
X109100000Y-124021428D01*
X109814285Y-124378571D02*
X109814285Y-125378571D01*
X109814285Y-124521428D02*
X109885714Y-124450000D01*
X110028571Y-124378571D01*
X110242857Y-124378571D01*
X110385714Y-124450000D01*
X110457142Y-124592857D01*
X110457142Y-125378571D01*
X111814285Y-125378571D02*
X111814285Y-123878571D01*
X111814285Y-125307142D02*
X111671428Y-125378571D01*
X111385714Y-125378571D01*
X111242857Y-125307142D01*
X111171428Y-125235714D01*
X111100000Y-125092857D01*
X111100000Y-124664285D01*
X111171428Y-124521428D01*
X111242857Y-124450000D01*
X111385714Y-124378571D01*
X111671428Y-124378571D01*
X111814285Y-124450000D01*
X112742857Y-125378571D02*
X112600000Y-125307142D01*
X112528571Y-125164285D01*
X112528571Y-123878571D01*
X113885714Y-125307142D02*
X113742857Y-125378571D01*
X113457142Y-125378571D01*
X113314285Y-125307142D01*
X113242857Y-125164285D01*
X113242857Y-124592857D01*
X113314285Y-124450000D01*
X113457142Y-124378571D01*
X113742857Y-124378571D01*
X113885714Y-124450000D01*
X113957142Y-124592857D01*
X113957142Y-124735714D01*
X113242857Y-124878571D01*
X100992857Y-89628571D02*
X100921428Y-89842857D01*
X100921428Y-90200000D01*
X100992857Y-90342857D01*
X101064285Y-90414285D01*
X101207142Y-90485714D01*
X101350000Y-90485714D01*
X101492857Y-90414285D01*
X101564285Y-90342857D01*
X101635714Y-90200000D01*
X101707142Y-89914285D01*
X101778571Y-89771428D01*
X101850000Y-89700000D01*
X101992857Y-89628571D01*
X102135714Y-89628571D01*
X102278571Y-89700000D01*
X102350000Y-89771428D01*
X102421428Y-89914285D01*
X102421428Y-90271428D01*
X102350000Y-90485714D01*
X101921428Y-90914285D02*
X101921428Y-91485714D01*
X102421428Y-91128571D02*
X101135714Y-91128571D01*
X100992857Y-91200000D01*
X100921428Y-91342857D01*
X100921428Y-91485714D01*
X100992857Y-92557142D02*
X100921428Y-92414285D01*
X100921428Y-92128571D01*
X100992857Y-91985714D01*
X101135714Y-91914285D01*
X101707142Y-91914285D01*
X101850000Y-91985714D01*
X101921428Y-92128571D01*
X101921428Y-92414285D01*
X101850000Y-92557142D01*
X101707142Y-92628571D01*
X101564285Y-92628571D01*
X101421428Y-91914285D01*
X101921428Y-93271428D02*
X100421428Y-93271428D01*
X101850000Y-93271428D02*
X101921428Y-93414285D01*
X101921428Y-93700000D01*
X101850000Y-93842857D01*
X101778571Y-93914285D01*
X101635714Y-93985714D01*
X101207142Y-93985714D01*
X101064285Y-93914285D01*
X100992857Y-93842857D01*
X100921428Y-93700000D01*
X100921428Y-93414285D01*
X100992857Y-93271428D01*
X101921428Y-94628571D02*
X100421428Y-94628571D01*
X101850000Y-94628571D02*
X101921428Y-94771428D01*
X101921428Y-95057142D01*
X101850000Y-95200000D01*
X101778571Y-95271428D01*
X101635714Y-95342857D01*
X101207142Y-95342857D01*
X101064285Y-95271428D01*
X100992857Y-95200000D01*
X100921428Y-95057142D01*
X100921428Y-94771428D01*
X100992857Y-94628571D01*
X100992857Y-96557142D02*
X100921428Y-96414285D01*
X100921428Y-96128571D01*
X100992857Y-95985714D01*
X101135714Y-95914285D01*
X101707142Y-95914285D01*
X101850000Y-95985714D01*
X101921428Y-96128571D01*
X101921428Y-96414285D01*
X101850000Y-96557142D01*
X101707142Y-96628571D01*
X101564285Y-96628571D01*
X101421428Y-95914285D01*
X100921428Y-97271428D02*
X101921428Y-97271428D01*
X101635714Y-97271428D02*
X101778571Y-97342857D01*
X101850000Y-97414285D01*
X101921428Y-97557142D01*
X101921428Y-97700000D01*
X100992857Y-98128571D02*
X100921428Y-98271428D01*
X100921428Y-98557142D01*
X100992857Y-98700000D01*
X101135714Y-98771428D01*
X101207142Y-98771428D01*
X101350000Y-98700000D01*
X101421428Y-98557142D01*
X101421428Y-98342857D01*
X101492857Y-98200000D01*
X101635714Y-98128571D01*
X101707142Y-98128571D01*
X101850000Y-98200000D01*
X101921428Y-98342857D01*
X101921428Y-98557142D01*
X101850000Y-98700000D01*
X167842857Y-125478571D02*
X167842857Y-123978571D01*
X168414285Y-123978571D01*
X168557142Y-124050000D01*
X168628571Y-124121428D01*
X168700000Y-124264285D01*
X168700000Y-124478571D01*
X168628571Y-124621428D01*
X168557142Y-124692857D01*
X168414285Y-124764285D01*
X167842857Y-124764285D01*
X169342857Y-125478571D02*
X169342857Y-124478571D01*
X169342857Y-124764285D02*
X169414285Y-124621428D01*
X169485714Y-124550000D01*
X169628571Y-124478571D01*
X169771428Y-124478571D01*
X170485714Y-125478571D02*
X170342857Y-125407142D01*
X170271428Y-125335714D01*
X170200000Y-125192857D01*
X170200000Y-124764285D01*
X170271428Y-124621428D01*
X170342857Y-124550000D01*
X170485714Y-124478571D01*
X170700000Y-124478571D01*
X170842857Y-124550000D01*
X170914285Y-124621428D01*
X170985714Y-124764285D01*
X170985714Y-125192857D01*
X170914285Y-125335714D01*
X170842857Y-125407142D01*
X170700000Y-125478571D01*
X170485714Y-125478571D01*
X171628571Y-125478571D02*
X171628571Y-123978571D01*
X171628571Y-124550000D02*
X171771428Y-124478571D01*
X172057142Y-124478571D01*
X172200000Y-124550000D01*
X172271428Y-124621428D01*
X172342857Y-124764285D01*
X172342857Y-125192857D01*
X172271428Y-125335714D01*
X172200000Y-125407142D01*
X172057142Y-125478571D01*
X171771428Y-125478571D01*
X171628571Y-125407142D01*
X173557142Y-125407142D02*
X173414285Y-125478571D01*
X173128571Y-125478571D01*
X172985714Y-125407142D01*
X172914285Y-125264285D01*
X172914285Y-124692857D01*
X172985714Y-124550000D01*
X173128571Y-124478571D01*
X173414285Y-124478571D01*
X173557142Y-124550000D01*
X173628571Y-124692857D01*
X173628571Y-124835714D01*
X172914285Y-124978571D01*
X159814285Y-125478571D02*
X159100000Y-125478571D01*
X159100000Y-123978571D01*
X160314285Y-125478571D02*
X160314285Y-124478571D01*
X160314285Y-123978571D02*
X160242857Y-124050000D01*
X160314285Y-124121428D01*
X160385714Y-124050000D01*
X160314285Y-123978571D01*
X160314285Y-124121428D01*
X161028571Y-125478571D02*
X161028571Y-124478571D01*
X161028571Y-124621428D02*
X161100000Y-124550000D01*
X161242857Y-124478571D01*
X161457142Y-124478571D01*
X161600000Y-124550000D01*
X161671428Y-124692857D01*
X161671428Y-125478571D01*
X161671428Y-124692857D02*
X161742857Y-124550000D01*
X161885714Y-124478571D01*
X162100000Y-124478571D01*
X162242857Y-124550000D01*
X162314285Y-124692857D01*
X162314285Y-125478571D01*
X163028571Y-125478571D02*
X163028571Y-124478571D01*
X163028571Y-123978571D02*
X162957142Y-124050000D01*
X163028571Y-124121428D01*
X163100000Y-124050000D01*
X163028571Y-123978571D01*
X163028571Y-124121428D01*
X163528571Y-124478571D02*
X164100000Y-124478571D01*
X163742857Y-123978571D02*
X163742857Y-125264285D01*
X163814285Y-125407142D01*
X163957142Y-125478571D01*
X164100000Y-125478571D01*
X164528571Y-125407142D02*
X164671428Y-125478571D01*
X164957142Y-125478571D01*
X165100000Y-125407142D01*
X165171428Y-125264285D01*
X165171428Y-125192857D01*
X165100000Y-125050000D01*
X164957142Y-124978571D01*
X164742857Y-124978571D01*
X164600000Y-124907142D01*
X164528571Y-124764285D01*
X164528571Y-124692857D01*
X164600000Y-124550000D01*
X164742857Y-124478571D01*
X164957142Y-124478571D01*
X165100000Y-124550000D01*
X151150000Y-124764285D02*
X151150000Y-125478571D01*
X150650000Y-123978571D02*
X151150000Y-124764285D01*
X151650000Y-123978571D01*
X152078571Y-124121428D02*
X152150000Y-124050000D01*
X152292857Y-123978571D01*
X152650000Y-123978571D01*
X152792857Y-124050000D01*
X152864285Y-124121428D01*
X152935714Y-124264285D01*
X152935714Y-124407142D01*
X152864285Y-124621428D01*
X152007142Y-125478571D01*
X152935714Y-125478571D01*
X153578571Y-125478571D02*
X153578571Y-124478571D01*
X153578571Y-124621428D02*
X153650000Y-124550000D01*
X153792857Y-124478571D01*
X154007142Y-124478571D01*
X154150000Y-124550000D01*
X154221428Y-124692857D01*
X154221428Y-125478571D01*
X154221428Y-124692857D02*
X154292857Y-124550000D01*
X154435714Y-124478571D01*
X154650000Y-124478571D01*
X154792857Y-124550000D01*
X154864285Y-124692857D01*
X154864285Y-125478571D01*
X155578571Y-125478571D02*
X155578571Y-124478571D01*
X155578571Y-123978571D02*
X155507142Y-124050000D01*
X155578571Y-124121428D01*
X155650000Y-124050000D01*
X155578571Y-123978571D01*
X155578571Y-124121428D01*
X156292857Y-124478571D02*
X156292857Y-125478571D01*
X156292857Y-124621428D02*
X156364285Y-124550000D01*
X156507142Y-124478571D01*
X156721428Y-124478571D01*
X156864285Y-124550000D01*
X156935714Y-124692857D01*
X156935714Y-125478571D01*
X141950000Y-123978571D02*
X142950000Y-125478571D01*
X142950000Y-123978571D02*
X141950000Y-125478571D01*
X143450000Y-124121428D02*
X143521428Y-124050000D01*
X143664285Y-123978571D01*
X144021428Y-123978571D01*
X144164285Y-124050000D01*
X144235714Y-124121428D01*
X144307142Y-124264285D01*
X144307142Y-124407142D01*
X144235714Y-124621428D01*
X143378571Y-125478571D01*
X144307142Y-125478571D01*
X144950000Y-125478571D02*
X144950000Y-124478571D01*
X144950000Y-124621428D02*
X145021428Y-124550000D01*
X145164285Y-124478571D01*
X145378571Y-124478571D01*
X145521428Y-124550000D01*
X145592857Y-124692857D01*
X145592857Y-125478571D01*
X145592857Y-124692857D02*
X145664285Y-124550000D01*
X145807142Y-124478571D01*
X146021428Y-124478571D01*
X146164285Y-124550000D01*
X146235714Y-124692857D01*
X146235714Y-125478571D01*
X146950000Y-125478571D02*
X146950000Y-124478571D01*
X146950000Y-123978571D02*
X146878571Y-124050000D01*
X146950000Y-124121428D01*
X147021428Y-124050000D01*
X146950000Y-123978571D01*
X146950000Y-124121428D01*
X147664285Y-124478571D02*
X147664285Y-125478571D01*
X147664285Y-124621428D02*
X147735714Y-124550000D01*
X147878571Y-124478571D01*
X148092857Y-124478571D01*
X148235714Y-124550000D01*
X148307142Y-124692857D01*
X148307142Y-125478571D01*
X134164285Y-123978571D02*
X135164285Y-123978571D01*
X134164285Y-125478571D01*
X135164285Y-125478571D01*
X135735714Y-125478571D02*
X135735714Y-124478571D01*
X135735714Y-124621428D02*
X135807142Y-124550000D01*
X135950000Y-124478571D01*
X136164285Y-124478571D01*
X136307142Y-124550000D01*
X136378571Y-124692857D01*
X136378571Y-125478571D01*
X136378571Y-124692857D02*
X136450000Y-124550000D01*
X136592857Y-124478571D01*
X136807142Y-124478571D01*
X136950000Y-124550000D01*
X137021428Y-124692857D01*
X137021428Y-125478571D01*
X137735714Y-125478571D02*
X137735714Y-124478571D01*
X137735714Y-123978571D02*
X137664285Y-124050000D01*
X137735714Y-124121428D01*
X137807142Y-124050000D01*
X137735714Y-123978571D01*
X137735714Y-124121428D01*
X138450000Y-124478571D02*
X138450000Y-125478571D01*
X138450000Y-124621428D02*
X138521428Y-124550000D01*
X138664285Y-124478571D01*
X138878571Y-124478571D01*
X139021428Y-124550000D01*
X139092857Y-124692857D01*
X139092857Y-125478571D01*
X126164285Y-124764285D02*
X126164285Y-125478571D01*
X125664285Y-123978571D02*
X126164285Y-124764285D01*
X126664285Y-123978571D01*
X127164285Y-125478571D02*
X127164285Y-124478571D01*
X127164285Y-124621428D02*
X127235714Y-124550000D01*
X127378571Y-124478571D01*
X127592857Y-124478571D01*
X127735714Y-124550000D01*
X127807142Y-124692857D01*
X127807142Y-125478571D01*
X127807142Y-124692857D02*
X127878571Y-124550000D01*
X128021428Y-124478571D01*
X128235714Y-124478571D01*
X128378571Y-124550000D01*
X128450000Y-124692857D01*
X128450000Y-125478571D01*
X129164285Y-125478571D02*
X129164285Y-124478571D01*
X129164285Y-123978571D02*
X129092857Y-124050000D01*
X129164285Y-124121428D01*
X129235714Y-124050000D01*
X129164285Y-123978571D01*
X129164285Y-124121428D01*
X129878571Y-124478571D02*
X129878571Y-125478571D01*
X129878571Y-124621428D02*
X129950000Y-124550000D01*
X130092857Y-124478571D01*
X130307142Y-124478571D01*
X130450000Y-124550000D01*
X130521428Y-124692857D01*
X130521428Y-125478571D01*
X136442857Y-84035714D02*
X136442857Y-83535714D01*
X137228571Y-83321428D02*
X137228571Y-84035714D01*
X135728571Y-84035714D01*
X135728571Y-83321428D01*
X135728571Y-82821428D02*
X135728571Y-81821428D01*
X137228571Y-82821428D01*
X137228571Y-81821428D01*
X136392857Y-89364285D02*
X136392857Y-88864285D01*
X137178571Y-88650000D02*
X137178571Y-89364285D01*
X135678571Y-89364285D01*
X135678571Y-88650000D01*
X136464285Y-87721428D02*
X137178571Y-87721428D01*
X135678571Y-88221428D02*
X136464285Y-87721428D01*
X135678571Y-87221428D01*
X136392857Y-96435714D02*
X136392857Y-95935714D01*
X137178571Y-95721428D02*
X137178571Y-96435714D01*
X135678571Y-96435714D01*
X135678571Y-95721428D01*
X135678571Y-95221428D02*
X137178571Y-94221428D01*
X135678571Y-94221428D02*
X137178571Y-95221428D01*
X117364285Y-123878571D02*
X118364285Y-125378571D01*
X118364285Y-123878571D02*
X117364285Y-125378571D01*
X118935714Y-125378571D02*
X118935714Y-124378571D01*
X118935714Y-124521428D02*
X119007142Y-124450000D01*
X119150000Y-124378571D01*
X119364285Y-124378571D01*
X119507142Y-124450000D01*
X119578571Y-124592857D01*
X119578571Y-125378571D01*
X119578571Y-124592857D02*
X119650000Y-124450000D01*
X119792857Y-124378571D01*
X120007142Y-124378571D01*
X120150000Y-124450000D01*
X120221428Y-124592857D01*
X120221428Y-125378571D01*
X120935714Y-125378571D02*
X120935714Y-124378571D01*
X120935714Y-123878571D02*
X120864285Y-123950000D01*
X120935714Y-124021428D01*
X121007142Y-123950000D01*
X120935714Y-123878571D01*
X120935714Y-124021428D01*
X121650000Y-124378571D02*
X121650000Y-125378571D01*
X121650000Y-124521428D02*
X121721428Y-124450000D01*
X121864285Y-124378571D01*
X122078571Y-124378571D01*
X122221428Y-124450000D01*
X122292857Y-124592857D01*
X122292857Y-125378571D01*
D11*
%TO.C,U2*%
X152260000Y-102150000D02*
X152260000Y-98700000D01*
X152260000Y-102150000D02*
X152260000Y-104100000D01*
X142140000Y-102150000D02*
X142140000Y-100200000D01*
X142140000Y-102150000D02*
X142140000Y-104100000D01*
%TO.C,C1*%
X117790000Y-105565580D02*
X117790000Y-105284420D01*
X118810000Y-105565580D02*
X118810000Y-105284420D01*
%TO.C,R1*%
X122962258Y-112322500D02*
X122487742Y-112322500D01*
X122962258Y-111277500D02*
X122487742Y-111277500D01*
%TO.C,R9*%
X123012258Y-110722500D02*
X122537742Y-110722500D01*
X123012258Y-109677500D02*
X122537742Y-109677500D01*
%TO.C,U6*%
X115087500Y-107160000D02*
X115887500Y-107160000D01*
X115087500Y-107160000D02*
X114287500Y-107160000D01*
X115087500Y-104040000D02*
X115887500Y-104040000D01*
X115087500Y-104040000D02*
X113287500Y-104040000D01*
%TO.C,R34*%
X111262258Y-107122500D02*
X110787742Y-107122500D01*
X111262258Y-106077500D02*
X110787742Y-106077500D01*
%TO.C,C6*%
X110884420Y-104190000D02*
X111165580Y-104190000D01*
X110884420Y-105210000D02*
X111165580Y-105210000D01*
%TO.C,J5*%
X150640000Y-123260000D02*
X156610000Y-123260000D01*
X156610000Y-123260000D02*
X156610000Y-113140000D01*
X156610000Y-113140000D02*
X150640000Y-113140000D01*
X150640000Y-113140000D02*
X150640000Y-123260000D01*
X150650000Y-119950000D02*
X151400000Y-119950000D01*
X151400000Y-119950000D02*
X151400000Y-116450000D01*
X151400000Y-116450000D02*
X150650000Y-116450000D01*
X150650000Y-116450000D02*
X150650000Y-119950000D01*
X150650000Y-123250000D02*
X151400000Y-123250000D01*
X151400000Y-123250000D02*
X151400000Y-121450000D01*
X151400000Y-121450000D02*
X150650000Y-121450000D01*
X150650000Y-121450000D02*
X150650000Y-123250000D01*
X150650000Y-114950000D02*
X151400000Y-114950000D01*
X151400000Y-114950000D02*
X151400000Y-113150000D01*
X151400000Y-113150000D02*
X150650000Y-113150000D01*
X150650000Y-113150000D02*
X150650000Y-114950000D01*
X152900000Y-123250000D02*
X152900000Y-122500000D01*
X152900000Y-122500000D02*
X155850000Y-122500000D01*
X155850000Y-122500000D02*
X155850000Y-118200000D01*
X152900000Y-113150000D02*
X152900000Y-113900000D01*
X152900000Y-113900000D02*
X155850000Y-113900000D01*
X155850000Y-113900000D02*
X155850000Y-118200000D01*
X150350000Y-122300000D02*
X150350000Y-123550000D01*
X150350000Y-123550000D02*
X151600000Y-123550000D01*
%TO.C,U4*%
X140140000Y-81890000D02*
X140140000Y-83150000D01*
X140140000Y-88710000D02*
X140140000Y-87450000D01*
X143900000Y-81890000D02*
X140140000Y-81890000D01*
X146150000Y-88710000D02*
X140140000Y-88710000D01*
%TO.C,U3*%
X137740000Y-94700000D02*
X137740000Y-96650000D01*
X137740000Y-94700000D02*
X137740000Y-92750000D01*
X147860000Y-94700000D02*
X147860000Y-96650000D01*
X147860000Y-94700000D02*
X147860000Y-91250000D01*
%TO.C,U1*%
X121775000Y-102325000D02*
X121775000Y-104275000D01*
X121775000Y-102325000D02*
X121775000Y-100375000D01*
X131895000Y-102325000D02*
X131895000Y-104275000D01*
X131895000Y-102325000D02*
X131895000Y-98875000D01*
%TO.C,R43*%
X152862258Y-97722500D02*
X152387742Y-97722500D01*
X152862258Y-96677500D02*
X152387742Y-96677500D01*
%TO.C,R42*%
X158512258Y-82922500D02*
X158037742Y-82922500D01*
X158512258Y-81877500D02*
X158037742Y-81877500D01*
%TO.C,R41*%
X152362742Y-94827500D02*
X152837258Y-94827500D01*
X152362742Y-95872500D02*
X152837258Y-95872500D01*
%TO.C,R37*%
X114862258Y-109022500D02*
X114387742Y-109022500D01*
X114862258Y-107977500D02*
X114387742Y-107977500D01*
%TO.C,R36*%
X111262258Y-109022500D02*
X110787742Y-109022500D01*
X111262258Y-107977500D02*
X110787742Y-107977500D01*
%TO.C,R35*%
X149287742Y-90677500D02*
X149762258Y-90677500D01*
X149287742Y-91722500D02*
X149762258Y-91722500D01*
%TO.C,R33*%
X148812258Y-87827500D02*
X148337742Y-87827500D01*
X148812258Y-88872500D02*
X148337742Y-88872500D01*
%TO.C,R32*%
X112912258Y-112422500D02*
X112437742Y-112422500D01*
X112912258Y-111377500D02*
X112437742Y-111377500D01*
%TO.C,R30*%
X137812258Y-79572500D02*
X137337742Y-79572500D01*
X137812258Y-78527500D02*
X137337742Y-78527500D01*
%TO.C,R29*%
X137812258Y-78022500D02*
X137337742Y-78022500D01*
X137812258Y-76977500D02*
X137337742Y-76977500D01*
%TO.C,R28*%
X150012258Y-79572500D02*
X149537742Y-79572500D01*
X150012258Y-78527500D02*
X149537742Y-78527500D01*
%TO.C,R27*%
X137812258Y-81122500D02*
X137337742Y-81122500D01*
X137812258Y-80077500D02*
X137337742Y-80077500D01*
%TO.C,R26*%
X149537742Y-76977500D02*
X150012258Y-76977500D01*
X149537742Y-78022500D02*
X150012258Y-78022500D01*
%TO.C,R25*%
X145687742Y-78527500D02*
X146162258Y-78527500D01*
X145687742Y-79572500D02*
X146162258Y-79572500D01*
%TO.C,R24*%
X153637742Y-78577500D02*
X154112258Y-78577500D01*
X153637742Y-79622500D02*
X154112258Y-79622500D01*
%TO.C,R23*%
X153612742Y-77027500D02*
X154087258Y-77027500D01*
X153612742Y-78072500D02*
X154087258Y-78072500D01*
%TO.C,R22*%
X133687742Y-76677500D02*
X134162258Y-76677500D01*
X133687742Y-77722500D02*
X134162258Y-77722500D01*
%TO.C,R21*%
X145687742Y-76977500D02*
X146162258Y-76977500D01*
X145687742Y-78022500D02*
X146162258Y-78022500D01*
%TO.C,R20*%
X141887742Y-78527500D02*
X142362258Y-78527500D01*
X141887742Y-79572500D02*
X142362258Y-79572500D01*
%TO.C,R19*%
X141912742Y-76977500D02*
X142387258Y-76977500D01*
X141912742Y-78022500D02*
X142387258Y-78022500D01*
%TO.C,R18*%
X128437742Y-76677500D02*
X128912258Y-76677500D01*
X128437742Y-77722500D02*
X128912258Y-77722500D01*
%TO.C,R17*%
X123837742Y-76677500D02*
X124312258Y-76677500D01*
X123837742Y-77722500D02*
X124312258Y-77722500D01*
%TO.C,R16*%
X182712258Y-108822500D02*
X182237742Y-108822500D01*
X182712258Y-107777500D02*
X182237742Y-107777500D01*
%TO.C,R15*%
X174162258Y-110822500D02*
X173687742Y-110822500D01*
X174162258Y-109777500D02*
X173687742Y-109777500D01*
%TO.C,R14*%
X165562258Y-110822500D02*
X165087742Y-110822500D01*
X165562258Y-109777500D02*
X165087742Y-109777500D01*
%TO.C,R13*%
X157012258Y-110822500D02*
X156537742Y-110822500D01*
X157012258Y-109777500D02*
X156537742Y-109777500D01*
%TO.C,R12*%
X148662258Y-110822500D02*
X148187742Y-110822500D01*
X148662258Y-109777500D02*
X148187742Y-109777500D01*
%TO.C,R11*%
X140062258Y-110822500D02*
X139587742Y-110822500D01*
X140062258Y-109777500D02*
X139587742Y-109777500D01*
%TO.C,R10*%
X131612258Y-110822500D02*
X131137742Y-110822500D01*
X131612258Y-109777500D02*
X131137742Y-109777500D01*
%TO.C,R8*%
X182237742Y-109377500D02*
X182712258Y-109377500D01*
X182237742Y-110422500D02*
X182712258Y-110422500D01*
%TO.C,R7*%
X174137258Y-112422500D02*
X173662742Y-112422500D01*
X174137258Y-111377500D02*
X173662742Y-111377500D01*
%TO.C,R6*%
X165537258Y-112422500D02*
X165062742Y-112422500D01*
X165537258Y-111377500D02*
X165062742Y-111377500D01*
%TO.C,R5*%
X157037258Y-112422500D02*
X156562742Y-112422500D01*
X157037258Y-111377500D02*
X156562742Y-111377500D01*
%TO.C,R4*%
X148637258Y-112422500D02*
X148162742Y-112422500D01*
X148637258Y-111377500D02*
X148162742Y-111377500D01*
%TO.C,R3*%
X139962258Y-112422500D02*
X139487742Y-112422500D01*
X139962258Y-111377500D02*
X139487742Y-111377500D01*
%TO.C,R2*%
X131562258Y-112422500D02*
X131087742Y-112422500D01*
X131562258Y-111377500D02*
X131087742Y-111377500D01*
%TO.C,J21*%
X103040000Y-110160000D02*
X109010000Y-110160000D01*
X109010000Y-110160000D02*
X109010000Y-77540000D01*
X109010000Y-77540000D02*
X103040000Y-77540000D01*
X103040000Y-77540000D02*
X103040000Y-110160000D01*
X103050000Y-106850000D02*
X103800000Y-106850000D01*
X103800000Y-106850000D02*
X103800000Y-80850000D01*
X103800000Y-80850000D02*
X103050000Y-80850000D01*
X103050000Y-80850000D02*
X103050000Y-106850000D01*
X103050000Y-110150000D02*
X103800000Y-110150000D01*
X103800000Y-110150000D02*
X103800000Y-108350000D01*
X103800000Y-108350000D02*
X103050000Y-108350000D01*
X103050000Y-108350000D02*
X103050000Y-110150000D01*
X103050000Y-79350000D02*
X103800000Y-79350000D01*
X103800000Y-79350000D02*
X103800000Y-77550000D01*
X103800000Y-77550000D02*
X103050000Y-77550000D01*
X103050000Y-77550000D02*
X103050000Y-79350000D01*
X105300000Y-110150000D02*
X105300000Y-109400000D01*
X105300000Y-109400000D02*
X108250000Y-109400000D01*
X108250000Y-109400000D02*
X108250000Y-93850000D01*
X105300000Y-77550000D02*
X105300000Y-78300000D01*
X105300000Y-78300000D02*
X108250000Y-78300000D01*
X108250000Y-78300000D02*
X108250000Y-93850000D01*
X102750000Y-109200000D02*
X102750000Y-110450000D01*
X102750000Y-110450000D02*
X104000000Y-110450000D01*
%TO.C,J15*%
X106940000Y-123260000D02*
X112910000Y-123260000D01*
X112910000Y-123260000D02*
X112910000Y-113140000D01*
X112910000Y-113140000D02*
X106940000Y-113140000D01*
X106940000Y-113140000D02*
X106940000Y-123260000D01*
X106950000Y-119950000D02*
X107700000Y-119950000D01*
X107700000Y-119950000D02*
X107700000Y-116450000D01*
X107700000Y-116450000D02*
X106950000Y-116450000D01*
X106950000Y-116450000D02*
X106950000Y-119950000D01*
X106950000Y-123250000D02*
X107700000Y-123250000D01*
X107700000Y-123250000D02*
X107700000Y-121450000D01*
X107700000Y-121450000D02*
X106950000Y-121450000D01*
X106950000Y-121450000D02*
X106950000Y-123250000D01*
X106950000Y-114950000D02*
X107700000Y-114950000D01*
X107700000Y-114950000D02*
X107700000Y-113150000D01*
X107700000Y-113150000D02*
X106950000Y-113150000D01*
X106950000Y-113150000D02*
X106950000Y-114950000D01*
X109200000Y-123250000D02*
X109200000Y-122500000D01*
X109200000Y-122500000D02*
X112150000Y-122500000D01*
X112150000Y-122500000D02*
X112150000Y-118200000D01*
X109200000Y-113150000D02*
X109200000Y-113900000D01*
X109200000Y-113900000D02*
X112150000Y-113900000D01*
X112150000Y-113900000D02*
X112150000Y-118200000D01*
X106650000Y-122300000D02*
X106650000Y-123550000D01*
X106650000Y-123550000D02*
X107900000Y-123550000D01*
%TO.C,J13*%
X122440000Y-78440000D02*
X122440000Y-84410000D01*
X122440000Y-84410000D02*
X135060000Y-84410000D01*
X135060000Y-84410000D02*
X135060000Y-78440000D01*
X135060000Y-78440000D02*
X122440000Y-78440000D01*
X125750000Y-78450000D02*
X125750000Y-79200000D01*
X125750000Y-79200000D02*
X131750000Y-79200000D01*
X131750000Y-79200000D02*
X131750000Y-78450000D01*
X131750000Y-78450000D02*
X125750000Y-78450000D01*
X122450000Y-78450000D02*
X122450000Y-79200000D01*
X122450000Y-79200000D02*
X124250000Y-79200000D01*
X124250000Y-79200000D02*
X124250000Y-78450000D01*
X124250000Y-78450000D02*
X122450000Y-78450000D01*
X133250000Y-78450000D02*
X133250000Y-79200000D01*
X133250000Y-79200000D02*
X135050000Y-79200000D01*
X135050000Y-79200000D02*
X135050000Y-78450000D01*
X135050000Y-78450000D02*
X133250000Y-78450000D01*
X122450000Y-80700000D02*
X123200000Y-80700000D01*
X123200000Y-80700000D02*
X123200000Y-83650000D01*
X123200000Y-83650000D02*
X128750000Y-83650000D01*
X135050000Y-80700000D02*
X134300000Y-80700000D01*
X134300000Y-80700000D02*
X134300000Y-83650000D01*
X134300000Y-83650000D02*
X128750000Y-83650000D01*
X123400000Y-78150000D02*
X122150000Y-78150000D01*
X122150000Y-78150000D02*
X122150000Y-79400000D01*
%TO.C,J12*%
X122440000Y-85340000D02*
X122440000Y-91310000D01*
X122440000Y-91310000D02*
X135060000Y-91310000D01*
X135060000Y-91310000D02*
X135060000Y-85340000D01*
X135060000Y-85340000D02*
X122440000Y-85340000D01*
X125750000Y-85350000D02*
X125750000Y-86100000D01*
X125750000Y-86100000D02*
X131750000Y-86100000D01*
X131750000Y-86100000D02*
X131750000Y-85350000D01*
X131750000Y-85350000D02*
X125750000Y-85350000D01*
X122450000Y-85350000D02*
X122450000Y-86100000D01*
X122450000Y-86100000D02*
X124250000Y-86100000D01*
X124250000Y-86100000D02*
X124250000Y-85350000D01*
X124250000Y-85350000D02*
X122450000Y-85350000D01*
X133250000Y-85350000D02*
X133250000Y-86100000D01*
X133250000Y-86100000D02*
X135050000Y-86100000D01*
X135050000Y-86100000D02*
X135050000Y-85350000D01*
X135050000Y-85350000D02*
X133250000Y-85350000D01*
X122450000Y-87600000D02*
X123200000Y-87600000D01*
X123200000Y-87600000D02*
X123200000Y-90550000D01*
X123200000Y-90550000D02*
X128750000Y-90550000D01*
X135050000Y-87600000D02*
X134300000Y-87600000D01*
X134300000Y-87600000D02*
X134300000Y-90550000D01*
X134300000Y-90550000D02*
X128750000Y-90550000D01*
X123400000Y-85050000D02*
X122150000Y-85050000D01*
X122150000Y-85050000D02*
X122150000Y-86300000D01*
%TO.C,J11*%
X122440000Y-92240000D02*
X122440000Y-98210000D01*
X122440000Y-98210000D02*
X135060000Y-98210000D01*
X135060000Y-98210000D02*
X135060000Y-92240000D01*
X135060000Y-92240000D02*
X122440000Y-92240000D01*
X125750000Y-92250000D02*
X125750000Y-93000000D01*
X125750000Y-93000000D02*
X131750000Y-93000000D01*
X131750000Y-93000000D02*
X131750000Y-92250000D01*
X131750000Y-92250000D02*
X125750000Y-92250000D01*
X122450000Y-92250000D02*
X122450000Y-93000000D01*
X122450000Y-93000000D02*
X124250000Y-93000000D01*
X124250000Y-93000000D02*
X124250000Y-92250000D01*
X124250000Y-92250000D02*
X122450000Y-92250000D01*
X133250000Y-92250000D02*
X133250000Y-93000000D01*
X133250000Y-93000000D02*
X135050000Y-93000000D01*
X135050000Y-93000000D02*
X135050000Y-92250000D01*
X135050000Y-92250000D02*
X133250000Y-92250000D01*
X122450000Y-94500000D02*
X123200000Y-94500000D01*
X123200000Y-94500000D02*
X123200000Y-97450000D01*
X123200000Y-97450000D02*
X128750000Y-97450000D01*
X135050000Y-94500000D02*
X134300000Y-94500000D01*
X134300000Y-94500000D02*
X134300000Y-97450000D01*
X134300000Y-97450000D02*
X128750000Y-97450000D01*
X123400000Y-91950000D02*
X122150000Y-91950000D01*
X122150000Y-91950000D02*
X122150000Y-93200000D01*
%TO.C,J8*%
X176140000Y-118760000D02*
X182110000Y-118760000D01*
X182110000Y-118760000D02*
X182110000Y-111140000D01*
X182110000Y-111140000D02*
X176140000Y-111140000D01*
X176140000Y-111140000D02*
X176140000Y-118760000D01*
X176150000Y-115450000D02*
X176900000Y-115450000D01*
X176900000Y-115450000D02*
X176900000Y-114450000D01*
X176900000Y-114450000D02*
X176150000Y-114450000D01*
X176150000Y-114450000D02*
X176150000Y-115450000D01*
X176150000Y-118750000D02*
X176900000Y-118750000D01*
X176900000Y-118750000D02*
X176900000Y-116950000D01*
X176900000Y-116950000D02*
X176150000Y-116950000D01*
X176150000Y-116950000D02*
X176150000Y-118750000D01*
X176150000Y-112950000D02*
X176900000Y-112950000D01*
X176900000Y-112950000D02*
X176900000Y-111150000D01*
X176900000Y-111150000D02*
X176150000Y-111150000D01*
X176150000Y-111150000D02*
X176150000Y-112950000D01*
X178400000Y-118750000D02*
X178400000Y-118000000D01*
X178400000Y-118000000D02*
X181350000Y-118000000D01*
X181350000Y-118000000D02*
X181350000Y-114950000D01*
X178400000Y-111150000D02*
X178400000Y-111900000D01*
X178400000Y-111900000D02*
X181350000Y-111900000D01*
X181350000Y-111900000D02*
X181350000Y-114950000D01*
X175850000Y-117800000D02*
X175850000Y-119050000D01*
X175850000Y-119050000D02*
X177100000Y-119050000D01*
%TO.C,J7*%
X167640000Y-123260000D02*
X173610000Y-123260000D01*
X173610000Y-123260000D02*
X173610000Y-113140000D01*
X173610000Y-113140000D02*
X167640000Y-113140000D01*
X167640000Y-113140000D02*
X167640000Y-123260000D01*
X167650000Y-119950000D02*
X168400000Y-119950000D01*
X168400000Y-119950000D02*
X168400000Y-116450000D01*
X168400000Y-116450000D02*
X167650000Y-116450000D01*
X167650000Y-116450000D02*
X167650000Y-119950000D01*
X167650000Y-123250000D02*
X168400000Y-123250000D01*
X168400000Y-123250000D02*
X168400000Y-121450000D01*
X168400000Y-121450000D02*
X167650000Y-121450000D01*
X167650000Y-121450000D02*
X167650000Y-123250000D01*
X167650000Y-114950000D02*
X168400000Y-114950000D01*
X168400000Y-114950000D02*
X168400000Y-113150000D01*
X168400000Y-113150000D02*
X167650000Y-113150000D01*
X167650000Y-113150000D02*
X167650000Y-114950000D01*
X169900000Y-123250000D02*
X169900000Y-122500000D01*
X169900000Y-122500000D02*
X172850000Y-122500000D01*
X172850000Y-122500000D02*
X172850000Y-118200000D01*
X169900000Y-113150000D02*
X169900000Y-113900000D01*
X169900000Y-113900000D02*
X172850000Y-113900000D01*
X172850000Y-113900000D02*
X172850000Y-118200000D01*
X167350000Y-122300000D02*
X167350000Y-123550000D01*
X167350000Y-123550000D02*
X168600000Y-123550000D01*
%TO.C,J6*%
X159140000Y-123260000D02*
X165110000Y-123260000D01*
X165110000Y-123260000D02*
X165110000Y-113140000D01*
X165110000Y-113140000D02*
X159140000Y-113140000D01*
X159140000Y-113140000D02*
X159140000Y-123260000D01*
X159150000Y-119950000D02*
X159900000Y-119950000D01*
X159900000Y-119950000D02*
X159900000Y-116450000D01*
X159900000Y-116450000D02*
X159150000Y-116450000D01*
X159150000Y-116450000D02*
X159150000Y-119950000D01*
X159150000Y-123250000D02*
X159900000Y-123250000D01*
X159900000Y-123250000D02*
X159900000Y-121450000D01*
X159900000Y-121450000D02*
X159150000Y-121450000D01*
X159150000Y-121450000D02*
X159150000Y-123250000D01*
X159150000Y-114950000D02*
X159900000Y-114950000D01*
X159900000Y-114950000D02*
X159900000Y-113150000D01*
X159900000Y-113150000D02*
X159150000Y-113150000D01*
X159150000Y-113150000D02*
X159150000Y-114950000D01*
X161400000Y-123250000D02*
X161400000Y-122500000D01*
X161400000Y-122500000D02*
X164350000Y-122500000D01*
X164350000Y-122500000D02*
X164350000Y-118200000D01*
X161400000Y-113150000D02*
X161400000Y-113900000D01*
X161400000Y-113900000D02*
X164350000Y-113900000D01*
X164350000Y-113900000D02*
X164350000Y-118200000D01*
X158850000Y-122300000D02*
X158850000Y-123550000D01*
X158850000Y-123550000D02*
X160100000Y-123550000D01*
%TO.C,J4*%
X142140000Y-123260000D02*
X148110000Y-123260000D01*
X148110000Y-123260000D02*
X148110000Y-113140000D01*
X148110000Y-113140000D02*
X142140000Y-113140000D01*
X142140000Y-113140000D02*
X142140000Y-123260000D01*
X142150000Y-119950000D02*
X142900000Y-119950000D01*
X142900000Y-119950000D02*
X142900000Y-116450000D01*
X142900000Y-116450000D02*
X142150000Y-116450000D01*
X142150000Y-116450000D02*
X142150000Y-119950000D01*
X142150000Y-123250000D02*
X142900000Y-123250000D01*
X142900000Y-123250000D02*
X142900000Y-121450000D01*
X142900000Y-121450000D02*
X142150000Y-121450000D01*
X142150000Y-121450000D02*
X142150000Y-123250000D01*
X142150000Y-114950000D02*
X142900000Y-114950000D01*
X142900000Y-114950000D02*
X142900000Y-113150000D01*
X142900000Y-113150000D02*
X142150000Y-113150000D01*
X142150000Y-113150000D02*
X142150000Y-114950000D01*
X144400000Y-123250000D02*
X144400000Y-122500000D01*
X144400000Y-122500000D02*
X147350000Y-122500000D01*
X147350000Y-122500000D02*
X147350000Y-118200000D01*
X144400000Y-113150000D02*
X144400000Y-113900000D01*
X144400000Y-113900000D02*
X147350000Y-113900000D01*
X147350000Y-113900000D02*
X147350000Y-118200000D01*
X141850000Y-122300000D02*
X141850000Y-123550000D01*
X141850000Y-123550000D02*
X143100000Y-123550000D01*
%TO.C,J3*%
X133640000Y-123260000D02*
X139610000Y-123260000D01*
X139610000Y-123260000D02*
X139610000Y-113140000D01*
X139610000Y-113140000D02*
X133640000Y-113140000D01*
X133640000Y-113140000D02*
X133640000Y-123260000D01*
X133650000Y-119950000D02*
X134400000Y-119950000D01*
X134400000Y-119950000D02*
X134400000Y-116450000D01*
X134400000Y-116450000D02*
X133650000Y-116450000D01*
X133650000Y-116450000D02*
X133650000Y-119950000D01*
X133650000Y-123250000D02*
X134400000Y-123250000D01*
X134400000Y-123250000D02*
X134400000Y-121450000D01*
X134400000Y-121450000D02*
X133650000Y-121450000D01*
X133650000Y-121450000D02*
X133650000Y-123250000D01*
X133650000Y-114950000D02*
X134400000Y-114950000D01*
X134400000Y-114950000D02*
X134400000Y-113150000D01*
X134400000Y-113150000D02*
X133650000Y-113150000D01*
X133650000Y-113150000D02*
X133650000Y-114950000D01*
X135900000Y-123250000D02*
X135900000Y-122500000D01*
X135900000Y-122500000D02*
X138850000Y-122500000D01*
X138850000Y-122500000D02*
X138850000Y-118200000D01*
X135900000Y-113150000D02*
X135900000Y-113900000D01*
X135900000Y-113900000D02*
X138850000Y-113900000D01*
X138850000Y-113900000D02*
X138850000Y-118200000D01*
X133350000Y-122300000D02*
X133350000Y-123550000D01*
X133350000Y-123550000D02*
X134600000Y-123550000D01*
%TO.C,J2*%
X125140000Y-123260000D02*
X131110000Y-123260000D01*
X131110000Y-123260000D02*
X131110000Y-113140000D01*
X131110000Y-113140000D02*
X125140000Y-113140000D01*
X125140000Y-113140000D02*
X125140000Y-123260000D01*
X125150000Y-119950000D02*
X125900000Y-119950000D01*
X125900000Y-119950000D02*
X125900000Y-116450000D01*
X125900000Y-116450000D02*
X125150000Y-116450000D01*
X125150000Y-116450000D02*
X125150000Y-119950000D01*
X125150000Y-123250000D02*
X125900000Y-123250000D01*
X125900000Y-123250000D02*
X125900000Y-121450000D01*
X125900000Y-121450000D02*
X125150000Y-121450000D01*
X125150000Y-121450000D02*
X125150000Y-123250000D01*
X125150000Y-114950000D02*
X125900000Y-114950000D01*
X125900000Y-114950000D02*
X125900000Y-113150000D01*
X125900000Y-113150000D02*
X125150000Y-113150000D01*
X125150000Y-113150000D02*
X125150000Y-114950000D01*
X127400000Y-123250000D02*
X127400000Y-122500000D01*
X127400000Y-122500000D02*
X130350000Y-122500000D01*
X130350000Y-122500000D02*
X130350000Y-118200000D01*
X127400000Y-113150000D02*
X127400000Y-113900000D01*
X127400000Y-113900000D02*
X130350000Y-113900000D01*
X130350000Y-113900000D02*
X130350000Y-118200000D01*
X124850000Y-122300000D02*
X124850000Y-123550000D01*
X124850000Y-123550000D02*
X126100000Y-123550000D01*
%TO.C,J1*%
X116640000Y-123160000D02*
X122610000Y-123160000D01*
X122610000Y-123160000D02*
X122610000Y-113040000D01*
X122610000Y-113040000D02*
X116640000Y-113040000D01*
X116640000Y-113040000D02*
X116640000Y-123160000D01*
X116650000Y-119850000D02*
X117400000Y-119850000D01*
X117400000Y-119850000D02*
X117400000Y-116350000D01*
X117400000Y-116350000D02*
X116650000Y-116350000D01*
X116650000Y-116350000D02*
X116650000Y-119850000D01*
X116650000Y-123150000D02*
X117400000Y-123150000D01*
X117400000Y-123150000D02*
X117400000Y-121350000D01*
X117400000Y-121350000D02*
X116650000Y-121350000D01*
X116650000Y-121350000D02*
X116650000Y-123150000D01*
X116650000Y-114850000D02*
X117400000Y-114850000D01*
X117400000Y-114850000D02*
X117400000Y-113050000D01*
X117400000Y-113050000D02*
X116650000Y-113050000D01*
X116650000Y-113050000D02*
X116650000Y-114850000D01*
X118900000Y-123150000D02*
X118900000Y-122400000D01*
X118900000Y-122400000D02*
X121850000Y-122400000D01*
X121850000Y-122400000D02*
X121850000Y-118100000D01*
X118900000Y-113050000D02*
X118900000Y-113800000D01*
X118900000Y-113800000D02*
X121850000Y-113800000D01*
X121850000Y-113800000D02*
X121850000Y-118100000D01*
X116350000Y-122200000D02*
X116350000Y-123450000D01*
X116350000Y-123450000D02*
X117600000Y-123450000D01*
%TO.C,D15*%
X171500000Y-90900000D02*
X174800000Y-90900000D01*
X174800000Y-90900000D02*
X174800000Y-85500000D01*
X171500000Y-90900000D02*
X171500000Y-85500000D01*
%TO.C,D14*%
X175700000Y-82485000D02*
X179585000Y-82485000D01*
X179585000Y-82485000D02*
X179585000Y-80215000D01*
X179585000Y-80215000D02*
X175700000Y-80215000D01*
%TO.C,D13*%
X154585000Y-92365000D02*
X150700000Y-92365000D01*
X154585000Y-94635000D02*
X154585000Y-92365000D01*
X150700000Y-94635000D02*
X154585000Y-94635000D01*
%TO.C,D12*%
X150750000Y-90385000D02*
X154635000Y-90385000D01*
X154635000Y-90385000D02*
X154635000Y-88115000D01*
X154635000Y-88115000D02*
X150750000Y-88115000D01*
%TO.C,D11*%
X110400000Y-110565000D02*
X106515000Y-110565000D01*
X106515000Y-110565000D02*
X106515000Y-112835000D01*
X106515000Y-112835000D02*
X110400000Y-112835000D01*
%TO.C,D8*%
X179600000Y-108365000D02*
X175715000Y-108365000D01*
X175715000Y-108365000D02*
X175715000Y-110635000D01*
X175715000Y-110635000D02*
X179600000Y-110635000D01*
%TO.C,D7*%
X171100000Y-110365000D02*
X167215000Y-110365000D01*
X167215000Y-110365000D02*
X167215000Y-112635000D01*
X167215000Y-112635000D02*
X171100000Y-112635000D01*
%TO.C,D6*%
X162600000Y-110365000D02*
X158715000Y-110365000D01*
X158715000Y-110365000D02*
X158715000Y-112635000D01*
X158715000Y-112635000D02*
X162600000Y-112635000D01*
%TO.C,D5*%
X154100000Y-110365000D02*
X150215000Y-110365000D01*
X150215000Y-110365000D02*
X150215000Y-112635000D01*
X150215000Y-112635000D02*
X154100000Y-112635000D01*
%TO.C,D4*%
X145600000Y-110365000D02*
X141715000Y-110365000D01*
X141715000Y-110365000D02*
X141715000Y-112635000D01*
X141715000Y-112635000D02*
X145600000Y-112635000D01*
%TO.C,D3*%
X137100000Y-110365000D02*
X133215000Y-110365000D01*
X133215000Y-110365000D02*
X133215000Y-112635000D01*
X133215000Y-112635000D02*
X137100000Y-112635000D01*
%TO.C,D2*%
X128700000Y-110365000D02*
X124815000Y-110365000D01*
X124815000Y-110365000D02*
X124815000Y-112635000D01*
X124815000Y-112635000D02*
X128700000Y-112635000D01*
%TO.C,D1*%
X120200000Y-110265000D02*
X116315000Y-110265000D01*
X116315000Y-110265000D02*
X116315000Y-112535000D01*
X116315000Y-112535000D02*
X120200000Y-112535000D01*
%TO.C,C15*%
X120060000Y-85160000D02*
X120060000Y-82310000D01*
X120060000Y-76440000D02*
X120060000Y-79290000D01*
X112404437Y-76440000D02*
X120060000Y-76440000D01*
X112404437Y-85160000D02*
X120060000Y-85160000D01*
X111340000Y-84095563D02*
X111340000Y-82310000D01*
X111340000Y-77504437D02*
X111340000Y-79290000D01*
X111340000Y-77504437D02*
X112404437Y-76440000D01*
X111340000Y-84095563D02*
X112404437Y-85160000D01*
X110100000Y-78290000D02*
X111100000Y-78290000D01*
X110600000Y-77790000D02*
X110600000Y-78790000D01*
%TO.C,C14*%
X154410000Y-99834420D02*
X154410000Y-100115580D01*
X153390000Y-99834420D02*
X153390000Y-100115580D01*
%TO.C,C13*%
X121310000Y-96834420D02*
X121310000Y-97115580D01*
X120290000Y-96834420D02*
X120290000Y-97115580D01*
%TO.C,C12*%
X120340000Y-87065580D02*
X120340000Y-86784420D01*
X121360000Y-87065580D02*
X121360000Y-86784420D01*
%TO.C,C4*%
X148434420Y-84840000D02*
X148715580Y-84840000D01*
X148434420Y-85860000D02*
X148715580Y-85860000D01*
%TO.C,C3*%
X148434420Y-83340000D02*
X148715580Y-83340000D01*
X148434420Y-84360000D02*
X148715580Y-84360000D01*
%TO.C,C2*%
X148434420Y-81840000D02*
X148715580Y-81840000D01*
X148434420Y-82860000D02*
X148715580Y-82860000D01*
%TO.C,C16*%
X133584420Y-100010000D02*
X133865580Y-100010000D01*
X133584420Y-98990000D02*
X133865580Y-98990000D01*
%TO.C,C17*%
X145690580Y-90210000D02*
X145409420Y-90210000D01*
X145690580Y-89190000D02*
X145409420Y-89190000D01*
%TO.C,U7*%
X119785000Y-89125000D02*
X119785000Y-85675000D01*
X119785000Y-89125000D02*
X119785000Y-91075000D01*
X109665000Y-89125000D02*
X109665000Y-87175000D01*
X109665000Y-89125000D02*
X109665000Y-91075000D01*
%TO.C,U8*%
X109685000Y-99175000D02*
X109685000Y-101125000D01*
X109685000Y-99175000D02*
X109685000Y-97225000D01*
X119805000Y-99175000D02*
X119805000Y-101125000D01*
X119805000Y-99175000D02*
X119805000Y-95725000D01*
%TO.C,D9*%
X150750000Y-86085000D02*
X154635000Y-86085000D01*
X154635000Y-86085000D02*
X154635000Y-83815000D01*
X154635000Y-83815000D02*
X150750000Y-83815000D01*
%TO.C,F1*%
X172402064Y-78990000D02*
X171197936Y-78990000D01*
X172402064Y-80810000D02*
X171197936Y-80810000D01*
%TO.C,F2*%
X164502064Y-80860000D02*
X163297936Y-80860000D01*
X164502064Y-79040000D02*
X163297936Y-79040000D01*
%TO.C,J9*%
X177360000Y-78360000D02*
X177360000Y-70890000D01*
X177360000Y-70890000D02*
X161740000Y-70890000D01*
X161740000Y-70890000D02*
X161740000Y-78360000D01*
X161740000Y-78360000D02*
X177360000Y-78360000D01*
X175550000Y-71750000D02*
X176300000Y-71750000D01*
X176300000Y-71750000D02*
X176300000Y-76050000D01*
X176300000Y-76050000D02*
X175550000Y-76050000D01*
X175550000Y-76050000D02*
X175550000Y-76400000D01*
X175550000Y-76400000D02*
X176050000Y-76400000D01*
X176050000Y-76400000D02*
X176300000Y-77400000D01*
X176300000Y-77400000D02*
X173300000Y-77400000D01*
X173300000Y-77400000D02*
X173550000Y-76400000D01*
X173550000Y-76400000D02*
X174050000Y-76400000D01*
X174050000Y-76400000D02*
X174050000Y-76050000D01*
X174050000Y-76050000D02*
X173300000Y-76050000D01*
X173300000Y-76050000D02*
X173300000Y-71750000D01*
X173300000Y-71750000D02*
X174050000Y-71750000D01*
X172050000Y-71750000D02*
X172800000Y-71750000D01*
X172800000Y-71750000D02*
X172800000Y-76050000D01*
X172800000Y-76050000D02*
X172050000Y-76050000D01*
X172050000Y-76050000D02*
X172050000Y-76400000D01*
X172050000Y-76400000D02*
X172550000Y-76400000D01*
X172550000Y-76400000D02*
X172800000Y-77400000D01*
X172800000Y-77400000D02*
X169800000Y-77400000D01*
X169800000Y-77400000D02*
X170050000Y-76400000D01*
X170050000Y-76400000D02*
X170550000Y-76400000D01*
X170550000Y-76400000D02*
X170550000Y-76050000D01*
X170550000Y-76050000D02*
X169800000Y-76050000D01*
X169800000Y-76050000D02*
X169800000Y-71750000D01*
X169800000Y-71750000D02*
X170550000Y-71750000D01*
X168550000Y-71750000D02*
X169300000Y-71750000D01*
X169300000Y-71750000D02*
X169300000Y-76050000D01*
X169300000Y-76050000D02*
X168550000Y-76050000D01*
X168550000Y-76050000D02*
X168550000Y-76400000D01*
X168550000Y-76400000D02*
X169050000Y-76400000D01*
X169050000Y-76400000D02*
X169300000Y-77400000D01*
X169300000Y-77400000D02*
X166300000Y-77400000D01*
X166300000Y-77400000D02*
X166550000Y-76400000D01*
X166550000Y-76400000D02*
X167050000Y-76400000D01*
X167050000Y-76400000D02*
X167050000Y-76050000D01*
X167050000Y-76050000D02*
X166300000Y-76050000D01*
X166300000Y-76050000D02*
X166300000Y-71750000D01*
X166300000Y-71750000D02*
X167050000Y-71750000D01*
X165050000Y-71750000D02*
X165800000Y-71750000D01*
X165800000Y-71750000D02*
X165800000Y-76050000D01*
X165800000Y-76050000D02*
X165050000Y-76050000D01*
X165050000Y-76050000D02*
X165050000Y-76400000D01*
X165050000Y-76400000D02*
X165550000Y-76400000D01*
X165550000Y-76400000D02*
X165800000Y-77400000D01*
X165800000Y-77400000D02*
X162800000Y-77400000D01*
X162800000Y-77400000D02*
X163050000Y-76400000D01*
X163050000Y-76400000D02*
X163550000Y-76400000D01*
X163550000Y-76400000D02*
X163550000Y-76050000D01*
X163550000Y-76050000D02*
X162800000Y-76050000D01*
X162800000Y-76050000D02*
X162800000Y-71750000D01*
X162800000Y-71750000D02*
X163550000Y-71750000D01*
X177750000Y-77500000D02*
X177750000Y-78750000D01*
X177750000Y-78750000D02*
X175750000Y-78750000D01*
X174050353Y-71750155D02*
G75*
G03*
X175550000Y-71750000I749647J1700155D01*
G01*
X170550353Y-71750155D02*
G75*
G03*
X172050000Y-71750000I749647J1700155D01*
G01*
X167050353Y-71750155D02*
G75*
G03*
X168550000Y-71750000I749647J1700155D01*
G01*
X163550353Y-71750155D02*
G75*
G03*
X165050000Y-71750000I749647J1700155D01*
G01*
%TO.C,R31*%
X149087742Y-87372500D02*
X149562258Y-87372500D01*
X149087742Y-86327500D02*
X149562258Y-86327500D01*
%TO.C,D10*%
X175700000Y-95235000D02*
X179585000Y-95235000D01*
X179585000Y-95235000D02*
X179585000Y-92965000D01*
X179585000Y-92965000D02*
X175700000Y-92965000D01*
%TO.C,D16*%
X171450000Y-103700000D02*
X174750000Y-103700000D01*
X174750000Y-103700000D02*
X174750000Y-98300000D01*
X171450000Y-103700000D02*
X171450000Y-98300000D01*
%TO.C,J10*%
X175000000Y-91950000D02*
X175000000Y-89950000D01*
X176250000Y-91950000D02*
X175000000Y-91950000D01*
X182000000Y-84000000D02*
X182000000Y-84750000D01*
X177700000Y-84000000D02*
X182000000Y-84000000D01*
X177700000Y-84750000D02*
X177700000Y-84000000D01*
X177350000Y-84750000D02*
X177700000Y-84750000D01*
X177350000Y-84250000D02*
X177350000Y-84750000D01*
X176350000Y-84000000D02*
X177350000Y-84250000D01*
X176350000Y-87000000D02*
X176350000Y-84000000D01*
X177350000Y-86750000D02*
X176350000Y-87000000D01*
X177350000Y-86250000D02*
X177350000Y-86750000D01*
X177700000Y-86250000D02*
X177350000Y-86250000D01*
X177700000Y-87000000D02*
X177700000Y-86250000D01*
X182000000Y-87000000D02*
X177700000Y-87000000D01*
X182000000Y-86250000D02*
X182000000Y-87000000D01*
X182000000Y-87500000D02*
X182000000Y-88250000D01*
X177700000Y-87500000D02*
X182000000Y-87500000D01*
X177700000Y-88250000D02*
X177700000Y-87500000D01*
X177350000Y-88250000D02*
X177700000Y-88250000D01*
X177350000Y-87750000D02*
X177350000Y-88250000D01*
X176350000Y-87500000D02*
X177350000Y-87750000D01*
X176350000Y-90500000D02*
X176350000Y-87500000D01*
X177350000Y-90250000D02*
X176350000Y-90500000D01*
X177350000Y-89750000D02*
X177350000Y-90250000D01*
X177700000Y-89750000D02*
X177350000Y-89750000D01*
X177700000Y-90500000D02*
X177700000Y-89750000D01*
X182000000Y-90500000D02*
X177700000Y-90500000D01*
X182000000Y-89750000D02*
X182000000Y-90500000D01*
X175390000Y-82940000D02*
X175390000Y-91560000D01*
X182860000Y-82940000D02*
X175390000Y-82940000D01*
X182860000Y-91560000D02*
X182860000Y-82940000D01*
X175390000Y-91560000D02*
X182860000Y-91560000D01*
X181999845Y-84750353D02*
G75*
G03*
X182000000Y-86250000I1700155J-749647D01*
G01*
X181999845Y-88250353D02*
G75*
G03*
X182000000Y-89750000I1700155J-749647D01*
G01*
%TO.C,J16*%
X175390000Y-104310000D02*
X182860000Y-104310000D01*
X182860000Y-104310000D02*
X182860000Y-95690000D01*
X182860000Y-95690000D02*
X175390000Y-95690000D01*
X175390000Y-95690000D02*
X175390000Y-104310000D01*
X182000000Y-102500000D02*
X182000000Y-103250000D01*
X182000000Y-103250000D02*
X177700000Y-103250000D01*
X177700000Y-103250000D02*
X177700000Y-102500000D01*
X177700000Y-102500000D02*
X177350000Y-102500000D01*
X177350000Y-102500000D02*
X177350000Y-103000000D01*
X177350000Y-103000000D02*
X176350000Y-103250000D01*
X176350000Y-103250000D02*
X176350000Y-100250000D01*
X176350000Y-100250000D02*
X177350000Y-100500000D01*
X177350000Y-100500000D02*
X177350000Y-101000000D01*
X177350000Y-101000000D02*
X177700000Y-101000000D01*
X177700000Y-101000000D02*
X177700000Y-100250000D01*
X177700000Y-100250000D02*
X182000000Y-100250000D01*
X182000000Y-100250000D02*
X182000000Y-101000000D01*
X182000000Y-99000000D02*
X182000000Y-99750000D01*
X182000000Y-99750000D02*
X177700000Y-99750000D01*
X177700000Y-99750000D02*
X177700000Y-99000000D01*
X177700000Y-99000000D02*
X177350000Y-99000000D01*
X177350000Y-99000000D02*
X177350000Y-99500000D01*
X177350000Y-99500000D02*
X176350000Y-99750000D01*
X176350000Y-99750000D02*
X176350000Y-96750000D01*
X176350000Y-96750000D02*
X177350000Y-97000000D01*
X177350000Y-97000000D02*
X177350000Y-97500000D01*
X177350000Y-97500000D02*
X177700000Y-97500000D01*
X177700000Y-97500000D02*
X177700000Y-96750000D01*
X177700000Y-96750000D02*
X182000000Y-96750000D01*
X182000000Y-96750000D02*
X182000000Y-97500000D01*
X176250000Y-104700000D02*
X175000000Y-104700000D01*
X175000000Y-104700000D02*
X175000000Y-102700000D01*
X181999845Y-101000353D02*
G75*
G03*
X182000000Y-102500000I1700155J-749647D01*
G01*
X181999845Y-97500353D02*
G75*
G03*
X182000000Y-99000000I1700155J-749647D01*
G01*
%TO.C,Q1*%
X161550000Y-82200000D02*
X160050000Y-82200000D01*
X160050000Y-82200000D02*
X160050000Y-84010000D01*
X160050000Y-84010000D02*
X154925000Y-84010000D01*
X161550000Y-92600000D02*
X160050000Y-92600000D01*
X160050000Y-92600000D02*
X160050000Y-90790000D01*
X160050000Y-90790000D02*
X158950000Y-90790000D01*
%TO.C,Q2*%
X160050000Y-103015000D02*
X158950000Y-103015000D01*
X160050000Y-104825000D02*
X160050000Y-103015000D01*
X161550000Y-104825000D02*
X160050000Y-104825000D01*
X160050000Y-96235000D02*
X154925000Y-96235000D01*
X160050000Y-94425000D02*
X160050000Y-96235000D01*
X161550000Y-94425000D02*
X160050000Y-94425000D01*
%TO.C,R38*%
X173087742Y-93577500D02*
X173562258Y-93577500D01*
X173087742Y-94622500D02*
X173562258Y-94622500D01*
%TO.C,R39*%
X173237742Y-81577500D02*
X173712258Y-81577500D01*
X173237742Y-82622500D02*
X173712258Y-82622500D01*
%TO.C,R40*%
X158037742Y-80722500D02*
X158512258Y-80722500D01*
X158037742Y-79677500D02*
X158512258Y-79677500D01*
%TO.C,U2*%
D12*
X142188095Y-106152380D02*
X142188095Y-106961904D01*
X142235714Y-107057142D01*
X142283333Y-107104761D01*
X142378571Y-107152380D01*
X142569047Y-107152380D01*
X142664285Y-107104761D01*
X142711904Y-107057142D01*
X142759523Y-106961904D01*
X142759523Y-106152380D01*
X143188095Y-106247619D02*
X143235714Y-106200000D01*
X143330952Y-106152380D01*
X143569047Y-106152380D01*
X143664285Y-106200000D01*
X143711904Y-106247619D01*
X143759523Y-106342857D01*
X143759523Y-106438095D01*
X143711904Y-106580952D01*
X143140476Y-107152380D01*
X143759523Y-107152380D01*
%TO.C,C1*%
X120032142Y-105616666D02*
X120079761Y-105664285D01*
X120127380Y-105807142D01*
X120127380Y-105902380D01*
X120079761Y-106045238D01*
X119984523Y-106140476D01*
X119889285Y-106188095D01*
X119698809Y-106235714D01*
X119555952Y-106235714D01*
X119365476Y-106188095D01*
X119270238Y-106140476D01*
X119175000Y-106045238D01*
X119127380Y-105902380D01*
X119127380Y-105807142D01*
X119175000Y-105664285D01*
X119222619Y-105616666D01*
X120127380Y-104664285D02*
X120127380Y-105235714D01*
X120127380Y-104950000D02*
X119127380Y-104950000D01*
X119270238Y-105045238D01*
X119365476Y-105140476D01*
X119413095Y-105235714D01*
%TO.C,R1*%
X122633333Y-109302380D02*
X122300000Y-108826190D01*
X122061904Y-109302380D02*
X122061904Y-108302380D01*
X122442857Y-108302380D01*
X122538095Y-108350000D01*
X122585714Y-108397619D01*
X122633333Y-108492857D01*
X122633333Y-108635714D01*
X122585714Y-108730952D01*
X122538095Y-108778571D01*
X122442857Y-108826190D01*
X122061904Y-108826190D01*
X123585714Y-109302380D02*
X123014285Y-109302380D01*
X123300000Y-109302380D02*
X123300000Y-108302380D01*
X123204761Y-108445238D01*
X123109523Y-108540476D01*
X123014285Y-108588095D01*
%TO.C,R9*%
X122583333Y-108052380D02*
X122250000Y-107576190D01*
X122011904Y-108052380D02*
X122011904Y-107052380D01*
X122392857Y-107052380D01*
X122488095Y-107100000D01*
X122535714Y-107147619D01*
X122583333Y-107242857D01*
X122583333Y-107385714D01*
X122535714Y-107480952D01*
X122488095Y-107528571D01*
X122392857Y-107576190D01*
X122011904Y-107576190D01*
X123059523Y-108052380D02*
X123250000Y-108052380D01*
X123345238Y-108004761D01*
X123392857Y-107957142D01*
X123488095Y-107814285D01*
X123535714Y-107623809D01*
X123535714Y-107242857D01*
X123488095Y-107147619D01*
X123440476Y-107100000D01*
X123345238Y-107052380D01*
X123154761Y-107052380D01*
X123059523Y-107100000D01*
X123011904Y-107147619D01*
X122964285Y-107242857D01*
X122964285Y-107480952D01*
X123011904Y-107576190D01*
X123059523Y-107623809D01*
X123154761Y-107671428D01*
X123345238Y-107671428D01*
X123440476Y-107623809D01*
X123488095Y-107576190D01*
X123535714Y-107480952D01*
%TO.C,U6*%
X119638095Y-103252380D02*
X119638095Y-104061904D01*
X119685714Y-104157142D01*
X119733333Y-104204761D01*
X119828571Y-104252380D01*
X120019047Y-104252380D01*
X120114285Y-104204761D01*
X120161904Y-104157142D01*
X120209523Y-104061904D01*
X120209523Y-103252380D01*
X121114285Y-103252380D02*
X120923809Y-103252380D01*
X120828571Y-103300000D01*
X120780952Y-103347619D01*
X120685714Y-103490476D01*
X120638095Y-103680952D01*
X120638095Y-104061904D01*
X120685714Y-104157142D01*
X120733333Y-104204761D01*
X120828571Y-104252380D01*
X121019047Y-104252380D01*
X121114285Y-104204761D01*
X121161904Y-104157142D01*
X121209523Y-104061904D01*
X121209523Y-103823809D01*
X121161904Y-103728571D01*
X121114285Y-103680952D01*
X121019047Y-103633333D01*
X120828571Y-103633333D01*
X120733333Y-103680952D01*
X120685714Y-103728571D01*
X120638095Y-103823809D01*
%TO.C,C6*%
X110858333Y-103627142D02*
X110810714Y-103674761D01*
X110667857Y-103722380D01*
X110572619Y-103722380D01*
X110429761Y-103674761D01*
X110334523Y-103579523D01*
X110286904Y-103484285D01*
X110239285Y-103293809D01*
X110239285Y-103150952D01*
X110286904Y-102960476D01*
X110334523Y-102865238D01*
X110429761Y-102770000D01*
X110572619Y-102722380D01*
X110667857Y-102722380D01*
X110810714Y-102770000D01*
X110858333Y-102817619D01*
X111715476Y-102722380D02*
X111525000Y-102722380D01*
X111429761Y-102770000D01*
X111382142Y-102817619D01*
X111286904Y-102960476D01*
X111239285Y-103150952D01*
X111239285Y-103531904D01*
X111286904Y-103627142D01*
X111334523Y-103674761D01*
X111429761Y-103722380D01*
X111620238Y-103722380D01*
X111715476Y-103674761D01*
X111763095Y-103627142D01*
X111810714Y-103531904D01*
X111810714Y-103293809D01*
X111763095Y-103198571D01*
X111715476Y-103150952D01*
X111620238Y-103103333D01*
X111429761Y-103103333D01*
X111334523Y-103150952D01*
X111286904Y-103198571D01*
X111239285Y-103293809D01*
%TO.C,J5*%
X149002380Y-118533333D02*
X149716666Y-118533333D01*
X149859523Y-118580952D01*
X149954761Y-118676190D01*
X150002380Y-118819047D01*
X150002380Y-118914285D01*
X149002380Y-117580952D02*
X149002380Y-118057142D01*
X149478571Y-118104761D01*
X149430952Y-118057142D01*
X149383333Y-117961904D01*
X149383333Y-117723809D01*
X149430952Y-117628571D01*
X149478571Y-117580952D01*
X149573809Y-117533333D01*
X149811904Y-117533333D01*
X149907142Y-117580952D01*
X149954761Y-117628571D01*
X150002380Y-117723809D01*
X150002380Y-117961904D01*
X149954761Y-118057142D01*
X149907142Y-118104761D01*
%TO.C,U4*%
X137938095Y-89102380D02*
X137938095Y-89911904D01*
X137985714Y-90007142D01*
X138033333Y-90054761D01*
X138128571Y-90102380D01*
X138319047Y-90102380D01*
X138414285Y-90054761D01*
X138461904Y-90007142D01*
X138509523Y-89911904D01*
X138509523Y-89102380D01*
X139414285Y-89435714D02*
X139414285Y-90102380D01*
X139176190Y-89054761D02*
X138938095Y-89769047D01*
X139557142Y-89769047D01*
%TO.C,U3*%
X138138095Y-98552380D02*
X138138095Y-99361904D01*
X138185714Y-99457142D01*
X138233333Y-99504761D01*
X138328571Y-99552380D01*
X138519047Y-99552380D01*
X138614285Y-99504761D01*
X138661904Y-99457142D01*
X138709523Y-99361904D01*
X138709523Y-98552380D01*
X139090476Y-98552380D02*
X139709523Y-98552380D01*
X139376190Y-98933333D01*
X139519047Y-98933333D01*
X139614285Y-98980952D01*
X139661904Y-99028571D01*
X139709523Y-99123809D01*
X139709523Y-99361904D01*
X139661904Y-99457142D01*
X139614285Y-99504761D01*
X139519047Y-99552380D01*
X139233333Y-99552380D01*
X139138095Y-99504761D01*
X139090476Y-99457142D01*
%TO.C,U1*%
X132252380Y-105761904D02*
X133061904Y-105761904D01*
X133157142Y-105714285D01*
X133204761Y-105666666D01*
X133252380Y-105571428D01*
X133252380Y-105380952D01*
X133204761Y-105285714D01*
X133157142Y-105238095D01*
X133061904Y-105190476D01*
X132252380Y-105190476D01*
X133252380Y-104190476D02*
X133252380Y-104761904D01*
X133252380Y-104476190D02*
X132252380Y-104476190D01*
X132395238Y-104571428D01*
X132490476Y-104666666D01*
X132538095Y-104761904D01*
%TO.C,R43*%
X148982142Y-97677380D02*
X148648809Y-97201190D01*
X148410714Y-97677380D02*
X148410714Y-96677380D01*
X148791666Y-96677380D01*
X148886904Y-96725000D01*
X148934523Y-96772619D01*
X148982142Y-96867857D01*
X148982142Y-97010714D01*
X148934523Y-97105952D01*
X148886904Y-97153571D01*
X148791666Y-97201190D01*
X148410714Y-97201190D01*
X149839285Y-97010714D02*
X149839285Y-97677380D01*
X149601190Y-96629761D02*
X149363095Y-97344047D01*
X149982142Y-97344047D01*
X150267857Y-96677380D02*
X150886904Y-96677380D01*
X150553571Y-97058333D01*
X150696428Y-97058333D01*
X150791666Y-97105952D01*
X150839285Y-97153571D01*
X150886904Y-97248809D01*
X150886904Y-97486904D01*
X150839285Y-97582142D01*
X150791666Y-97629761D01*
X150696428Y-97677380D01*
X150410714Y-97677380D01*
X150315476Y-97629761D01*
X150267857Y-97582142D01*
%TO.C,R42*%
X156657142Y-79277380D02*
X156323809Y-78801190D01*
X156085714Y-79277380D02*
X156085714Y-78277380D01*
X156466666Y-78277380D01*
X156561904Y-78325000D01*
X156609523Y-78372619D01*
X156657142Y-78467857D01*
X156657142Y-78610714D01*
X156609523Y-78705952D01*
X156561904Y-78753571D01*
X156466666Y-78801190D01*
X156085714Y-78801190D01*
X157514285Y-78610714D02*
X157514285Y-79277380D01*
X157276190Y-78229761D02*
X157038095Y-78944047D01*
X157657142Y-78944047D01*
X157990476Y-78372619D02*
X158038095Y-78325000D01*
X158133333Y-78277380D01*
X158371428Y-78277380D01*
X158466666Y-78325000D01*
X158514285Y-78372619D01*
X158561904Y-78467857D01*
X158561904Y-78563095D01*
X158514285Y-78705952D01*
X157942857Y-79277380D01*
X158561904Y-79277380D01*
%TO.C,R41*%
X149032142Y-95877380D02*
X148698809Y-95401190D01*
X148460714Y-95877380D02*
X148460714Y-94877380D01*
X148841666Y-94877380D01*
X148936904Y-94925000D01*
X148984523Y-94972619D01*
X149032142Y-95067857D01*
X149032142Y-95210714D01*
X148984523Y-95305952D01*
X148936904Y-95353571D01*
X148841666Y-95401190D01*
X148460714Y-95401190D01*
X149889285Y-95210714D02*
X149889285Y-95877380D01*
X149651190Y-94829761D02*
X149413095Y-95544047D01*
X150032142Y-95544047D01*
X150936904Y-95877380D02*
X150365476Y-95877380D01*
X150651190Y-95877380D02*
X150651190Y-94877380D01*
X150555952Y-95020238D01*
X150460714Y-95115476D01*
X150365476Y-95163095D01*
%TO.C,R37*%
X113982142Y-110382380D02*
X113648809Y-109906190D01*
X113410714Y-110382380D02*
X113410714Y-109382380D01*
X113791666Y-109382380D01*
X113886904Y-109430000D01*
X113934523Y-109477619D01*
X113982142Y-109572857D01*
X113982142Y-109715714D01*
X113934523Y-109810952D01*
X113886904Y-109858571D01*
X113791666Y-109906190D01*
X113410714Y-109906190D01*
X114315476Y-109382380D02*
X114934523Y-109382380D01*
X114601190Y-109763333D01*
X114744047Y-109763333D01*
X114839285Y-109810952D01*
X114886904Y-109858571D01*
X114934523Y-109953809D01*
X114934523Y-110191904D01*
X114886904Y-110287142D01*
X114839285Y-110334761D01*
X114744047Y-110382380D01*
X114458333Y-110382380D01*
X114363095Y-110334761D01*
X114315476Y-110287142D01*
X115267857Y-109382380D02*
X115934523Y-109382380D01*
X115505952Y-110382380D01*
%TO.C,R36*%
X110382142Y-110382380D02*
X110048809Y-109906190D01*
X109810714Y-110382380D02*
X109810714Y-109382380D01*
X110191666Y-109382380D01*
X110286904Y-109430000D01*
X110334523Y-109477619D01*
X110382142Y-109572857D01*
X110382142Y-109715714D01*
X110334523Y-109810952D01*
X110286904Y-109858571D01*
X110191666Y-109906190D01*
X109810714Y-109906190D01*
X110715476Y-109382380D02*
X111334523Y-109382380D01*
X111001190Y-109763333D01*
X111144047Y-109763333D01*
X111239285Y-109810952D01*
X111286904Y-109858571D01*
X111334523Y-109953809D01*
X111334523Y-110191904D01*
X111286904Y-110287142D01*
X111239285Y-110334761D01*
X111144047Y-110382380D01*
X110858333Y-110382380D01*
X110763095Y-110334761D01*
X110715476Y-110287142D01*
X112191666Y-109382380D02*
X112001190Y-109382380D01*
X111905952Y-109430000D01*
X111858333Y-109477619D01*
X111763095Y-109620476D01*
X111715476Y-109810952D01*
X111715476Y-110191904D01*
X111763095Y-110287142D01*
X111810714Y-110334761D01*
X111905952Y-110382380D01*
X112096428Y-110382380D01*
X112191666Y-110334761D01*
X112239285Y-110287142D01*
X112286904Y-110191904D01*
X112286904Y-109953809D01*
X112239285Y-109858571D01*
X112191666Y-109810952D01*
X112096428Y-109763333D01*
X111905952Y-109763333D01*
X111810714Y-109810952D01*
X111763095Y-109858571D01*
X111715476Y-109953809D01*
%TO.C,R35*%
X149177380Y-93817857D02*
X148701190Y-94151190D01*
X149177380Y-94389285D02*
X148177380Y-94389285D01*
X148177380Y-94008333D01*
X148225000Y-93913095D01*
X148272619Y-93865476D01*
X148367857Y-93817857D01*
X148510714Y-93817857D01*
X148605952Y-93865476D01*
X148653571Y-93913095D01*
X148701190Y-94008333D01*
X148701190Y-94389285D01*
X148177380Y-93484523D02*
X148177380Y-92865476D01*
X148558333Y-93198809D01*
X148558333Y-93055952D01*
X148605952Y-92960714D01*
X148653571Y-92913095D01*
X148748809Y-92865476D01*
X148986904Y-92865476D01*
X149082142Y-92913095D01*
X149129761Y-92960714D01*
X149177380Y-93055952D01*
X149177380Y-93341666D01*
X149129761Y-93436904D01*
X149082142Y-93484523D01*
X148177380Y-91960714D02*
X148177380Y-92436904D01*
X148653571Y-92484523D01*
X148605952Y-92436904D01*
X148558333Y-92341666D01*
X148558333Y-92103571D01*
X148605952Y-92008333D01*
X148653571Y-91960714D01*
X148748809Y-91913095D01*
X148986904Y-91913095D01*
X149082142Y-91960714D01*
X149129761Y-92008333D01*
X149177380Y-92103571D01*
X149177380Y-92341666D01*
X149129761Y-92436904D01*
X149082142Y-92484523D01*
%TO.C,R33*%
X147932142Y-90232380D02*
X147598809Y-89756190D01*
X147360714Y-90232380D02*
X147360714Y-89232380D01*
X147741666Y-89232380D01*
X147836904Y-89280000D01*
X147884523Y-89327619D01*
X147932142Y-89422857D01*
X147932142Y-89565714D01*
X147884523Y-89660952D01*
X147836904Y-89708571D01*
X147741666Y-89756190D01*
X147360714Y-89756190D01*
X148265476Y-89232380D02*
X148884523Y-89232380D01*
X148551190Y-89613333D01*
X148694047Y-89613333D01*
X148789285Y-89660952D01*
X148836904Y-89708571D01*
X148884523Y-89803809D01*
X148884523Y-90041904D01*
X148836904Y-90137142D01*
X148789285Y-90184761D01*
X148694047Y-90232380D01*
X148408333Y-90232380D01*
X148313095Y-90184761D01*
X148265476Y-90137142D01*
X149217857Y-89232380D02*
X149836904Y-89232380D01*
X149503571Y-89613333D01*
X149646428Y-89613333D01*
X149741666Y-89660952D01*
X149789285Y-89708571D01*
X149836904Y-89803809D01*
X149836904Y-90041904D01*
X149789285Y-90137142D01*
X149741666Y-90184761D01*
X149646428Y-90232380D01*
X149360714Y-90232380D01*
X149265476Y-90184761D01*
X149217857Y-90137142D01*
%TO.C,R32*%
X114007142Y-113852380D02*
X113673809Y-113376190D01*
X113435714Y-113852380D02*
X113435714Y-112852380D01*
X113816666Y-112852380D01*
X113911904Y-112900000D01*
X113959523Y-112947619D01*
X114007142Y-113042857D01*
X114007142Y-113185714D01*
X113959523Y-113280952D01*
X113911904Y-113328571D01*
X113816666Y-113376190D01*
X113435714Y-113376190D01*
X114340476Y-112852380D02*
X114959523Y-112852380D01*
X114626190Y-113233333D01*
X114769047Y-113233333D01*
X114864285Y-113280952D01*
X114911904Y-113328571D01*
X114959523Y-113423809D01*
X114959523Y-113661904D01*
X114911904Y-113757142D01*
X114864285Y-113804761D01*
X114769047Y-113852380D01*
X114483333Y-113852380D01*
X114388095Y-113804761D01*
X114340476Y-113757142D01*
X115340476Y-112947619D02*
X115388095Y-112900000D01*
X115483333Y-112852380D01*
X115721428Y-112852380D01*
X115816666Y-112900000D01*
X115864285Y-112947619D01*
X115911904Y-113042857D01*
X115911904Y-113138095D01*
X115864285Y-113280952D01*
X115292857Y-113852380D01*
X115911904Y-113852380D01*
%TO.C,R30*%
X140227380Y-79317857D02*
X139751190Y-79651190D01*
X140227380Y-79889285D02*
X139227380Y-79889285D01*
X139227380Y-79508333D01*
X139275000Y-79413095D01*
X139322619Y-79365476D01*
X139417857Y-79317857D01*
X139560714Y-79317857D01*
X139655952Y-79365476D01*
X139703571Y-79413095D01*
X139751190Y-79508333D01*
X139751190Y-79889285D01*
X139227380Y-78984523D02*
X139227380Y-78365476D01*
X139608333Y-78698809D01*
X139608333Y-78555952D01*
X139655952Y-78460714D01*
X139703571Y-78413095D01*
X139798809Y-78365476D01*
X140036904Y-78365476D01*
X140132142Y-78413095D01*
X140179761Y-78460714D01*
X140227380Y-78555952D01*
X140227380Y-78841666D01*
X140179761Y-78936904D01*
X140132142Y-78984523D01*
X139227380Y-77746428D02*
X139227380Y-77651190D01*
X139275000Y-77555952D01*
X139322619Y-77508333D01*
X139417857Y-77460714D01*
X139608333Y-77413095D01*
X139846428Y-77413095D01*
X140036904Y-77460714D01*
X140132142Y-77508333D01*
X140179761Y-77555952D01*
X140227380Y-77651190D01*
X140227380Y-77746428D01*
X140179761Y-77841666D01*
X140132142Y-77889285D01*
X140036904Y-77936904D01*
X139846428Y-77984523D01*
X139608333Y-77984523D01*
X139417857Y-77936904D01*
X139322619Y-77889285D01*
X139275000Y-77841666D01*
X139227380Y-77746428D01*
%TO.C,R29*%
X136907142Y-76702380D02*
X136573809Y-76226190D01*
X136335714Y-76702380D02*
X136335714Y-75702380D01*
X136716666Y-75702380D01*
X136811904Y-75750000D01*
X136859523Y-75797619D01*
X136907142Y-75892857D01*
X136907142Y-76035714D01*
X136859523Y-76130952D01*
X136811904Y-76178571D01*
X136716666Y-76226190D01*
X136335714Y-76226190D01*
X137288095Y-75797619D02*
X137335714Y-75750000D01*
X137430952Y-75702380D01*
X137669047Y-75702380D01*
X137764285Y-75750000D01*
X137811904Y-75797619D01*
X137859523Y-75892857D01*
X137859523Y-75988095D01*
X137811904Y-76130952D01*
X137240476Y-76702380D01*
X137859523Y-76702380D01*
X138335714Y-76702380D02*
X138526190Y-76702380D01*
X138621428Y-76654761D01*
X138669047Y-76607142D01*
X138764285Y-76464285D01*
X138811904Y-76273809D01*
X138811904Y-75892857D01*
X138764285Y-75797619D01*
X138716666Y-75750000D01*
X138621428Y-75702380D01*
X138430952Y-75702380D01*
X138335714Y-75750000D01*
X138288095Y-75797619D01*
X138240476Y-75892857D01*
X138240476Y-76130952D01*
X138288095Y-76226190D01*
X138335714Y-76273809D01*
X138430952Y-76321428D01*
X138621428Y-76321428D01*
X138716666Y-76273809D01*
X138764285Y-76226190D01*
X138811904Y-76130952D01*
%TO.C,R28*%
X149132142Y-80932380D02*
X148798809Y-80456190D01*
X148560714Y-80932380D02*
X148560714Y-79932380D01*
X148941666Y-79932380D01*
X149036904Y-79980000D01*
X149084523Y-80027619D01*
X149132142Y-80122857D01*
X149132142Y-80265714D01*
X149084523Y-80360952D01*
X149036904Y-80408571D01*
X148941666Y-80456190D01*
X148560714Y-80456190D01*
X149513095Y-80027619D02*
X149560714Y-79980000D01*
X149655952Y-79932380D01*
X149894047Y-79932380D01*
X149989285Y-79980000D01*
X150036904Y-80027619D01*
X150084523Y-80122857D01*
X150084523Y-80218095D01*
X150036904Y-80360952D01*
X149465476Y-80932380D01*
X150084523Y-80932380D01*
X150655952Y-80360952D02*
X150560714Y-80313333D01*
X150513095Y-80265714D01*
X150465476Y-80170476D01*
X150465476Y-80122857D01*
X150513095Y-80027619D01*
X150560714Y-79980000D01*
X150655952Y-79932380D01*
X150846428Y-79932380D01*
X150941666Y-79980000D01*
X150989285Y-80027619D01*
X151036904Y-80122857D01*
X151036904Y-80170476D01*
X150989285Y-80265714D01*
X150941666Y-80313333D01*
X150846428Y-80360952D01*
X150655952Y-80360952D01*
X150560714Y-80408571D01*
X150513095Y-80456190D01*
X150465476Y-80551428D01*
X150465476Y-80741904D01*
X150513095Y-80837142D01*
X150560714Y-80884761D01*
X150655952Y-80932380D01*
X150846428Y-80932380D01*
X150941666Y-80884761D01*
X150989285Y-80837142D01*
X151036904Y-80741904D01*
X151036904Y-80551428D01*
X150989285Y-80456190D01*
X150941666Y-80408571D01*
X150846428Y-80360952D01*
%TO.C,R27*%
X139757142Y-81202380D02*
X139423809Y-80726190D01*
X139185714Y-81202380D02*
X139185714Y-80202380D01*
X139566666Y-80202380D01*
X139661904Y-80250000D01*
X139709523Y-80297619D01*
X139757142Y-80392857D01*
X139757142Y-80535714D01*
X139709523Y-80630952D01*
X139661904Y-80678571D01*
X139566666Y-80726190D01*
X139185714Y-80726190D01*
X140138095Y-80297619D02*
X140185714Y-80250000D01*
X140280952Y-80202380D01*
X140519047Y-80202380D01*
X140614285Y-80250000D01*
X140661904Y-80297619D01*
X140709523Y-80392857D01*
X140709523Y-80488095D01*
X140661904Y-80630952D01*
X140090476Y-81202380D01*
X140709523Y-81202380D01*
X141042857Y-80202380D02*
X141709523Y-80202380D01*
X141280952Y-81202380D01*
%TO.C,R26*%
X149157142Y-76752380D02*
X148823809Y-76276190D01*
X148585714Y-76752380D02*
X148585714Y-75752380D01*
X148966666Y-75752380D01*
X149061904Y-75800000D01*
X149109523Y-75847619D01*
X149157142Y-75942857D01*
X149157142Y-76085714D01*
X149109523Y-76180952D01*
X149061904Y-76228571D01*
X148966666Y-76276190D01*
X148585714Y-76276190D01*
X149538095Y-75847619D02*
X149585714Y-75800000D01*
X149680952Y-75752380D01*
X149919047Y-75752380D01*
X150014285Y-75800000D01*
X150061904Y-75847619D01*
X150109523Y-75942857D01*
X150109523Y-76038095D01*
X150061904Y-76180952D01*
X149490476Y-76752380D01*
X150109523Y-76752380D01*
X150966666Y-75752380D02*
X150776190Y-75752380D01*
X150680952Y-75800000D01*
X150633333Y-75847619D01*
X150538095Y-75990476D01*
X150490476Y-76180952D01*
X150490476Y-76561904D01*
X150538095Y-76657142D01*
X150585714Y-76704761D01*
X150680952Y-76752380D01*
X150871428Y-76752380D01*
X150966666Y-76704761D01*
X151014285Y-76657142D01*
X151061904Y-76561904D01*
X151061904Y-76323809D01*
X151014285Y-76228571D01*
X150966666Y-76180952D01*
X150871428Y-76133333D01*
X150680952Y-76133333D01*
X150585714Y-76180952D01*
X150538095Y-76228571D01*
X150490476Y-76323809D01*
%TO.C,R25*%
X145257142Y-76752380D02*
X144923809Y-76276190D01*
X144685714Y-76752380D02*
X144685714Y-75752380D01*
X145066666Y-75752380D01*
X145161904Y-75800000D01*
X145209523Y-75847619D01*
X145257142Y-75942857D01*
X145257142Y-76085714D01*
X145209523Y-76180952D01*
X145161904Y-76228571D01*
X145066666Y-76276190D01*
X144685714Y-76276190D01*
X145638095Y-75847619D02*
X145685714Y-75800000D01*
X145780952Y-75752380D01*
X146019047Y-75752380D01*
X146114285Y-75800000D01*
X146161904Y-75847619D01*
X146209523Y-75942857D01*
X146209523Y-76038095D01*
X146161904Y-76180952D01*
X145590476Y-76752380D01*
X146209523Y-76752380D01*
X147114285Y-75752380D02*
X146638095Y-75752380D01*
X146590476Y-76228571D01*
X146638095Y-76180952D01*
X146733333Y-76133333D01*
X146971428Y-76133333D01*
X147066666Y-76180952D01*
X147114285Y-76228571D01*
X147161904Y-76323809D01*
X147161904Y-76561904D01*
X147114285Y-76657142D01*
X147066666Y-76704761D01*
X146971428Y-76752380D01*
X146733333Y-76752380D01*
X146638095Y-76704761D01*
X146590476Y-76657142D01*
%TO.C,R24*%
X153307142Y-80902380D02*
X152973809Y-80426190D01*
X152735714Y-80902380D02*
X152735714Y-79902380D01*
X153116666Y-79902380D01*
X153211904Y-79950000D01*
X153259523Y-79997619D01*
X153307142Y-80092857D01*
X153307142Y-80235714D01*
X153259523Y-80330952D01*
X153211904Y-80378571D01*
X153116666Y-80426190D01*
X152735714Y-80426190D01*
X153688095Y-79997619D02*
X153735714Y-79950000D01*
X153830952Y-79902380D01*
X154069047Y-79902380D01*
X154164285Y-79950000D01*
X154211904Y-79997619D01*
X154259523Y-80092857D01*
X154259523Y-80188095D01*
X154211904Y-80330952D01*
X153640476Y-80902380D01*
X154259523Y-80902380D01*
X155116666Y-80235714D02*
X155116666Y-80902380D01*
X154878571Y-79854761D02*
X154640476Y-80569047D01*
X155259523Y-80569047D01*
%TO.C,R23*%
X153107142Y-76752380D02*
X152773809Y-76276190D01*
X152535714Y-76752380D02*
X152535714Y-75752380D01*
X152916666Y-75752380D01*
X153011904Y-75800000D01*
X153059523Y-75847619D01*
X153107142Y-75942857D01*
X153107142Y-76085714D01*
X153059523Y-76180952D01*
X153011904Y-76228571D01*
X152916666Y-76276190D01*
X152535714Y-76276190D01*
X153488095Y-75847619D02*
X153535714Y-75800000D01*
X153630952Y-75752380D01*
X153869047Y-75752380D01*
X153964285Y-75800000D01*
X154011904Y-75847619D01*
X154059523Y-75942857D01*
X154059523Y-76038095D01*
X154011904Y-76180952D01*
X153440476Y-76752380D01*
X154059523Y-76752380D01*
X154392857Y-75752380D02*
X155011904Y-75752380D01*
X154678571Y-76133333D01*
X154821428Y-76133333D01*
X154916666Y-76180952D01*
X154964285Y-76228571D01*
X155011904Y-76323809D01*
X155011904Y-76561904D01*
X154964285Y-76657142D01*
X154916666Y-76704761D01*
X154821428Y-76752380D01*
X154535714Y-76752380D01*
X154440476Y-76704761D01*
X154392857Y-76657142D01*
%TO.C,R22*%
X133282142Y-76452380D02*
X132948809Y-75976190D01*
X132710714Y-76452380D02*
X132710714Y-75452380D01*
X133091666Y-75452380D01*
X133186904Y-75500000D01*
X133234523Y-75547619D01*
X133282142Y-75642857D01*
X133282142Y-75785714D01*
X133234523Y-75880952D01*
X133186904Y-75928571D01*
X133091666Y-75976190D01*
X132710714Y-75976190D01*
X133663095Y-75547619D02*
X133710714Y-75500000D01*
X133805952Y-75452380D01*
X134044047Y-75452380D01*
X134139285Y-75500000D01*
X134186904Y-75547619D01*
X134234523Y-75642857D01*
X134234523Y-75738095D01*
X134186904Y-75880952D01*
X133615476Y-76452380D01*
X134234523Y-76452380D01*
X134615476Y-75547619D02*
X134663095Y-75500000D01*
X134758333Y-75452380D01*
X134996428Y-75452380D01*
X135091666Y-75500000D01*
X135139285Y-75547619D01*
X135186904Y-75642857D01*
X135186904Y-75738095D01*
X135139285Y-75880952D01*
X134567857Y-76452380D01*
X135186904Y-76452380D01*
%TO.C,R21*%
X145357142Y-80902380D02*
X145023809Y-80426190D01*
X144785714Y-80902380D02*
X144785714Y-79902380D01*
X145166666Y-79902380D01*
X145261904Y-79950000D01*
X145309523Y-79997619D01*
X145357142Y-80092857D01*
X145357142Y-80235714D01*
X145309523Y-80330952D01*
X145261904Y-80378571D01*
X145166666Y-80426190D01*
X144785714Y-80426190D01*
X145738095Y-79997619D02*
X145785714Y-79950000D01*
X145880952Y-79902380D01*
X146119047Y-79902380D01*
X146214285Y-79950000D01*
X146261904Y-79997619D01*
X146309523Y-80092857D01*
X146309523Y-80188095D01*
X146261904Y-80330952D01*
X145690476Y-80902380D01*
X146309523Y-80902380D01*
X147261904Y-80902380D02*
X146690476Y-80902380D01*
X146976190Y-80902380D02*
X146976190Y-79902380D01*
X146880952Y-80045238D01*
X146785714Y-80140476D01*
X146690476Y-80188095D01*
%TO.C,R20*%
X142557142Y-80902380D02*
X142223809Y-80426190D01*
X141985714Y-80902380D02*
X141985714Y-79902380D01*
X142366666Y-79902380D01*
X142461904Y-79950000D01*
X142509523Y-79997619D01*
X142557142Y-80092857D01*
X142557142Y-80235714D01*
X142509523Y-80330952D01*
X142461904Y-80378571D01*
X142366666Y-80426190D01*
X141985714Y-80426190D01*
X142938095Y-79997619D02*
X142985714Y-79950000D01*
X143080952Y-79902380D01*
X143319047Y-79902380D01*
X143414285Y-79950000D01*
X143461904Y-79997619D01*
X143509523Y-80092857D01*
X143509523Y-80188095D01*
X143461904Y-80330952D01*
X142890476Y-80902380D01*
X143509523Y-80902380D01*
X144128571Y-79902380D02*
X144223809Y-79902380D01*
X144319047Y-79950000D01*
X144366666Y-79997619D01*
X144414285Y-80092857D01*
X144461904Y-80283333D01*
X144461904Y-80521428D01*
X144414285Y-80711904D01*
X144366666Y-80807142D01*
X144319047Y-80854761D01*
X144223809Y-80902380D01*
X144128571Y-80902380D01*
X144033333Y-80854761D01*
X143985714Y-80807142D01*
X143938095Y-80711904D01*
X143890476Y-80521428D01*
X143890476Y-80283333D01*
X143938095Y-80092857D01*
X143985714Y-79997619D01*
X144033333Y-79950000D01*
X144128571Y-79902380D01*
%TO.C,R19*%
X141507142Y-76802380D02*
X141173809Y-76326190D01*
X140935714Y-76802380D02*
X140935714Y-75802380D01*
X141316666Y-75802380D01*
X141411904Y-75850000D01*
X141459523Y-75897619D01*
X141507142Y-75992857D01*
X141507142Y-76135714D01*
X141459523Y-76230952D01*
X141411904Y-76278571D01*
X141316666Y-76326190D01*
X140935714Y-76326190D01*
X142459523Y-76802380D02*
X141888095Y-76802380D01*
X142173809Y-76802380D02*
X142173809Y-75802380D01*
X142078571Y-75945238D01*
X141983333Y-76040476D01*
X141888095Y-76088095D01*
X142935714Y-76802380D02*
X143126190Y-76802380D01*
X143221428Y-76754761D01*
X143269047Y-76707142D01*
X143364285Y-76564285D01*
X143411904Y-76373809D01*
X143411904Y-75992857D01*
X143364285Y-75897619D01*
X143316666Y-75850000D01*
X143221428Y-75802380D01*
X143030952Y-75802380D01*
X142935714Y-75850000D01*
X142888095Y-75897619D01*
X142840476Y-75992857D01*
X142840476Y-76230952D01*
X142888095Y-76326190D01*
X142935714Y-76373809D01*
X143030952Y-76421428D01*
X143221428Y-76421428D01*
X143316666Y-76373809D01*
X143364285Y-76326190D01*
X143411904Y-76230952D01*
%TO.C,R18*%
X128032142Y-76352380D02*
X127698809Y-75876190D01*
X127460714Y-76352380D02*
X127460714Y-75352380D01*
X127841666Y-75352380D01*
X127936904Y-75400000D01*
X127984523Y-75447619D01*
X128032142Y-75542857D01*
X128032142Y-75685714D01*
X127984523Y-75780952D01*
X127936904Y-75828571D01*
X127841666Y-75876190D01*
X127460714Y-75876190D01*
X128984523Y-76352380D02*
X128413095Y-76352380D01*
X128698809Y-76352380D02*
X128698809Y-75352380D01*
X128603571Y-75495238D01*
X128508333Y-75590476D01*
X128413095Y-75638095D01*
X129555952Y-75780952D02*
X129460714Y-75733333D01*
X129413095Y-75685714D01*
X129365476Y-75590476D01*
X129365476Y-75542857D01*
X129413095Y-75447619D01*
X129460714Y-75400000D01*
X129555952Y-75352380D01*
X129746428Y-75352380D01*
X129841666Y-75400000D01*
X129889285Y-75447619D01*
X129936904Y-75542857D01*
X129936904Y-75590476D01*
X129889285Y-75685714D01*
X129841666Y-75733333D01*
X129746428Y-75780952D01*
X129555952Y-75780952D01*
X129460714Y-75828571D01*
X129413095Y-75876190D01*
X129365476Y-75971428D01*
X129365476Y-76161904D01*
X129413095Y-76257142D01*
X129460714Y-76304761D01*
X129555952Y-76352380D01*
X129746428Y-76352380D01*
X129841666Y-76304761D01*
X129889285Y-76257142D01*
X129936904Y-76161904D01*
X129936904Y-75971428D01*
X129889285Y-75876190D01*
X129841666Y-75828571D01*
X129746428Y-75780952D01*
%TO.C,R17*%
X123407142Y-76452380D02*
X123073809Y-75976190D01*
X122835714Y-76452380D02*
X122835714Y-75452380D01*
X123216666Y-75452380D01*
X123311904Y-75500000D01*
X123359523Y-75547619D01*
X123407142Y-75642857D01*
X123407142Y-75785714D01*
X123359523Y-75880952D01*
X123311904Y-75928571D01*
X123216666Y-75976190D01*
X122835714Y-75976190D01*
X124359523Y-76452380D02*
X123788095Y-76452380D01*
X124073809Y-76452380D02*
X124073809Y-75452380D01*
X123978571Y-75595238D01*
X123883333Y-75690476D01*
X123788095Y-75738095D01*
X124692857Y-75452380D02*
X125359523Y-75452380D01*
X124930952Y-76452380D01*
%TO.C,R16*%
X181857142Y-107402380D02*
X181523809Y-106926190D01*
X181285714Y-107402380D02*
X181285714Y-106402380D01*
X181666666Y-106402380D01*
X181761904Y-106450000D01*
X181809523Y-106497619D01*
X181857142Y-106592857D01*
X181857142Y-106735714D01*
X181809523Y-106830952D01*
X181761904Y-106878571D01*
X181666666Y-106926190D01*
X181285714Y-106926190D01*
X182809523Y-107402380D02*
X182238095Y-107402380D01*
X182523809Y-107402380D02*
X182523809Y-106402380D01*
X182428571Y-106545238D01*
X182333333Y-106640476D01*
X182238095Y-106688095D01*
X183666666Y-106402380D02*
X183476190Y-106402380D01*
X183380952Y-106450000D01*
X183333333Y-106497619D01*
X183238095Y-106640476D01*
X183190476Y-106830952D01*
X183190476Y-107211904D01*
X183238095Y-107307142D01*
X183285714Y-107354761D01*
X183380952Y-107402380D01*
X183571428Y-107402380D01*
X183666666Y-107354761D01*
X183714285Y-107307142D01*
X183761904Y-107211904D01*
X183761904Y-106973809D01*
X183714285Y-106878571D01*
X183666666Y-106830952D01*
X183571428Y-106783333D01*
X183380952Y-106783333D01*
X183285714Y-106830952D01*
X183238095Y-106878571D01*
X183190476Y-106973809D01*
%TO.C,R15*%
X173307142Y-108052380D02*
X172973809Y-107576190D01*
X172735714Y-108052380D02*
X172735714Y-107052380D01*
X173116666Y-107052380D01*
X173211904Y-107100000D01*
X173259523Y-107147619D01*
X173307142Y-107242857D01*
X173307142Y-107385714D01*
X173259523Y-107480952D01*
X173211904Y-107528571D01*
X173116666Y-107576190D01*
X172735714Y-107576190D01*
X174259523Y-108052380D02*
X173688095Y-108052380D01*
X173973809Y-108052380D02*
X173973809Y-107052380D01*
X173878571Y-107195238D01*
X173783333Y-107290476D01*
X173688095Y-107338095D01*
X175164285Y-107052380D02*
X174688095Y-107052380D01*
X174640476Y-107528571D01*
X174688095Y-107480952D01*
X174783333Y-107433333D01*
X175021428Y-107433333D01*
X175116666Y-107480952D01*
X175164285Y-107528571D01*
X175211904Y-107623809D01*
X175211904Y-107861904D01*
X175164285Y-107957142D01*
X175116666Y-108004761D01*
X175021428Y-108052380D01*
X174783333Y-108052380D01*
X174688095Y-108004761D01*
X174640476Y-107957142D01*
%TO.C,R14*%
X164707142Y-108152380D02*
X164373809Y-107676190D01*
X164135714Y-108152380D02*
X164135714Y-107152380D01*
X164516666Y-107152380D01*
X164611904Y-107200000D01*
X164659523Y-107247619D01*
X164707142Y-107342857D01*
X164707142Y-107485714D01*
X164659523Y-107580952D01*
X164611904Y-107628571D01*
X164516666Y-107676190D01*
X164135714Y-107676190D01*
X165659523Y-108152380D02*
X165088095Y-108152380D01*
X165373809Y-108152380D02*
X165373809Y-107152380D01*
X165278571Y-107295238D01*
X165183333Y-107390476D01*
X165088095Y-107438095D01*
X166516666Y-107485714D02*
X166516666Y-108152380D01*
X166278571Y-107104761D02*
X166040476Y-107819047D01*
X166659523Y-107819047D01*
%TO.C,R13*%
X156207142Y-108102380D02*
X155873809Y-107626190D01*
X155635714Y-108102380D02*
X155635714Y-107102380D01*
X156016666Y-107102380D01*
X156111904Y-107150000D01*
X156159523Y-107197619D01*
X156207142Y-107292857D01*
X156207142Y-107435714D01*
X156159523Y-107530952D01*
X156111904Y-107578571D01*
X156016666Y-107626190D01*
X155635714Y-107626190D01*
X157159523Y-108102380D02*
X156588095Y-108102380D01*
X156873809Y-108102380D02*
X156873809Y-107102380D01*
X156778571Y-107245238D01*
X156683333Y-107340476D01*
X156588095Y-107388095D01*
X157492857Y-107102380D02*
X158111904Y-107102380D01*
X157778571Y-107483333D01*
X157921428Y-107483333D01*
X158016666Y-107530952D01*
X158064285Y-107578571D01*
X158111904Y-107673809D01*
X158111904Y-107911904D01*
X158064285Y-108007142D01*
X158016666Y-108054761D01*
X157921428Y-108102380D01*
X157635714Y-108102380D01*
X157540476Y-108054761D01*
X157492857Y-108007142D01*
%TO.C,R12*%
X147807142Y-108102380D02*
X147473809Y-107626190D01*
X147235714Y-108102380D02*
X147235714Y-107102380D01*
X147616666Y-107102380D01*
X147711904Y-107150000D01*
X147759523Y-107197619D01*
X147807142Y-107292857D01*
X147807142Y-107435714D01*
X147759523Y-107530952D01*
X147711904Y-107578571D01*
X147616666Y-107626190D01*
X147235714Y-107626190D01*
X148759523Y-108102380D02*
X148188095Y-108102380D01*
X148473809Y-108102380D02*
X148473809Y-107102380D01*
X148378571Y-107245238D01*
X148283333Y-107340476D01*
X148188095Y-107388095D01*
X149140476Y-107197619D02*
X149188095Y-107150000D01*
X149283333Y-107102380D01*
X149521428Y-107102380D01*
X149616666Y-107150000D01*
X149664285Y-107197619D01*
X149711904Y-107292857D01*
X149711904Y-107388095D01*
X149664285Y-107530952D01*
X149092857Y-108102380D01*
X149711904Y-108102380D01*
%TO.C,R11*%
X139157142Y-108152380D02*
X138823809Y-107676190D01*
X138585714Y-108152380D02*
X138585714Y-107152380D01*
X138966666Y-107152380D01*
X139061904Y-107200000D01*
X139109523Y-107247619D01*
X139157142Y-107342857D01*
X139157142Y-107485714D01*
X139109523Y-107580952D01*
X139061904Y-107628571D01*
X138966666Y-107676190D01*
X138585714Y-107676190D01*
X140109523Y-108152380D02*
X139538095Y-108152380D01*
X139823809Y-108152380D02*
X139823809Y-107152380D01*
X139728571Y-107295238D01*
X139633333Y-107390476D01*
X139538095Y-107438095D01*
X141061904Y-108152380D02*
X140490476Y-108152380D01*
X140776190Y-108152380D02*
X140776190Y-107152380D01*
X140680952Y-107295238D01*
X140585714Y-107390476D01*
X140490476Y-107438095D01*
%TO.C,R10*%
X130732142Y-108202380D02*
X130398809Y-107726190D01*
X130160714Y-108202380D02*
X130160714Y-107202380D01*
X130541666Y-107202380D01*
X130636904Y-107250000D01*
X130684523Y-107297619D01*
X130732142Y-107392857D01*
X130732142Y-107535714D01*
X130684523Y-107630952D01*
X130636904Y-107678571D01*
X130541666Y-107726190D01*
X130160714Y-107726190D01*
X131684523Y-108202380D02*
X131113095Y-108202380D01*
X131398809Y-108202380D02*
X131398809Y-107202380D01*
X131303571Y-107345238D01*
X131208333Y-107440476D01*
X131113095Y-107488095D01*
X132303571Y-107202380D02*
X132398809Y-107202380D01*
X132494047Y-107250000D01*
X132541666Y-107297619D01*
X132589285Y-107392857D01*
X132636904Y-107583333D01*
X132636904Y-107821428D01*
X132589285Y-108011904D01*
X132541666Y-108107142D01*
X132494047Y-108154761D01*
X132398809Y-108202380D01*
X132303571Y-108202380D01*
X132208333Y-108154761D01*
X132160714Y-108107142D01*
X132113095Y-108011904D01*
X132065476Y-107821428D01*
X132065476Y-107583333D01*
X132113095Y-107392857D01*
X132160714Y-107297619D01*
X132208333Y-107250000D01*
X132303571Y-107202380D01*
%TO.C,R8*%
X182383333Y-106052380D02*
X182050000Y-105576190D01*
X181811904Y-106052380D02*
X181811904Y-105052380D01*
X182192857Y-105052380D01*
X182288095Y-105100000D01*
X182335714Y-105147619D01*
X182383333Y-105242857D01*
X182383333Y-105385714D01*
X182335714Y-105480952D01*
X182288095Y-105528571D01*
X182192857Y-105576190D01*
X181811904Y-105576190D01*
X182954761Y-105480952D02*
X182859523Y-105433333D01*
X182811904Y-105385714D01*
X182764285Y-105290476D01*
X182764285Y-105242857D01*
X182811904Y-105147619D01*
X182859523Y-105100000D01*
X182954761Y-105052380D01*
X183145238Y-105052380D01*
X183240476Y-105100000D01*
X183288095Y-105147619D01*
X183335714Y-105242857D01*
X183335714Y-105290476D01*
X183288095Y-105385714D01*
X183240476Y-105433333D01*
X183145238Y-105480952D01*
X182954761Y-105480952D01*
X182859523Y-105528571D01*
X182811904Y-105576190D01*
X182764285Y-105671428D01*
X182764285Y-105861904D01*
X182811904Y-105957142D01*
X182859523Y-106004761D01*
X182954761Y-106052380D01*
X183145238Y-106052380D01*
X183240476Y-106004761D01*
X183288095Y-105957142D01*
X183335714Y-105861904D01*
X183335714Y-105671428D01*
X183288095Y-105576190D01*
X183240476Y-105528571D01*
X183145238Y-105480952D01*
%TO.C,R7*%
X173883333Y-109352380D02*
X173550000Y-108876190D01*
X173311904Y-109352380D02*
X173311904Y-108352380D01*
X173692857Y-108352380D01*
X173788095Y-108400000D01*
X173835714Y-108447619D01*
X173883333Y-108542857D01*
X173883333Y-108685714D01*
X173835714Y-108780952D01*
X173788095Y-108828571D01*
X173692857Y-108876190D01*
X173311904Y-108876190D01*
X174216666Y-108352380D02*
X174883333Y-108352380D01*
X174454761Y-109352380D01*
%TO.C,R6*%
X165233333Y-109402380D02*
X164900000Y-108926190D01*
X164661904Y-109402380D02*
X164661904Y-108402380D01*
X165042857Y-108402380D01*
X165138095Y-108450000D01*
X165185714Y-108497619D01*
X165233333Y-108592857D01*
X165233333Y-108735714D01*
X165185714Y-108830952D01*
X165138095Y-108878571D01*
X165042857Y-108926190D01*
X164661904Y-108926190D01*
X166090476Y-108402380D02*
X165900000Y-108402380D01*
X165804761Y-108450000D01*
X165757142Y-108497619D01*
X165661904Y-108640476D01*
X165614285Y-108830952D01*
X165614285Y-109211904D01*
X165661904Y-109307142D01*
X165709523Y-109354761D01*
X165804761Y-109402380D01*
X165995238Y-109402380D01*
X166090476Y-109354761D01*
X166138095Y-109307142D01*
X166185714Y-109211904D01*
X166185714Y-108973809D01*
X166138095Y-108878571D01*
X166090476Y-108830952D01*
X165995238Y-108783333D01*
X165804761Y-108783333D01*
X165709523Y-108830952D01*
X165661904Y-108878571D01*
X165614285Y-108973809D01*
%TO.C,R5*%
X156683333Y-109402380D02*
X156350000Y-108926190D01*
X156111904Y-109402380D02*
X156111904Y-108402380D01*
X156492857Y-108402380D01*
X156588095Y-108450000D01*
X156635714Y-108497619D01*
X156683333Y-108592857D01*
X156683333Y-108735714D01*
X156635714Y-108830952D01*
X156588095Y-108878571D01*
X156492857Y-108926190D01*
X156111904Y-108926190D01*
X157588095Y-108402380D02*
X157111904Y-108402380D01*
X157064285Y-108878571D01*
X157111904Y-108830952D01*
X157207142Y-108783333D01*
X157445238Y-108783333D01*
X157540476Y-108830952D01*
X157588095Y-108878571D01*
X157635714Y-108973809D01*
X157635714Y-109211904D01*
X157588095Y-109307142D01*
X157540476Y-109354761D01*
X157445238Y-109402380D01*
X157207142Y-109402380D01*
X157111904Y-109354761D01*
X157064285Y-109307142D01*
%TO.C,R4*%
X148233333Y-109452380D02*
X147900000Y-108976190D01*
X147661904Y-109452380D02*
X147661904Y-108452380D01*
X148042857Y-108452380D01*
X148138095Y-108500000D01*
X148185714Y-108547619D01*
X148233333Y-108642857D01*
X148233333Y-108785714D01*
X148185714Y-108880952D01*
X148138095Y-108928571D01*
X148042857Y-108976190D01*
X147661904Y-108976190D01*
X149090476Y-108785714D02*
X149090476Y-109452380D01*
X148852380Y-108404761D02*
X148614285Y-109119047D01*
X149233333Y-109119047D01*
%TO.C,R3*%
X139633333Y-109402380D02*
X139300000Y-108926190D01*
X139061904Y-109402380D02*
X139061904Y-108402380D01*
X139442857Y-108402380D01*
X139538095Y-108450000D01*
X139585714Y-108497619D01*
X139633333Y-108592857D01*
X139633333Y-108735714D01*
X139585714Y-108830952D01*
X139538095Y-108878571D01*
X139442857Y-108926190D01*
X139061904Y-108926190D01*
X139966666Y-108402380D02*
X140585714Y-108402380D01*
X140252380Y-108783333D01*
X140395238Y-108783333D01*
X140490476Y-108830952D01*
X140538095Y-108878571D01*
X140585714Y-108973809D01*
X140585714Y-109211904D01*
X140538095Y-109307142D01*
X140490476Y-109354761D01*
X140395238Y-109402380D01*
X140109523Y-109402380D01*
X140014285Y-109354761D01*
X139966666Y-109307142D01*
%TO.C,R2*%
X131233333Y-109452380D02*
X130900000Y-108976190D01*
X130661904Y-109452380D02*
X130661904Y-108452380D01*
X131042857Y-108452380D01*
X131138095Y-108500000D01*
X131185714Y-108547619D01*
X131233333Y-108642857D01*
X131233333Y-108785714D01*
X131185714Y-108880952D01*
X131138095Y-108928571D01*
X131042857Y-108976190D01*
X130661904Y-108976190D01*
X131614285Y-108547619D02*
X131661904Y-108500000D01*
X131757142Y-108452380D01*
X131995238Y-108452380D01*
X132090476Y-108500000D01*
X132138095Y-108547619D01*
X132185714Y-108642857D01*
X132185714Y-108738095D01*
X132138095Y-108880952D01*
X131566666Y-109452380D01*
X132185714Y-109452380D01*
%TO.C,J21*%
X109552380Y-94909523D02*
X110266666Y-94909523D01*
X110409523Y-94957142D01*
X110504761Y-95052380D01*
X110552380Y-95195238D01*
X110552380Y-95290476D01*
X109647619Y-94480952D02*
X109600000Y-94433333D01*
X109552380Y-94338095D01*
X109552380Y-94100000D01*
X109600000Y-94004761D01*
X109647619Y-93957142D01*
X109742857Y-93909523D01*
X109838095Y-93909523D01*
X109980952Y-93957142D01*
X110552380Y-94528571D01*
X110552380Y-93909523D01*
X110552380Y-92957142D02*
X110552380Y-93528571D01*
X110552380Y-93242857D02*
X109552380Y-93242857D01*
X109695238Y-93338095D01*
X109790476Y-93433333D01*
X109838095Y-93528571D01*
%TO.C,J15*%
X105302380Y-119009523D02*
X106016666Y-119009523D01*
X106159523Y-119057142D01*
X106254761Y-119152380D01*
X106302380Y-119295238D01*
X106302380Y-119390476D01*
X106302380Y-118009523D02*
X106302380Y-118580952D01*
X106302380Y-118295238D02*
X105302380Y-118295238D01*
X105445238Y-118390476D01*
X105540476Y-118485714D01*
X105588095Y-118580952D01*
X105302380Y-117104761D02*
X105302380Y-117580952D01*
X105778571Y-117628571D01*
X105730952Y-117580952D01*
X105683333Y-117485714D01*
X105683333Y-117247619D01*
X105730952Y-117152380D01*
X105778571Y-117104761D01*
X105873809Y-117057142D01*
X106111904Y-117057142D01*
X106207142Y-117104761D01*
X106254761Y-117152380D01*
X106302380Y-117247619D01*
X106302380Y-117485714D01*
X106254761Y-117580952D01*
X106207142Y-117628571D01*
%TO.C,J8*%
X174502380Y-115283333D02*
X175216666Y-115283333D01*
X175359523Y-115330952D01*
X175454761Y-115426190D01*
X175502380Y-115569047D01*
X175502380Y-115664285D01*
X174930952Y-114664285D02*
X174883333Y-114759523D01*
X174835714Y-114807142D01*
X174740476Y-114854761D01*
X174692857Y-114854761D01*
X174597619Y-114807142D01*
X174550000Y-114759523D01*
X174502380Y-114664285D01*
X174502380Y-114473809D01*
X174550000Y-114378571D01*
X174597619Y-114330952D01*
X174692857Y-114283333D01*
X174740476Y-114283333D01*
X174835714Y-114330952D01*
X174883333Y-114378571D01*
X174930952Y-114473809D01*
X174930952Y-114664285D01*
X174978571Y-114759523D01*
X175026190Y-114807142D01*
X175121428Y-114854761D01*
X175311904Y-114854761D01*
X175407142Y-114807142D01*
X175454761Y-114759523D01*
X175502380Y-114664285D01*
X175502380Y-114473809D01*
X175454761Y-114378571D01*
X175407142Y-114330952D01*
X175311904Y-114283333D01*
X175121428Y-114283333D01*
X175026190Y-114330952D01*
X174978571Y-114378571D01*
X174930952Y-114473809D01*
%TO.C,J7*%
X166002380Y-118533333D02*
X166716666Y-118533333D01*
X166859523Y-118580952D01*
X166954761Y-118676190D01*
X167002380Y-118819047D01*
X167002380Y-118914285D01*
X166002380Y-118152380D02*
X166002380Y-117485714D01*
X167002380Y-117914285D01*
%TO.C,J6*%
X157502380Y-118533333D02*
X158216666Y-118533333D01*
X158359523Y-118580952D01*
X158454761Y-118676190D01*
X158502380Y-118819047D01*
X158502380Y-118914285D01*
X157502380Y-117628571D02*
X157502380Y-117819047D01*
X157550000Y-117914285D01*
X157597619Y-117961904D01*
X157740476Y-118057142D01*
X157930952Y-118104761D01*
X158311904Y-118104761D01*
X158407142Y-118057142D01*
X158454761Y-118009523D01*
X158502380Y-117914285D01*
X158502380Y-117723809D01*
X158454761Y-117628571D01*
X158407142Y-117580952D01*
X158311904Y-117533333D01*
X158073809Y-117533333D01*
X157978571Y-117580952D01*
X157930952Y-117628571D01*
X157883333Y-117723809D01*
X157883333Y-117914285D01*
X157930952Y-118009523D01*
X157978571Y-118057142D01*
X158073809Y-118104761D01*
%TO.C,J4*%
X140502380Y-118533333D02*
X141216666Y-118533333D01*
X141359523Y-118580952D01*
X141454761Y-118676190D01*
X141502380Y-118819047D01*
X141502380Y-118914285D01*
X140835714Y-117628571D02*
X141502380Y-117628571D01*
X140454761Y-117866666D02*
X141169047Y-118104761D01*
X141169047Y-117485714D01*
%TO.C,J3*%
X132002380Y-118533333D02*
X132716666Y-118533333D01*
X132859523Y-118580952D01*
X132954761Y-118676190D01*
X133002380Y-118819047D01*
X133002380Y-118914285D01*
X132002380Y-118152380D02*
X132002380Y-117533333D01*
X132383333Y-117866666D01*
X132383333Y-117723809D01*
X132430952Y-117628571D01*
X132478571Y-117580952D01*
X132573809Y-117533333D01*
X132811904Y-117533333D01*
X132907142Y-117580952D01*
X132954761Y-117628571D01*
X133002380Y-117723809D01*
X133002380Y-118009523D01*
X132954761Y-118104761D01*
X132907142Y-118152380D01*
%TO.C,J2*%
X123502380Y-118533333D02*
X124216666Y-118533333D01*
X124359523Y-118580952D01*
X124454761Y-118676190D01*
X124502380Y-118819047D01*
X124502380Y-118914285D01*
X123597619Y-118104761D02*
X123550000Y-118057142D01*
X123502380Y-117961904D01*
X123502380Y-117723809D01*
X123550000Y-117628571D01*
X123597619Y-117580952D01*
X123692857Y-117533333D01*
X123788095Y-117533333D01*
X123930952Y-117580952D01*
X124502380Y-118152380D01*
X124502380Y-117533333D01*
%TO.C,J1*%
X115002380Y-118433333D02*
X115716666Y-118433333D01*
X115859523Y-118480952D01*
X115954761Y-118576190D01*
X116002380Y-118719047D01*
X116002380Y-118814285D01*
X116002380Y-117433333D02*
X116002380Y-118004761D01*
X116002380Y-117719047D02*
X115002380Y-117719047D01*
X115145238Y-117814285D01*
X115240476Y-117909523D01*
X115288095Y-118004761D01*
%TO.C,D15*%
X171985714Y-92052380D02*
X171985714Y-91052380D01*
X172223809Y-91052380D01*
X172366666Y-91100000D01*
X172461904Y-91195238D01*
X172509523Y-91290476D01*
X172557142Y-91480952D01*
X172557142Y-91623809D01*
X172509523Y-91814285D01*
X172461904Y-91909523D01*
X172366666Y-92004761D01*
X172223809Y-92052380D01*
X171985714Y-92052380D01*
X173509523Y-92052380D02*
X172938095Y-92052380D01*
X173223809Y-92052380D02*
X173223809Y-91052380D01*
X173128571Y-91195238D01*
X173033333Y-91290476D01*
X172938095Y-91338095D01*
X174414285Y-91052380D02*
X173938095Y-91052380D01*
X173890476Y-91528571D01*
X173938095Y-91480952D01*
X174033333Y-91433333D01*
X174271428Y-91433333D01*
X174366666Y-91480952D01*
X174414285Y-91528571D01*
X174461904Y-91623809D01*
X174461904Y-91861904D01*
X174414285Y-91957142D01*
X174366666Y-92004761D01*
X174271428Y-92052380D01*
X174033333Y-92052380D01*
X173938095Y-92004761D01*
X173890476Y-91957142D01*
%TO.C,D14*%
X176235714Y-79952380D02*
X176235714Y-78952380D01*
X176473809Y-78952380D01*
X176616666Y-79000000D01*
X176711904Y-79095238D01*
X176759523Y-79190476D01*
X176807142Y-79380952D01*
X176807142Y-79523809D01*
X176759523Y-79714285D01*
X176711904Y-79809523D01*
X176616666Y-79904761D01*
X176473809Y-79952380D01*
X176235714Y-79952380D01*
X177759523Y-79952380D02*
X177188095Y-79952380D01*
X177473809Y-79952380D02*
X177473809Y-78952380D01*
X177378571Y-79095238D01*
X177283333Y-79190476D01*
X177188095Y-79238095D01*
X178616666Y-79285714D02*
X178616666Y-79952380D01*
X178378571Y-78904761D02*
X178140476Y-79619047D01*
X178759523Y-79619047D01*
%TO.C,D11*%
X103710714Y-112127380D02*
X103710714Y-111127380D01*
X103948809Y-111127380D01*
X104091666Y-111175000D01*
X104186904Y-111270238D01*
X104234523Y-111365476D01*
X104282142Y-111555952D01*
X104282142Y-111698809D01*
X104234523Y-111889285D01*
X104186904Y-111984523D01*
X104091666Y-112079761D01*
X103948809Y-112127380D01*
X103710714Y-112127380D01*
X105234523Y-112127380D02*
X104663095Y-112127380D01*
X104948809Y-112127380D02*
X104948809Y-111127380D01*
X104853571Y-111270238D01*
X104758333Y-111365476D01*
X104663095Y-111413095D01*
X106186904Y-112127380D02*
X105615476Y-112127380D01*
X105901190Y-112127380D02*
X105901190Y-111127380D01*
X105805952Y-111270238D01*
X105710714Y-111365476D01*
X105615476Y-111413095D01*
%TO.C,D8*%
X177261904Y-108132380D02*
X177261904Y-107132380D01*
X177500000Y-107132380D01*
X177642857Y-107180000D01*
X177738095Y-107275238D01*
X177785714Y-107370476D01*
X177833333Y-107560952D01*
X177833333Y-107703809D01*
X177785714Y-107894285D01*
X177738095Y-107989523D01*
X177642857Y-108084761D01*
X177500000Y-108132380D01*
X177261904Y-108132380D01*
X178404761Y-107560952D02*
X178309523Y-107513333D01*
X178261904Y-107465714D01*
X178214285Y-107370476D01*
X178214285Y-107322857D01*
X178261904Y-107227619D01*
X178309523Y-107180000D01*
X178404761Y-107132380D01*
X178595238Y-107132380D01*
X178690476Y-107180000D01*
X178738095Y-107227619D01*
X178785714Y-107322857D01*
X178785714Y-107370476D01*
X178738095Y-107465714D01*
X178690476Y-107513333D01*
X178595238Y-107560952D01*
X178404761Y-107560952D01*
X178309523Y-107608571D01*
X178261904Y-107656190D01*
X178214285Y-107751428D01*
X178214285Y-107941904D01*
X178261904Y-108037142D01*
X178309523Y-108084761D01*
X178404761Y-108132380D01*
X178595238Y-108132380D01*
X178690476Y-108084761D01*
X178738095Y-108037142D01*
X178785714Y-107941904D01*
X178785714Y-107751428D01*
X178738095Y-107656190D01*
X178690476Y-107608571D01*
X178595238Y-107560952D01*
%TO.C,D7*%
X168761904Y-110132380D02*
X168761904Y-109132380D01*
X169000000Y-109132380D01*
X169142857Y-109180000D01*
X169238095Y-109275238D01*
X169285714Y-109370476D01*
X169333333Y-109560952D01*
X169333333Y-109703809D01*
X169285714Y-109894285D01*
X169238095Y-109989523D01*
X169142857Y-110084761D01*
X169000000Y-110132380D01*
X168761904Y-110132380D01*
X169666666Y-109132380D02*
X170333333Y-109132380D01*
X169904761Y-110132380D01*
%TO.C,D6*%
X160261904Y-110132380D02*
X160261904Y-109132380D01*
X160500000Y-109132380D01*
X160642857Y-109180000D01*
X160738095Y-109275238D01*
X160785714Y-109370476D01*
X160833333Y-109560952D01*
X160833333Y-109703809D01*
X160785714Y-109894285D01*
X160738095Y-109989523D01*
X160642857Y-110084761D01*
X160500000Y-110132380D01*
X160261904Y-110132380D01*
X161690476Y-109132380D02*
X161500000Y-109132380D01*
X161404761Y-109180000D01*
X161357142Y-109227619D01*
X161261904Y-109370476D01*
X161214285Y-109560952D01*
X161214285Y-109941904D01*
X161261904Y-110037142D01*
X161309523Y-110084761D01*
X161404761Y-110132380D01*
X161595238Y-110132380D01*
X161690476Y-110084761D01*
X161738095Y-110037142D01*
X161785714Y-109941904D01*
X161785714Y-109703809D01*
X161738095Y-109608571D01*
X161690476Y-109560952D01*
X161595238Y-109513333D01*
X161404761Y-109513333D01*
X161309523Y-109560952D01*
X161261904Y-109608571D01*
X161214285Y-109703809D01*
%TO.C,D5*%
X151761904Y-110132380D02*
X151761904Y-109132380D01*
X152000000Y-109132380D01*
X152142857Y-109180000D01*
X152238095Y-109275238D01*
X152285714Y-109370476D01*
X152333333Y-109560952D01*
X152333333Y-109703809D01*
X152285714Y-109894285D01*
X152238095Y-109989523D01*
X152142857Y-110084761D01*
X152000000Y-110132380D01*
X151761904Y-110132380D01*
X153238095Y-109132380D02*
X152761904Y-109132380D01*
X152714285Y-109608571D01*
X152761904Y-109560952D01*
X152857142Y-109513333D01*
X153095238Y-109513333D01*
X153190476Y-109560952D01*
X153238095Y-109608571D01*
X153285714Y-109703809D01*
X153285714Y-109941904D01*
X153238095Y-110037142D01*
X153190476Y-110084761D01*
X153095238Y-110132380D01*
X152857142Y-110132380D01*
X152761904Y-110084761D01*
X152714285Y-110037142D01*
%TO.C,D4*%
X143261904Y-110132380D02*
X143261904Y-109132380D01*
X143500000Y-109132380D01*
X143642857Y-109180000D01*
X143738095Y-109275238D01*
X143785714Y-109370476D01*
X143833333Y-109560952D01*
X143833333Y-109703809D01*
X143785714Y-109894285D01*
X143738095Y-109989523D01*
X143642857Y-110084761D01*
X143500000Y-110132380D01*
X143261904Y-110132380D01*
X144690476Y-109465714D02*
X144690476Y-110132380D01*
X144452380Y-109084761D02*
X144214285Y-109799047D01*
X144833333Y-109799047D01*
%TO.C,D3*%
X134761904Y-110132380D02*
X134761904Y-109132380D01*
X135000000Y-109132380D01*
X135142857Y-109180000D01*
X135238095Y-109275238D01*
X135285714Y-109370476D01*
X135333333Y-109560952D01*
X135333333Y-109703809D01*
X135285714Y-109894285D01*
X135238095Y-109989523D01*
X135142857Y-110084761D01*
X135000000Y-110132380D01*
X134761904Y-110132380D01*
X135666666Y-109132380D02*
X136285714Y-109132380D01*
X135952380Y-109513333D01*
X136095238Y-109513333D01*
X136190476Y-109560952D01*
X136238095Y-109608571D01*
X136285714Y-109703809D01*
X136285714Y-109941904D01*
X136238095Y-110037142D01*
X136190476Y-110084761D01*
X136095238Y-110132380D01*
X135809523Y-110132380D01*
X135714285Y-110084761D01*
X135666666Y-110037142D01*
%TO.C,D2*%
X126361904Y-110132380D02*
X126361904Y-109132380D01*
X126600000Y-109132380D01*
X126742857Y-109180000D01*
X126838095Y-109275238D01*
X126885714Y-109370476D01*
X126933333Y-109560952D01*
X126933333Y-109703809D01*
X126885714Y-109894285D01*
X126838095Y-109989523D01*
X126742857Y-110084761D01*
X126600000Y-110132380D01*
X126361904Y-110132380D01*
X127314285Y-109227619D02*
X127361904Y-109180000D01*
X127457142Y-109132380D01*
X127695238Y-109132380D01*
X127790476Y-109180000D01*
X127838095Y-109227619D01*
X127885714Y-109322857D01*
X127885714Y-109418095D01*
X127838095Y-109560952D01*
X127266666Y-110132380D01*
X127885714Y-110132380D01*
%TO.C,D1*%
X117861904Y-110032380D02*
X117861904Y-109032380D01*
X118100000Y-109032380D01*
X118242857Y-109080000D01*
X118338095Y-109175238D01*
X118385714Y-109270476D01*
X118433333Y-109460952D01*
X118433333Y-109603809D01*
X118385714Y-109794285D01*
X118338095Y-109889523D01*
X118242857Y-109984761D01*
X118100000Y-110032380D01*
X117861904Y-110032380D01*
X119385714Y-110032380D02*
X118814285Y-110032380D01*
X119100000Y-110032380D02*
X119100000Y-109032380D01*
X119004761Y-109175238D01*
X118909523Y-109270476D01*
X118814285Y-109318095D01*
%TO.C,C15*%
X110807142Y-84342857D02*
X110854761Y-84390476D01*
X110902380Y-84533333D01*
X110902380Y-84628571D01*
X110854761Y-84771428D01*
X110759523Y-84866666D01*
X110664285Y-84914285D01*
X110473809Y-84961904D01*
X110330952Y-84961904D01*
X110140476Y-84914285D01*
X110045238Y-84866666D01*
X109950000Y-84771428D01*
X109902380Y-84628571D01*
X109902380Y-84533333D01*
X109950000Y-84390476D01*
X109997619Y-84342857D01*
X110902380Y-83390476D02*
X110902380Y-83961904D01*
X110902380Y-83676190D02*
X109902380Y-83676190D01*
X110045238Y-83771428D01*
X110140476Y-83866666D01*
X110188095Y-83961904D01*
X109902380Y-82485714D02*
X109902380Y-82961904D01*
X110378571Y-83009523D01*
X110330952Y-82961904D01*
X110283333Y-82866666D01*
X110283333Y-82628571D01*
X110330952Y-82533333D01*
X110378571Y-82485714D01*
X110473809Y-82438095D01*
X110711904Y-82438095D01*
X110807142Y-82485714D01*
X110854761Y-82533333D01*
X110902380Y-82628571D01*
X110902380Y-82866666D01*
X110854761Y-82961904D01*
X110807142Y-83009523D01*
%TO.C,C14*%
X154307142Y-103842857D02*
X154354761Y-103890476D01*
X154402380Y-104033333D01*
X154402380Y-104128571D01*
X154354761Y-104271428D01*
X154259523Y-104366666D01*
X154164285Y-104414285D01*
X153973809Y-104461904D01*
X153830952Y-104461904D01*
X153640476Y-104414285D01*
X153545238Y-104366666D01*
X153450000Y-104271428D01*
X153402380Y-104128571D01*
X153402380Y-104033333D01*
X153450000Y-103890476D01*
X153497619Y-103842857D01*
X154402380Y-102890476D02*
X154402380Y-103461904D01*
X154402380Y-103176190D02*
X153402380Y-103176190D01*
X153545238Y-103271428D01*
X153640476Y-103366666D01*
X153688095Y-103461904D01*
X153735714Y-102033333D02*
X154402380Y-102033333D01*
X153354761Y-102271428D02*
X154069047Y-102509523D01*
X154069047Y-101890476D01*
%TO.C,C13*%
X121157142Y-94592857D02*
X121204761Y-94640476D01*
X121252380Y-94783333D01*
X121252380Y-94878571D01*
X121204761Y-95021428D01*
X121109523Y-95116666D01*
X121014285Y-95164285D01*
X120823809Y-95211904D01*
X120680952Y-95211904D01*
X120490476Y-95164285D01*
X120395238Y-95116666D01*
X120300000Y-95021428D01*
X120252380Y-94878571D01*
X120252380Y-94783333D01*
X120300000Y-94640476D01*
X120347619Y-94592857D01*
X121252380Y-93640476D02*
X121252380Y-94211904D01*
X121252380Y-93926190D02*
X120252380Y-93926190D01*
X120395238Y-94021428D01*
X120490476Y-94116666D01*
X120538095Y-94211904D01*
X120252380Y-93307142D02*
X120252380Y-92688095D01*
X120633333Y-93021428D01*
X120633333Y-92878571D01*
X120680952Y-92783333D01*
X120728571Y-92735714D01*
X120823809Y-92688095D01*
X121061904Y-92688095D01*
X121157142Y-92735714D01*
X121204761Y-92783333D01*
X121252380Y-92878571D01*
X121252380Y-93164285D01*
X121204761Y-93259523D01*
X121157142Y-93307142D01*
%TO.C,C12*%
X121257142Y-90692857D02*
X121304761Y-90740476D01*
X121352380Y-90883333D01*
X121352380Y-90978571D01*
X121304761Y-91121428D01*
X121209523Y-91216666D01*
X121114285Y-91264285D01*
X120923809Y-91311904D01*
X120780952Y-91311904D01*
X120590476Y-91264285D01*
X120495238Y-91216666D01*
X120400000Y-91121428D01*
X120352380Y-90978571D01*
X120352380Y-90883333D01*
X120400000Y-90740476D01*
X120447619Y-90692857D01*
X121352380Y-89740476D02*
X121352380Y-90311904D01*
X121352380Y-90026190D02*
X120352380Y-90026190D01*
X120495238Y-90121428D01*
X120590476Y-90216666D01*
X120638095Y-90311904D01*
X120447619Y-89359523D02*
X120400000Y-89311904D01*
X120352380Y-89216666D01*
X120352380Y-88978571D01*
X120400000Y-88883333D01*
X120447619Y-88835714D01*
X120542857Y-88788095D01*
X120638095Y-88788095D01*
X120780952Y-88835714D01*
X121352380Y-89407142D01*
X121352380Y-88788095D01*
%TO.C,C4*%
X147182142Y-86341666D02*
X147229761Y-86389285D01*
X147277380Y-86532142D01*
X147277380Y-86627380D01*
X147229761Y-86770238D01*
X147134523Y-86865476D01*
X147039285Y-86913095D01*
X146848809Y-86960714D01*
X146705952Y-86960714D01*
X146515476Y-86913095D01*
X146420238Y-86865476D01*
X146325000Y-86770238D01*
X146277380Y-86627380D01*
X146277380Y-86532142D01*
X146325000Y-86389285D01*
X146372619Y-86341666D01*
X146610714Y-85484523D02*
X147277380Y-85484523D01*
X146229761Y-85722619D02*
X146944047Y-85960714D01*
X146944047Y-85341666D01*
%TO.C,C3*%
X147157142Y-84116666D02*
X147204761Y-84164285D01*
X147252380Y-84307142D01*
X147252380Y-84402380D01*
X147204761Y-84545238D01*
X147109523Y-84640476D01*
X147014285Y-84688095D01*
X146823809Y-84735714D01*
X146680952Y-84735714D01*
X146490476Y-84688095D01*
X146395238Y-84640476D01*
X146300000Y-84545238D01*
X146252380Y-84402380D01*
X146252380Y-84307142D01*
X146300000Y-84164285D01*
X146347619Y-84116666D01*
X146252380Y-83783333D02*
X146252380Y-83164285D01*
X146633333Y-83497619D01*
X146633333Y-83354761D01*
X146680952Y-83259523D01*
X146728571Y-83211904D01*
X146823809Y-83164285D01*
X147061904Y-83164285D01*
X147157142Y-83211904D01*
X147204761Y-83259523D01*
X147252380Y-83354761D01*
X147252380Y-83640476D01*
X147204761Y-83735714D01*
X147157142Y-83783333D01*
%TO.C,C2*%
X147182142Y-82141666D02*
X147229761Y-82189285D01*
X147277380Y-82332142D01*
X147277380Y-82427380D01*
X147229761Y-82570238D01*
X147134523Y-82665476D01*
X147039285Y-82713095D01*
X146848809Y-82760714D01*
X146705952Y-82760714D01*
X146515476Y-82713095D01*
X146420238Y-82665476D01*
X146325000Y-82570238D01*
X146277380Y-82427380D01*
X146277380Y-82332142D01*
X146325000Y-82189285D01*
X146372619Y-82141666D01*
X146372619Y-81760714D02*
X146325000Y-81713095D01*
X146277380Y-81617857D01*
X146277380Y-81379761D01*
X146325000Y-81284523D01*
X146372619Y-81236904D01*
X146467857Y-81189285D01*
X146563095Y-81189285D01*
X146705952Y-81236904D01*
X147277380Y-81808333D01*
X147277380Y-81189285D01*
%TO.C,C16*%
X133057142Y-101407142D02*
X133009523Y-101454761D01*
X132866666Y-101502380D01*
X132771428Y-101502380D01*
X132628571Y-101454761D01*
X132533333Y-101359523D01*
X132485714Y-101264285D01*
X132438095Y-101073809D01*
X132438095Y-100930952D01*
X132485714Y-100740476D01*
X132533333Y-100645238D01*
X132628571Y-100550000D01*
X132771428Y-100502380D01*
X132866666Y-100502380D01*
X133009523Y-100550000D01*
X133057142Y-100597619D01*
X134009523Y-101502380D02*
X133438095Y-101502380D01*
X133723809Y-101502380D02*
X133723809Y-100502380D01*
X133628571Y-100645238D01*
X133533333Y-100740476D01*
X133438095Y-100788095D01*
X134866666Y-100502380D02*
X134676190Y-100502380D01*
X134580952Y-100550000D01*
X134533333Y-100597619D01*
X134438095Y-100740476D01*
X134390476Y-100930952D01*
X134390476Y-101311904D01*
X134438095Y-101407142D01*
X134485714Y-101454761D01*
X134580952Y-101502380D01*
X134771428Y-101502380D01*
X134866666Y-101454761D01*
X134914285Y-101407142D01*
X134961904Y-101311904D01*
X134961904Y-101073809D01*
X134914285Y-100978571D01*
X134866666Y-100930952D01*
X134771428Y-100883333D01*
X134580952Y-100883333D01*
X134485714Y-100930952D01*
X134438095Y-100978571D01*
X134390476Y-101073809D01*
%TO.C,C17*%
X142057142Y-90207142D02*
X142009523Y-90254761D01*
X141866666Y-90302380D01*
X141771428Y-90302380D01*
X141628571Y-90254761D01*
X141533333Y-90159523D01*
X141485714Y-90064285D01*
X141438095Y-89873809D01*
X141438095Y-89730952D01*
X141485714Y-89540476D01*
X141533333Y-89445238D01*
X141628571Y-89350000D01*
X141771428Y-89302380D01*
X141866666Y-89302380D01*
X142009523Y-89350000D01*
X142057142Y-89397619D01*
X143009523Y-90302380D02*
X142438095Y-90302380D01*
X142723809Y-90302380D02*
X142723809Y-89302380D01*
X142628571Y-89445238D01*
X142533333Y-89540476D01*
X142438095Y-89588095D01*
X143342857Y-89302380D02*
X144009523Y-89302380D01*
X143580952Y-90302380D01*
%TO.C,U7*%
X118188095Y-93002380D02*
X118188095Y-93811904D01*
X118235714Y-93907142D01*
X118283333Y-93954761D01*
X118378571Y-94002380D01*
X118569047Y-94002380D01*
X118664285Y-93954761D01*
X118711904Y-93907142D01*
X118759523Y-93811904D01*
X118759523Y-93002380D01*
X119140476Y-93002380D02*
X119807142Y-93002380D01*
X119378571Y-94002380D01*
%TO.C,U8*%
X118088095Y-94302380D02*
X118088095Y-95111904D01*
X118135714Y-95207142D01*
X118183333Y-95254761D01*
X118278571Y-95302380D01*
X118469047Y-95302380D01*
X118564285Y-95254761D01*
X118611904Y-95207142D01*
X118659523Y-95111904D01*
X118659523Y-94302380D01*
X119278571Y-94730952D02*
X119183333Y-94683333D01*
X119135714Y-94635714D01*
X119088095Y-94540476D01*
X119088095Y-94492857D01*
X119135714Y-94397619D01*
X119183333Y-94350000D01*
X119278571Y-94302380D01*
X119469047Y-94302380D01*
X119564285Y-94350000D01*
X119611904Y-94397619D01*
X119659523Y-94492857D01*
X119659523Y-94540476D01*
X119611904Y-94635714D01*
X119564285Y-94683333D01*
X119469047Y-94730952D01*
X119278571Y-94730952D01*
X119183333Y-94778571D01*
X119135714Y-94826190D01*
X119088095Y-94921428D01*
X119088095Y-95111904D01*
X119135714Y-95207142D01*
X119183333Y-95254761D01*
X119278571Y-95302380D01*
X119469047Y-95302380D01*
X119564285Y-95254761D01*
X119611904Y-95207142D01*
X119659523Y-95111904D01*
X119659523Y-94921428D01*
X119611904Y-94826190D01*
X119564285Y-94778571D01*
X119469047Y-94730952D01*
%TO.C,F1*%
X168316666Y-79628571D02*
X167983333Y-79628571D01*
X167983333Y-80152380D02*
X167983333Y-79152380D01*
X168459523Y-79152380D01*
X169364285Y-80152380D02*
X168792857Y-80152380D01*
X169078571Y-80152380D02*
X169078571Y-79152380D01*
X168983333Y-79295238D01*
X168888095Y-79390476D01*
X168792857Y-79438095D01*
%TO.C,F2*%
X166866666Y-81028571D02*
X166533333Y-81028571D01*
X166533333Y-81552380D02*
X166533333Y-80552380D01*
X167009523Y-80552380D01*
X167342857Y-80647619D02*
X167390476Y-80600000D01*
X167485714Y-80552380D01*
X167723809Y-80552380D01*
X167819047Y-80600000D01*
X167866666Y-80647619D01*
X167914285Y-80742857D01*
X167914285Y-80838095D01*
X167866666Y-80980952D01*
X167295238Y-81552380D01*
X167914285Y-81552380D01*
%TO.C,J9*%
X178316666Y-75702380D02*
X178316666Y-76416666D01*
X178269047Y-76559523D01*
X178173809Y-76654761D01*
X178030952Y-76702380D01*
X177935714Y-76702380D01*
X178840476Y-76702380D02*
X179030952Y-76702380D01*
X179126190Y-76654761D01*
X179173809Y-76607142D01*
X179269047Y-76464285D01*
X179316666Y-76273809D01*
X179316666Y-75892857D01*
X179269047Y-75797619D01*
X179221428Y-75750000D01*
X179126190Y-75702380D01*
X178935714Y-75702380D01*
X178840476Y-75750000D01*
X178792857Y-75797619D01*
X178745238Y-75892857D01*
X178745238Y-76130952D01*
X178792857Y-76226190D01*
X178840476Y-76273809D01*
X178935714Y-76321428D01*
X179126190Y-76321428D01*
X179221428Y-76273809D01*
X179269047Y-76226190D01*
X179316666Y-76130952D01*
%TO.C,D10*%
X177085714Y-92802380D02*
X177085714Y-91802380D01*
X177323809Y-91802380D01*
X177466666Y-91850000D01*
X177561904Y-91945238D01*
X177609523Y-92040476D01*
X177657142Y-92230952D01*
X177657142Y-92373809D01*
X177609523Y-92564285D01*
X177561904Y-92659523D01*
X177466666Y-92754761D01*
X177323809Y-92802380D01*
X177085714Y-92802380D01*
X178609523Y-92802380D02*
X178038095Y-92802380D01*
X178323809Y-92802380D02*
X178323809Y-91802380D01*
X178228571Y-91945238D01*
X178133333Y-92040476D01*
X178038095Y-92088095D01*
X179228571Y-91802380D02*
X179323809Y-91802380D01*
X179419047Y-91850000D01*
X179466666Y-91897619D01*
X179514285Y-91992857D01*
X179561904Y-92183333D01*
X179561904Y-92421428D01*
X179514285Y-92611904D01*
X179466666Y-92707142D01*
X179419047Y-92754761D01*
X179323809Y-92802380D01*
X179228571Y-92802380D01*
X179133333Y-92754761D01*
X179085714Y-92707142D01*
X179038095Y-92611904D01*
X178990476Y-92421428D01*
X178990476Y-92183333D01*
X179038095Y-91992857D01*
X179085714Y-91897619D01*
X179133333Y-91850000D01*
X179228571Y-91802380D01*
%TO.C,D16*%
X171935714Y-96652380D02*
X171935714Y-95652380D01*
X172173809Y-95652380D01*
X172316666Y-95700000D01*
X172411904Y-95795238D01*
X172459523Y-95890476D01*
X172507142Y-96080952D01*
X172507142Y-96223809D01*
X172459523Y-96414285D01*
X172411904Y-96509523D01*
X172316666Y-96604761D01*
X172173809Y-96652380D01*
X171935714Y-96652380D01*
X173459523Y-96652380D02*
X172888095Y-96652380D01*
X173173809Y-96652380D02*
X173173809Y-95652380D01*
X173078571Y-95795238D01*
X172983333Y-95890476D01*
X172888095Y-95938095D01*
X174316666Y-95652380D02*
X174126190Y-95652380D01*
X174030952Y-95700000D01*
X173983333Y-95747619D01*
X173888095Y-95890476D01*
X173840476Y-96080952D01*
X173840476Y-96461904D01*
X173888095Y-96557142D01*
X173935714Y-96604761D01*
X174030952Y-96652380D01*
X174221428Y-96652380D01*
X174316666Y-96604761D01*
X174364285Y-96557142D01*
X174411904Y-96461904D01*
X174411904Y-96223809D01*
X174364285Y-96128571D01*
X174316666Y-96080952D01*
X174221428Y-96033333D01*
X174030952Y-96033333D01*
X173935714Y-96080952D01*
X173888095Y-96128571D01*
X173840476Y-96223809D01*
%TO.C,J10*%
X181290476Y-81352380D02*
X181290476Y-82066666D01*
X181242857Y-82209523D01*
X181147619Y-82304761D01*
X181004761Y-82352380D01*
X180909523Y-82352380D01*
X182290476Y-82352380D02*
X181719047Y-82352380D01*
X182004761Y-82352380D02*
X182004761Y-81352380D01*
X181909523Y-81495238D01*
X181814285Y-81590476D01*
X181719047Y-81638095D01*
X182909523Y-81352380D02*
X183004761Y-81352380D01*
X183100000Y-81400000D01*
X183147619Y-81447619D01*
X183195238Y-81542857D01*
X183242857Y-81733333D01*
X183242857Y-81971428D01*
X183195238Y-82161904D01*
X183147619Y-82257142D01*
X183100000Y-82304761D01*
X183004761Y-82352380D01*
X182909523Y-82352380D01*
X182814285Y-82304761D01*
X182766666Y-82257142D01*
X182719047Y-82161904D01*
X182671428Y-81971428D01*
X182671428Y-81733333D01*
X182719047Y-81542857D01*
X182766666Y-81447619D01*
X182814285Y-81400000D01*
X182909523Y-81352380D01*
%TO.C,J16*%
X181140476Y-94202380D02*
X181140476Y-94916666D01*
X181092857Y-95059523D01*
X180997619Y-95154761D01*
X180854761Y-95202380D01*
X180759523Y-95202380D01*
X182140476Y-95202380D02*
X181569047Y-95202380D01*
X181854761Y-95202380D02*
X181854761Y-94202380D01*
X181759523Y-94345238D01*
X181664285Y-94440476D01*
X181569047Y-94488095D01*
X182997619Y-94202380D02*
X182807142Y-94202380D01*
X182711904Y-94250000D01*
X182664285Y-94297619D01*
X182569047Y-94440476D01*
X182521428Y-94630952D01*
X182521428Y-95011904D01*
X182569047Y-95107142D01*
X182616666Y-95154761D01*
X182711904Y-95202380D01*
X182902380Y-95202380D01*
X182997619Y-95154761D01*
X183045238Y-95107142D01*
X183092857Y-95011904D01*
X183092857Y-94773809D01*
X183045238Y-94678571D01*
X182997619Y-94630952D01*
X182902380Y-94583333D01*
X182711904Y-94583333D01*
X182616666Y-94630952D01*
X182569047Y-94678571D01*
X182521428Y-94773809D01*
%TO.C,Q1*%
X159054761Y-93847619D02*
X158959523Y-93800000D01*
X158864285Y-93704761D01*
X158721428Y-93561904D01*
X158626190Y-93514285D01*
X158530952Y-93514285D01*
X158578571Y-93752380D02*
X158483333Y-93704761D01*
X158388095Y-93609523D01*
X158340476Y-93419047D01*
X158340476Y-93085714D01*
X158388095Y-92895238D01*
X158483333Y-92800000D01*
X158578571Y-92752380D01*
X158769047Y-92752380D01*
X158864285Y-92800000D01*
X158959523Y-92895238D01*
X159007142Y-93085714D01*
X159007142Y-93419047D01*
X158959523Y-93609523D01*
X158864285Y-93704761D01*
X158769047Y-93752380D01*
X158578571Y-93752380D01*
X159959523Y-93752380D02*
X159388095Y-93752380D01*
X159673809Y-93752380D02*
X159673809Y-92752380D01*
X159578571Y-92895238D01*
X159483333Y-92990476D01*
X159388095Y-93038095D01*
%TO.C,Q2*%
X170304761Y-106697619D02*
X170209523Y-106650000D01*
X170114285Y-106554761D01*
X169971428Y-106411904D01*
X169876190Y-106364285D01*
X169780952Y-106364285D01*
X169828571Y-106602380D02*
X169733333Y-106554761D01*
X169638095Y-106459523D01*
X169590476Y-106269047D01*
X169590476Y-105935714D01*
X169638095Y-105745238D01*
X169733333Y-105650000D01*
X169828571Y-105602380D01*
X170019047Y-105602380D01*
X170114285Y-105650000D01*
X170209523Y-105745238D01*
X170257142Y-105935714D01*
X170257142Y-106269047D01*
X170209523Y-106459523D01*
X170114285Y-106554761D01*
X170019047Y-106602380D01*
X169828571Y-106602380D01*
X170638095Y-105697619D02*
X170685714Y-105650000D01*
X170780952Y-105602380D01*
X171019047Y-105602380D01*
X171114285Y-105650000D01*
X171161904Y-105697619D01*
X171209523Y-105792857D01*
X171209523Y-105888095D01*
X171161904Y-106030952D01*
X170590476Y-106602380D01*
X171209523Y-106602380D01*
%TO.C,R38*%
X172707142Y-93352380D02*
X172373809Y-92876190D01*
X172135714Y-93352380D02*
X172135714Y-92352380D01*
X172516666Y-92352380D01*
X172611904Y-92400000D01*
X172659523Y-92447619D01*
X172707142Y-92542857D01*
X172707142Y-92685714D01*
X172659523Y-92780952D01*
X172611904Y-92828571D01*
X172516666Y-92876190D01*
X172135714Y-92876190D01*
X173040476Y-92352380D02*
X173659523Y-92352380D01*
X173326190Y-92733333D01*
X173469047Y-92733333D01*
X173564285Y-92780952D01*
X173611904Y-92828571D01*
X173659523Y-92923809D01*
X173659523Y-93161904D01*
X173611904Y-93257142D01*
X173564285Y-93304761D01*
X173469047Y-93352380D01*
X173183333Y-93352380D01*
X173088095Y-93304761D01*
X173040476Y-93257142D01*
X174230952Y-92780952D02*
X174135714Y-92733333D01*
X174088095Y-92685714D01*
X174040476Y-92590476D01*
X174040476Y-92542857D01*
X174088095Y-92447619D01*
X174135714Y-92400000D01*
X174230952Y-92352380D01*
X174421428Y-92352380D01*
X174516666Y-92400000D01*
X174564285Y-92447619D01*
X174611904Y-92542857D01*
X174611904Y-92590476D01*
X174564285Y-92685714D01*
X174516666Y-92733333D01*
X174421428Y-92780952D01*
X174230952Y-92780952D01*
X174135714Y-92828571D01*
X174088095Y-92876190D01*
X174040476Y-92971428D01*
X174040476Y-93161904D01*
X174088095Y-93257142D01*
X174135714Y-93304761D01*
X174230952Y-93352380D01*
X174421428Y-93352380D01*
X174516666Y-93304761D01*
X174564285Y-93257142D01*
X174611904Y-93161904D01*
X174611904Y-92971428D01*
X174564285Y-92876190D01*
X174516666Y-92828571D01*
X174421428Y-92780952D01*
%TO.C,R39*%
X172607142Y-83902380D02*
X172273809Y-83426190D01*
X172035714Y-83902380D02*
X172035714Y-82902380D01*
X172416666Y-82902380D01*
X172511904Y-82950000D01*
X172559523Y-82997619D01*
X172607142Y-83092857D01*
X172607142Y-83235714D01*
X172559523Y-83330952D01*
X172511904Y-83378571D01*
X172416666Y-83426190D01*
X172035714Y-83426190D01*
X172940476Y-82902380D02*
X173559523Y-82902380D01*
X173226190Y-83283333D01*
X173369047Y-83283333D01*
X173464285Y-83330952D01*
X173511904Y-83378571D01*
X173559523Y-83473809D01*
X173559523Y-83711904D01*
X173511904Y-83807142D01*
X173464285Y-83854761D01*
X173369047Y-83902380D01*
X173083333Y-83902380D01*
X172988095Y-83854761D01*
X172940476Y-83807142D01*
X174035714Y-83902380D02*
X174226190Y-83902380D01*
X174321428Y-83854761D01*
X174369047Y-83807142D01*
X174464285Y-83664285D01*
X174511904Y-83473809D01*
X174511904Y-83092857D01*
X174464285Y-82997619D01*
X174416666Y-82950000D01*
X174321428Y-82902380D01*
X174130952Y-82902380D01*
X174035714Y-82950000D01*
X173988095Y-82997619D01*
X173940476Y-83092857D01*
X173940476Y-83330952D01*
X173988095Y-83426190D01*
X174035714Y-83473809D01*
X174130952Y-83521428D01*
X174321428Y-83521428D01*
X174416666Y-83473809D01*
X174464285Y-83426190D01*
X174511904Y-83330952D01*
%TO.C,R40*%
X156657142Y-77927380D02*
X156323809Y-77451190D01*
X156085714Y-77927380D02*
X156085714Y-76927380D01*
X156466666Y-76927380D01*
X156561904Y-76975000D01*
X156609523Y-77022619D01*
X156657142Y-77117857D01*
X156657142Y-77260714D01*
X156609523Y-77355952D01*
X156561904Y-77403571D01*
X156466666Y-77451190D01*
X156085714Y-77451190D01*
X157514285Y-77260714D02*
X157514285Y-77927380D01*
X157276190Y-76879761D02*
X157038095Y-77594047D01*
X157657142Y-77594047D01*
X158228571Y-76927380D02*
X158323809Y-76927380D01*
X158419047Y-76975000D01*
X158466666Y-77022619D01*
X158514285Y-77117857D01*
X158561904Y-77308333D01*
X158561904Y-77546428D01*
X158514285Y-77736904D01*
X158466666Y-77832142D01*
X158419047Y-77879761D01*
X158323809Y-77927380D01*
X158228571Y-77927380D01*
X158133333Y-77879761D01*
X158085714Y-77832142D01*
X158038095Y-77736904D01*
X157990476Y-77546428D01*
X157990476Y-77308333D01*
X158038095Y-77117857D01*
X158085714Y-77022619D01*
X158133333Y-76975000D01*
X158228571Y-76927380D01*
%TD*%
M02*
